<?xml version="1.0" encoding="UTF-8" standalone="no"?>
<!-- Created with Inkscape (http://www.inkscape.org/) -->

<svg
   xmlns:dc="http://purl.org/dc/elements/1.1/"
   xmlns:cc="http://creativecommons.org/ns#"
   xmlns:rdf="http://www.w3.org/1999/02/22-rdf-syntax-ns#"
   xmlns:svg="http://www.w3.org/2000/svg"
   xmlns="http://www.w3.org/2000/svg"
   xmlns:sodipodi="http://sodipodi.sourceforge.net/DTD/sodipodi-0.dtd"
   xmlns:inkscape="http://www.inkscape.org/namespaces/inkscape"
   width="319.2449"
   height="261.02646"
   id="svg2"
   sodipodi:version="0.32"
   inkscape:version="0.47 r22583"
   sodipodi:docname="BelgieGemeenschappenkaart.svg"
   inkscape:output_extension="org.inkscape.output.svg.inkscape"
   version="1.0">
  <defs
     id="defs4">
    <inkscape:perspective
       sodipodi:type="inkscape:persp3d"
       inkscape:vp_x="0 : 526.18109 : 1"
       inkscape:vp_y="0 : 1000 : 0"
       inkscape:vp_z="744.09448 : 526.18109 : 1"
       inkscape:persp3d-origin="372.04724 : 350.78739 : 1"
       id="perspective10" />
    <inkscape:perspective
       id="perspective2390"
       inkscape:persp3d-origin="372.04724 : 350.78739 : 1"
       inkscape:vp_z="744.09448 : 526.18109 : 1"
       inkscape:vp_y="0 : 1000 : 0"
       inkscape:vp_x="0 : 526.18109 : 1"
       sodipodi:type="inkscape:persp3d" />
    <inkscape:perspective
       id="perspective2423"
       inkscape:persp3d-origin="372.04724 : 350.78739 : 1"
       inkscape:vp_z="744.09448 : 526.18109 : 1"
       inkscape:vp_y="0 : 1000 : 0"
       inkscape:vp_x="0 : 526.18109 : 1"
       sodipodi:type="inkscape:persp3d" />
  </defs>
  <sodipodi:namedview
     id="base"
     pagecolor="#ffffff"
     bordercolor="#666666"
     borderopacity="1.0"
     inkscape:pageopacity="0.0"
     inkscape:pageshadow="2"
     inkscape:zoom="8.2252645"
     inkscape:cx="144.36935"
     inkscape:cy="152.77946"
     inkscape:document-units="px"
     inkscape:current-layer="layer1"
     showgrid="false"
     inkscape:window-width="1280"
     inkscape:window-height="738"
     inkscape:window-x="-8"
     inkscape:window-y="-8"
     inkscape:window-maximized="0" />
  <metadata
     id="metadata7">
    <rdf:RDF>
      <cc:Work
         rdf:about="">
        <dc:format>image/svg+xml</dc:format>
        <dc:type
           rdf:resource="http://purl.org/dc/dcmitype/StillImage" />
      </cc:Work>
    </rdf:RDF>
  </metadata>
  <g
     inkscape:label="Ebene 1"
     inkscape:groupmode="layer"
     id="layer1"
     transform="translate(-232.38834,-114.27921)">
    <path
       d="M 413.58276,114.5642 L 413.0719,114.87121 L 412.45848,116.0974 L 411.23169,116.77856 L 410.65307,118.17626 L 409.97131,118.78905 L 409.18762,118.85741 L 409.15343,119.06128 L 407.79052,121.20726 L 406.25732,122.0935 L 406.18957,124.34265 L 405.03112,124.37621 L 403.46435,124.54711 L 403.12316,124.37621 L 398.9331,123.55834 L 395.49193,124.64842 L 395.04882,120.93505 L 396.27563,118.31238 L 395.2539,117.18749 L 391.09741,117.76611 L 390.00732,117.9718 L 389.49646,118.55041 L 387.8601,118.85741 L 382.6477,121.61681 L 384.04419,122.0935 L 384.01122,123.15001 L 384.31701,123.25134 L 384.01122,124.00146 L 383.43079,124.88769 L 383.05602,125.09216 L 383.87329,127.10144 L 385.74829,129.41894 L 387.04224,130.95214 L 386.36107,131.56432 L 386.22497,132.51891 L 383.02246,133.88183 L 381.96655,133.40454 L 381.28478,133.37096 L 380.60364,133.4381 L 379.7174,133.40454 L 378.89954,130.78124 L 370.04211,131.29271 L 370.38268,132.62084 L 370.9613,133.57544 L 371.33666,133.81348 L 365.71471,141.61499 L 357.16309,147.71423 L 356.92444,148.15674 L 355.1538,148.53149 L 354.77843,148.19091 L 354.40368,148.39599 L 353.89342,148.42956 L 353.3136,148.19091 L 351.84875,149.04235 L 350.62255,149.99572 L 350.04333,150.71228 L 348.98681,150.88256 L 348.47472,151.80175 L 347.69165,151.83715 L 347.4884,152.0758 L 346.63635,152.41515 L 345.98815,151.35925 L 345.00061,152.0758 L 345.00061,152.92663 L 342.88878,153.5736 L 342.51342,153.77808 L 341.86645,152.99499 L 342.99011,151.56371 L 342.7185,150.88256 L 340.26488,152.51709 L 339.65087,152.24486 L 338.66393,152.14294 L 337.88025,152.55249 L 336.82372,152.44995 L 335.66467,152.58544 L 334.77966,151.97265 L 334.71191,147.37304 L 335.25635,146.45263 L 333.62182,145.7373 L 333.00781,145.77086 L 332.53112,145.56823 L 331.67907,144.71557 L 329.32861,144.16991 L 328.64806,144.41039 L 327.21678,144.00024 L 326.56921,143.31909 L 325.75134,143.18298 L 324.83154,142.43285 L 324.08141,142.09166 L 322.82165,142.02453 L 322.54944,142.12646 L 320.98205,141.58141 L 320.64086,141.17186 L 318.56322,140.0476 L 318.42651,139.98046 L 317.81371,140.59325 L 318.01696,141.24084 L 318.05236,141.68395 L 317.1997,142.02453 L 316.85912,141.54724 L 315.87157,141.54724 L 315.59814,141.95556 L 314.64538,141.88842 L 313.5199,142.09166 L 312.43041,142.19481 L 312.63427,144.10278 L 312.94127,144.64842 L 313.2135,147.50915 L 312.25951,147.64586 L 308.34167,148.19091 L 306.67236,148.29345 L 305.85449,147.88451 L 305.07141,147.40723 L 304.69603,146.28295 L 303.70848,146.18103 L 303.43566,145.9082 L 302.72095,145.09094 L 302.38036,144.74914 L 301.80053,144.2047 L 301.59606,144.54529 L 301.25487,143.79578 L 301.45996,142.80761 L 301.18652,141.85362 L 300.36926,141.4453 L 300.40343,140.42358 L 301.01684,140.15075 L 301.01684,140.01404 L 300.7788,139.776 L 299.65454,138.31054 L 301.45996,136.26709 L 301.76575,135.68664 L 301.22131,134.59716 L 300.91491,133.77929 L 300.74462,132.3828 L 300.26732,131.01928 L 296.9281,132.0758 L 295.87218,132.21251 L 293.11217,133.40454 L 290.55786,134.29015 L 287.66174,134.8352 L 282.92663,136.8457 L 279.45067,137.96935 L 278.80371,138.10608 L 277.7124,138.61755 L 276.48681,139.26453 L 274.34081,141.17186 L 272.39867,142.39929 L 271.85302,142.84179 L 269.1626,144.61302 L 265.65307,146.89635 L 263.71032,147.88451 L 259.04235,151.18956 L 257.06726,152.44995 L 253.79577,154.56176 L 251.51427,156.06079 L 249.40185,157.25341 L 247.1875,158.17321 L 245.79101,159.40001 L 241.73522,161.1029 L 237.74902,163.69263 L 235.53588,164.74853 L 232.67333,166.14501 L 233.52477,168.1549 L 233.7976,168.9392 L 233.96729,169.96154 L 234.03625,171.56249 L 234.88708,176.33178 L 234.5813,177.25158 L 234.85412,178.1726 L 237.00012,179.63622 L 237.40845,179.60326 L 237.4768,180.69335 L 237.78442,181.88538 L 238.29528,182.46581 L 238.63463,183.35082 L 239.01001,184.57702 L 239.41893,185.56456 L 238.53332,185.93994 L 238.0896,186.85974 L 237.44385,190.30029 L 237.54577,191.90124 L 237.27295,192.44689 L 237.23815,192.92357 L 237.54577,193.9807 L 237.23815,194.55993 L 237.74902,195.95703 L 236.62659,197.28515 L 237.10326,198.13659 L 237.91991,198.17016 L 238.02246,199.53369 L 238.63463,199.84069 L 239.21447,202.7362 L 240.98632,202.94066 L 241.32751,202.70263 L 242.21252,201.85119 L 242.92846,202.83812 L 245.34728,202.87352 L 245.75622,202.63366 L 246.53868,203.31481 L 246.43798,204.20165 L 246.67602,205.29174 L 248.17505,207.23327 L 248.92456,207.84668 L 249.09485,208.25622 L 249.63988,208.42651 L 249.70763,209.82299 L 249.81017,210.77697 L 251.3092,211.28723 L 251.13891,212.44629 L 251.65038,213.43444 L 251.65038,214.21752 L 254.13696,215.98876 L 255.39733,215.44433 L 256.11327,215.23986 L 256.52221,215.17211 L 257.74902,216.50024 L 258.29345,216.2622 L 257.68066,215.03479 L 257.1698,214.86571 L 256.28295,213.22936 L 256.89697,212.68433 L 256.24938,211.18591 L 256.89697,210.94726 L 257.1698,210.50414 L 258.39598,210.2655 L 258.56627,210.8789 L 259.21263,210.84533 L 259.31579,210.09521 L 259.69116,210.46996 L 259.8944,211.01561 L 262.58666,210.67444 L 262.51891,209.75464 L 263.40392,209.3457 L 263.88061,209.0393 L 264.56176,208.5968 L 265.92467,208.5614 L 265.85753,207.47131 L 265.37964,207.06299 L 264.86877,206.24572 L 264.08569,205.97229 L 264.08569,205.76843 L 265.27771,205.46203 L 265.72082,205.4956 L 266.19811,205.0531 L 266.70837,204.78088 L 267.76488,204.54163 L 268.9917,204.03075 L 269.43481,204.40551 L 270.45592,204.64416 L 270.21789,205.1892 L 270.0824,205.8374 L 270.32103,206.55211 L 270.25207,207.33581 L 270.66161,207.40416 L 271.37633,207.74475 L 271.8872,208.08533 L 271.34337,208.25622 L 271.7511,209.24316 L 272.53417,208.52844 L 273.35205,208.18786 L 274.0332,207.74475 L 274.57885,208.05052 L 275.09032,208.66455 L 275.94116,209.00513 L 276.35131,208.90257 L 277.10021,208.22143 L 278.12195,207.6422 L 278.08898,206.96044 L 278.42895,206.07544 L 279.5874,207.23327 L 281.49536,207.40416 L 282.00622,208.49425 L 282.75635,209.92493 L 283.06212,210.94726 L 283.77746,211.25365 L 284.28832,211.01561 L 284.76501,211.08336 L 285.48095,210.67444 L 286.06079,210.53832 L 286.77551,210.06103 L 287.62756,209.89013 L 288.61572,210.46996 L 289.46655,210.94726 L 290.18248,211.56066 L 290.65978,211.66259 L 291.4093,211.83226 L 292.12462,211.73095 L 292.90893,211.69738 L 293.11217,212.03735 L 293.93066,211.3562 L 294.3396,211.49169 L 295.66833,213.33129 L 295.73668,214.01305 L 296.14501,214.62585 L 295.77026,215.44433 L 296.69006,216.05713 L 297.2351,216.29516 L 297.74596,216.53381 L 298.12072,216.80725 L 298.73474,217.182 L 298.97277,216.53381 L 299.2456,215.88745 L 299.79065,215.06958 L 301.66381,214.49035 L 302.20886,213.84338 L 302.34496,213.26415 L 302.4823,212.82104 L 302.78809,212.583 L 304.01488,212.68433 L 304.42382,212.30956 L 304.7644,212.17345 L 304.90172,211.52649 L 305.13976,211.39038 L 305.07141,210.8789 L 305.2069,210.8789 L 305.6842,211.18591 L 306.1621,211.28723 L 306.36596,210.91308 L 306.56982,210.16356 L 306.63878,209.68689 L 306.97936,210.19775 L 307.72826,210.64025 L 308.47839,211.11755 L 309.32982,211.04919 L 309.6698,211.11755 L 310.96557,210.91308 L 312.80517,210.33385 L 313.17931,211.15173 L 313.89526,212.88879 L 313.86107,213.43444 L 313.48694,214.28589 L 313.58886,214.45618 L 314.47387,214.35424 L 314.88342,214.42199 L 315.42846,214.96704 L 315.73486,215.10375 L 316.55333,214.96704 L 316.82495,215.00183 L 317.43773,215.17211 L 317.94982,214.96704 L 318.80126,214.62585 L 319.27856,214.69481 L 319.85717,215.58044 L 320.50476,216.02416 L 321.69738,215.92163 L 322.03796,213.9453 L 323.36608,212.37793 L 323.43505,211.66259 L 324.18456,211.45751 L 324.4574,210.64025 L 324.66125,210.46996 L 324.93346,209.75464 L 326.1261,209.3457 L 326.36473,209.31151 L 327.35228,208.5614 L 327.6593,208.73229 L 327.9663,209.37988 L 328.03405,209.95849 L 329.32861,209.75464 L 329.84008,209.82299 L 330.38512,209.27856 L 330.93017,209.20897 L 331.13402,208.73229 L 331.54357,208.5968 L 331.10046,209.44885 L 331.61194,210.19775 L 331.74743,211.04919 L 332.46276,211.52649 L 332.80395,212.65075 L 333.28125,212.61658 L 333.68957,212.68433 L 335.01831,212.51404 L 336.1084,212.44629 L 336.2445,212.5476 L 336.44897,213.1958 L 336.92626,213.22936 L 337.13074,213.39965 L 337.70996,213.36609 L 337.9486,213.53576 L 338.69811,212.95715 L 338.93615,212.85461 L 339.20897,212.583 L 339.41283,212.7185 L 339.58373,212.61658 L 339.58373,212.24243 L 339.68627,212.276 L 339.85656,212.48046 L 340.02685,212.37793 L 340.19714,212.65075 L 340.708,212.65075 L 341.45812,212.30956 L 341.56005,212.20764 L 342.17285,212.92357 L 342.24121,213.12744 L 342.24121,213.43444 L 342.47985,213.6383 L 342.64954,214.1156 L 342.30896,214.42199 L 342.41089,214.86571 L 342.47985,214.89929 L 342.34375,215.13733 L 342.5476,215.41015 L 342.47985,215.81848 L 342.24121,215.95459 L 342.20702,216.7047 L 342.13927,217.59094 L 342.78686,217.72705 L 343.02551,217.65869 L 343.39905,218.44299 L 344.04724,219.08996 L 344.04724,219.56664 L 343.97826,219.73632 L 344.21752,219.80467 L 344.69421,219.63439 L 345.00061,219.56664 L 345.23925,219.39635 L 345.47728,219.39635 L 345.47728,219.80467 L 345.40954,219.97497 L 345.64819,220.04332 L 345.95458,220.28136 L 346.60217,220.38451 L 346.73766,220.28136 L 347.07825,220.28136 L 347.31688,220.38451 L 348.16955,220.38451 L 348.47472,220.21361 L 348.95202,220.21361 L 349.43053,220.52062 L 350.0769,220.62255 L 350.55297,220.45288 L 351.27013,219.80467 L 351.50817,219.39635 L 351.91589,219.25964 L 352.2229,219.25964 L 352.46155,219.49829 L 352.63243,219.80467 L 353.0072,219.73632 L 353.24523,219.90783 L 353.89342,219.73632 L 354.43786,219.39635 L 354.91576,219.08996 L 355.32349,218.85131 L 355.56152,218.78295 L 355.69885,218.85131 L 355.86914,219.08996 L 356.03942,219.73632 L 357.26562,217.72705 L 358.11829,217.59094 L 358.62853,217.82959 L 359.03747,217.99926 L 359.61731,218.20373 L 359.71862,217.99926 L 360.05858,217.72705 L 360.19592,217.45421 L 360.26427,217.182 L 360.5371,216.94396 L 360.60425,217.52258 L 360.6726,217.55554 L 361.11572,217.55554 L 361.4563,217.42065 L 361.79749,217.182 L 362.06908,217.11425 L 362.44445,217.0111 L 362.47802,216.97693 L 362.64831,216.67052 L 362.88696,216.32995 L 362.95592,215.7849 L 363.15978,215.44433 L 363.53454,215.30761 L 363.50036,215.75072 L 363.84155,215.81848 L 364.0802,215.81848 L 364.3518,215.71655 L 364.31824,215.58044 L 364.0802,215.3424 L 364.28466,215.3424 L 364.69299,215.51269 L 364.8291,215.88745 L 364.96521,215.98876 L 365.27221,216.15966 L 365.54442,216.32995 L 365.57861,216.29516 L 365.71471,216.63635 L 365.78368,216.8756 L 366.22559,217.7954 L 366.39647,218.17016 L 367.04345,218.13538 L 370.34851,219.29381 L 370.72326,219.49829 L 370.9613,219.97497 L 371.40502,220.38451 L 371.77917,220.48644 L 372.15392,220.07751 L 372.39257,219.80467 L 372.52928,219.56664 L 372.83569,219.19189 L 373.04016,218.91906 L 373.48266,219.12352 L 373.82385,219.05518 L 374.33471,219.05518 L 374.91332,219.29381 L 375.1184,219.39635 L 375.35705,219.90783 L 376.20848,219.36218 L 376.651,219.12352 L 376.92382,219.15771 L 376.99157,218.95324 L 377.06053,218.57849 L 377.02636,218.2373 L 376.99157,217.96569 L 377.12829,217.72705 L 377.12829,217.14783 L 377.16247,217.0111 L 377.23022,216.73889 L 377.26501,216.50024 L 377.77587,216.39831 L 377.91199,216.46666 L 378.42346,216.8756 L 379.06982,216.94396 L 379.06982,216.67052 L 379.00269,216.50024 L 378.7976,216.22803 L 378.86596,215.95459 L 379.10522,215.92163 L 379.10522,215.61401 L 378.62731,215.85388 L 378.52539,215.51269 L 378.32092,215.64819 L 378.62731,215.10375 L 379.03564,214.72839 L 379.54711,214.79614 L 379.85412,215.51269 L 380.1947,216.32995 L 380.3656,217.0111 L 380.39916,217.04589 L 382.23876,216.80725 L 382.23876,215.54686 L 382.17041,215.23986 L 383.77197,214.96704 L 384.1809,214.69481 L 384.93102,214.69481 L 385.44127,214.5581 L 385.51025,214.5581 L 386.43005,214.45618 L 386.43005,214.5581 L 387.04224,214.14977 L 387.38281,213.84338 L 387.72339,213.53576 L 388.37157,212.88879 L 388.84887,212.4121 L 389.18945,212.13927 L 389.5636,212.00316 L 389.97252,212.68433 L 390.44921,212.61658 L 390.82397,212.51404 L 391.09741,212.44629 L 391.60827,212.4121 L 391.87987,212.17345 L 392.25525,211.86706 L 392.28942,211.83226 L 392.73192,212.17345 L 392.63,212.37793 L 392.323,212.99133 L 391.98241,213.53576 L 392.01721,213.87634 L 392.25525,213.87634 L 392.49389,213.87634 L 392.69836,213.6383 L 392.79967,213.6383 L 393.00476,214.32006 L 393.44726,214.93285 L 393.34533,215.06958 L 393.58337,215.13733 L 394.1632,215.44433 L 394.63988,215.54686 L 395.3894,214.96704 L 395.28686,214.69481 L 394.81017,214.04724 L 395.21972,213.77501 L 395.49193,214.08141 L 397.36511,212.82104 L 397.60436,213.12744 L 397.77465,213.70605 L 397.97974,213.46801 L 397.94433,213.26415 L 398.08105,213.36609 L 398.35387,213.16161 L 398.32031,212.88879 L 398.96606,212.85461 L 398.89892,212.583 L 399.40978,212.00316 L 399.30725,211.66259 L 399.78454,211.18591 L 400.39795,211.01561 L 401.04491,210.70861 L 401.04491,210.74217 L 400.80689,211.21947 L 400.94299,212.276 L 400.90942,212.65075 L 400.80689,213.05908 L 401.55579,213.60473 L 402.57812,213.33129 L 402.88451,213.12744 L 403.12316,213.39965 L 403.32825,213.29773 L 403.60046,213.39965 L 403.90686,213.33129 L 404.11132,213.16161 L 404.31579,213.16161 L 404.68993,212.7185 L 404.68993,212.5476 L 405.23559,212.03735 L 405.40648,211.93541 L 405.64513,212.00316 L 405.30395,211.32201 L 404.86083,211.28723 L 404.68993,210.50414 L 404.31579,210.12939 L 404.21325,209.75464 L 404.04357,209.3457 L 404.11132,209.27856 L 404.07775,209.14122 L 404.38415,208.69872 L 404.55444,208.15308 L 404.75891,208.08533 L 404.75891,207.06299 L 404.58862,206.55211 L 404.4519,206.07544 L 405.95092,206.82434 L 406.15539,206.7224 L 406.39404,206.89269 L 406.97387,207.03002 L 407.04101,206.92687 L 406.97387,206.65405 L 407.21191,206.75659 L 407.55249,206.7224 L 407.8247,206.75659 L 408.06396,206.65405 L 408.23425,206.96044 L 408.50646,206.96044 L 408.54065,207.06299 L 408.57482,207.40416 L 409.01793,207.26806 L 409.25658,207.1997 L 409.56299,207.06299 L 409.86877,206.85913 L 410.1416,206.55211 L 410.20935,206.85913 L 410.54992,207.26806 L 410.755,206.92687 L 411.16393,206.61986 L 411.26586,206.31348 L 411.3684,206.07544 L 411.3684,205.46203 L 412.2882,205.63231 L 412.83325,205.0531 L 413.17382,204.78088 L 414.09424,205.15502 L 414.29809,205.59753 L 414.74121,205.35949 L 415.01281,205.46203 L 415.86547,205.90454 L 416.51245,205.97229 L 417.09228,206.38183 L 417.16064,206.44896 L 417.60315,207.40416 L 417.97728,207.5061 L 418.01147,207.53966 L 418.25072,208.35815 L 418.35205,208.90257 L 419.68079,208.83484 L 419.88586,209.00513 L 420.02136,209.3457 L 420.05554,209.55016 L 420.39611,210.74217 L 420.97595,210.46996 L 421.45263,210.16356 L 421.69188,210.30029 L 421.92992,210.23131 L 422.20215,210.70861 L 423.22449,210.12939 L 423.63402,210.4016 L 423.70116,210.36804 L 423.9746,210.43579 L 424.28039,210.64025 L 424.5874,210.64025 L 425.13305,210.12939 L 425.23498,209.82299 L 425.33752,209.65209 L 425.54076,209.44885 L 425.67749,209.14122 L 425.91675,209.99328 L 426.39342,209.85718 L 426.05285,210.53832 L 426.11938,210.77697 L 426.05285,210.98021 L 426.734,211.45751 L 426.29089,212.276 L 426.87011,212.20764 L 427.07518,212.37793 L 427.85827,213.33129 L 427.89245,213.33129 L 427.95958,212.95715 L 428.02795,212.65075 L 429.01672,212.7185 L 429.32251,212.48046 L 429.76501,212.276 L 429.9707,212.20764 L 430.10559,212.13927 L 430.14099,211.62841 L 431.026,210.74217 L 431.40197,210.57189 L 431.36718,209.95849 L 431.70776,209.85718 L 432.21985,210.19775 L 432.21985,209.85718 L 432.35474,209.68689 L 433.13904,209.95849 L 434.33166,210.19775 L 435.28502,211.3562 L 436.06872,212.68433 L 435.31921,212.583 L 437.46581,213.9453 L 437.26135,214.45618 L 437.56775,215.98876 L 438.48815,216.97693 L 439.40735,216.94396 L 439.06677,217.25036 L 439.50989,218.03344 L 440.15686,217.82959 L 440.70251,218.17016 L 440.97411,218.17016 L 441.45202,218.44299 L 442.06481,218.03344 L 442.2351,217.55554 L 443.25684,217.93151 L 444.68871,218.85131 L 446.76696,219.25964 L 447.24303,219.4641 L 448.50402,218.34045 L 448.06152,217.04589 L 447.58361,217.0111 L 449.86693,216.46666 L 453.27331,215.64819 L 453.64867,216.67052 L 454.8407,216.8756 L 455.18127,216.77306 L 455.48827,216.5686 L 456.06811,215.41015 L 458.24767,215.7849 L 459.54224,215.20507 L 460.6665,214.42199 L 462.40417,212.85461 L 464.24377,212.68433 L 464.58496,213.1958 L 465.67505,212.583 L 466.2207,213.97949 L 468.87756,215.81848 L 469.62707,215.81848 L 471.39892,214.89929 L 471.50146,214.21752 L 471.84204,213.8092 L 472.38708,213.74084 L 472.86376,214.08141 L 472.9663,215.27404 L 474.19188,214.89929 L 474.4989,214.32006 L 476.40746,213.1958 L 476.95251,213.09325 L 476.61132,211.83226 L 476.74803,211.11755 L 477.02087,210.84533 L 478.38317,210.50414 L 479.64355,210.12939 L 480.87096,209.31151 L 481.68762,208.90257 L 482.43773,208.90257 L 483.255,208.42651 L 483.8684,208.39171 L 484.4812,207.43774 L 484.92431,207.53966 L 485.50353,207.36937 L 486.01501,207.16553 L 487.17285,205.56396 L 487.44567,204.67834 L 488.12743,204.50866 L 488.77441,204.61059 L 490.0354,204.67834 L 490.20569,203.92883 L 489.62646,203.69018 L 489.31945,203.48571 L 487.4121,202.80456 L 487.07092,201.27075 L 486.73033,200.96435 L 486.38916,199.90844 L 486.21887,199.26146 L 486.4917,197.18383 L 486.56005,196.16149 L 487.30896,195.6842 L 488.53576,194.83215 L 489.21691,194.83215 L 489.3872,194.458 L 490.64819,192.65136 L 490.98815,190.9143 L 491.7041,191.08397 L 492.55554,191.32263 L 493.10118,190.81176 L 493.37402,188.87024 L 494.53307,187.40477 L 494.77111,186.11084 L 495.5542,185.66771 L 495.48583,184.98595 L 495.21301,184.40674 L 494.49829,184.27124 L 493.95263,184.74791 L 493.16955,185.01953 L 492.69226,183.86169 L 493.5437,183.07739 L 494.08935,181.98791 L 494.90661,181.5454 L 495.2478,180.76171 L 496.40625,179.39819 L 496.37206,178.479 L 496.40625,177.42247 L 496.88232,176.36658 L 496.84875,175.78735 L 495.79284,175.37903 L 495.65612,174.45861 L 496.50817,172.72033 L 496.78039,171.05224 L 497.63243,171.32385 L 498.34777,171.52831 L 498.82507,171.22253 L 498.927,170.84716 L 498.58581,170.16601 L 498.65478,169.65515 L 498.89282,168.35997 L 498.45031,167.7124 L 498.48388,167.37242 L 499.234,166.75903 L 500.25635,166.99706 L 501.27868,166.69066 L 501.44836,165.90697 L 500.83496,165.05554 L 499.60876,165.02196 L 499.47204,164.3402 L 501.00464,162.12524 L 502.09533,162.09106 L 502.12951,161.92138 L 502.43652,160.65979 L 503.15185,159.87731 L 501.8573,158.99047 L 500.52795,157.39013 L 500.0177,157.76427 L 499.74426,158.3435 L 498.82507,158.00293 L 498.3142,158.48082 L 496.98486,159.26269 L 496.81519,158.6499 L 496.9519,158.0371 L 496.40625,157.90039 L 496.27013,157.1173 L 496.88232,156.84447 L 496.67846,155.85692 L 495.96252,155.2423 L 494.19188,154.63072 L 493.40758,154.76623 L 492.42003,155.17578 L 491.63635,155.2777 L 491.0913,155.65308 L 490.54687,155.41381 L 489.76257,155.37964 L 489.2511,155.31189 L 488.87634,155.61768 L 488.50158,155.58349 L 488.36547,155.2423 L 487.75269,155.17578 L 487.03674,155.1416 L 486.69555,153.81286 L 485.70861,152.92663 L 482.47131,151.73461 L 479.4397,150.54137 L 478.92882,149.89379 L 478.45153,144.91943 L 475.93017,142.33031 L 475.31677,141.00219 L 472.62572,140.42358 L 471.94457,141.51305 L 471.36473,142.12646 L 469.18335,142.56957 L 468.91174,143.38745 L 468.57055,143.45519 L 467.20825,145.22705 L 461.55333,143.65905 L 460.80322,145.26122 L 457.32849,145.39673 L 455.99914,145.15808 L 454.67041,144.91943 L 453.06945,144.98901 L 452.59216,145.60119 L 452.45605,145.26122 L 451.74011,144.54529 L 452.18383,142.12646 L 452.79724,139.87793 L 449.42382,137.69775 L 447.17528,138.41308 L 446.42577,139.09424 L 444.17664,138.5498 L 443.80249,134.32495 L 443.08715,133.54125 L 442.95105,132.6892 L 439.1687,128.43018 L 441.38427,123.35387 L 439.37316,118.44787 L 436.74987,118.44787 L 436.17003,117.39196 L 436.17003,116.43799 L 435.7959,116.40441 L 434.8761,117.15392 L 434.60326,117.76611 L 433.85376,118.55041 L 434.02465,119.84496 L 433.92211,120.79894 L 433.58215,121.41296 L 433.48022,122.02453 L 430.37964,124.7174 L 427.38097,128.3966 L 426.69921,128.56689 L 426.42638,127.91991 L 426.29089,127.57934 L 425.9497,127.37426 L 425.64331,126.59117 L 424.31519,125.67078 L 423.59862,125.67078 L 422.88391,126.01074 L 422.30468,126.3861 L 422.03246,126.31835 L 421.75964,125.70556 L 420.29419,125.80688 L 420.19226,126.01074 L 419.68079,125.90941 L 416.37634,126.42089 L 416.06993,126.59117 L 415.21789,126.14745 L 414.53612,125.6372 L 414.40123,124.78515 L 414.46837,123.96666 L 415.59265,123.45641 L 416.06993,123.72862 L 418.5913,124.682 L 419.37377,125.29601 L 419.95422,125.43212 L 420.02136,124.95544 L 419.30664,124.58129 L 419.23827,124.27368 L 419.13573,123.59191 L 419.03381,122.19604 L 418.99962,121.37816 L 419.68079,120.18554 L 420.4309,119.98046 L 419.78332,119.36768 L 419.91942,118.44787 L 420.05554,117.83507 L 420.05554,117.11914 L 419.10217,117.05139 L 418.55712,116.74499 L 418.21594,116.02966 L 418.1134,115.38146 L 415.55846,114.87121 L 413.58276,114.5642 M 496.98486,207.40416 L 496.33789,207.84668 L 495.5194,208.52844 L 494.70275,209.58374 L 494.53307,210.64025 L 493.40758,210.46996 L 492.82897,209.99328 L 492.72582,210.43579 L 491.60217,210.67444 L 491.26159,211.01561 L 489.96642,210.4016 L 490.06835,211.01561 L 490.44372,211.25365 L 490.54687,211.49169 L 490.75012,211.52649 L 490.98815,211.66259 L 491.19323,211.66259 L 491.53381,211.59424 L 491.77246,211.62841 L 492.0105,211.73095 L 492.28394,211.83226 L 492.62451,211.93541 L 492.96509,211.96899 L 493.27087,212.1057 L 493.51073,211.83226 L 493.57726,211.42394 L 493.81652,211.25365 L 494.05456,211.15173 L 494.328,211.08336 L 494.56603,211.08336 L 494.87303,211.21947 L 495.11168,211.3562 L 495.14465,211.56066 L 495.2478,211.96899 L 495.34972,212.07152 L 495.62255,212.00316 L 496.61071,211.59424 L 497.29247,211.52649 L 497.66662,211.56066 L 497.87108,211.76452 L 498.17749,211.93541 L 498.68896,212.24243 L 498.927,212.48046 L 498.99596,212.75329 L 499.0979,213.0249 L 499.33655,213.09325 L 499.47204,213.29773 L 499.71069,213.29773 L 499.77905,213.5028 L 499.67712,213.8092 L 500.49438,214.96704 L 500.66406,215.17211 L 500.69885,215.3424 L 500.73302,215.68359 L 500.83496,215.85388 L 501.44836,216.29516 L 502.36816,216.2622 L 502.74291,216.12549 L 503.32275,215.88745 L 504.00329,215.88745 L 504.7528,215.7849 L 505.87707,216.12549 L 506.2854,216.2622 L 506.62597,216.43249 L 506.7633,215.7849 L 507.27416,215.30761 L 507.81982,214.45618 L 508.33007,214.04724 L 508.73901,213.26415 L 508.60351,212.78625 L 508.53454,212.276 L 508.12561,212.13927 L 507.95471,211.93541 L 507.64831,212.00316 L 507.40966,211.45751 L 507.10387,210.98021 L 507.17162,210.80993 L 506.89941,210.43579 L 506.96716,209.75464 L 506.66137,209.0393 L 505.46752,209.61853 L 504.27612,209.99328 L 503.42346,210.91308 L 503.25377,209.65209 L 502.6062,209.92493 L 501.89086,210.67444 L 500.11962,210.8789 L 498.79089,209.17541 L 498.21166,209.4818 L 496.98486,207.40416 z"
       style="fill:#a8a800;fill-opacity:1;fill-rule:nonzero;stroke:#4a5153;stroke-width:0.56998747999999999;stroke-linecap:butt;stroke-linejoin:miter;stroke-miterlimit:4;stroke-dasharray:none;stroke-opacity:1"
       id="path2427" />
    <path
       d="M 490.1715,203.89404 L 490.0354,204.67834 L 488.77441,204.61059 L 488.12743,204.50866 L 487.44567,204.67834 L 487.17285,205.56396 L 486.01501,207.16553 L 485.50353,207.36937 L 484.92431,207.53966 L 484.4812,207.43774 L 483.8684,208.39171 L 483.255,208.42651 L 482.43773,208.90257 L 481.68762,208.90257 L 480.87096,209.31151 L 479.64355,210.12939 L 478.38317,210.50414 L 477.02087,210.84533 L 476.74803,211.11755 L 476.61132,211.83226 L 476.95251,213.09325 L 476.40746,213.1958 L 474.4989,214.32006 L 474.19188,214.89929 L 472.9663,215.27404 L 472.86376,214.08141 L 472.38708,213.74084 L 471.84204,213.8092 L 471.50146,214.21752 L 471.39892,214.89929 L 469.62707,215.81848 L 468.87756,215.81848 L 466.2207,213.97949 L 465.67505,212.583 L 464.58496,213.1958 L 464.24377,212.68433 L 462.40417,212.85461 L 460.6665,214.42199 L 459.54224,215.20507 L 458.24767,215.7849 L 456.06811,215.41015 L 455.48827,216.5686 L 455.18127,216.77306 L 454.8407,216.8756 L 453.64867,216.67052 L 453.27331,215.64819 L 449.86693,216.46666 L 447.58361,217.0111 L 448.06152,217.04589 L 448.50402,218.34045 L 447.24303,219.4641 L 446.76696,219.25964 L 444.68871,218.85131 L 443.25684,217.93151 L 442.2351,217.55554 L 442.06481,218.03344 L 441.45202,218.44299 L 440.97411,218.17016 L 440.70251,218.17016 L 440.15686,217.82959 L 439.50989,218.03344 L 439.06677,217.25036 L 439.40735,216.94396 L 438.48815,216.97693 L 437.56775,215.98876 L 437.26135,214.45618 L 437.46581,213.9453 L 435.42113,212.583 L 436.06872,212.68433 L 435.28502,211.3562 L 434.33166,210.19775 L 433.13904,209.95849 L 432.35474,209.68689 L 432.21985,209.85718 L 432.21985,210.19775 L 431.70776,209.85718 L 431.36718,209.95849 L 431.40197,210.57189 L 431.026,210.74217 L 430.14099,211.62841 L 430.10559,212.13927 L 429.9707,212.20764 L 429.76501,212.276 L 429.32251,212.48046 L 429.01672,212.7185 L 428.02795,212.65075 L 427.95958,212.95715 L 427.89245,213.33129 L 427.85827,213.33129 L 427.07518,212.37793 L 426.87011,212.20764 L 426.29089,212.276 L 426.734,211.45751 L 426.05285,210.98021 L 426.11938,210.77697 L 426.05285,210.53832 L 426.39342,209.85718 L 425.91675,209.99328 L 425.67749,209.14122 L 425.54076,209.44885 L 425.33752,209.65209 L 425.23498,209.82299 L 425.13305,210.12939 L 424.5874,210.64025 L 424.28039,210.64025 L 423.9746,210.43579 L 423.70116,210.36804 L 423.63402,210.4016 L 423.22449,210.12939 L 422.20215,210.70861 L 421.92992,210.23131 L 421.69188,210.30029 L 421.45263,210.16356 L 420.97595,210.46996 L 420.39611,210.74217 L 420.05554,209.55016 L 420.02136,209.3457 L 419.88586,209.00513 L 419.68079,208.83484 L 418.35205,208.90257 L 418.25072,208.35815 L 418.01147,207.53966 L 417.97728,207.5061 L 417.60315,207.40416 L 417.16064,206.44896 L 417.09228,206.38183 L 416.51245,205.97229 L 415.86547,205.90454 L 415.01281,205.46203 L 414.74121,205.35949 L 414.29809,205.59753 L 414.09424,205.15502 L 413.17382,204.78088 L 412.83325,205.0531 L 412.2882,205.63231 L 411.3684,205.46203 L 411.3684,206.07544 L 411.26586,206.31348 L 411.16393,206.61986 L 410.755,206.92687 L 410.54992,207.26806 L 410.20935,206.85913 L 410.1416,206.55211 L 409.86877,206.85913 L 409.56299,207.06299 L 409.25658,207.1997 L 409.01793,207.26806 L 408.57482,207.40416 L 408.54065,207.06299 L 408.50646,206.96044 L 408.23425,206.96044 L 408.06396,206.65405 L 407.8247,206.75659 L 407.55249,206.7224 L 407.21191,206.75659 L 406.97387,206.65405 L 407.04101,206.92687 L 406.97387,207.03002 L 406.39404,206.89269 L 406.15539,206.7224 L 405.95092,206.82434 L 404.4519,206.07544 L 404.58862,206.55211 L 404.75891,207.06299 L 404.75891,208.08533 L 404.55444,208.15308 L 404.38415,208.69872 L 404.07775,209.14122 L 404.11132,209.27856 L 404.04357,209.3457 L 404.21325,209.75464 L 404.31579,210.12939 L 404.68993,210.50414 L 404.86083,211.28723 L 405.30395,211.32201 L 405.64513,212.00316 L 405.40648,211.93541 L 405.23559,212.03735 L 404.68993,212.5476 L 404.68993,212.7185 L 404.31579,213.16161 L 404.11132,213.16161 L 403.90686,213.33129 L 403.60046,213.39965 L 403.32825,213.29773 L 403.12316,213.39965 L 402.88451,213.12744 L 402.57812,213.33129 L 401.55579,213.60473 L 400.80689,213.05908 L 400.90942,212.65075 L 400.94299,212.276 L 400.80689,211.21947 L 401.04491,210.74217 L 401.04491,210.70861 L 400.39795,211.01561 L 399.78454,211.18591 L 399.30725,211.66259 L 399.40978,212.00316 L 398.89892,212.583 L 398.96606,212.85461 L 398.32031,212.88879 L 398.35387,213.16161 L 398.08105,213.36609 L 397.94433,213.26415 L 397.97974,213.46801 L 397.77465,213.70605 L 397.60436,213.12744 L 397.36511,212.82104 L 395.49193,214.08141 L 395.21972,213.77501 L 394.81017,214.04724 L 395.28686,214.69481 L 395.3894,214.96704 L 394.63988,215.54686 L 394.1632,215.44433 L 393.58337,215.13733 L 393.34533,215.06958 L 393.44726,214.93285 L 393.00476,214.32006 L 392.79967,213.6383 L 392.69836,213.6383 L 392.49389,213.87634 L 392.25525,213.87634 L 392.01721,213.87634 L 391.98241,213.53576 L 392.323,212.99133 L 392.63,212.37793 L 392.73192,212.17345 L 392.28942,211.83226 L 392.25525,211.86706 L 391.87987,212.17345 L 391.60827,212.4121 L 391.09741,212.44629 L 390.82397,212.51404 L 390.44921,212.61658 L 389.97252,212.68433 L 389.5636,212.00316 L 389.18945,212.13927 L 388.84887,212.4121 L 388.37157,212.88879 L 387.72339,213.53576 L 387.38281,213.84338 L 387.04224,214.14977 L 386.43005,214.5581 L 386.43005,214.45618 L 385.51025,214.5581 L 385.44127,214.5581 L 384.93102,214.69481 L 384.1809,214.69481 L 383.77197,214.96704 L 382.17041,215.23986 L 382.23876,215.54686 L 382.23876,216.80725 L 380.39916,217.04589 L 380.3656,217.0111 L 380.1947,216.32995 L 379.85412,215.51269 L 379.54711,214.79614 L 379.03564,214.72839 L 378.62731,215.10375 L 378.32092,215.64819 L 378.52539,215.51269 L 378.62731,215.85388 L 379.10522,215.61401 L 379.10522,215.92163 L 378.86596,215.95459 L 378.7976,216.22803 L 379.00269,216.50024 L 379.06982,216.67052 L 379.06982,216.94396 L 378.42346,216.8756 L 377.91199,216.46666 L 377.77587,216.39831 L 377.26501,216.50024 L 377.23022,216.73889 L 377.16247,217.0111 L 377.12829,217.14783 L 377.12829,217.72705 L 376.99157,217.96569 L 377.02636,218.2373 L 377.06053,218.57849 L 376.99157,218.95324 L 376.92382,219.15771 L 376.651,219.12352 L 376.20848,219.36218 L 375.35705,219.90783 L 375.1184,219.39635 L 374.91332,219.29381 L 374.33471,219.05518 L 373.82385,219.05518 L 373.48266,219.12352 L 373.04016,218.91906 L 372.83569,219.19189 L 372.52928,219.56664 L 372.39257,219.80467 L 372.15392,220.07751 L 371.77917,220.48644 L 371.40502,220.38451 L 370.9613,219.97497 L 370.72326,219.49829 L 370.34851,219.29381 L 367.04345,218.13538 L 366.39647,218.17016 L 366.22559,217.7954 L 365.78368,216.8756 L 365.71471,216.63635 L 365.57861,216.29516 L 365.54442,216.32995 L 365.27221,216.15966 L 364.96521,215.98876 L 364.8291,215.88745 L 364.69299,215.51269 L 364.28466,215.3424 L 364.0802,215.3424 L 364.31824,215.58044 L 364.3518,215.71655 L 364.0802,215.81848 L 363.84155,215.81848 L 363.50036,215.75072 L 363.53454,215.30761 L 363.15978,215.44433 L 362.95592,215.7849 L 362.88696,216.32995 L 362.64831,216.67052 L 362.47802,216.97693 L 362.44445,217.0111 L 362.06908,217.11425 L 361.79749,217.182 L 361.4563,217.42065 L 361.11572,217.55554 L 360.6726,217.55554 L 360.60425,217.52258 L 360.5371,216.94396 L 360.26427,217.182 L 360.19592,217.45421 L 360.05858,217.72705 L 359.71862,217.99926 L 359.65026,218.17016 L 359.03747,217.99926 L 358.62853,217.82959 L 358.11829,217.59094 L 357.26562,217.72705 L 356.03942,219.73632 L 355.86914,219.08996 L 355.69885,218.85131 L 355.56152,218.78295 L 355.32349,218.85131 L 354.91576,219.08996 L 354.43786,219.39635 L 353.89342,219.73632 L 353.24523,219.90783 L 353.0072,219.73632 L 352.63243,219.80467 L 352.46155,219.49829 L 352.2229,219.25964 L 351.91589,219.25964 L 351.50817,219.39635 L 351.27013,219.80467 L 350.55297,220.45288 L 350.0769,220.62255 L 349.43053,220.52062 L 348.95202,220.21361 L 348.47472,220.21361 L 348.16955,220.38451 L 347.31688,220.38451 L 347.07825,220.28136 L 346.73766,220.28136 L 346.60217,220.38451 L 345.95458,220.28136 L 345.64819,220.04332 L 345.40954,219.97497 L 345.47728,219.80467 L 345.47728,219.39635 L 345.23925,219.39635 L 345.00061,219.56664 L 344.69421,219.63439 L 344.21752,219.80467 L 343.97826,219.73632 L 344.04724,219.56664 L 344.04724,219.08996 L 343.39905,218.44299 L 343.02551,217.65869 L 342.78686,217.72705 L 342.13927,217.59094 L 342.20702,216.7047 L 342.24121,215.95459 L 342.47985,215.81848 L 342.5476,215.41015 L 342.34375,215.13733 L 342.47985,214.86571 L 342.30896,214.42199 L 342.64954,214.1156 L 342.47985,213.6383 L 342.24121,213.43444 L 342.24121,213.12744 L 342.17285,212.92357 L 341.56005,212.20764 L 341.45812,212.30956 L 340.708,212.65075 L 340.19714,212.65075 L 340.02685,212.37793 L 339.85656,212.48046 L 339.68627,212.276 L 339.58373,212.24243 L 339.58373,212.61658 L 339.41283,212.7185 L 339.20897,212.583 L 338.93615,212.85461 L 338.69811,212.95715 L 337.9486,213.53576 L 337.70996,213.36609 L 337.13074,213.39965 L 336.92626,213.22936 L 336.44897,213.1958 L 336.2445,212.5476 L 336.1084,212.44629 L 335.01831,212.51404 L 333.68957,212.68433 L 333.28125,212.61658 L 332.80395,212.65075 L 332.46276,211.52649 L 331.74743,211.04919 L 331.61194,210.19775 L 331.10046,209.44885 L 331.54357,208.5968 L 331.13402,208.73229 L 330.93017,209.20897 L 330.38512,209.27856 L 329.84008,209.82299 L 329.32861,209.75464 L 328.03405,209.95849 L 327.9663,209.37988 L 327.6593,208.73229 L 327.35228,208.5614 L 326.36473,209.31151 L 326.1261,209.3457 L 324.93346,209.75464 L 324.66125,210.46996 L 324.4574,210.64025 L 324.18456,211.45751 L 323.43505,211.66259 L 323.36608,212.37793 L 322.03796,213.9453 L 321.69738,215.92163 L 320.50476,216.02416 L 319.85717,215.58044 L 319.27856,214.69481 L 318.80126,214.62585 L 317.94982,214.96704 L 317.43773,215.17211 L 316.82495,215.00183 L 316.55333,214.96704 L 315.73486,215.10375 L 315.42846,214.96704 L 314.88342,214.42199 L 314.47387,214.35424 L 313.58886,214.45618 L 313.48694,214.28589 L 313.86107,213.43444 L 313.89526,212.88879 L 313.17931,211.15173 L 312.80517,210.33385 L 310.96557,210.91308 L 309.6698,211.11755 L 309.32982,211.04919 L 308.47839,211.11755 L 307.72826,210.64025 L 306.97936,210.19775 L 306.63878,209.68689 L 306.56982,210.16356 L 306.36596,210.91308 L 306.1621,211.28723 L 305.6842,211.18591 L 305.2069,210.8789 L 305.07141,210.8789 L 305.13976,211.39038 L 304.90172,211.52649 L 304.7644,212.17345 L 304.42382,212.30956 L 304.01488,212.68433 L 302.78809,212.583 L 302.4823,212.82104 L 302.34496,213.26415 L 302.20886,213.84338 L 301.66381,214.49035 L 299.79065,215.06958 L 299.2456,215.88745 L 298.97277,216.53381 L 298.73474,217.182 L 298.12072,216.80725 L 297.74596,216.53381 L 297.2351,216.29516 L 296.69006,216.05713 L 295.77026,215.44433 L 296.14501,214.62585 L 295.73668,214.01305 L 295.66833,213.33129 L 294.3396,211.49169 L 293.93066,211.3562 L 293.11217,212.03735 L 292.90893,211.69738 L 292.12462,211.73095 L 291.4093,211.83226 L 290.65978,211.66259 L 290.18248,211.56066 L 289.46655,210.94726 L 288.61572,210.46996 L 287.62756,209.89013 L 286.77551,210.06103 L 286.06079,210.53832 L 285.48095,210.67444 L 284.76501,211.08336 L 284.28832,211.01561 L 283.77746,211.25365 L 284.08447,212.37793 L 284.39147,213.05908 L 285.07262,213.56994 L 284.97008,215.4779 L 285.20873,215.7849 L 286.09496,216.43249 L 285.99242,217.182 L 287.08312,217.25036 L 287.5592,216.90918 L 288.24096,217.04589 L 289.12597,216.77306 L 289.5697,217.89672 L 290.08056,218.2373 L 290.08056,218.95324 L 290.35277,219.56664 L 289.63745,219.94079 L 290.18248,220.99731 L 290.42175,221.71264 L 289.63745,221.9519 L 289.16137,222.2583 L 288.68346,222.70019 L 288.51317,223.75731 L 288.68346,224.33715 L 288.88793,225.0183 L 289.29626,225.42662 L 288.99047,226.07421 L 289.60326,227.40173 L 289.94445,227.81189 L 289.8767,228.96911 L 290.35277,229.37926 L 290.86365,229.95788 L 291.23901,231.0144 L 291.37512,231.96776 L 291.64795,232.27416 L 291.47766,233.67186 L 291.68151,234.14794 L 291.75048,234.96581 L 291.51122,235.10254 L 291.51122,236.29455 L 291.8518,236.53259 L 291.47766,237.04467 L 291.78405,237.31689 L 291.78405,237.69164 L 291.54541,237.82836 L 291.47766,239.32739 L 291.5802,239.56604 L 291.8518,240.04211 L 292.12462,240.99609 L 293.31786,241.81456 L 294.10033,242.12035 L 295.2594,242.73376 L 295.42968,242.93761 L 295.56579,243.61937 L 296.3153,243.61937 L 298.42712,244.36889 L 298.87085,245.25572 L 299.27917,245.83435 L 299.51721,245.80077 L 300.57495,245.45897 L 300.94849,245.05065 L 301.08458,245.1184 L 301.32385,244.812 L 302.00439,244.91455 L 302.72095,244.36889 L 302.99316,244.50561 L 304.2871,244.02831 L 304.52513,243.48327 L 304.79918,243.51806 L 304.90172,243.75671 L 305.13976,243.927 L 305.54748,244.09668 L 305.99121,242.359 L 307.62634,240.62133 L 309.12597,241.26891 L 309.97741,241.03026 L 311.40868,241.74621 L 311.17003,242.73376 L 311.17003,243.17749 L 310.14831,243.85741 L 309.87487,244.50561 L 309.46655,245.08544 L 309.77233,246.5155 L 311.57836,245.52734 L 312.22656,245.49376 L 312.94127,245.56151 L 313.69079,245.22033 L 314.95177,245.1184 L 315.56457,244.84619 L 315.56457,245.22033 L 316.3147,245.63049 L 316.65466,246.27746 L 317.26806,246.2091 L 318.80126,245.52734 L 320.30029,247.40111 L 320.47118,248.01452 L 321.25427,249.41223 L 322.276,249.85473 L 322.61719,249.99084 L 322.85583,251.8988 L 323.43505,252.85277 L 323.63952,253.39783 L 323.74083,255.78185 L 324.01366,259.42749 L 323.46862,260.44983 L 322.68432,262.052 L 323.16161,262.76671 L 323.26416,264.8114 L 323.60474,265.28747 L 323.87756,266.68456 L 324.21813,267.2644 L 325.07018,267.97973 L 325.41015,268.52416 L 324.93346,268.76281 L 325.61522,269.37621 L 326.97815,270.7727 L 327.59093,270.46691 L 327.55797,269.75036 L 327.182,269.34265 L 327.08007,268.76281 L 327.76122,269.03564 L 327.9663,269.68322 L 328.78356,269.78576 L 328.64806,268.69506 L 328.78356,267.36571 L 329.15832,265.86669 L 329.73755,265.04944 L 330.14647,264.74304 L 331.57715,264.43603 L 332.32666,264.33471 L 333.21288,264.33471 L 334.06432,264.6057 L 334.94995,264.16381 L 335.52979,264.67468 L 335.52979,265.28747 L 336.21093,265.15197 L 336.55212,264.40185 L 337.77831,264.30052 L 338.46007,264.43603 L 339.00451,264.91332 L 339.51599,265.79955 L 340.40161,266.3446 L 342.51342,267.63915 L 348.20374,265.96924 L 350.38391,265.08239 L 351.33727,264.84435 L 352.46155,263.92516 L 353.85863,264.70885 L 353.89342,265.22033 L 355.49438,266.30981 L 356.073,267.19543 L 357.43652,268.9331 L 357.81066,270.19409 L 358.45825,269.68322 L 359.1394,269.7174 L 360.63904,271.0797 L 360.6726,271.42029 L 361.04736,271.65892 L 361.52465,273.87329 L 361.2854,274.82788 L 362.10387,274.82788 L 362.00134,275.47424 L 362.23998,276.66747 L 362.44445,276.87133 L 363.05786,276.7694 L 363.46618,276.93969 L 364.38599,276.97447 L 364.76196,276.53075 L 364.48852,275.16845 L 363.53454,274.65759 L 364.18151,273.3966 L 365.10192,273.08959 L 365.1355,273.19153 L 365.40832,274.01 L 365.81726,274.65759 L 367.04345,274.86205 L 367.8955,274.79309 L 368.33801,275.27038 L 368.78173,276.22497 L 369.25842,276.73523 L 369.22362,277.68981 L 367.14538,279.25659 L 366.09008,280.04027 L 365.6134,281.47155 L 365.23803,281.8457 L 364.69299,282.49268 L 363.56811,282.5946 L 363.80676,283.85559 L 364.31824,284.2987 L 364.18151,285.32104 L 364.28466,286.47949 L 363.84155,286.99035 L 363.97766,288.3197 L 363.9093,289.5111 L 362.64831,290.43151 L 362.41027,291.86218 L 362.03612,293.0548 L 362.75085,293.63402 L 364.0802,293.80431 L 364.31824,292.91809 L 365.85144,293.29284 L 367.55431,293.19153 L 367.62329,293.9746 L 367.7594,294.281 L 367.99743,295.47424 L 367.65686,296.63269 L 368.30382,296.87072 L 367.92968,297.24486 L 368.27026,297.92601 L 368.88305,298.23302 L 369.39391,299.28955 L 369.83763,299.59655 L 370.28015,301.36718 L 370.00793,301.87926 L 369.01977,302.66235 L 367.72521,303.07068 L 367.38402,303.85436 L 366.66931,304.12719 L 365.51025,304.53612 L 364.38599,304.40001 L 363.67065,306.03515 L 363.12621,306.47826 L 362.61473,307.66967 L 362.34252,308.2843 L 362.64831,309.44274 L 363.02367,309.8175 L 363.97766,310.60057 L 364.38599,310.49865 L 364.55627,311.11084 L 364.2157,311.82616 L 363.12621,312.81494 L 363.02367,313.29284 L 363.84155,313.8037 L 365.78368,314.00756 L 366.60095,314.28039 L 367.31567,314.75646 L 367.11181,315.91553 L 367.24792,316.25671 L 369.05395,316.25671 L 369.49646,315.94909 L 370.58655,315.94909 L 371.37085,315.54138 L 373.2788,315.09765 L 374.60753,315.16601 L 375.66345,315.09765 L 376.8219,314.62158 L 378.83178,315.37109 L 379.95543,316.73339 L 380.84228,316.69921 L 382.00012,316.90429 L 382.95349,316.56249 L 383.49914,317.17529 L 385.20263,317.24486 L 387.38281,317.68799 L 387.72339,317.38036 L 387.28148,317.85644 L 387.92907,318.30077 L 388.20007,318.81225 L 391.36901,317.41455 L 392.45971,317.34496 L 394.06066,317.07396 L 394.67467,317.07396 L 395.32165,315.71105 L 396.17309,314.62158 L 397.33153,314.62158 L 398.32031,314.00756 L 398.83056,313.59862 L 399.13696,313.05419 L 400.50049,312.64465 L 401.11327,312.50793 L 402.78258,312.33825 L 404.11132,311.72485 L 404.6228,311.65649 L 405.98571,311.11084 L 406.90551,310.66894 L 407.89306,310.83922 L 408.64257,310.94055 L 408.302,310.19164 L 408.19946,309.13635 L 408.33679,308.69263 L 409.11926,304.36584 L 409.42687,303.41186 L 409.01793,302.7301 L 408.36975,302.7301 L 407.75756,301.70836 L 408.36975,301.0266 L 408.67675,299.76622 L 409.25658,298.77808 L 409.66491,298.09753 L 410.34667,297.96081 L 410.82336,297.44934 L 413.88976,295.09888 L 413.85497,294.4519 L 414.77477,292.6123 L 415.49132,292.23694 L 416.71691,291.58935 L 417.87536,290.77209 L 418.8977,289.68139 L 419.5105,288.69384 L 420.26001,290.43151 L 422.06665,290.67016 L 424.00817,290.22765 L 424.62096,291.9989 L 425.57616,292.3059 L 424.859,293.19153 L 424.4165,293.25866 L 424.24682,293.49731 L 423.1903,294.85961 L 423.70116,296.39404 L 423.42895,297.72278 L 423.90625,298.2672 L 423.46252,298.71092 L 422.95226,297.85888 L 422.78137,297.3474 L 421.92992,297.5183 L 421.17981,297.68799 L 420.87341,298.09753 L 421.55517,299.42565 L 421.11145,299.59655 L 420.7373,301.47033 L 419.27246,302.28697 L 420.09032,302.66235 L 420.32897,304.12719 L 421.14685,305.0476 L 419.34081,306.78528 L 419.34081,307.3297 L 419.03381,308.04626 L 419.30664,308.79516 L 418.99962,310.15746 L 419.17052,310.77147 L 418.69324,312.03185 L 418.25072,312.40661 L 417.29613,312.44018 L 417.26196,313.42834 L 416.99035,314.14306 L 417.0581,315.50598 L 418.21594,316.05224 L 418.42101,316.15356 L 420.36255,316.80052 L 421.41845,316.59668 L 422.16857,317.24486 L 422.81555,318.88061 L 424.62096,320.14038 L 424.68932,321.12793 L 425.16662,322.25219 L 424.65576,322.45726 L 424.45128,322.69653 L 424.31519,322.96752 L 424.4165,323.20556 L 424.99634,323.13843 L 424.99634,323.34227 L 424.4165,323.68285 L 423.93981,324.63745 L 423.6676,325.4895 L 423.70116,325.93261 L 423.56567,325.99975 L 423.15674,327.08984 L 423.12195,327.63549 L 422.54334,327.83935 L 422.16857,327.66967 L 422.33825,329.47509 L 422.78137,330.83618 L 423.63402,331.04247 L 423.63402,332.1997 L 423.70116,332.98461 L 423.90625,333.32396 L 424.31519,333.80126 L 423.6676,334.48364 L 423.46252,335.91553 L 422.95226,336.3916 L 423.08898,336.69799 L 422.54334,337.24243 L 423.29284,337.7893 L 423.93981,337.65257 L 423.93981,337.4475 L 424.5874,337.37914 L 425.20018,337.85521 L 426.08642,337.95776 L 426.49536,338.12865 L 428.19885,337.85521 L 428.74329,337.89061 L 429.62951,337.24243 L 430.10559,337.37914 L 430.34485,336.66504 L 430.99242,336.45874 L 431.26404,336.52831 L 431.50207,336.59545 L 431.87866,336.52831 L 432.01416,336.3916 L 432.2528,336.22191 L 432.69592,336.3562 L 433.0365,336.49291 L 433.88793,336.3562 L 434.12658,336.28905 L 434.22851,336.3916 L 434.16137,336.59545 L 434.22851,336.90308 L 434.50195,337.00439 L 434.63806,337.10693 L 434.77356,337.51464 L 434.80835,337.68554 L 435.0122,337.9248 L 435.31921,338.57299 L 435.42113,338.84276 L 436.34094,339.21874 L 436.74987,339.35546 L 437.05627,339.5581 L 437.26135,339.73021 L 437.46581,339.83276 L 437.94311,340.03661 L 438.38501,340.20629 L 438.58947,340.27465 L 438.99902,340.31128 L 439.3396,340.47851 L 439.81627,340.61523 L 439.91821,341.26343 L 440.32715,341.23046 L 440.5664,341.23046 L 440.94055,341.19506 L 441.4862,341.15966 L 442.16735,340.75316 L 442.37121,340.9558 L 442.67761,341.26343 L 443.18908,341.77368 L 443.66637,342.42186 L 444.48363,343.64745 L 444.75646,344.43115 L 444.9945,345.04394 L 445.30151,345.55664 L 445.19958,346.06811 L 445.09704,346.47582 L 445.54016,347.46459 L 446.11877,347.42919 L 446.45996,347.32665 L 446.63025,347.60131 L 446.76696,347.83935 L 446.97082,347.83935 L 447.03918,347.76976 L 447.24303,347.56591 L 447.37976,347.36205 L 447.58361,347.02147 L 447.85705,346.92016 L 447.95958,346.88476 L 448.16283,347.02147 L 448.33374,347.0874 L 448.50402,347.19115 L 448.64075,347.53051 L 448.70848,347.87231 L 448.67431,348.3496 L 448.5382,348.96484 L 448.43566,349.50805 L 448.64075,350.01953 L 448.8446,350.05249 L 450.99181,349.68018 L 451.26404,349.78026 L 451.50207,349.95116 L 451.67236,349.91699 L 451.7749,349.81445 L 451.87682,349.64599 L 452.04711,349.50805 L 453.03527,350.56396 L 453.30748,350.63231 L 453.68286,350.4956 L 454.02343,350.32348 L 454.43237,350.36133 L 454.63622,350.42846 L 455.01099,350.52856 L 455.21606,350.8374 L 455.38635,350.87035 L 455.65795,350.73364 L 455.93139,350.4956 L 456.10168,350.22339 L 456.30676,350.01953 L 456.3739,349.8474 L 456.61315,349.74609 L 456.78345,349.71313 L 457.12402,349.60815 L 457.43041,349.54222 L 457.73681,349.78026 L 457.94127,349.95116 L 458.17992,350.25634 L 458.3844,350.4956 L 458.62243,350.90575 L 458.75853,351.21093 L 458.99657,351.44896 L 459.20226,351.65282 L 459.47449,351.99584 L 459.9176,352.16553 L 460.531,352.57324 L 460.8374,352.74414 L 461.00768,352.91504 L 461.2799,353.15429 L 461.48437,353.49365 L 461.96166,353.93676 L 462.30164,354.31151 L 462.74475,355.09399 L 462.3706,355.26489 L 462.13195,355.437 L 461.85974,355.67504 L 461.62108,355.98144 L 461.48437,356.42334 L 461.3153,356.52709 L 461.00768,356.86645 L 460.70067,357.48169 L 460.46263,358.09447 L 460.46263,358.80859 L 460.76965,359.21752 L 460.97411,359.52514 L 461.00768,359.69604 L 461.07543,359.96825 L 461.07543,360.27465 L 461.24572,360.44555 L 461.41601,360.57861 L 461.5863,360.68236 L 461.72302,360.44555 L 461.89391,360.23925 L 462.1997,360.00121 L 462.57507,360.03661 L 462.74475,359.89745 L 463.1195,359.76317 L 463.35876,359.729 L 463.66455,359.48974 L 463.86962,359.04906 L 463.86962,358.77563 L 463.83545,358.33251 L 464.00512,357.95897 L 464.2102,357.854 L 464.55077,357.88817 L 464.75585,358.12865 L 464.92553,358.29834 L 465.16357,358.36669 L 465.30151,358.64013 L 465.43701,358.87816 L 465.67505,358.87816 L 466.01623,358.91112 L 466.35681,358.80859 L 466.56188,359.01366 L 466.62902,359.2517 L 467.75329,359.729 L 468.29895,359.96825 L 468.50341,360.27465 L 468.63952,360.44555 L 468.77563,360.68236 L 469.01366,360.81786 L 469.2865,360.7849 L 469.55932,360.98876 L 469.79797,361.53564 L 469.96765,361.84204 L 470.27465,361.87621 L 470.47912,361.90918 L 470.75072,362.01171 L 470.88745,362.21679 L 470.95581,362.59033 L 471.16089,363.61328 L 471.63757,365.48705 L 471.84204,365.79345 L 472.31811,366.03149 L 472.76184,366.06566 L 473.20495,366.03149 L 472.93151,366.6455 L 472.69347,367.63428 L 472.18322,367.93945 L 472.08007,368.11035 L 472.82897,368.4851 L 473.47656,369.26758 L 474.26086,369.91455 L 474.26086,370.6311 L 474.53307,371.27808 L 474.05638,371.38061 L 473.4082,371.99218 L 472.76184,372.53905 L 473.4082,373.08349 L 474.15832,373.52782 L 474.12536,373.93676 L 474.12536,374.17357 L 474.4989,374.78759 L 474.97559,374.99268 L 475.99853,373.90257 L 476.44103,373.79883 L 477.36145,373.79883 L 478.9624,373.42529 L 479.50743,373.28979 L 480.83617,372.74291 L 480.97167,372.36938 L 481.07421,371.8579 L 481.21094,371.61865 L 481.92626,371.10961 L 482.26745,371.00585 L 482.50549,371.21093 L 482.88025,371.03881 L 483.08471,371.00585 L 483.32275,371.24511 L 484.00451,371.48315 L 484.31152,371.68822 L 484.55016,371.82372 L 484.75341,371.72119 L 485.02685,371.82372 L 485.23132,372.09472 L 485.60546,372.36938 L 485.70861,372.84668 L 485.8789,372.98218 L 485.91247,373.38989 L 486.42333,373.66332 L 486.76391,373.52782 L 487.44567,372.06176 L 487.27539,371.45019 L 486.96837,370.93749 L 487.17285,370.4956 L 487.51404,370.1538 L 488.12743,369.40551 L 488.16101,368.99414 L 488.84277,368.72436 L 489.31945,368.51806 L 489.35364,368.11035 L 489.55749,368.04199 L 489.72777,368.00903 L 490.00121,368.04199 L 490.92041,367.66722 L 491.26159,367.90405 L 491.43188,368.00903 L 491.60217,368.14453 L 492.0105,368.24706 L 492.21496,368.21289 L 492.18138,368.45214 L 492.18138,368.6206 L 492.35168,368.6206 L 492.55554,368.6206 L 492.7948,368.58643 L 493.03283,368.58643 L 493.2373,368.69018 L 493.44177,368.85864 L 493.64623,369.06494 L 493.85131,369.16625 L 494.08935,369.30175 L 494.328,369.26758 L 494.63378,369.43848 L 495.07751,369.26758 L 495.62255,369.26758 L 495.75866,369.09789 L 495.9967,368.7915 L 496.33789,368.6206 L 496.71204,368.55224 L 496.9519,368.72436 L 497.25707,369.09789 L 497.53051,369.33471 L 498.07556,369.26758 L 498.48388,369.09789 L 498.85925,368.99414 L 498.6206,368.55224 L 498.75732,368.34839 L 498.85925,368.11035 L 498.75732,367.22289 L 498.55223,367.05444 L 499.02954,366.74683 L 499.06311,366.4746 L 499.57458,366.33789 L 500.42602,366.20116 L 500.56273,366.67846 L 501.14135,366.85057 L 501.34582,367.22289 L 501.75536,367.56469 L 502.16309,367.70141 L 502.64099,367.76976 L 503.18542,367.63428 L 503.52661,367.90405 L 503.83361,368.11035 L 504.68445,367.49633 L 504.92431,367.59765 L 505.401,367.22289 L 506.11632,367.18994 L 506.2854,367.02026 L 506.21765,366.3745 L 506.55822,366.09985 L 506.86583,365.62378 L 507.23998,365.48705 L 507.64831,364.9768 L 507.81982,364.94018 L 508.12561,364.53369 L 508.2959,364.635 L 508.50097,364.60082 L 508.50097,364.46289 L 508.36547,364.19311 L 508.39843,363.85131 L 508.05786,363.5791 L 508.12561,363.44238 L 508.432,363.20434 L 508.46618,362.89672 L 508.26232,362.6245 L 508.09142,362.49023 L 507.81982,362.59033 L 507.54638,362.99926 L 506.83105,362.79663 L 506.52526,361.56981 L 506.59301,361.36351 L 508.46618,360.23925 L 508.63647,360.03661 L 508.67065,359.76317 L 508.56811,358.50097 L 509.45374,357.37793 L 509.24987,357.07153 L 509.24987,356.76513 L 509.62523,356.45751 L 510.16967,356.25365 L 510.34057,356.49048 L 510.51025,356.66137 L 511.02233,356.56249 L 511.26037,356.3562 L 510.91919,354.96093 L 510.88561,354.3457 L 511.12426,354.04053 L 510.98815,353.42529 L 511.39587,352.88207 L 511.22618,352.677 L 510.74951,352.6062 L 510.71471,352.36816 L 510.47668,352.43896 L 510.27221,352.36816 L 509.89746,352.40477 L 509.48852,352.23388 L 508.94408,351.96166 L 508.39843,351.61986 L 507.9895,351.55273 L 507.58056,350.93871 L 507.44506,350.29053 L 507.54638,349.74609 L 508.02428,349.06615 L 508.36547,348.656 L 508.53454,348.24584 L 508.77319,347.87231 L 509.14795,347.60131 L 509.3518,346.68213 L 508.73901,346.06811 L 508.53454,345.48828 L 508.2959,345.21484 L 507.75085,344.8413 L 506.93297,344.6704 L 505.97961,345.3186 L 504.68445,344.87549 L 504.24255,344.8413 L 504.41222,344.60082 L 504.48059,343.74999 L 504.54833,343.27393 L 504.68445,342.99926 L 504.48059,341.91039 L 503.79882,341.63695 L 503.35632,340.37719 L 502.74291,339.69604 L 502.74291,339.04906 L 502.6062,338.60595 L 502.06115,338.12865 L 501.95983,337.6184 L 501.54967,337.07275 L 501.54967,336.66504 L 500.90271,335.8789 L 500.73302,335.98266 L 500.18737,336.49291 L 500.05126,336.08397 L 499.43786,336.05101 L 498.21166,336.45874 L 497.83691,333.73535 L 497.36022,333.22388 L 497.46155,332.13379 L 497.2229,331.72362 L 497.05322,331.21338 L 496.74682,330.87035 L 496.81519,330.7019 L 496.98486,330.46264 L 497.3938,330.49804 L 497.56347,330.22339 L 497.42797,329.74731 L 497.53051,329.54222 L 498.0072,329.67895 L 498.21166,329.27124 L 498.0072,328.8977 L 497.83691,328.86108 L 497.3938,328.75854 L 497.36022,328.51927 L 497.49572,328.45336 L 497.87108,328.31664 L 498.21166,328.14575 L 498.3142,327.94189 L 497.93883,327.36205 L 498.0072,326.82006 L 497.76855,326.5454 L 498.0072,326.10106 L 498.3142,326.06811 L 498.65478,326.37572 L 498.85925,326.40869 L 499.06311,326.06811 L 499.50622,326.47705 L 499.60876,326.23901 L 500.05126,325.52245 L 499.71069,324.8413 L 499.54101,324.56909 L 496.74682,323.58154 L 496.09924,322.8308 L 496.84875,321.63817 L 497.01904,321.36718 L 498.14331,320.65063 L 498.10912,319.52757 L 498.48388,318.50464 L 498.75732,318.30077 L 499.19982,317.34496 L 498.85925,315.84778 L 499.234,314.72229 L 500.1532,314.552 L 500.86914,313.97399 L 502.12951,313.93981 L 502.16309,313.12194 L 502.74291,312.67821 L 503.45825,312.44018 L 504.30968,311.9635 L 504.34326,310.70251 L 503.49242,309.88586 L 502.98217,309.51049 L 503.08348,308.25072 L 502.87902,307.77283 L 504.07165,306.88781 L 504.51416,306.85303 L 505.53589,306.23961 L 505.80871,305.66039 L 505.97961,305.4895 L 505.80871,304.53612 L 506.7633,303.41186 L 506.21765,302.15088 L 505.53589,301.60583 L 505.8435,300.99304 L 506.69493,300.03966 L 507.54638,299.49401 L 508.2959,299.05151 L 508.36547,297.65441 L 508.87512,296.35986 L 508.84155,294.62158 L 510.27221,293.3612 L 510.91919,293.22509 L 512.65686,292.3059 L 513.95141,291.89635 L 513.95141,291.24878 L 514.25842,290.32836 L 514.7699,288.89831 L 514.36035,287.94433 L 514.53125,286.6156 L 518.3667,285.34363 L 521.64795,284.47204 L 523.04137,283.77501 L 523.94165,284.12352 L 523.74022,282.27721 L 523.80797,281.32263 L 523.60412,280.57372 L 523.29711,278.39294 L 523.87572,277.03064 L 523.84216,276.28051 L 523.53515,274.91699 L 523.50158,274.47509 L 523.4674,274.03259 L 524.41894,273.15551 L 524.11255,272.20214 L 523.60168,271.34947 L 524.61303,270.33935 L 522.9071,269.34325 L 522.86742,268.73474 L 522.02454,268.43994 L 521.61621,267.7246 L 521.96716,267.22595 L 522.27356,267.15759 L 522.75085,267.02147 L 523.2611,266.78344 L 523.45886,265.67749 L 523.56079,264.34997 L 524.93102,263.8208 L 527.37243,262.74109 L 528.41675,262.1997 L 531.3147,260.80139 L 531.99646,260.32531 L 531.79137,259.78088 L 531.92871,259.47326 L 531.75781,259.30298 L 532.40539,257.87291 L 532.94311,257.93274 L 533.52416,257.23632 L 534.22118,256.56799 L 533.29162,255.63904 L 533.3789,254.73876 L 532.8772,253.54552 L 532.74414,253.05603 L 533.15307,252.7832 L 533.18725,252.44263 L 533.22082,252.23876 L 533.39172,252.00011 L 533.28978,251.35193 L 533.01696,251.18164 L 532.91442,250.80749 L 532.82715,250.15136 L 532.18993,249.44214 L 532.29126,248.28369 L 531.98486,246.60827 L 532.04284,246.02783 L 531.8396,245.53405 L 532.90282,244.21569 L 533.84337,244.28528 L 534.46655,244.20593 L 534.90905,244.27429 L 536.05041,244.1986 L 535.96313,243.61755 L 536.12121,240.34179 L 533.62121,239.09179 L 531.53809,237.21679 L 529.87121,236.79993 L 527.85217,237.1466 L 527.61352,236.77124 L 527.71606,236.77124 L 527.3407,236.32934 L 527.06908,236.15844 L 527.30712,235.64758 L 527.30712,235.47729 L 525.97839,233.84276 L 525.9436,233.161 L 525.5017,231.83166 L 525.22826,231.66197 L 525.02502,231.35436 L 524.68384,231.11633 L 524.47936,230.80933 L 524.20592,230.57129 L 523.32092,230.5371 L 522.63916,230.19591 L 522.23083,230.19591 L 521.85607,230.29845 L 521.54907,230.12756 L 521.03394,228.76038 L 520.17395,228.16284 L 520.36498,227.5183 L 519.04662,226.83838 L 518.87572,226.7694 L 517.99987,226.56249 L 516.97265,226.77734 L 516.81396,226.03942 L 515.99608,225.0183 L 516.6095,224.33715 L 515.79162,223.61999 L 515.45105,223.28002 L 515.92772,223.04138 L 516.33666,222.73559 L 516.8811,223.51927 L 517.25646,223.48449 L 517.69897,223.17749 L 517.9718,222.90526 L 517.90405,222.73559 L 518.24462,222.46215 L 518.78967,222.19055 L 519.16442,222.19055 L 519.57336,222.088 L 519.84557,221.3037 L 520.39062,221.20177 L 520.59509,220.8612 L 521.61681,220.58899 L 521.75415,220.04332 L 521.58325,219.80467 L 521.61681,219.53246 L 520.86731,218.71459 L 520.59509,218.51074 L 520.4248,218.57849 L 519.98169,218.20373 L 519.60753,218.06763 L 519.2334,217.6245 L 519.13025,217.21558 L 519.02771,216.8756 L 519.06188,216.77306 L 519.06188,216.73889 L 519.77782,216.39831 L 519.98169,216.46666 L 520.69701,215.61401 L 520.69701,215.20507 L 520.28868,214.86571 L 520.62927,214.52514 L 519.70947,214.32006 L 519.09667,214.86571 L 518.75549,214.45618 L 518.92638,213.26415 L 519.40307,212.65075 L 519.40307,211.90124 L 517.15454,210.70861 L 516.57531,210.8789 L 514.19006,210.8789 L 513.8501,210.70861 L 513.27026,209.89013 L 512.35107,210.02746 L 511.80602,210.06103 L 510.16967,210.64025 L 509.01122,211.49169 L 508.97705,210.8789 L 508.2959,210.91308 L 508.02428,211.21947 L 507.27416,210.46996 L 507.27416,210.60669 L 507.10387,210.98021 L 507.40966,211.45751 L 507.64831,212.00316 L 507.95471,211.93541 L 508.12561,212.13927 L 508.53454,212.276 L 508.60351,212.78625 L 508.73901,213.26415 L 508.33007,214.04724 L 507.81982,214.45618 L 507.27416,215.30761 L 506.7633,215.7849 L 506.62597,216.43249 L 506.2854,216.2622 L 505.87707,216.12549 L 504.7528,215.7849 L 504.00329,215.88745 L 503.32275,215.88745 L 502.74291,216.12549 L 502.36816,216.2622 L 501.44836,216.29516 L 500.83496,215.85388 L 500.73302,215.68359 L 500.69885,215.3424 L 500.66406,215.17211 L 500.49438,214.96704 L 499.67712,213.8092 L 499.77905,213.5028 L 499.71069,213.29773 L 499.47204,213.29773 L 499.33655,213.09325 L 499.0979,213.0249 L 498.99596,212.75329 L 498.927,212.48046 L 498.68896,212.24243 L 498.17749,211.93541 L 497.87108,211.76452 L 497.66662,211.56066 L 497.29247,211.52649 L 496.61071,211.59424 L 495.62255,212.00316 L 495.34972,212.07152 L 495.2478,211.96899 L 495.14465,211.56066 L 495.11168,211.3562 L 494.87303,211.21947 L 494.56603,211.08336 L 494.328,211.08336 L 494.05456,211.15173 L 493.81652,211.25365 L 493.57726,211.42394 L 493.51073,211.83226 L 493.27087,212.1057 L 492.96509,211.96899 L 492.62451,211.93541 L 492.28394,211.83226 L 492.0105,211.73095 L 491.77246,211.62841 L 491.53381,211.59424 L 491.19323,211.66259 L 490.98815,211.66259 L 490.75012,211.52649 L 490.54687,211.49169 L 490.44372,211.25365 L 490.06835,211.01561 L 489.96642,210.4016 L 490.23925,209.75464 L 490.57982,209.3457 L 490.98815,208.5614 L 491.22741,207.77831 L 490.9552,206.7224 L 490.57982,205.70068 L 490.92041,205.29174 L 490.85326,204.20165 L 490.1715,203.89404 M 268.9917,204.03075 L 267.76488,204.54163 L 266.70837,204.78088 L 266.19811,205.0531 L 265.72082,205.4956 L 265.27771,205.46203 L 264.08569,205.76843 L 264.08569,205.97229 L 264.86877,206.24572 L 265.37964,207.06299 L 265.85753,207.47131 L 265.92467,208.5614 L 264.56176,208.5968 L 263.88061,209.0393 L 263.40392,209.3457 L 262.51891,209.75464 L 262.58666,210.67444 L 259.8944,211.01561 L 259.69116,210.46996 L 259.31579,210.09521 L 259.21263,210.84533 L 258.56627,210.8789 L 258.39598,210.2655 L 257.1698,210.50414 L 256.89697,210.94726 L 256.24938,211.18591 L 256.89697,212.68433 L 256.28295,213.22936 L 257.1698,214.86571 L 257.68066,215.03479 L 258.29345,216.2622 L 258.02123,216.67052 L 258.94103,217.7954 L 259.281,217.69286 L 259.72411,217.35229 L 261.46117,218.98803 L 261.49657,217.69286 L 262.51891,217.82959 L 263.50585,216.63635 L 263.33617,214.79614 L 263.57482,214.49035 L 264.39209,213.97949 L 264.01793,213.0249 L 264.35851,212.17345 L 265.27771,211.45751 L 266.91345,211.45751 L 267.59521,210.77697 L 268.88855,210.2655 L 269.70641,209.65209 L 270.62561,208.90257 L 271.64856,208.18786 L 271.8872,208.08533 L 271.37633,207.74475 L 270.66161,207.40416 L 270.25207,207.33581 L 270.32103,206.55211 L 270.0824,205.8374 L 270.21789,205.1892 L 270.45592,204.64416 L 269.43481,204.40551 L 268.9917,204.03075 M 435.31921,212.583 L 435.35339,212.583 L 435.0122,213.67309 L 435.31921,212.583 z"
       style="fill:#a80000;fill-opacity:1;fill-rule:nonzero;stroke:#4a5153;stroke-width:0.62597501000000000;stroke-linecap:butt;stroke-linejoin:miter;stroke-miterlimit:4;stroke-dasharray:none;stroke-opacity:1"
       id="path2429" />
    <path
       d="M 427.77343,123.64319 L 428.06824,123.61694 L 428.38012,123.4906 L 428.41675,123.1787 L 428.15795,123.0249 L 428.37157,123.11584 L 428.57787,122.78503 L 428.64075,122.54516 L 428.48815,122.50976 L 428.59557,122.40966 L 428.63097,122.21374 L 428.4082,122.16125 L 428.21166,122.24853 L 427.96081,122.41881 L 427.96081,122.21374 L 428.25622,122.07946 L 428.28246,121.76879 L 428.19335,121.5454 L 428.61938,121.57165 L 428.61327,121.82129 L 428.81896,121.94762 L 429.0863,121.90308 L 429.17664,121.3031 L 429.24682,121.13464 L 429.43358,120.9558 L 429.19188,120.43945 L 428.94226,120.6787 L 428.67553,120.75866 L 428.38012,120.77636 L 428.17565,120.77636 L 428.12195,120.84839 L 427.72766,121.00951 L 427.62146,121.19689 L 427.51404,121.80298 L 427.26562,122.34801 L 426.74803,121.31103 L 426.5509,121.84753 L 425.99792,122.88512 L 426.19445,123.09814 L 427.30164,123.66943 L 427.77343,123.64319"
       style="fill:#aab021;fill-opacity:1;fill-rule:nonzero;stroke:#4a5153;stroke-width:0.49713749;stroke-linecap:butt;stroke-linejoin:miter;stroke-miterlimit:4;stroke-dasharray:none;stroke-opacity:1"
       id="path2431" />
    <path
       d="M 378.87877,198.38379 L 378.78478,198.1964 L 378.61327,197.99926 L 378.38927,197.96386 L 378.01391,198.00902 L 377.79052,197.93822 L 377.48596,197.79358 L 377.17651,197.8247 L 377.17101,197.74963 L 377.63671,197.33764 L 378.13904,197.32849 L 378.55896,197.48108 L 378.58581,197.41394 L 378.3142,196.51305 L 378.21471,196.37939 L 378.22265,195.8435 L 378.07251,195.85693 L 375.29662,200.66466 L 375.23132,201.062 L 375.04638,201.09862 L 373.23973,204.22729 L 373.30688,204.53551 L 373.97033,204.55383 L 374.49829,204.6881 L 374.62462,204.95605 L 374.92126,205.05431 L 375.02441,205.07629 L 378.88305,198.39233 L 378.87877,198.38379 z"
       style="fill:#a80000;fill-opacity:1;fill-rule:nonzero;stroke:#4a5153;stroke-width:0.62597501000000000;stroke-linecap:butt;stroke-linejoin:miter;stroke-miterlimit:4;stroke-dasharray:none;stroke-opacity:1"
       id="path2433" />
    <path
       d="M 386.72851,193.11035 L 386.59362,192.6007 L 386.59118,192.40416 L 385.85632,192.01049 L 385.87462,191.9464 L 385.68054,191.71386 L 376.89941,206.92382 L 377.25585,207.4591 L 377.53295,207.52135 L 377.38158,208.00475 L 377.43652,208.22814 L 377.33947,208.31786 L 377.39867,208.69384 L 377.98461,208.703 L 378.10912,208.72497 L 386.97876,193.36364 L 386.72851,193.11035 z"
       style="fill:#a80000;fill-opacity:1;fill-rule:nonzero;stroke:#4a5153;stroke-width:0.62597501000000000;stroke-linecap:butt;stroke-linejoin:miter;stroke-miterlimit:4;stroke-dasharray:none;stroke-opacity:1"
       id="path2435" />
    <path
       d="M 379.01611,194.90477 L 379.70886,195.9851 L 379.60205,196.12975 L 379.84557,196.72606 L 381.9989,192.99499 L 381.76757,192.88024 L 381.54052,192.7539 L 381.53442,192.77649 L 380.96007,192.77649 L 380.00182,192.70507 L 379.88158,192.72339 L 378.83727,194.53307 L 379.01611,194.90477 z"
       style="fill:#a80000;fill-opacity:1;fill-rule:nonzero;stroke:#4a5153;stroke-width:0.62597501000000000;stroke-linecap:butt;stroke-linejoin:miter;stroke-miterlimit:4;stroke-dasharray:none;stroke-opacity:1"
       id="path2437" />
    <path
       d="M 390.09155,205.95764 L 388.90136,205.10986 L 389.44641,204.68018 L 389.21386,204.70703 L 388.84765,204.79614 L 388.69567,204.59166 L 389.09545,204.00085 L 389.09545,203.73046 L 390.79467,203.48144 L 391.18041,203.55162 L 391.40013,203.50036 L 391.33666,203.38745 L 390.93993,202.84118 L 390.19347,201.35802 L 385.12756,210.13061 L 386.25366,209.64355 L 386.24816,209.63013 L 387.37487,208.99475 L 387.53601,209.15526 L 388.53576,208.65173 L 390.09155,205.95764 z"
       style="fill:#a80000;fill-opacity:1;fill-rule:nonzero;stroke:#4a5153;stroke-width:0.62597501000000000;stroke-linecap:butt;stroke-linejoin:miter;stroke-miterlimit:4;stroke-dasharray:none;stroke-opacity:1"
       id="path2439" />
    <path
       d="M 379.19433,197.56774 L 379.26208,197.7362 L 379.70215,196.97388 L 379.19433,197.56774 z"
       style="fill:#ac252a;fill-opacity:1;fill-rule:nonzero;stroke:#4a5153;stroke-width:0.49682501;stroke-linecap:round;stroke-linejoin:round;stroke-miterlimit:4;stroke-dasharray:none;stroke-opacity:1"
       id="path2441" />
    <path
       d="M 382.47497,210.15746 L 388.95874,198.9276 L 388.67126,198.80798 L 388.41186,198.55774 L 387.92664,198.24463 L 387.84606,198.3612 L 387.29797,198.01207 L 387.12829,197.8662 L 379.66002,210.8026 L 379.68383,210.82214 L 379.75646,211.13525 L 380.11414,211.23413 L 380.3125,211.30431 L 380.78674,211.70776 L 381.05164,211.73156 L 381.44531,211.07299 L 381.68273,209.73999 L 382.02208,209.729 L 382.47497,210.15746 z"
       style="fill:#a80000;fill-opacity:1;fill-rule:nonzero;stroke:#4a5153;stroke-width:0.62597501000000000;stroke-linecap:butt;stroke-linejoin:miter;stroke-miterlimit:4;stroke-dasharray:none;stroke-opacity:1"
       id="path2443" />
    <path
       d="M 376.23657,204.94018 L 376.31652,204.94629 L 376.39831,205.37536 L 376.40075,205.77819 L 376.34644,205.99365 L 376.07849,206.15356 L 375.77454,206.333 L 376.7694,206.72668 L 377.25585,207.4591 L 377.53295,207.52135 L 377.38158,208.00475 L 377.43773,208.22814 L 377.33947,208.31786 L 377.39867,208.69384 L 377.98461,208.703 L 378.37157,208.77135 L 378.38927,208.93615 L 378.4375,209.07043 L 378.44849,209.33715 L 378.46435,209.59045 L 378.47228,209.6057 L 378.5614,209.7937 L 378.55896,209.79919 L 378.48998,209.97314 L 378.40026,210.15197 L 378.76831,210.08971 L 378.95568,210.15197 L 379.11742,210.10741 L 379.08996,210.3308 L 379.68383,210.82214 L 379.75646,211.13525 L 380.11414,211.23413 L 380.3125,211.30431 L 380.78674,211.70776 L 381.05164,211.73156 L 381.44531,211.07299 L 381.68273,209.73999 L 382.02208,209.729 L 383.26599,210.90515 L 385.08606,210.14893 L 386.25366,209.64294 L 386.24816,209.63013 L 387.37487,208.99475 L 387.53722,209.15526 L 388.8507,208.49181 L 389.12353,208.29711 L 389.10033,208.25988 L 391.37572,206.87194 L 388.90136,205.10986 L 389.44641,204.68018 L 389.21386,204.7058 L 388.84765,204.79491 L 388.69567,204.59166 L 389.09545,204.00085 L 389.09545,203.73046 L 390.79467,203.48021 L 391.18041,203.55162 L 391.40136,203.50036 L 391.33666,203.38745 L 390.93993,202.84118 L 390.09399,201.16089 L 390.31677,200.97168 L 390.34118,200.21179 L 390.1355,200.22216 L 389.71191,199.39819 L 389.73327,199.1693 L 389.2102,199.03197 L 388.67126,198.80798 L 388.41186,198.55774 L 387.92664,198.24463 L 387.84606,198.3612 L 387.29918,198.01207 L 386.90428,197.67273 L 386.68762,197.35961 L 386.68578,196.86768 L 386.74865,196.54601 L 386.74865,196.5454 L 386.94275,195.94543 L 387.68799,195.68969 L 387.34436,195.05981 L 386.9751,194.60388 L 386.81152,194.11315 L 387.32971,193.71886 L 386.72851,193.11035 L 386.59362,192.6007 L 386.59118,192.40416 L 385.85632,192.01049 L 385.87462,191.9464 L 385.62255,191.64368 L 385.64452,191.44104 L 385.61217,191.38305 L 384.84313,191.17004 L 384.55627,191.29577 L 383.60107,191.81396 L 383.37096,192.68249 L 383.27208,192.95959 L 382.93273,193.45093 L 382.37792,193.18298 L 381.76757,192.88024 L 381.54052,192.7539 L 381.53442,192.77649 L 380.9613,192.77649 L 380.00182,192.70507 L 379.47387,192.78625 L 379.0448,192.78625 L 379.0393,192.77893 L 378.52905,193.23851 L 378.10851,193.63341 L 378.09936,193.67798 L 378.77136,193.83056 L 378.75549,194.06249 L 378.89647,194.16015 L 378.7738,194.40185 L 379.01611,194.90356 L 379.70886,195.9851 L 379.60205,196.12854 L 379.86755,196.78039 L 379.19433,197.56774 L 379.51965,198.37524 L 379.2163,198.46496 L 378.91174,198.44726 L 378.87877,198.38379 L 378.78478,198.1964 L 378.61327,197.99926 L 378.38927,197.96386 L 378.01391,198.00902 L 377.79052,197.93822 L 377.48596,197.79358 L 377.17651,197.8247 L 377.17224,197.74963 L 377.63671,197.33764 L 378.13904,197.32849 L 378.55896,197.48108 L 378.58581,197.41394 L 378.3142,196.51305 L 378.21594,196.37939 L 378.22265,195.8435 L 378.01635,195.86059 L 377.98033,195.62988 L 376.5802,195.27649 L 376.61865,195.4718 L 375.89598,196.25976 L 375.58532,196.59973 L 375.68237,196.69678 L 374.76196,197.40477 L 374.88097,198.20068 L 375.56273,198.7622 L 375.60791,198.80065 L 375.35095,200.34363 L 375.23132,201.062 L 374.03991,201.29638 L 372.92175,201.6101 L 372.7893,201.97754 L 372.73681,202.6123 L 372.64954,202.75513 L 372.22656,203.12316 L 372.01537,203.6682 L 372.00805,203.74206 L 372.45238,203.64135 L 373.16222,203.87329 L 373.3081,204.53551 L 373.97033,204.55383 L 374.49829,204.6881 L 374.62462,204.95605 L 374.92126,205.05431 L 375.42236,205.16174 L 375.73363,204.91028 L 376.04918,204.92798 L 376.23657,204.94018 z"
       style="fill:none;stroke:#4a5153;stroke-width:0.49713749;stroke-linecap:round;stroke-linejoin:round;stroke-miterlimit:4;stroke-dasharray:none;stroke-opacity:1"
       id="path2445" />
    <path
       d="M 376.23657,204.94018 L 376.31652,204.94629 L 376.39831,205.37536 L 376.40075,205.77819 L 376.34644,205.99365 L 376.07849,206.15356 L 375.77454,206.333 L 376.7694,206.72668 L 377.25585,207.4591 L 377.53295,207.52135 L 377.38158,208.00475 L 377.43773,208.22814 L 377.33947,208.31786 L 377.39867,208.69384 L 377.98461,208.703 L 378.37157,208.77135 L 378.38927,208.93615 L 378.4375,209.07043 L 378.44849,209.33715 L 378.46435,209.59045 L 378.47228,209.6057 L 378.5614,209.7937 L 378.55896,209.79919 L 378.48998,209.97314 L 378.40026,210.15197 L 378.76831,210.08971 L 378.95568,210.15197 L 379.11742,210.10741 L 379.08996,210.3308 L 379.68383,210.82214 L 379.75646,211.13525 L 380.11414,211.23413 L 380.3125,211.30431 L 380.78674,211.70776 L 381.05164,211.73156 L 381.44531,211.07299 L 381.68273,209.73999 L 382.02208,209.729 L 383.26599,210.90515 L 385.08606,210.14893 L 386.25366,209.64294 L 386.24816,209.63013 L 387.37487,208.99475 L 387.53722,209.15526 L 388.8507,208.49181 L 389.12353,208.29711 L 389.10033,208.25988 L 391.37572,206.87194 L 388.90136,205.10986 L 389.44641,204.68018 L 389.21386,204.7058 L 388.84765,204.79491 L 388.69567,204.59166 L 389.09545,204.00085 L 389.09545,203.73046 L 390.79467,203.48021 L 391.18041,203.55162 L 391.40136,203.50036 L 391.33666,203.38745 L 390.93993,202.84118 L 390.09399,201.16089 L 390.31677,200.97168 L 390.34118,200.21179 L 390.1355,200.22216 L 389.71191,199.39819 L 389.73327,199.1693 L 389.2102,199.03197 L 388.67126,198.80798 L 388.41186,198.55774 L 387.92664,198.24463 L 387.84606,198.3612 L 387.29918,198.01207 L 386.90428,197.67273 L 386.68762,197.35961 L 386.68578,196.86768 L 386.74865,196.54601 L 386.74865,196.5454 L 386.94275,195.94543 L 387.68799,195.68969 L 387.34436,195.05981 L 386.9751,194.60388 L 386.81152,194.11315 L 387.32971,193.71886 L 386.72851,193.11035 L 386.59362,192.6007 L 386.59118,192.40416 L 385.85632,192.01049 L 385.87462,191.9464 L 385.62255,191.64368 L 385.64452,191.44104 L 385.61217,191.38305 L 384.84313,191.17004 L 384.55627,191.29577 L 383.60107,191.81396 L 383.37096,192.68249 L 383.27208,192.95959 L 382.93273,193.45093 L 382.37792,193.18298 L 381.76757,192.88024 L 381.54052,192.7539 L 381.53442,192.77649 L 380.9613,192.77649 L 380.00182,192.70507 L 379.47387,192.78625 L 379.0448,192.78625 L 379.0393,192.77893 L 378.52905,193.23851 L 378.10851,193.63341 L 378.09936,193.67798 L 378.77136,193.83056 L 378.75549,194.06249 L 378.89647,194.16015 L 378.7738,194.40185 L 379.01611,194.90356 L 379.70886,195.9851 L 379.60205,196.12854 L 379.86755,196.78039 L 379.19433,197.56774 L 379.51965,198.37524 L 379.2163,198.46496 L 378.91174,198.44726 L 378.87877,198.38379 L 378.78478,198.1964 L 378.61327,197.99926 L 378.38927,197.96386 L 378.01391,198.00902 L 377.79052,197.93822 L 377.48596,197.79358 L 377.17651,197.8247 L 377.17224,197.74963 L 377.63671,197.33764 L 378.13904,197.32849 L 378.55896,197.48108 L 378.58581,197.41394 L 378.3142,196.51305 L 378.21594,196.37939 L 378.22265,195.8435 L 378.01635,195.86059 L 377.98033,195.62988 L 376.5802,195.27649 L 376.61865,195.4718 L 375.89598,196.25976 L 375.58532,196.59973 L 375.68237,196.69678 L 374.76196,197.40477 L 374.88097,198.20068 L 375.56273,198.7622 L 375.60791,198.80065 L 375.35095,200.34363 L 375.23132,201.062 L 374.03991,201.29638 L 372.92175,201.6101 L 372.7893,201.97754 L 372.73681,202.6123 L 372.64954,202.75513 L 372.22656,203.12316 L 372.01537,203.6682 L 372.00805,203.74206 L 372.45238,203.64135 L 373.16222,203.87329 L 373.3081,204.53551 L 373.97033,204.55383 L 374.49829,204.6881 L 374.62462,204.95605 L 374.92126,205.05431 L 375.42236,205.16174 L 375.73363,204.91028 L 376.04918,204.92798 L 376.23657,204.94018 z"
       style="fill:none;stroke:#4a5153;stroke-width:0.49713749;stroke-linecap:round;stroke-linejoin:round;stroke-miterlimit:4;stroke-dasharray:none;stroke-opacity:1"
       id="path2447" />
    <path
       d="M 520.47057,216.32873 L 522.38036,215.93018 L 522.53967,217.99988 L 523.33556,218.55713 L 524.60937,219.19372 L 526.04186,219.27368 L 526.28051,217.68126 L 528.35021,217.12463 L 529.46471,220.46752 L 529.78271,221.97936 L 531.02966,221.77306 L 532.13622,223.08105 L 532.09106,224.52697 L 532.17101,225.64086 L 533.28491,225.56151 L 534.39941,225.40221 L 535.11596,226.91466 L 536.15051,227.94921 L 537.02575,226.99401 L 538.69751,227.78991 L 539.57336,229.38171 L 537.74231,230.33691 L 536.15051,230.89416 L 532.72766,231.84936 L 532.64831,233.44115 L 531.13586,235.98815 L 531.53809,237.2412 L 529.87121,236.82434 L 527.85217,237.17101 L 527.61352,236.79565 L 527.71606,236.79565 L 527.3407,236.35375 L 527.06908,236.18285 L 527.30712,235.67199 L 527.30712,235.5017 L 525.97839,233.86717 L 525.9436,233.18541 L 525.5017,231.85608 L 525.22826,231.6864 L 525.02502,231.37878 L 524.68384,231.14074 L 524.47936,230.83374 L 524.20592,230.5957 L 523.32092,230.56151 L 522.63916,230.22033 L 522.23083,230.22033 L 521.85607,230.32288 L 521.54907,230.15197 L 521.03394,228.78479 L 520.17395,228.18725 L 520.36498,227.54271 L 519.04662,226.86279 L 518.87572,226.79381 L 517.99987,226.58691 L 516.97265,226.80175 L 516.81396,226.06384 L 515.99608,225.04271 L 516.6095,224.36156 L 515.79162,223.6444 L 515.45105,223.30444 L 515.92772,223.06579 L 516.33666,222.76 L 516.8811,223.5437 L 517.25646,223.5089 L 517.69897,223.2019 L 517.9718,222.92967 L 517.90405,222.76 L 518.24462,222.48656 L 518.78967,222.21496 L 519.16442,222.21496 L 519.57336,222.11243 L 519.84557,221.32811 L 520.39062,221.22619 L 520.59509,220.88561 L 521.61681,220.6134 L 521.75415,220.06774 L 521.58325,219.8291 L 521.61681,219.55687 L 520.86731,218.73901 L 520.59509,218.53515 L 520.4248,218.6029 L 519.98169,218.22814 L 519.60753,218.09204 L 519.2334,217.64893 L 519.13025,217.23999 L 519.02771,216.90001 L 520.47057,216.32873 z"
       style="fill:#0000a8;fill-opacity:1;fill-rule:nonzero;stroke:#4a5153;stroke-width:0.56998747999999999;stroke-linecap:butt;stroke-linejoin:miter;stroke-miterlimit:4;stroke-dasharray:none;stroke-opacity:1"
       id="path2449" />
    <path
       d="M 523.96056,284.04053 L 523.75915,282.19421 L 523.8269,281.23961 L 523.62303,280.49071 L 523.31603,278.30993 L 523.89465,276.94763 L 523.86107,276.1975 L 523.55407,274.83397 L 523.5205,274.39209 L 523.48632,273.94957 L 524.43786,273.0725 L 524.13146,272.11914 L 523.6206,271.26648 L 524.63195,270.25634 L 522.92602,269.26025 L 522.88635,268.65173 L 522.04345,268.35693 L 521.63512,267.6416 L 521.98607,267.14294 L 522.29247,267.07457 L 522.76977,266.93848 L 523.28002,266.70044 L 523.47777,265.59447 L 523.57971,264.26696 L 524.94995,263.73779 L 527.39135,262.65807 L 528.43566,262.11669 L 531.33361,260.71838 L 532.01537,260.2423 L 531.8103,259.69788 L 531.94762,259.39025 L 531.77672,259.21996 L 532.42431,257.78991 L 532.96204,257.84973 L 533.54309,257.15331 L 534.24011,256.48498 L 533.31053,255.55603 L 533.39782,254.65575 L 532.89611,253.46251 L 532.76306,252.97301 L 533.172,252.70019 L 533.20617,252.35961 L 533.23973,252.15575 L 533.41064,251.91711 L 533.30871,251.26891 L 533.03589,251.09862 L 532.93335,250.72447 L 532.84606,250.06835 L 532.20886,249.35913 L 532.31017,248.20068 L 532.00377,246.52526 L 532.06176,245.94481 L 531.85851,245.45104 L 532.92175,244.13269 L 533.8623,244.20226 L 534.48547,244.12291 L 534.92797,244.19128 L 536.06933,244.1156 L 537.33763,244.94629 L 537.23388,245.51879 L 538.01513,245.88379 L 540.41076,245.67504 L 542.02513,245.93566 L 542.70263,245.57129 L 543.32763,245.67504 L 545.35888,245.67504 L 545.77513,245.93566 L 546.19201,246.45629 L 546.08763,247.55004 L 545.72326,248.38379 L 546.55638,248.48754 L 547.44201,248.17504 L 547.44201,248.85254 L 547.12951,249.47754 L 548.01513,249.42504 C 548.01513,249.42504 548.53515,249.37378 548.58763,249.63379 C 548.64013,249.89379 548.90013,250.51879 548.90013,250.51879 C 548.90013,250.51879 548.53576,250.98754 548.53576,251.14379 C 548.53576,251.30004 548.53576,252.34191 548.53576,252.34191 L 548.32763,253.64379 L 548.90013,254.79004 C 548.90013,254.79004 548.69201,255.88318 548.53576,255.98754 C 548.37951,256.09191 547.49388,256.35254 547.49388,256.35254 L 547.07763,256.82129 L 547.12951,257.60254 L 547.39013,258.38379 L 547.44201,259.42504 L 547.18138,260.20629 L 547.39013,260.67504 L 548.11888,260.77941 L 548.74388,260.93566 L 548.53576,261.61254 L 548.95263,262.18566 L 549.57763,261.92504 L 549.78576,262.75879 L 549.62951,263.48754 C 549.62951,263.48754 550.46263,263.54004 550.61888,263.54004 C 550.77513,263.54004 551.34826,263.27941 551.34826,263.27941 C 551.34826,263.27941 551.29577,264.16504 551.24388,264.32129 C 551.19201,264.47754 550.82763,265.62316 550.82763,265.62316 L 550.61888,266.09191 L 549.62951,265.72754 L 548.79638,265.41504 L 548.01513,265.46691 L 547.49388,265.83129 L 546.71263,265.57129 L 545.93138,265.72754 L 545.82763,266.09191 L 546.19201,266.66504 L 545.93138,267.02941 L 544.89013,267.13379 L 543.48388,266.82129 L 543.06701,266.87316 L 543.01513,267.13379 L 542.39013,267.29004 L 542.33763,267.86254 L 542.23388,268.74816 L 542.33763,269.42504 L 542.23388,270.62316 L 542.12951,271.56066 L 542.49388,271.87316 C 542.49388,271.87316 542.28576,272.29004 542.12951,272.29004 C 541.97326,272.29004 541.19201,271.92504 541.19201,271.92504 L 540.72326,271.87316 L 539.99388,271.61254 L 539.62951,271.66504 L 539.62951,272.18566 L 539.62951,273.07129 L 539.42138,273.54004 L 538.57726,273.02429 L 538.48388,272.96691 L 538.06701,273.38379 L 537.44201,273.48754 L 537.44201,273.80004 L 537.12951,274.11254 L 537.49388,274.42504 L 536.76513,274.79004 L 536.24388,274.58129 L 535.77513,274.68566 L 535.20263,274.99816 L 535.15013,275.31066 L 535.15013,275.88379 L 534.78576,276.40441 L 534.57763,277.44568 L 534.94201,278.22693 L 533.27575,278.38318 L 532.4945,277.91442 L 532.23388,279.16442 L 532.59826,280.36254 L 531.76513,281.97693 L 532.39013,282.60193 L 532.28576,283.53942 L 532.182,284.21691 L 532.54638,284.78942 L 531.40075,284.52941 L 530.51513,284.52941 L 530.307,284.89379 L 529.94201,285.51879 L 529.47326,286.14379 L 528.69201,285.20629 L 528.1195,284.58129 L 527.91076,285.15441 L 527.02575,284.73754 L 526.2445,284.32068 L 526.08825,285.25818 L 525.72326,286.19568 L 524.78576,286.09191 L 524.3695,285.05004 L 523.96056,284.04053 z"
       style="fill:#0000a8;fill-opacity:1;fill-rule:nonzero;stroke:#4a5153;stroke-width:0.56998747999999999;stroke-linecap:butt;stroke-linejoin:miter;stroke-miterlimit:4;stroke-dasharray:none;stroke-opacity:1"
       id="path2455" />
  </g>
</svg>
