<svg width="1275.213" height="737.74" viewBox="0 0 337.4 195.193" xmlns="http://www.w3.org/2000/svg"><defs><path id="a" d="m 212.067,-451.783 h 862.996 V -351.64 H 212.067 Z"/></defs><path paint-order="stroke fill markers" d="M 0,-3.2497978e-4 H 337.39999 V 195.19331 H 0 Z" fill="#f9f9f9"/><g transform="translate(-4.69e-4,0.97249638)" font-weight="500"><g transform="matrix(0.85797012,0,0,0.85797012,-5.657401,292.23576)" font-family="FiraGO" fill="navy"><g aria-label="Serbian Cyrillic alphabet" transform="matrix(0.26458333,0,0,0.26458333,84.368417,-196.55271)" style="line-height:1.25;white-space:pre;shape-inside:url(#a)" font-size="42.667"><path d="m 224.01308,-443.08452 q 3.11467,0 5.41867,0.896 2.304,0.896 4.30934,2.73067 l -2.77334,3.2 q -1.57866,-1.32267 -3.2,-1.92 -1.57867,-0.59734 -3.41333,-0.59734 -2.04801,0 -3.32801,0.93867 -1.23733,0.896 -1.23733,2.56 0,1.10934 0.46933,1.83467 0.512,0.72534 1.792,1.36534 1.28,0.64 3.79734,1.408 4.352,1.36533 6.528,3.41333 2.21867,2.00534 2.21867,5.88801 0,2.64533 -1.36533,4.69333 -1.32267,2.04801 -3.84,3.20001 -2.51734,1.152 -5.97334,1.152 -3.37067,0 -6.05867,-1.06667 -2.64534,-1.10933 -4.56534,-2.98667 l 2.90134,-3.24267 q 1.70666,1.45067 3.54133,2.21867 1.83467,0.72533 4.05334,0.72533 2.432,0 3.92533,-1.152 1.49334,-1.152 1.49334,-3.24267 0,-1.28 -0.512,-2.09066 -0.512,-0.85334 -1.74934,-1.49334 -1.23733,-0.68267 -3.584,-1.408 -4.69334,-1.45067 -6.784,-3.49867 -2.09067,-2.048 -2.09067,-5.376 0,-2.432 1.28,-4.26667 1.28,-1.83467 3.54133,-2.85867 2.30401,-1.024 5.20534,-1.024 z" style="-inkscape-font-specification:'FiraGO Medium'"/><path d="m 257.76242,-424.78051 q 0,0.42667 -0.128,2.21867 h -14.16535 q 0.256,3.28534 1.70667,4.69334 1.45067,1.408 3.84,1.408 1.49334,0 2.81601,-0.46934 1.32266,-0.512 2.816,-1.536 l 2.26133,3.11467 q -3.75467,3.02934 -8.36267,3.02934 -5.16267,0 -7.97867,-3.15734 -2.77334,-3.15733 -2.77334,-8.61867 0,-3.456 1.19467,-6.18667 1.19467,-2.77334 3.456,-4.30934 2.26134,-1.57867 5.37601,-1.57867 4.736,0 7.33867,3.02934 2.60267,2.98667 2.60267,8.36267 z m -5.41867,-1.57867 q 0,-5.93067 -4.39467,-5.93067 -2.00534,0 -3.15734,1.49334 -1.10933,1.45066 -1.32267,4.69333 h 8.87468 z" style="-inkscape-font-specification:'FiraGO Medium'"/><path d="m 273.71975,-436.12985 q 1.23734,0 2.26134,0.29867 l -0.93867,5.29067 q -1.024,-0.256 -2.00533,-0.256 -2.00534,0 -3.15734,1.45066 -1.152,1.40801 -1.83467,4.35201 v 12.03201 h -5.46133 v -22.57069 h 4.736 l 0.512,4.43734 q 0.81067,-2.432 2.34667,-3.712 1.536,-1.32267 3.54133,-1.32267 z" style="-inkscape-font-specification:'FiraGO Medium'"/><path d="m 290.99978,-436.17252 q 3.92533,0 6.144,3.15734 2.21867,3.11467 2.21867,8.74667 0,3.49867 -1.10933,6.22934 -1.06667,2.688 -3.07201,4.224 -2.00533,1.49334 -4.736,1.49334 -1.83467,0 -3.37067,-0.768 -1.49333,-0.768 -2.60267,-2.176 l -0.34133,2.304 h -4.82134 v -31.61603 l 5.46134,-0.59733 v 12.20268 q 1.10933,-1.53601 2.688,-2.34667 1.62134,-0.85334 3.54134,-0.85334 z m -2.048,19.75468 q 2.21866,0 3.456,-1.87733 1.23733,-1.92 1.23733,-5.97334 0,-4.26667 -1.152,-6.016 -1.152,-1.792 -3.24267,-1.792 -2.60267,0 -4.48,3.072 v 9.98401 q 0.72533,1.23733 1.792,1.92 1.10934,0.68266 2.38934,0.68266 z" style="-inkscape-font-specification:'FiraGO Medium'"/><path d="m 309.90115,-412.96183 h -5.46134 v -22.57069 h 5.46134 z m -2.77334,-34.00536 q 1.536,0 2.47467,0.98133 0.98133,0.93867 0.98133,2.34667 0,1.408 -0.98133,2.34667 -0.93867,0.93867 -2.47467,0.93867 -1.49333,0 -2.47467,-0.93867 -0.93866,-0.93867 -0.93866,-2.34667 0,-1.408 0.93866,-2.34667 0.98134,-0.98133 2.47467,-0.98133 z" style="-inkscape-font-specification:'FiraGO Medium'"/><path d="m 333.06917,-418.93517 q 0,1.32267 0.384,1.96267 0.42666,0.59733 1.32266,0.93866 l -1.152,3.62667 q -1.92,-0.17066 -3.15733,-0.93866 -1.19467,-0.768 -1.83467,-2.34667 -1.152,1.70667 -2.90134,2.56 -1.70666,0.81067 -3.84,0.81067 -3.37067,0 -5.33334,-1.92 -1.96267,-1.92001 -1.96267,-5.03467 0,-3.66934 2.64534,-5.58934 2.688,-1.96267 7.63734,-1.96267 h 2.816 v -1.28 q 0,-2.176 -1.024,-3.02934 -0.98133,-0.896 -3.2,-0.896 -2.47467,0 -5.97334,1.19467 l -1.28,-3.712 q 4.224,-1.62134 8.19201,-1.62134 8.66134,0 8.66134,7.76534 z m -9.72801,2.64533 q 2.77333,0 4.352,-2.77333 v -4.56534 h -2.26133 q -5.29067,0 -5.29067,3.92534 0,1.62133 0.81066,2.51733 0.81067,0.896 2.38934,0.896 z" style="-inkscape-font-specification:'FiraGO Medium'"/><path d="m 351.62916,-436.17252 q 3.02934,0 4.69334,1.83467 1.70666,1.792 1.70666,5.03467 v 16.34135 h -5.46133 v -15.48801 q 0,-2.00534 -0.72534,-2.81601 -0.68266,-0.81066 -2.048,-0.81066 -1.408,0 -2.56,0.896 -1.10933,0.85333 -2.176,2.51733 v 15.70135 h -5.46134 v -22.57069 h 4.736 l 0.42667,2.94401 q 2.77334,-3.58401 6.86934,-3.58401 z" style="-inkscape-font-specification:'FiraGO Medium'"/><path d="m 386.35986,-443.08452 q 2.688,0 4.69333,0.768 2.00534,0.768 3.92534,2.34667 l -2.85867,3.328 q -2.60267,-2.09067 -5.46134,-2.09067 -3.28533,0 -5.29067,2.64534 -1.96266,2.64533 -1.96266,8.32 0,5.54667 1.96266,8.23468 1.96267,2.688 5.29067,2.688 1.74934,0 3.11467,-0.59734 1.36534,-0.64 2.90134,-1.792 l 2.64533,3.328 q -1.49333,1.53601 -3.79733,2.56001 -2.26134,1.024 -5.07734,1.024 -3.84,0 -6.784,-1.792 -2.94401,-1.79201 -4.56534,-5.24801 -1.62134,-3.49867 -1.62134,-8.40534 0,-4.82133 1.66401,-8.27734 1.70666,-3.456 4.608,-5.248 2.944,-1.792 6.61334,-1.792 z" style="-inkscape-font-specification:'FiraGO Medium'"/><path d="m 407.94927,-412.8765 q -1.36534,4.18134 -4.13867,6.48534 -2.77334,2.34667 -7.59467,2.73067 l -0.55467,-3.96801 q 2.21867,-0.34133 3.54133,-0.98133 1.36534,-0.59733 2.17601,-1.62133 0.81066,-1.02401 1.49333,-2.73067 h -1.87733 l -7.16801,-22.57069 h 5.80267 l 4.90667,18.94402 5.12001,-18.94402 h 5.632 z" style="-inkscape-font-specification:'FiraGO Medium'"/><path d="m 429.66664,-436.12985 q 1.23733,0 2.26133,0.29867 l -0.93866,5.29067 q -1.024,-0.256 -2.00534,-0.256 -2.00533,0 -3.15733,1.45066 -1.15201,1.40801 -1.83467,4.35201 v 12.03201 h -5.46134 v -22.57069 h 4.736 l 0.512,4.43734 q 0.81067,-2.432 2.34667,-3.712 1.536,-1.32267 3.54134,-1.32267 z" style="-inkscape-font-specification:'FiraGO Medium'"/><path d="m 440.71732,-412.96183 h -5.46133 v -22.57069 h 5.46133 z m -2.77333,-34.00536 q 1.536,0 2.47467,0.98133 0.98133,0.93867 0.98133,2.34667 0,1.408 -0.98133,2.34667 -0.93867,0.93867 -2.47467,0.93867 -1.49334,0 -2.47467,-0.93867 -0.93867,-0.93867 -0.93867,-2.34667 0,-1.408 0.93867,-2.34667 0.98133,-0.98133 2.47467,-0.98133 z" style="-inkscape-font-specification:'FiraGO Medium'"/><path d="m 452.36533,-412.32183 q -2.60266,0 -4.05333,-1.49334 -1.45067,-1.536 -1.45067,-4.30933 v -26.45336 l 5.46134,-0.59733 v 26.88002 q 0,0.81067 0.29866,1.19467 0.29867,0.384 0.98134,0.384 0.68267,0 1.23733,-0.21334 l 1.19467,3.84001 q -1.70667,0.768 -3.66934,0.768 z" style="-inkscape-font-specification:'FiraGO Medium'"/><path d="m 465.03738,-412.32183 q -2.60267,0 -4.05334,-1.49334 -1.45067,-1.536 -1.45067,-4.30933 v -26.45336 l 5.46134,-0.59733 v 26.88002 q 0,0.81067 0.29867,1.19467 0.29866,0.384 0.98133,0.384 0.68267,0 1.23734,-0.21334 l 1.19466,3.84001 q -1.70666,0.768 -3.66933,0.768 z" style="-inkscape-font-specification:'FiraGO Medium'"/><path d="m 477.92275,-412.96183 h -5.46133 v -22.57069 h 5.46133 z m -2.77333,-34.00536 q 1.536,0 2.47467,0.98133 0.98133,0.93867 0.98133,2.34667 0,1.408 -0.98133,2.34667 -0.93867,0.93867 -2.47467,0.93867 -1.49334,0 -2.47467,-0.93867 -0.93867,-0.93867 -0.93867,-2.34667 0,-1.408 0.93867,-2.34667 0.98133,-0.98133 2.47467,-0.98133 z" style="-inkscape-font-specification:'FiraGO Medium'"/><path d="m 493.49608,-436.17252 q 2.21867,0 3.96801,0.64 1.792,0.64 3.37067,2.00534 l -2.43201,3.28533 q -1.152,-0.85333 -2.21866,-1.23733 -1.06667,-0.384 -2.34667,-0.384 -5.07734,0 -5.07734,7.72267 0,3.92534 1.32267,5.67467 1.32267,1.70667 3.75467,1.70667 1.19467,0 2.176,-0.384 1.024,-0.384 2.38933,-1.23733 l 2.43201,3.456 q -3.20001,2.60267 -7.29601,2.60267 -3.24267,0 -5.632,-1.408 -2.38934,-1.45067 -3.66934,-4.09601 -1.28,-2.64533 -1.28,-6.22933 0,-3.58401 1.28,-6.31468 1.28,-2.77333 3.66934,-4.26667 2.38933,-1.536 5.58933,-1.536 z" style="-inkscape-font-specification:'FiraGO Medium'"/><path d="m 532.15216,-418.93517 q 0,1.32267 0.384,1.96267 0.42667,0.59733 1.32267,0.93866 l -1.152,3.62667 q -1.92001,-0.17066 -3.15734,-0.93866 -1.19467,-0.768 -1.83467,-2.34667 -1.152,1.70667 -2.90133,2.56 -1.70667,0.81067 -3.84001,0.81067 -3.37067,0 -5.33333,-1.92 -1.96267,-1.92001 -1.96267,-5.03467 0,-3.66934 2.64533,-5.58934 2.688,-1.96267 7.63734,-1.96267 h 2.816 v -1.28 q 0,-2.176 -1.024,-3.02934 -0.98133,-0.896 -3.2,-0.896 -2.47467,0 -5.97334,1.19467 l -1.28,-3.712 q 4.22401,-1.62134 8.19201,-1.62134 8.66134,0 8.66134,7.76534 z m -9.72801,2.64533 q 2.77334,0 4.352,-2.77333 v -4.56534 h -2.26133 q -5.29067,0 -5.29067,3.92534 0,1.62133 0.81067,2.51733 0.81066,0.896 2.38933,0.896 z" style="-inkscape-font-specification:'FiraGO Medium'"/><path d="m 543.62946,-412.32183 q -2.60266,0 -4.05333,-1.49334 -1.45067,-1.536 -1.45067,-4.30933 v -26.45336 l 5.46134,-0.59733 v 26.88002 q 0,0.81067 0.29866,1.19467 0.29867,0.384 0.98134,0.384 0.68267,0 1.23733,-0.21334 l 1.19467,3.84001 q -1.70667,0.768 -3.66934,0.768 z" style="-inkscape-font-specification:'FiraGO Medium'"/><path d="m 562.74419,-436.17252 q 4.26667,0 6.31467,3.11467 2.04801,3.11467 2.04801,8.74668 0,3.49866 -1.06667,6.22933 -1.024,2.68801 -3.072,4.22401 -2.00534,1.536 -4.77867,1.536 -3.58401,0 -5.67467,-2.47467 v 10.53867 l -5.46134,0.59734 v -31.87203 h 4.77867 l 0.29867,2.77334 q 1.32266,-1.70667 3.02933,-2.56 1.70667,-0.85334 3.584,-0.85334 z m -2.09066,19.66935 q 4.736,0 4.736,-7.76534 0,-4.13867 -1.06667,-5.97334 -1.06667,-1.83466 -3.2,-1.83466 -1.36534,0 -2.56,0.85333 -1.19467,0.81067 -2.048,2.21867 v 10.15467 q 1.57866,2.34667 4.13867,2.34667 z" style="-inkscape-font-specification:'FiraGO Medium'"/><path d="m 588.21623,-436.17252 q 2.98667,0 4.69334,1.83467 1.70667,1.83467 1.70667,5.03467 v 16.34135 h -5.46134 v -15.48801 q 0,-2.00534 -0.72533,-2.81601 -0.68267,-0.81066 -2.048,-0.81066 -1.36534,0 -2.51734,0.896 -1.152,0.85333 -2.21867,2.47467 v 15.74401 h -5.46134 v -31.57336 l 5.46134,-0.55467 v 12.24535 q 2.73067,-3.32801 6.57067,-3.32801 z" style="-inkscape-font-specification:'FiraGO Medium'"/><path d="m 617.52829,-418.93517 q 0,1.32267 0.384,1.96267 0.42666,0.59733 1.32267,0.93866 l -1.15201,3.62667 q -1.92,-0.17066 -3.15733,-0.93866 -1.19467,-0.768 -1.83467,-2.34667 -1.152,1.70667 -2.90134,2.56 -1.70666,0.81067 -3.84,0.81067 -3.37067,0 -5.33334,-1.92 -1.96266,-1.92001 -1.96266,-5.03467 0,-3.66934 2.64533,-5.58934 2.688,-1.96267 7.63734,-1.96267 h 2.816 v -1.28 q 0,-2.176 -1.024,-3.02934 -0.98133,-0.896 -3.2,-0.896 -2.47467,0 -5.97334,1.19467 l -1.28,-3.712 q 4.224,-1.62134 8.19201,-1.62134 8.66134,0 8.66134,7.76534 z m -9.72801,2.64533 q 2.77334,0 4.352,-2.77333 v -4.56534 h -2.26133 q -5.29067,0 -5.29067,3.92534 0,1.62133 0.81066,2.51733 0.81067,0.896 2.38934,0.896 z" style="-inkscape-font-specification:'FiraGO Medium'"/><path d="m 635.74694,-436.17252 q 3.92534,0 6.144,3.15734 2.21867,3.11467 2.21867,8.74667 0,3.49867 -1.10933,6.22934 -1.06667,2.688 -3.072,4.224 -2.00534,1.49334 -4.73601,1.49334 -1.83467,0 -3.37067,-0.768 -1.49333,-0.768 -2.60266,-2.176 l -0.34134,2.304 h -4.82134 v -31.61603 l 5.46134,-0.59733 v 12.20268 q 1.10934,-1.53601 2.688,-2.34667 1.62134,-0.85334 3.54134,-0.85334 z m -2.048,19.75468 q 2.21867,0 3.456,-1.87733 1.23734,-1.92 1.23734,-5.97334 0,-4.26667 -1.15201,-6.016 -1.152,-1.792 -3.24266,-1.792 -2.60267,0 -4.48001,3.072 v 9.98401 q 0.72534,1.23733 1.792,1.92 1.10934,0.68266 2.38934,0.68266 z" style="-inkscape-font-specification:'FiraGO Medium'"/><path d="m 667.78965,-424.78051 q 0,0.42667 -0.128,2.21867 h -14.16534 q 0.256,3.28534 1.70667,4.69334 1.45066,1.408 3.84,1.408 1.49333,0 2.816,-0.46934 1.32267,-0.512 2.816,-1.536 l 2.26134,3.11467 q -3.75467,3.02934 -8.36267,3.02934 -5.16268,0 -7.97868,-3.15734 -2.77333,-3.15733 -2.77333,-8.61867 0,-3.456 1.19466,-6.18667 1.19467,-2.77334 3.45601,-4.30934 2.26133,-1.57867 5.376,-1.57867 4.736,0 7.33867,3.02934 2.60267,2.98667 2.60267,8.36267 z m -5.41867,-1.57867 q 0,-5.93067 -4.39467,-5.93067 -2.00533,0 -3.15733,1.49334 -1.10934,1.45066 -1.32267,4.69333 h 8.87467 z" style="-inkscape-font-specification:'FiraGO Medium'"/><path d="m 685.62433,-414.0285 q -1.19467,0.85333 -2.68801,1.28 -1.45066,0.42667 -2.98667,0.42667 -3.328,-0.0427 -5.07733,-1.87734 -1.70667,-1.87733 -1.70667,-5.504 v -11.90401 h -3.54134 v -3.92534 h 3.54134 v -4.992 l 5.46134,-0.64 v 5.632 h 5.248 l -0.55467,3.92534 h -4.69333 v 11.77601 q 0,1.664 0.55466,2.38933 0.59734,0.72534 1.83467,0.72534 1.23734,0 2.688,-0.81067 z" style="-inkscape-font-specification:'FiraGO Medium'"/></g><g aria-label="Српска ћирилица / Srpska ćirilica" style="line-height:1.25" font-size="11.289" stroke-width=".265"><path d="m 119.21499,-294.2167 q 0.7112,0 1.24178,0.2032 0.53058,0.2032 1.03858,0.62089 l -0.75636,0.88054 q -0.68862,-0.55316 -1.44498,-0.55316 -0.86924,0 -1.39982,0.69991 -0.51929,0.69991 -0.51929,2.20134 0,1.46755 0.51929,2.17875 0.51929,0.71121 1.39982,0.71121 0.46285,0 0.82409,-0.15805 0.36125,-0.16933 0.76765,-0.47413 l 0.69991,0.88053 q -0.39511,0.4064 -1.00471,0.67734 -0.59831,0.27093 -1.34338,0.27093 -1.016,0 -1.79494,-0.47413 -0.77893,-0.47414 -1.20791,-1.38854 -0.42898,-0.92569 -0.42898,-2.22391 0,-1.27565 0.44027,-2.19005 0.45156,-0.9144 1.2192,-1.38853 0.77894,-0.47414 1.74978,-0.47414 z" style="-inkscape-font-specification:'FiraGO Medium'"/><path d="m 125.67225,-292.3879 q 1.12889,0 1.67076,0.82409 0.54187,0.82409 0.54187,2.31423 0,0.92569 -0.28223,1.64818 -0.27093,0.7112 -0.8128,1.1176 -0.53058,0.4064 -1.26435,0.4064 -0.94827,0 -1.50143,-0.65476 v 2.78836 l -1.44498,0.15805 v -8.43281 h 1.26436 l 0.079,0.73378 q 0.34996,-0.45156 0.80151,-0.67734 0.45156,-0.22578 0.94827,-0.22578 z m -0.55316,5.20419 q 1.25307,0 1.25307,-2.05458 0,-1.09503 -0.28222,-1.58045 -0.28222,-0.48542 -0.84667,-0.48542 -0.36124,0 -0.67733,0.22578 -0.31609,0.21449 -0.54187,0.58702 v 2.68676 q 0.41769,0.62089 1.09502,0.62089 z" style="-inkscape-font-specification:'FiraGO Medium'"/><path d="m 132.66009,-291.11225 h -1.98685 v 4.86552 h -1.44498 v -5.97183 h 4.87681 v 5.97183 h -1.44498 z" style="-inkscape-font-specification:'FiraGO Medium'"/><path d="m 138.22553,-292.3879 q 0.58702,0 1.04986,0.16934 0.47414,0.16933 0.89183,0.53058 l -0.64347,0.86924 q -0.3048,-0.22578 -0.58702,-0.32738 -0.28223,-0.1016 -0.62089,-0.1016 -1.34338,0 -1.34338,2.04329 0,1.03858 0.34995,1.50143 0.34996,0.45155 0.99343,0.45155 0.31609,0 0.57573,-0.1016 0.27093,-0.1016 0.63218,-0.32737 l 0.64347,0.9144 q -0.84667,0.68862 -1.93041,0.68862 -0.85795,0 -1.49013,-0.37253 -0.63218,-0.38383 -0.97085,-1.08374 -0.33866,-0.69991 -0.33866,-1.64818 0,-0.94827 0.33866,-1.67076 0.33867,-0.73377 0.97085,-1.12889 0.63218,-0.4064 1.47885,-0.4064 z" style="-inkscape-font-specification:'FiraGO Medium'"/><path d="m 144.46829,-289.45278 1.86267,3.20605 h -1.59173 l -1.45627,-2.6529 h -0.64347 v 2.6529 h -1.44498 v -5.97183 h 1.44498 v 2.35938 h 0.67734 l 1.38853,-2.35938 h 1.45627 z" style="-inkscape-font-specification:'FiraGO Medium'"/><path d="m 151.59159,-287.82718 q 0,0.34996 0.1016,0.51929 0.11289,0.15804 0.34996,0.24835 l -0.3048,0.95956 q -0.50801,-0.0451 -0.83538,-0.24835 -0.31609,-0.2032 -0.48543,-0.62089 -0.3048,0.45155 -0.76764,0.67733 -0.45156,0.21449 -1.016,0.21449 -0.89183,0 -1.41112,-0.508 -0.51928,-0.508 -0.51928,-1.33209 0,-0.97085 0.69991,-1.47885 0.7112,-0.51929 2.02071,-0.51929 h 0.74507 v -0.33866 q 0,-0.57574 -0.27094,-0.80152 -0.25964,-0.23706 -0.84666,-0.23706 -0.65476,0 -1.58045,0.31609 l -0.33867,-0.98214 q 1.1176,-0.42898 2.16747,-0.42898 2.29165,0 2.29165,2.05458 z m -2.57387,0.69991 q 0.73378,0 1.15147,-0.73378 v -1.20791 h -0.59831 q -1.39983,0 -1.39983,1.03858 0,0.42898 0.21449,0.66604 0.21449,0.23707 0.63218,0.23707 z" style="-inkscape-font-specification:'FiraGO Medium'"/><path d="m 159.41479,-292.3879 q 0.79022,0 1.24178,0.48543 0.45156,0.48542 0.45156,1.33209 v 4.32365 h -1.44498 v -4.09788 q 0,-0.53057 -0.19191,-0.74506 -0.19192,-0.21449 -0.55316,-0.21449 -0.36125,0 -0.66605,0.23706 -0.3048,0.22578 -0.58702,0.65476 v 4.16561 h -1.44498 v -6.78463 h -0.75635 v -0.92569 h 0.75635 v -0.64347 l 1.44498,-0.14676 v 0.79023 h 1.60302 v 0.92569 h -1.60302 v 1.53529 q 0.69991,-0.89183 1.74978,-0.89183 z" style="-inkscape-font-specification:'FiraGO Medium'"/><path d="m 167.70085,-286.24673 h -1.38854 v -2.39325 q 0,-0.65476 0.0565,-1.23049 0.0564,-0.58702 0.12417,-0.88054 l -2.22391,4.50428 h -1.54658 v -5.97183 h 1.39983 v 2.39324 q 0,0.6096 -0.0677,1.21921 -0.0564,0.59831 -0.11289,0.88053 l 2.19005,-4.49298 h 1.56916 z" style="-inkscape-font-specification:'FiraGO Medium'"/><path d="m 172.48733,-292.3879 q 1.12889,0 1.67076,0.82409 0.54187,0.82409 0.54187,2.31423 0,0.92569 -0.28222,1.64818 -0.27094,0.7112 -0.8128,1.1176 -0.53058,0.4064 -1.26436,0.4064 -0.94827,0 -1.50142,-0.65476 v 2.78836 l -1.44498,0.15805 v -8.43281 h 1.26435 l 0.079,0.73378 q 0.34996,-0.45156 0.80152,-0.67734 0.45155,-0.22578 0.94826,-0.22578 z m -0.55315,5.20419 q 1.25307,0 1.25307,-2.05458 0,-1.09503 -0.28223,-1.58045 -0.28222,-0.48542 -0.84666,-0.48542 -0.36125,0 -0.67734,0.22578 -0.31609,0.21449 -0.54186,0.58702 v 2.68676 q 0.41768,0.62089 1.09502,0.62089 z" style="-inkscape-font-specification:'FiraGO Medium'"/><path d="m 181.02175,-286.24673 h -1.38853 v -2.39325 q 0,-0.65476 0.0564,-1.23049 0.0564,-0.58702 0.12418,-0.88054 l -2.22391,4.50428 h -1.54658 v -5.97183 h 1.39982 v 2.39324 q 0,0.6096 -0.0677,1.21921 -0.0564,0.59831 -0.11289,0.88053 l 2.19004,-4.49298 h 1.56916 z" style="-inkscape-font-specification:'FiraGO Medium'"/><path d="m 187.46771,-292.21856 v 5.97183 h -1.44498 v -4.87681 h -1.45627 l -0.14675,1.60302 q -0.11289,1.26436 -0.27094,1.89654 -0.15804,0.63218 -0.53057,0.98213 -0.36125,0.33867 -1.11761,0.53058 l -0.36124,-1.07244 q 0.37253,-0.15805 0.53058,-0.34996 0.16933,-0.2032 0.23706,-0.63218 0.079,-0.42898 0.15805,-1.45627 l 0.2032,-2.59644 z" style="-inkscape-font-specification:'FiraGO Medium'"/><path d="m 194.13944,-286.24673 h -1.38853 v -2.39325 q 0,-0.65476 0.0564,-1.23049 0.0564,-0.58702 0.12418,-0.88054 l -2.22391,4.50428 H 189.161 v -5.97183 h 1.39982 v 2.39324 q 0,0.6096 -0.0677,1.21921 -0.0565,0.59831 -0.11289,0.88053 l 2.19004,-4.49298 h 1.56916 z" style="-inkscape-font-specification:'FiraGO Medium'"/><path d="m 201.57882,-287.34176 v 2.87867 h -1.06115 l -0.19191,-1.78364 h -4.49299 v -5.97183 h 1.44498 v 4.86551 h 1.93041 v -4.86551 h 1.44497 v 4.8768 z" style="-inkscape-font-specification:'FiraGO Medium'"/><path d="m 206.92976,-287.82718 q 0,0.34996 0.1016,0.51929 0.11289,0.15804 0.34995,0.24835 l -0.3048,0.95956 q -0.508,-0.0451 -0.83537,-0.24835 -0.31609,-0.2032 -0.48543,-0.62089 -0.3048,0.45155 -0.76764,0.67733 -0.45156,0.21449 -1.016,0.21449 -0.89183,0 -1.41112,-0.508 -0.51929,-0.508 -0.51929,-1.33209 0,-0.97085 0.69992,-1.47885 0.7112,-0.51929 2.02071,-0.51929 h 0.74507 v -0.33866 q 0,-0.57574 -0.27094,-0.80152 -0.25964,-0.23706 -0.84666,-0.23706 -0.65476,0 -1.58045,0.31609 l -0.33867,-0.98214 q 1.1176,-0.42898 2.16747,-0.42898 2.29165,0 2.29165,2.05458 z m -2.57387,0.69991 q 0.73378,0 1.15147,-0.73378 v -1.20791 h -0.59831 q -1.39983,0 -1.39983,1.03858 0,0.42898 0.21449,0.66604 0.21449,0.23707 0.63218,0.23707 z" style="-inkscape-font-specification:'FiraGO Medium'"/><path d="m 215.50932,-295.1311 -2.63031,10.10357 -1.25307,-0.29351 2.6416,-10.09228 z" style="-inkscape-font-specification:'FiraGO Medium'"/><path d="m 222.48587,-294.2167 q 0.82409,0 1.43369,0.23707 0.6096,0.23707 1.14018,0.72249 l -0.73378,0.84667 q -0.41769,-0.34996 -0.84667,-0.508 -0.41769,-0.15805 -0.90311,-0.15805 -0.54187,0 -0.88054,0.24836 -0.32737,0.23706 -0.32737,0.67733 0,0.29351 0.12417,0.48542 0.13547,0.19191 0.47414,0.36125 0.33866,0.16933 1.00471,0.37253 1.15147,0.36125 1.7272,0.90311 0.58702,0.53058 0.58702,1.55787 0,0.69991 -0.36124,1.24178 -0.34996,0.54187 -1.016,0.84667 -0.66605,0.3048 -1.58045,0.3048 -0.89182,0 -1.60302,-0.28222 -0.69991,-0.29352 -1.20791,-0.79023 l 0.76764,-0.85795 q 0.45156,0.38382 0.93698,0.58702 0.48542,0.19191 1.07244,0.19191 0.64347,0 1.03858,-0.3048 0.39512,-0.3048 0.39512,-0.85796 0,-0.33866 -0.13547,-0.55315 -0.13547,-0.22578 -0.46285,-0.39511 -0.32737,-0.18063 -0.94826,-0.37254 -1.24178,-0.38382 -1.79494,-0.92569 -0.55316,-0.54186 -0.55316,-1.4224 0,-0.64347 0.33867,-1.12889 0.33867,-0.48542 0.93698,-0.75635 0.6096,-0.27094 1.37725,-0.27094 z" style="-inkscape-font-specification:'FiraGO Medium'"/><path d="m 229.43982,-292.37661 q 0.32738,0 0.59831,0.079 l -0.24835,1.39983 q -0.27094,-0.0677 -0.53058,-0.0677 -0.53058,0 -0.83538,0.38382 -0.3048,0.37253 -0.48542,1.15147 v 3.18347 h -1.44498 v -5.97183 h 1.25307 l 0.13546,1.17404 q 0.21449,-0.64346 0.62089,-0.98213 0.4064,-0.34996 0.93698,-0.34996 z" style="-inkscape-font-specification:'FiraGO Medium'"/><path d="m 234.01183,-292.3879 q 1.12889,0 1.67076,0.82409 0.54187,0.82409 0.54187,2.31423 0,0.92569 -0.28223,1.64818 -0.27093,0.7112 -0.8128,1.1176 -0.53057,0.4064 -1.26435,0.4064 -0.94827,0 -1.50143,-0.65476 v 2.78836 l -1.44498,0.15805 v -8.43281 h 1.26436 l 0.079,0.73378 q 0.34996,-0.45156 0.80151,-0.67734 0.45156,-0.22578 0.94827,-0.22578 z m -0.55315,5.20419 q 1.25306,0 1.25306,-2.05458 0,-1.09503 -0.28222,-1.58045 -0.28222,-0.48542 -0.84667,-0.48542 -0.36124,0 -0.67733,0.22578 -0.31609,0.21449 -0.54187,0.58702 v 2.68676 q 0.41769,0.62089 1.09503,0.62089 z" style="-inkscape-font-specification:'FiraGO Medium'"/><path d="m 239.47567,-292.3879 q 1.20791,0 2.12231,0.7112 l -0.56444,0.84667 q -0.76765,-0.48542 -1.50143,-0.48542 -0.42898,0 -0.66604,0.16933 -0.23707,0.15805 -0.23707,0.42898 0,0.2032 0.1016,0.33867 0.1016,0.13546 0.36125,0.25964 0.27093,0.11289 0.79022,0.25965 0.97084,0.25964 1.43369,0.68862 0.47413,0.42898 0.47413,1.19662 0,0.89183 -0.72249,1.39983 -0.72249,0.49671 -1.79493,0.49671 -0.73378,0 -1.34338,-0.22578 -0.59831,-0.22578 -1.03858,-0.62089 l 0.72249,-0.8128 q 0.77893,0.58702 1.6256,0.58702 0.48542,0 0.76765,-0.19191 0.29351,-0.19191 0.29351,-0.53058 0,-0.25964 -0.11289,-0.4064 -0.1016,-0.15804 -0.38382,-0.27093 -0.27094,-0.12418 -0.85796,-0.29351 -0.9144,-0.24836 -1.34338,-0.68862 -0.42898,-0.45156 -0.42898,-1.11761 0,-0.49671 0.28222,-0.89182 0.29352,-0.39511 0.81281,-0.62089 0.53057,-0.22578 1.20791,-0.22578 z" style="-inkscape-font-specification:'FiraGO Medium'"/><path d="m 244.36377,-286.24673 h -1.44498 v -8.36508 l 1.44498,-0.15804 z m 1.59173,-3.34152 2.17876,3.34152 h -1.65947 l -2.05458,-3.2625 1.99814,-2.70933 h 1.524 z" style="-inkscape-font-specification:'FiraGO Medium'"/><path d="m 253.27072,-287.82718 q 0,0.34996 0.1016,0.51929 0.11289,0.15804 0.34995,0.24835 l -0.3048,0.95956 q -0.508,-0.0451 -0.83538,-0.24835 -0.31609,-0.2032 -0.48542,-0.62089 -0.3048,0.45155 -0.76764,0.67733 -0.45156,0.21449 -1.01601,0.21449 -0.89182,0 -1.41111,-0.508 -0.51929,-0.508 -0.51929,-1.33209 0,-0.97085 0.69991,-1.47885 0.7112,-0.51929 2.02072,-0.51929 h 0.74506 v -0.33866 q 0,-0.57574 -0.27093,-0.80152 -0.25964,-0.23706 -0.84667,-0.23706 -0.65475,0 -1.58044,0.31609 l -0.33867,-0.98214 q 1.1176,-0.42898 2.16747,-0.42898 2.29165,0 2.29165,2.05458 z m -2.57387,0.69991 q 0.73378,0 1.15146,-0.73378 v -1.20791 H 251.25 q -1.39982,0 -1.39982,1.03858 0,0.42898 0.21449,0.66604 0.21449,0.23707 0.63218,0.23707 z" style="-inkscape-font-specification:'FiraGO Medium'"/><path d="m 260.24725,-292.3879 q 0.58703,0 1.04987,0.16934 0.47414,0.16933 0.89182,0.53058 l -0.64346,0.86924 q -0.3048,-0.22578 -0.58703,-0.32738 -0.28222,-0.1016 -0.62089,-0.1016 -1.34337,0 -1.34337,2.04329 0,1.03858 0.34995,1.50143 0.34996,0.45155 0.99342,0.45155 0.31609,0 0.57574,-0.1016 0.27093,-0.1016 0.63218,-0.32737 l 0.64346,0.9144 q -0.84666,0.68862 -1.9304,0.68862 -0.85795,0 -1.49013,-0.37253 -0.63218,-0.38383 -0.97085,-1.08374 -0.33866,-0.69991 -0.33866,-1.64818 0,-0.94827 0.33866,-1.67076 0.33867,-0.73377 0.97085,-1.12889 0.63218,-0.4064 1.47884,-0.4064 z m 1.43369,-1.98684 -2.55129,1.016 -0.4064,-0.73378 2.37067,-1.41111 z" style="-inkscape-font-specification:'FiraGO Medium'"/><path d="m 264.66122,-286.24673 h -1.44498 v -5.97183 h 1.44498 z m -0.73378,-8.99726 q 0.4064,0 0.65476,0.25965 0.25964,0.24835 0.25964,0.62089 0,0.37253 -0.25964,0.62089 -0.24836,0.24835 -0.65476,0.24835 -0.39511,0 -0.65475,-0.24835 -0.24836,-0.24836 -0.24836,-0.62089 0,-0.37254 0.24836,-0.62089 0.25964,-0.25965 0.65475,-0.25965 z" style="-inkscape-font-specification:'FiraGO Medium'"/><path d="m 269.30095,-292.37661 q 0.32738,0 0.59831,0.079 l -0.24835,1.39983 q -0.27094,-0.0677 -0.53058,-0.0677 -0.53058,0 -0.83538,0.38382 -0.3048,0.37253 -0.48542,1.15147 v 3.18347 h -1.44498 v -5.97183 h 1.25307 l 0.13546,1.17404 q 0.21449,-0.64346 0.62089,-0.98213 0.4064,-0.34996 0.93698,-0.34996 z" style="-inkscape-font-specification:'FiraGO Medium'"/><path d="m 272.22478,-286.24673 h -1.44498 v -5.97183 h 1.44498 z m -0.73378,-8.99726 q 0.4064,0 0.65475,0.25965 0.25965,0.24835 0.25965,0.62089 0,0.37253 -0.25965,0.62089 -0.24835,0.24835 -0.65475,0.24835 -0.39511,0 -0.65476,-0.24835 -0.24836,-0.24836 -0.24836,-0.62089 0,-0.37254 0.24836,-0.62089 0.25965,-0.25965 0.65476,-0.25965 z" style="-inkscape-font-specification:'FiraGO Medium'"/><path d="m 275.30665,-286.0774 q -0.68862,0 -1.07244,-0.39511 -0.38383,-0.4064 -0.38383,-1.14018 v -6.99912 l 1.44498,-0.15804 v 7.112 q 0,0.21449 0.079,0.31609 0.079,0.1016 0.25965,0.1016 0.18062,0 0.32738,-0.0564 l 0.31609,1.016 q -0.45156,0.2032 -0.97085,0.2032 z" style="-inkscape-font-specification:'FiraGO Medium'"/><path d="m 278.71591,-286.24673 h -1.44498 v -5.97183 h 1.44498 z m -0.73378,-8.99726 q 0.4064,0 0.65476,0.25965 0.25964,0.24835 0.25964,0.62089 0,0.37253 -0.25964,0.62089 -0.24836,0.24835 -0.65476,0.24835 -0.39511,0 -0.65475,-0.24835 -0.24836,-0.24836 -0.24836,-0.62089 0,-0.37254 0.24836,-0.62089 0.25964,-0.25965 0.65475,-0.25965 z" style="-inkscape-font-specification:'FiraGO Medium'"/><path d="m 282.83635,-292.3879 q 0.58702,0 1.04987,0.16934 0.47413,0.16933 0.89182,0.53058 l -0.64347,0.86924 q -0.3048,-0.22578 -0.58702,-0.32738 -0.28222,-0.1016 -0.62089,-0.1016 -1.34338,0 -1.34338,2.04329 0,1.03858 0.34996,1.50143 0.34995,0.45155 0.99342,0.45155 0.31609,0 0.57573,-0.1016 0.27094,-0.1016 0.63218,-0.32737 l 0.64347,0.9144 q -0.84667,0.68862 -1.9304,0.68862 -0.85796,0 -1.49014,-0.37253 -0.63217,-0.38383 -0.97084,-1.08374 -0.33867,-0.69991 -0.33867,-1.64818 0,-0.94827 0.33867,-1.67076 0.33867,-0.73377 0.97084,-1.12889 0.63218,-0.4064 1.47885,-0.4064 z" style="-inkscape-font-specification:'FiraGO Medium'"/><path d="m 290.18545,-287.82718 q 0,0.34996 0.1016,0.51929 0.11289,0.15804 0.34996,0.24835 l -0.3048,0.95956 q -0.508,-0.0451 -0.83538,-0.24835 -0.31609,-0.2032 -0.48543,-0.62089 -0.3048,0.45155 -0.76764,0.67733 -0.45156,0.21449 -1.016,0.21449 -0.89183,0 -1.41111,-0.508 -0.51929,-0.508 -0.51929,-1.33209 0,-0.97085 0.69991,-1.47885 0.7112,-0.51929 2.02071,-0.51929 h 0.74507 v -0.33866 q 0,-0.57574 -0.27094,-0.80152 -0.25964,-0.23706 -0.84666,-0.23706 -0.65476,0 -1.58045,0.31609 l -0.33867,-0.98214 q 1.11761,-0.42898 2.16747,-0.42898 2.29165,0 2.29165,2.05458 z m -2.57387,0.69991 q 0.73378,0 1.15147,-0.73378 v -1.20791 h -0.59831 q -1.39983,0 -1.39983,1.03858 0,0.42898 0.21449,0.66604 0.21449,0.23707 0.63218,0.23707 z" style="-inkscape-font-specification:'FiraGO Medium'"/></g></g><g aria-label="А а Б бδ В в Г г Д д Ђ ђ Е е Ж ж З з И и Ј ј К к Л л Љ љ М м Н н Њ њ О о П п Р р С с Т т Ћ ћ У у Ф ф Х х Ц ц Ч ч Џ џ Ш ш" style="line-height:1.25;-inkscape-font-specification:'Overpass Medium'" font-size="19.05" font-family="Overpass" stroke-width=".265" transform="matrix(0.8836764,0,0,0.8836764,-41.313377,-92.013327)"><g transform="translate(1.7994992)"><g transform="translate(-99.65639)"><path d="m 158.51684,191.28021 v -1.00965 h 0.2286 q 0.51435,0 0.85725,-0.2667 0.36195,-0.2667 0.66675,-1.12395 l 4.13385,-11.2014 h 2.60985 l 3.98145,11.22045 q 0.28575,0.8001 0.62865,1.08585 0.36195,0.28575 0.81915,0.28575 h 0.3429 v 1.00965 h -6.2865 v -1.00965 h 0.74295 q 0.28575,0 0.55245,-0.17145 0.2667,-0.17145 0.2667,-0.5715 0,-0.2286 -0.0572,-0.43815 -0.0572,-0.2286 -0.1143,-0.381 l -0.66675,-1.905 h -4.62915 l -0.55245,1.6383 q -0.0762,0.2286 -0.1524,0.55245 -0.0762,0.3048 -0.0762,0.5334 0,0.36195 0.2667,0.55245 0.2667,0.1905 0.59055,0.1905 h 0.8001 v 1.00965 z m 4.47675,-5.6388 h 3.8481 l -1.00965,-3.1242 q -0.1905,-0.6477 -0.43815,-1.4478 -0.2286,-0.8001 -0.381,-1.46685 -0.17145,0.6096 -0.4191,1.39065 -0.24765,0.762 -0.47625,1.42875 z" style="-inkscape-font-specification:'Noto Serif Bold'" font-weight="700" font-family="'Noto Serif'"/><path d="m 181.5864,191.47071 q -1.2573,0 -2.1336,-0.762 -0.85725,-0.762 -0.85725,-2.34315 0,-1.54305 1.0668,-2.286 1.0668,-0.74295 3.2004,-0.81915 l 1.5621,-0.0572 v -1.04775 q 0,-0.9525 -0.20955,-1.5621 -0.1905,-0.6096 -0.97155,-0.6096 -0.7239,0 -1.00965,0.59055 -0.2667,0.5715 -0.2667,1.46685 -1.27635,0 -1.92405,-0.28575 -0.6477,-0.28575 -0.6477,-0.9906 0,-0.70485 0.5334,-1.12395 0.5334,-0.4191 1.42875,-0.6096 0.89535,-0.20955 1.96215,-0.20955 2.00025,0 2.99085,0.7239 1.00965,0.7239 1.00965,2.5146 v 4.85775 q 0,0.78105 0.24765,1.0668 0.24765,0.28575 0.89535,0.28575 h 0.0762 v 1.00965 h -3.5433 l -0.40005,-1.31445 h -0.17145 q -0.4191,0.51435 -0.8001,0.85725 -0.36195,0.32385 -0.8382,0.47625 -0.47625,0.17145 -1.20015,0.17145 z m 1.04775,-1.39065 q 0.81915,0 1.2954,-0.66675 0.4953,-0.66675 0.4953,-1.77165 v -1.42875 l -0.85725,0.0572 q -1.143,0.0572 -1.58115,0.6096 -0.43815,0.5334 -0.43815,1.5621 0,1.6383 1.08585,1.6383 z" fill="#4d4d4d"/></g><g transform="translate(-98.570535)"><path d="m 158.97404,216.75774 v -1.00965 h 0.8001 q 0.40005,0 0.6858,-0.1905 0.28575,-0.1905 0.28575,-0.9525 v -9.20115 q 0,-0.81915 -0.28575,-1.0287 -0.2667,-0.20955 -0.6858,-0.20955 h -0.8001 v -1.00965 h 10.57275 l 0.0762,3.5052 h -1.3335 l -0.0952,-0.89535 q -0.0762,-0.70485 -0.36195,-1.0668 -0.2667,-0.381 -0.85725,-0.381 h -3.2004 v 4.7625 h 4.51485 v 1.143 h -4.51485 v 5.3721 h 3.81 q 0.5715,0 0.8382,-0.40005 0.28575,-0.4191 0.381,-1.04775 l 0.1524,-0.89535 h 1.31445 l -0.13335,3.5052 z" style="-inkscape-font-specification:'Noto Serif Bold'" font-weight="700" font-family="'Noto Serif'"/><path d="m 181.66259,216.94824 q -2.41935,0 -3.67665,-1.3716 -1.2573,-1.39065 -1.2573,-3.86715 0,-2.68605 1.23825,-4.0386 1.23825,-1.3716 3.48615,-1.3716 2.07645,0 3.25755,1.16205 1.20015,1.16205 1.20015,3.429 v 0.97155 h -6.2484 q 0.0572,1.905 0.70485,2.7813 0.66675,0.8763 1.84785,0.8763 0.9906,0 1.6764,-0.43815 0.6858,-0.4572 1.00965,-1.1049 0.51435,0.28575 0.51435,0.93345 0,0.81915 -0.9144,1.42875 -0.9144,0.6096 -2.83845,0.6096 z m 1.3335,-6.30555 q 0,-1.46685 -0.3429,-2.286 -0.3429,-0.81915 -1.16205,-0.81915 -0.8001,0 -1.27635,0.8001 -0.47625,0.78105 -0.51435,2.30505 z" fill="#4d4d4d"/></g><g transform="translate(-100.10406)"><path d="m 159.96464,242.36861 q -0.6858,0 -1.1049,-0.36195 -0.4191,-0.381 -0.4191,-1.0668 0,-0.59055 0.28575,-0.93345 0.28575,-0.3429 0.6477,-0.3429 0,0.36195 0.2286,0.62865 0.24765,0.2667 0.6096,0.2667 0.62865,0 1.0668,-0.51435 0.4572,-0.51435 0.8382,-1.96215 0.1905,-0.74295 0.36195,-1.65735 0.17145,-0.9144 0.28575,-1.8669 0.13335,-0.9525 0.20955,-1.7907 0.0762,-0.85725 0.1143,-1.4859 0.0572,-0.62865 0.0572,-0.8763 0,-0.5334 -0.4572,-0.6477 -0.43815,-0.1143 -1.0668,-0.1143 h -0.28575 v -1.00965 h 10.42035 v 1.00965 h -0.8001 q -0.40005,0 -0.6858,0.20955 -0.28575,0.20955 -0.28575,1.0287 v 9.20115 q 0,0.762 0.28575,0.9525 0.3048,0.1905 0.6858,0.1905 h 0.8001 v 1.00965 h -6.57225 v -1.00965 h 0.81915 q 0.40005,0 0.6858,-0.20955 0.28575,-0.20955 0.28575,-1.0287 v -10.34415 h -2.4765 q -0.0571,1.1811 -0.17145,2.49555 -0.1143,1.31445 -0.28575,2.6289 -0.17145,1.2954 -0.40005,2.4765 -0.20955,1.1811 -0.4953,2.11455 -0.51435,1.73355 -1.31445,2.38125 -0.8001,0.62865 -1.8669,0.62865 z" style="-inkscape-font-specification:'Noto Serif Bold'" font-weight="700" font-family="'Noto Serif'"/><path d="m 178.84318,242.36861 q -0.762,0 -1.1811,-0.3429 -0.4191,-0.36195 -0.4191,-0.9906 0,-0.62865 0.3429,-0.93345 0.36195,-0.3048 0.70485,-0.3048 0,0.3429 0.20955,0.59055 0.2286,0.24765 0.59055,0.24765 0.3048,0 0.59055,-0.13335 0.3048,-0.1524 0.6096,-0.6858 0.3048,-0.5334 0.62865,-1.73355 0.1524,-0.5334 0.3048,-1.2573 0.17145,-0.7239 0.28575,-1.42875 0.1143,-0.70485 0.1143,-1.1811 0,-0.762 -0.43815,-0.97155 -0.4191,-0.20955 -1.04775,-0.20955 h -0.24765 v -1.00965 h 9.62025 v 1.00965 h -0.2286 q -0.2667,0 -0.59055,0.0952 -0.32385,0.0762 -0.55245,0.3429 -0.20955,0.24765 -0.20955,0.8001 v 5.715 q 0,0.5334 0.20955,0.8001 0.2286,0.2667 0.55245,0.36195 0.32385,0.0762 0.59055,0.0762 h 0.2286 v 1.00965 h -5.96265 v -1.00965 h 0.2286 q 0.2667,0 0.55245,-0.0762 0.28575,-0.0952 0.4953,-0.36195 0.20955,-0.2667 0.20955,-0.8001 v -6.87705 h -2.15265 q -0.1905,1.7526 -0.47625,3.33375 -0.28575,1.5621 -0.6477,2.83845 -0.4953,1.7526 -1.1811,2.41935 -0.66675,0.66675 -1.73355,0.66675 z" fill="#4d4d4d"/></g><g transform="translate(-101.24707)"><path d="m 158.97404,267.71278 v -1.00965 h 0.8001 q 0.40005,0 0.6858,-0.20955 0.28575,-0.20955 0.28575,-1.0287 v -9.1821 q 0,-0.762 -0.3048,-0.9525 -0.28575,-0.20955 -0.66675,-0.20955 h -0.8001 v -1.00965 h 14.34465 v 1.00965 h -0.8001 q -0.40005,0 -0.6858,0.20955 -0.28575,0.20955 -0.28575,1.0287 v 9.20115 q 0,0.762 0.28575,0.9525 0.3048,0.1905 0.6858,0.1905 h 0.8001 v 1.00965 h -6.57225 v -1.00965 h 0.81915 q 0.40005,0 0.6858,-0.20955 0.28575,-0.20955 0.28575,-1.0287 v -10.19175 h -4.78155 v 10.19175 q 0,0.81915 0.28575,1.0287 0.28575,0.20955 0.6858,0.20955 h 0.81915 v 1.00965 z" style="-inkscape-font-specification:'Noto Serif Bold'" font-weight="700" font-family="'Noto Serif'"/><path d="m 179.12895,267.71278 v -1.00965 h 0.2286 q 0.28575,0 0.59055,-0.0762 0.32385,-0.0953 0.5334,-0.36195 0.2286,-0.2667 0.2286,-0.8001 v -5.7912 q 0,-0.51435 -0.2286,-0.762 -0.2286,-0.24765 -0.55245,-0.32385 -0.3048,-0.0762 -0.5715,-0.0762 h -0.2286 v -1.00965 h 12.13485 v 1.00965 h -0.2286 q -0.2667,0 -0.59055,0.0762 -0.3048,0.0762 -0.5334,0.32385 -0.2286,0.24765 -0.2286,0.762 v 5.7912 q 0,0.5334 0.20955,0.8001 0.2286,0.2667 0.55245,0.36195 0.32385,0.0762 0.59055,0.0762 h 0.2286 v 1.00965 h -5.77215 v -1.00965 h 0.0381 q 0.2667,0 0.55245,-0.0762 0.28575,-0.0953 0.4953,-0.36195 0.20955,-0.2667 0.20955,-0.8001 v -6.87705 h -3.18135 v 6.87705 q 0,0.5334 0.20955,0.8001 0.20955,0.2667 0.4953,0.36195 0.3048,0.0762 0.55245,0.0762 h 0.0381 v 1.00965 z" fill="#4d4d4d"/></g><g transform="translate(-102.79964)"><path d="m 163.33649,293.1903 v -1.00965 h 0.24765 q 0.6477,0 1.1049,-0.1905 0.4572,-0.20955 0.4572,-0.97155 v -0.381 h -0.59055 q -1.54305,0 -2.60985,-0.381 -1.04775,-0.381 -1.69545,-1.0287 -0.6477,-0.6477 -0.9525,-1.4478 -0.28575,-0.8001 -0.28575,-1.65735 0,-1.8669 1.23825,-3.0099 1.2573,-1.16205 3.8481,-1.16205 h 1.04775 v -0.1905 q 0,-0.762 -0.4572,-0.9525 -0.4572,-0.20955 -1.1049,-0.20955 h -0.24765 v -1.00965 h 6.4008 v 1.00965 h -0.24765 q -0.6477,0 -1.1049,0.20955 -0.4572,0.1905 -0.4572,0.9525 v 0.1905 h 1.04775 q 2.60985,0 3.8481,1.16205 1.23825,1.143 1.23825,3.0099 0,0.85725 -0.3048,1.65735 -0.28575,0.8001 -0.93345,1.4478 -0.6477,0.6477 -1.7145,1.0287 -1.04775,0.381 -2.5908,0.381 h -0.59055 v 0.381 q 0,0.762 0.4572,0.97155 0.4572,0.1905 1.1049,0.1905 h 0.24765 v 1.00965 z m 1.2573,-3.6576 h 0.55245 v -6.45795 h -0.8001 q -1.3335,0 -1.905,0.762 -0.55245,0.762 -0.55245,2.3622 0,1.80975 0.62865,2.57175 0.62865,0.762 2.07645,0.762 z m 3.8862,0 q 1.4478,0 2.07645,-0.762 0.62865,-0.762 0.62865,-2.57175 0,-1.6002 -0.55245,-2.3622 -0.55245,-0.762 -1.905,-0.762 h -0.8001 v 6.45795 z" style="-inkscape-font-specification:'Noto Serif Bold'" font-weight="700" font-family="'Noto Serif'"/><path d="m 184.482,297.7623 v -1.00965 h 0.2286 q 0.28575,0 0.59055,-0.0762 0.32385,-0.0762 0.5334,-0.3429 0.2286,-0.2667 0.2286,-0.8001 v -2.2479 q -1.7145,-0.0953 -2.9718,-0.74295 -1.23825,-0.6477 -1.92405,-1.77165 -0.6858,-1.143 -0.6858,-2.7051 0,-2.3241 1.4478,-3.67665 1.46685,-1.3716 4.13385,-1.50495 V 280.884 q 0,-0.51435 -0.2286,-0.762 -0.2286,-0.24765 -0.55245,-0.32385 -0.3048,-0.0762 -0.5715,-0.0762 h -0.2286 v -1.00965 h 4.32435 v 4.191 q 1.69545,0.0953 2.9337,0.74295 1.23825,0.6477 1.905,1.77165 0.6858,1.1049 0.6858,2.64795 0,2.34315 -1.4478,3.71475 -1.4478,1.35255 -4.0767,1.50495 v 2.2479 q 0,0.5334 0.20955,0.8001 0.2286,0.2667 0.55245,0.3429 0.32385,0.0762 0.59055,0.0762 h 0.2286 v 1.00965 z m 1.58115,-13.6398 q -1.39065,0.17145 -2.0574,1.1811 -0.66675,1.00965 -0.66675,2.76225 0,1.7526 0.66675,2.80035 0.66675,1.0287 2.0574,1.2192 z m 2.7432,7.94385 q 1.35255,-0.1905 2.00025,-1.2192 0.66675,-1.04775 0.66675,-2.7813 0,-1.73355 -0.66675,-2.7432 -0.6477,-1.00965 -2.00025,-1.20015 z" fill="#4d4d4d"/></g></g><g transform="translate(-12.744228)"><g transform="translate(-66.543725)"><path d="m 199.17092,191.28021 v -1.00965 h 0.8001 q 0.5715,0 0.762,-0.28575 0.20955,-0.3048 0.20955,-0.97155 v -9.08685 q 0,-0.78105 -0.2667,-1.00965 -0.2667,-0.2286 -0.70485,-0.2286 h -0.8001 v -1.00965 h 10.22985 l 0.0952,3.6957 h -1.27635 l -0.13335,-1.1811 q -0.0762,-0.62865 -0.40005,-0.9906 -0.32385,-0.36195 -1.1811,-0.36195 h -2.5527 v 4.78155 h 1.20015 q 1.8288,0 2.9337,0.4953 1.12395,0.47625 1.61925,1.3335 0.51435,0.85725 0.51435,1.9812 0,1.7145 -1.2573,2.7813 -1.2573,1.0668 -3.90525,1.0668 z m 5.715,-1.12395 q 1.16205,0 1.6383,-0.6477 0.47625,-0.6477 0.47625,-1.9812 0,-1.524 -0.55245,-2.15265 -0.5334,-0.6477 -1.77165,-0.6477 h -0.7239 v 5.42925 z" style="-inkscape-font-specification:'Noto Serif Bold'" font-weight="700" font-family="'Noto Serif'"/><path d="m 221.53561,191.47071 q -2.41935,0 -3.6576,-1.524 -1.2192,-1.54305 -1.2192,-4.74345 0,-1.61925 0.1905,-2.99085 0.20955,-1.3716 0.762,-2.41935 0.55245,-1.04775 1.54305,-1.6764 1.00965,-0.6477 2.60985,-0.8001 1.4097,-0.1524 2.38125,-0.24765 0.97155,-0.1143 1.2192,-0.47625 h 0.89535 q -0.019,0.97155 -0.3429,1.54305 -0.3048,0.55245 -0.8763,0.85725 -0.5715,0.3048 -1.42875,0.4572 -0.8382,0.1524 -1.9431,0.3048 -1.16205,0.0952 -1.88595,0.3048 -0.70485,0.1905 -1.08585,0.6096 -0.36195,0.40005 -0.51435,1.08585 -0.1524,0.6858 -0.20955,1.7526 h 0.0762 q 0.3429,-0.8763 1.2573,-1.4859 0.9144,-0.6096 2.3622,-0.6096 2.41935,0 3.63855,1.27635 1.2192,1.2573 1.2192,3.7338 0,2.4384 -1.2192,3.75285 -1.2192,1.2954 -3.7719,1.2954 z m 0,-1.20015 q 1.143,0 1.58115,-0.97155 0.4572,-0.9906 0.4572,-2.8575 0,-1.905 -0.4572,-2.8575 -0.43815,-0.97155 -1.58115,-0.97155 -1.16205,0 -1.5621,0.97155 -0.381,0.9525 -0.381,2.8575 0,1.8669 0.4572,2.8575 0.47625,0.97155 1.4859,0.97155 z" fill="#4d4d4d"/><path d="m 233.22222,191.47071 c -0.93787,0 -1.78068,-0.1651 -2.52844,-0.4953 -0.73509,-0.3302 -1.31809,-0.8128 -1.749,-1.4478 -0.41824,-0.6477 -0.62736,-1.4224 -0.62736,-2.3241 0,-0.8763 0.16476,-1.59385 0.49428,-2.15265 0.32952,-0.5715 0.77945,-1.0287 1.34977,-1.3716 0.583,-0.3556 1.24204,-0.64135 1.97713,-0.85725 -0.62102,-0.4445 -1.14699,-0.9398 -1.5779,-1.4859 -0.43091,-0.5588 -0.64637,-1.2065 -0.64637,-1.9431 0,-0.5969 0.16476,-1.0922 0.49428,-1.4859 0.3422,-0.4064 0.8048,-0.70485 1.3878,-0.89535 0.58299,-0.2032 1.24204,-0.3048 1.97712,-0.3048 0.8745,0 1.53332,0.40964 2.28828,0.3947 0.62949,-0.0125 1.21733,-0.13161 1.66096,-0.50907 h 0.46267 c 0,0 -0.0435,0.33788 -0.72032,0.92341 -0.31751,0.2747 -0.64243,0.44333 -1.2551,0.51135 -1.05256,0.11686 -1.89151,-0.25366 -2.47451,-0.25366 -0.51963,0 -0.90618,0.1397 -1.15966,0.4191 -0.2408,0.2667 -0.36121,0.5842 -0.36121,0.9525 0,0.3556 0.0823,0.6731 0.24715,0.9525 0.16476,0.2667 0.42457,0.5334 0.77944,0.8001 0.36754,0.2667 0.84915,0.5842 1.44482,0.9525 0.70974,0.4318 1.32443,0.8763 1.84406,1.3335 0.51963,0.4572 0.92519,0.9652 1.21669,1.524 0.2915,0.5588 0.43725,1.2065 0.43725,1.9431 0,1.5748 -0.45626,2.77495 -1.36878,3.60045 -0.89985,0.8128 -2.09753,1.2192 -3.59305,1.2192 z m 0.038,-1.20015 c 0.6337,0 1.12164,-0.27305 1.46384,-0.81915 0.34219,-0.5588 0.51329,-1.3208 0.51329,-2.286 0,-0.6477 -0.095,-1.18745 -0.28516,-1.61925 -0.19011,-0.4318 -0.44359,-0.80645 -0.76044,-1.12395 -0.30417,-0.3175 -0.64003,-0.6096 -1.00757,-0.8763 -0.31685,0.127 -0.62102,0.3302 -0.91252,0.6096 -0.2915,0.2667 -0.53231,0.6477 -0.72242,1.143 -0.1901,0.4953 -0.28516,1.1557 -0.28516,1.9812 0,0.9144 0.17744,1.64465 0.53231,2.19075 0.35486,0.5334 0.84281,0.8001 1.46383,0.8001 z" style="-inkscape-font-specification:'Noto Serif Bold'" font-weight="700" font-family="'Noto Serif'" fill="#666"/></g><g transform="translate(-64.97207)"><path d="m 195.95143,216.75774 v -1.00965 h 0.1143 q 0.6096,0 1.04775,-0.40005 0.4572,-0.40005 0.97155,-1.31445 l 1.54305,-2.76225 q 0.43815,-0.8001 1.1049,-1.2954 0.6858,-0.4953 1.524,-0.4953 -0.4572,-0.3429 -0.85725,-0.9144 -0.381,-0.59055 -1.00965,-1.7907 -0.59055,-1.143 -0.9906,-1.61925 -0.40005,-0.4953 -0.9906,-0.4953 -0.47625,0 -0.7239,0.3048 -0.24765,0.3048 -0.3429,0.6858 -0.4191,-0.0952 -0.6858,-0.4572 -0.24765,-0.36195 -0.24765,-0.9525 0,-0.5334 0.3429,-0.85725 0.36195,-0.3429 1.16205,-0.3429 0.78105,0 1.3335,0.3048 0.5715,0.3048 1.04775,0.9906 0.4953,0.6858 1.04775,1.80975 0.51435,1.04775 0.93345,1.73355 0.43815,0.6858 0.6858,0.9525 0.3048,0.3048 0.62865,0.43815 0.32385,0.1143 0.9525,0.1143 v -4.05765 q 0,-0.762 -0.28575,-0.9525 -0.28575,-0.20955 -0.6858,-0.20955 h -0.8001 v -1.00965 h 6.19125 v 1.00965 h -0.8001 q -0.4191,0 -0.70485,0.20955 -0.28575,0.20955 -0.28575,1.0287 v 3.98145 q 0.62865,0 0.9525,-0.1143 0.32385,-0.13335 0.62865,-0.43815 0.2667,-0.2667 0.6858,-0.9525 0.4191,-0.6858 0.93345,-1.73355 0.55245,-1.12395 1.0287,-1.80975 0.4953,-0.6858 1.0668,-0.9906 0.5715,-0.3048 1.3335,-0.3048 0.8001,0 1.143,0.3429 0.36195,0.32385 0.36195,0.85725 0,0.59055 -0.24765,0.9525 -0.24765,0.36195 -0.6858,0.4572 -0.0762,-0.381 -0.32385,-0.6858 -0.24765,-0.3048 -0.74295,-0.3048 -0.59055,0 -0.9906,0.4953 -0.381,0.47625 -0.9906,1.61925 -0.62865,1.20015 -1.0287,1.7907 -0.381,0.5715 -0.8382,0.9144 0.8382,0 1.50495,0.4953 0.6858,0.4953 1.12395,1.2954 l 1.54305,2.76225 q 0.51435,0.9144 0.97155,1.31445 0.4572,0.40005 1.04775,0.40005 h 0.1143 v 1.00965 h -1.35255 q -0.97155,0 -1.58115,-0.20955 -0.6096,-0.20955 -0.9906,-0.6096 -0.381,-0.40005 -0.70485,-0.9906 l -1.80975,-3.29565 q -0.3048,-0.55245 -0.6096,-0.8001 -0.3048,-0.24765 -0.6858,-0.3048 -0.36195,-0.0762 -0.85725,-0.0762 v 4.0386 q 0,0.81915 0.28575,1.0287 0.28575,0.20955 0.70485,0.20955 h 0.8001 v 1.00965 h -6.19125 v -1.00965 h 0.8001 q 0.40005,0 0.6858,-0.1905 0.28575,-0.1905 0.28575,-0.9525 v -4.13385 q -0.4953,0 -0.8763,0.0762 -0.36195,0.0572 -0.66675,0.3048 -0.3048,0.24765 -0.6096,0.8001 l -1.80975,3.29565 q -0.32385,0.59055 -0.70485,0.9906 -0.381,0.40005 -0.9906,0.6096 -0.59055,0.20955 -1.58115,0.20955 z" style="-inkscape-font-specification:'Noto Serif Bold'" font-weight="700" font-family="'Noto Serif'"/><path d="m 220.71645,216.75774 v -1.00965 h 0.0571 q 0.6477,0 1.0287,-0.24765 0.40005,-0.24765 0.85725,-1.0287 l 1.04775,-1.7907 q 0.4953,-0.85725 1.1049,-1.2192 0.62865,-0.36195 1.23825,-0.43815 -0.3048,-0.2667 -0.62865,-0.6477 -0.3048,-0.381 -0.8001,-1.1049 -0.51435,-0.78105 -0.85725,-1.1049 -0.3429,-0.3429 -0.6858,-0.3429 -0.4191,0 -0.6477,0.2667 -0.2286,0.2667 -0.3048,0.70485 -0.4572,-0.0381 -0.8001,-0.3429 -0.32385,-0.32385 -0.32385,-0.85725 0,-0.43815 0.3429,-0.8001 0.36195,-0.36195 1.2954,-0.36195 0.762,0 1.23825,0.2667 0.4953,0.2667 0.85725,0.762 0.381,0.47625 0.8001,1.143 0.47625,0.7239 0.762,1.1811 0.3048,0.4572 0.5334,0.6858 0.20955,0.20955 0.4953,0.32385 0.28575,0.0953 0.81915,0.0953 v -2.0955 q 0,-0.55245 -0.2286,-0.8001 -0.20955,-0.2667 -0.5334,-0.3429 -0.3048,-0.0952 -0.59055,-0.0952 h -0.0381 v -1.00965 h 5.39115 v 1.00965 h -0.0381 q -0.24765,0 -0.55245,0.0952 -0.28575,0.0762 -0.4953,0.3429 -0.20955,0.24765 -0.20955,0.8001 v 2.0955 q 0.5334,0 0.81915,-0.0953 0.28575,-0.1143 0.4953,-0.32385 0.2286,-0.2286 0.51435,-0.6858 0.3048,-0.4572 0.78105,-1.1811 0.4191,-0.66675 0.78105,-1.143 0.381,-0.4953 0.8763,-0.762 0.4953,-0.2667 1.23825,-0.2667 0.9525,0 1.2954,0.36195 0.3429,0.36195 0.3429,0.8001 0,0.5334 -0.3429,0.85725 -0.32385,0.3048 -0.78105,0.3429 -0.0762,-0.43815 -0.3048,-0.70485 -0.2286,-0.2667 -0.6477,-0.2667 -0.3429,0 -0.6858,0.3429 -0.3429,0.32385 -0.85725,1.1049 -0.47625,0.7239 -0.8001,1.1049 -0.3048,0.381 -0.62865,0.6477 0.6096,0.0762 1.2192,0.43815 0.62865,0.36195 1.12395,1.2192 l 1.04775,1.7907 q 0.4572,0.78105 0.8382,1.0287 0.40005,0.24765 1.04775,0.24765 h 0.0572 v 1.00965 h -0.8001 q -1.04775,0 -1.77165,-0.1143 -0.7239,-0.13335 -1.23825,-0.51435 -0.51435,-0.381 -0.9525,-1.1811 l -0.97155,-1.80975 q -0.4191,-0.78105 -0.762,-0.9906 -0.32385,-0.20955 -0.93345,-0.20955 v 2.57175 q 0,0.5334 0.20955,0.8001 0.20955,0.2667 0.4953,0.36195 0.3048,0.0762 0.55245,0.0762 h 0.0381 v 1.00965 h -5.39115 v -1.00965 h 0.0381 q 0.28575,0 0.59055,-0.0762 0.32385,-0.0952 0.5334,-0.36195 0.2286,-0.2667 0.2286,-0.8001 v -2.57175 q -0.59055,0 -0.93345,0.20955 -0.3429,0.20955 -0.762,0.9906 l -0.97155,1.80975 q -0.4191,0.8001 -0.9525,1.1811 -0.51435,0.381 -1.23825,0.51435 -0.7239,0.1143 -1.77165,0.1143 z" fill="#4d4d4d"/></g><g transform="translate(-66.762755)"><path d="m 200.59963,242.36861 q -0.6858,0 -1.1049,-0.36195 -0.4191,-0.381 -0.4191,-1.0668 0,-0.59055 0.28575,-0.93345 0.28575,-0.3429 0.6477,-0.3429 0,0.36195 0.2286,0.62865 0.24765,0.2667 0.6096,0.2667 0.62865,0 1.0668,-0.51435 0.4572,-0.51435 0.8382,-1.96215 0.1905,-0.74295 0.36195,-1.65735 0.17145,-0.9144 0.28575,-1.8669 0.13335,-0.9525 0.20955,-1.7907 0.0762,-0.85725 0.1143,-1.4859 0.0572,-0.62865 0.0572,-0.8763 0,-0.5334 -0.4572,-0.6477 -0.43815,-0.1143 -1.0668,-0.1143 h -0.28575 v -1.00965 h 10.8204 v 1.00965 h -1.16205 q -0.51435,0 -0.762,0.2667 -0.24765,0.24765 -0.24765,0.8763 v 3.79095 h 1.00965 q 1.8288,0 2.9337,0.4953 1.12395,0.47625 1.61925,1.3335 0.51435,0.85725 0.51435,1.9812 0,1.7145 -1.2573,2.7813 -1.2573,1.0668 -3.90525,1.0668 h -5.69595 v -1.00965 h 0.8001 q 0.5715,0 0.762,-0.28575 0.20955,-0.3048 0.20955,-0.97155 v -10.3251 h -2.4765 q -0.0762,1.58115 -0.2667,3.3528 -0.17145,1.77165 -0.43815,3.429 -0.2667,1.65735 -0.6477,2.91465 -0.51435,1.73355 -1.31445,2.38125 -0.8001,0.6477 -1.8669,0.6477 z m 10.76325,-1.2573 q 1.16205,0 1.6383,-0.6477 0.47625,-0.6477 0.47625,-1.9812 0,-1.524 -0.55245,-2.15265 -0.5334,-0.6477 -1.77165,-0.6477 h -0.5334 v 5.42925 z" style="-inkscape-font-specification:'Noto Serif Bold'" font-weight="700" font-family="'Noto Serif'"/><path d="m 223.82157,242.36861 q -0.762,0 -1.1811,-0.3429 -0.4191,-0.36195 -0.4191,-0.9906 0,-0.62865 0.3429,-0.93345 0.36195,-0.3048 0.70485,-0.3048 0,0.3429 0.20955,0.59055 0.2286,0.24765 0.59055,0.24765 0.3048,0 0.59055,-0.13335 0.3048,-0.1524 0.6096,-0.6858 0.3048,-0.5334 0.62865,-1.73355 0.1524,-0.5334 0.3048,-1.2573 0.17145,-0.7239 0.28575,-1.42875 0.1143,-0.70485 0.1143,-1.1811 0,-0.762 -0.43815,-0.97155 -0.4191,-0.20955 -1.04775,-0.20955 h -0.24765 v -1.00965 h 9.84885 v 1.08585 h -0.24765 q -0.6096,0 -1.08585,0.24765 -0.47625,0.2286 -0.47625,0.85725 v 2.2098 h 1.4478 q 1.1811,0 2.1717,0.20955 0.9906,0.20955 1.6002,0.81915 0.6096,0.59055 0.6096,1.7907 0,1.27635 -1.0668,2.1336 -1.04775,0.85725 -3.21945,0.85725 h -6.0198 v -1.00965 h 0.20955 q 1.31445,0 1.3716,-1.1049 v -7.0104 h -2.15265 q -0.1905,1.7526 -0.47625,3.33375 -0.28575,1.5621 -0.6477,2.83845 -0.4953,1.7526 -1.1811,2.41935 -0.66675,0.66675 -1.73355,0.66675 z m 10.1346,-1.23825 q 0.9525,0 1.35255,-0.43815 0.40005,-0.4572 0.40005,-1.50495 0,-0.89535 -0.47625,-1.27635 -0.47625,-0.381 -1.35255,-0.381 h -0.97155 v 3.60045 z" fill="#4d4d4d"/></g><g transform="translate(-63.20043)"><path d="m 201.36164,267.71278 v -1.00965 h 0.8001 q 0.4191,0 0.6858,-0.20955 0.28575,-0.20955 0.28575,-1.0287 v -9.1821 q 0,-0.762 -0.28575,-0.9525 -0.28575,-0.20955 -0.6858,-0.20955 h -0.8001 v -1.00965 h 5.84835 q 2.64795,0 3.9243,1.08585 1.27635,1.08585 1.27635,2.95275 0,1.143 -0.55245,2.1336 -0.5334,0.9906 -1.77165,1.61925 -1.23825,0.6096 -3.29565,0.6096 h -0.6477 v 3.048 q 0,0.762 0.3048,0.9525 0.3048,0.1905 0.70485,0.1905 h 1.16205 v 1.00965 z m 5.23875,-6.30555 q 1.4097,0 2.00025,-0.7239 0.6096,-0.74295 0.6096,-2.45745 0,-1.524 -0.5334,-2.2479 -0.51435,-0.74295 -1.7907,-0.74295 h -0.74295 v 6.1722 z" style="-inkscape-font-specification:'Noto Serif Bold'" font-weight="700" font-family="'Noto Serif'"/><path d="m 218.18281,272.28478 v -1.00965 h 0.2286 q 0.28575,0 0.59055,-0.0952 0.32385,-0.0762 0.5334,-0.3429 0.2286,-0.2667 0.2286,-0.8001 v -10.19175 q 0,-0.8763 -0.36195,-1.1049 -0.36195,-0.2286 -0.9144,-0.2286 h -0.13335 v -1.00965 h 3.7338 l 0.3429,1.4859 h 0.0762 q 0.4191,-0.74295 1.1049,-1.20015 0.70485,-0.47625 1.80975,-0.47625 1.905,0 2.8956,1.27635 1.00965,1.27635 1.00965,4.05765 0,2.76225 -0.9906,4.0386 -0.97155,1.2573 -2.83845,1.2573 -1.08585,0 -1.77165,-0.40005 -0.66675,-0.4191 -1.08585,-1.12395 h -0.13335 q 0.0381,0.2667 0.0762,0.7239 0.0381,0.43815 0.0572,0.85725 0.019,0.43815 0.019,0.7239 v 1.31445 q 0,0.5334 0.20955,0.8001 0.2286,0.2667 0.55245,0.3429 0.32385,0.0952 0.59055,0.0952 h 0.4191 v 1.00965 z m 6.41985,-5.7531 q 0.9525,0 1.3716,-0.9525 0.4191,-0.97155 0.4191,-2.91465 0,-1.905 -0.4191,-2.91465 -0.40005,-1.00965 -1.35255,-1.00965 -1.143,0 -1.5621,1.00965 -0.40005,1.00965 -0.40005,2.8956 0,1.96215 0.40005,2.9337 0.4191,0.9525 1.54305,0.9525 z" fill="#4d4d4d"/></g><g transform="translate(-67.95335)"><path d="m 204.65729,293.1903 v -1.00965 h 0.1143 q 0.6858,0 1.08585,-0.36195 0.4191,-0.36195 0.89535,-0.97155 l 3.33375,-4.3434 -3.14325,-4.89585 q -0.3048,-0.4953 -0.6477,-0.74295 -0.3429,-0.2667 -0.9906,-0.2667 h -0.24765 v -1.00965 h 6.30555 v 1.00965 h -0.0572 q -0.6477,0 -0.89535,0.17145 -0.2286,0.1524 -0.2286,0.381 0,0.1905 0.13335,0.4953 0.1524,0.3048 0.36195,0.62865 l 1.58115,2.3622 1.65735,-2.3241 q 0.17145,-0.2667 0.3429,-0.59055 0.17145,-0.32385 0.17145,-0.5715 0,-0.3429 -0.32385,-0.43815 -0.3048,-0.1143 -0.74295,-0.1143 h -0.0571 v -1.00965 h 4.4577 v 1.00965 h -0.17145 q -0.55245,0 -0.9525,0.3048 -0.381,0.28575 -0.93345,1.0668 l -2.76225,3.7719 3.5052,5.42925 q 0.381,0.59055 0.762,0.8001 0.40005,0.20955 0.762,0.20955 h 0.24765 v 1.00965 h -6.2865 v -1.00965 h 0.0952 q 1.143,0 1.143,-0.62865 0,-0.20955 -0.1143,-0.4572 -0.0952,-0.24765 -0.51435,-0.85725 l -1.7526,-2.64795 -2.0574,2.7813 q -0.17145,0.24765 -0.3429,0.55245 -0.1524,0.3048 -0.1524,0.6096 0,0.3048 0.2667,0.47625 0.2667,0.17145 0.89535,0.17145 h 0.0571 v 1.00965 z" style="-inkscape-font-specification:'Noto Serif Bold'" font-weight="700" font-family="'Noto Serif'"/><path d="m 223.57395,293.1903 v -1.00965 h 0.17145 q 0.6858,0 1.08585,-0.24765 0.4191,-0.2667 0.9906,-0.97155 l 2.4003,-2.8956 -2.4003,-3.06705 q -0.8001,-1.00965 -1.6383,-1.00965 h -0.24765 v -1.00965 h 5.9817 v 1.00965 h -0.0572 q -0.6477,0 -0.8763,0.17145 -0.20955,0.1524 -0.20955,0.381 0,0.32385 0.43815,0.8763 l 1.0668,1.2954 0.89535,-1.08585 q 0.47625,-0.59055 0.47625,-1.0668 0,-0.3429 -0.2667,-0.4572 -0.2667,-0.1143 -0.70485,-0.1143 h -0.0572 v -1.00965 h 4.40055 v 1.00965 h -0.17145 q -0.55245,0 -0.93345,0.24765 -0.381,0.2286 -0.9906,0.97155 l -1.96215,2.4003 2.80035,3.56235 q 0.43815,0.5334 0.8001,0.78105 0.36195,0.2286 0.7239,0.2286 h 0.24765 v 1.00965 h -6.0579 v -1.00965 h 0.0952 q 1.143,0 1.143,-0.62865 0,-0.20955 -0.13335,-0.47625 -0.1143,-0.2667 -0.59055,-0.8382 l -1.08585,-1.31445 -1.3335,1.65735 q -0.17145,0.2286 -0.28575,0.47625 -0.1143,0.2286 -0.1143,0.47625 0,0.3048 0.2667,0.47625 0.28575,0.17145 0.9144,0.17145 h 0.0572 v 1.00965 z" fill="#4d4d4d"/></g></g><g transform="translate(-56.956625)"><g transform="translate(-1.22877)"><path d="m 248.87375,191.28021 v -1.00965 h 0.78105 q 0.4191,0 0.70485,-0.20955 0.28575,-0.20955 0.28575,-1.0287 v -9.12495 q 0,-0.762 -0.3048,-0.9906 -0.28575,-0.2286 -0.6858,-0.2286 h -0.78105 v -1.00965 h 5.5626 q 2.72415,0 4.0767,0.8382 1.3716,0.8382 1.3716,2.6289 0,1.2573 -0.66675,1.905 -0.66675,0.6477 -1.73355,0.9906 v 0.0952 q 1.31445,0.32385 2.1336,1.1811 0.8382,0.8382 0.8382,2.22885 0,3.7338 -5.4483,3.7338 z m 5.50545,-7.6962 q 1.3335,0 1.80975,-0.5715 0.4953,-0.5715 0.4953,-1.8669 0,-1.2954 -0.5334,-1.7907 -0.51435,-0.51435 -1.80975,-0.51435 h -0.6858 v 4.74345 z m 0.5334,6.53415 q 1.27635,0 1.80975,-0.59055 0.5334,-0.59055 0.5334,-2.03835 0,-1.4097 -0.4953,-2.07645 -0.4953,-0.66675 -1.80975,-0.66675 h -1.2954 v 5.3721 z" style="-inkscape-font-specification:'Noto Serif Bold'" font-weight="700" font-family="'Noto Serif'"/><path d="m 266.41882,191.28021 v -1.00965 h 0.2286 q 0.28575,0 0.59055,-0.0762 0.32385,-0.0952 0.5334,-0.36195 0.2286,-0.2667 0.2286,-0.8001 v -5.7912 q 0,-0.51435 -0.2286,-0.762 -0.2286,-0.24765 -0.55245,-0.32385 -0.3048,-0.0762 -0.5715,-0.0762 h -0.2286 v -1.00965 h 6.00075 q 2.1336,0 3.14325,0.62865 1.0287,0.62865 1.0287,1.80975 0,1.143 -0.62865,1.7145 -0.62865,0.5715 -1.6002,0.70485 v 0.0953 q 0.74295,0.0571 1.35255,0.32385 0.62865,0.2667 1.00965,0.78105 0.381,0.51435 0.381,1.31445 0,1.2573 -0.9906,2.0574 -0.9906,0.78105 -3.1242,0.78105 z m 5.7531,-5.81025 q 0.85725,0 1.20015,-0.4572 0.36195,-0.47625 0.36195,-1.2954 0,-0.74295 -0.3429,-1.143 -0.3429,-0.4191 -1.2192,-0.4191 h -1.27635 v 3.3147 z m 0.0762,4.7244 q 0.97155,0 1.39065,-0.381 0.43815,-0.381 0.43815,-1.50495 0,-1.00965 -0.4953,-1.3716 -0.4953,-0.36195 -1.42875,-0.36195 h -1.2573 v 3.6195 z" fill="#4d4d4d"/></g><g transform="translate(0.87628)"><path d="m 252.96948,216.96729 q -1.65735,0 -2.72415,-0.40005 -1.04775,-0.40005 -1.54305,-1.04775 -0.4953,-0.66675 -0.4953,-1.39065 0,-0.762 0.51435,-1.20015 0.51435,-0.4572 1.50495,-0.4572 0.17145,1.4859 0.8382,2.38125 0.66675,0.89535 1.96215,0.89535 1.23825,0 1.92405,-0.66675 0.70485,-0.66675 0.70485,-2.0955 0,-1.27635 -0.78105,-1.96215 -0.78105,-0.70485 -2.53365,-0.70485 h -1.7526 v -1.1811 h 1.7145 q 2.8956,0 2.8956,-2.7813 0,-1.0668 -0.47625,-1.6383 -0.4572,-0.59055 -1.5621,-0.59055 -0.8001,0 -1.2573,0.4191 -0.4572,0.40005 -0.6477,1.08585 -0.17145,0.66675 -0.17145,1.4478 -0.6858,0 -1.2573,-0.1143 -0.5715,-0.13335 -0.9144,-0.47625 -0.32385,-0.3429 -0.32385,-0.9906 0,-0.6858 0.55245,-1.2573 0.55245,-0.5715 1.58115,-0.9144 1.04775,-0.36195 2.45745,-0.36195 1.4478,0 2.5527,0.3429 1.12395,0.32385 1.7526,1.0287 0.62865,0.70485 0.62865,1.80975 0,0.9906 -0.4191,1.69545 -0.4191,0.70485 -1.12395,1.143 -0.6858,0.43815 -1.54305,0.6477 0.5334,0.0572 1.143,0.24765 0.6096,0.17145 1.16205,0.55245 0.55245,0.36195 0.89535,0.9525 0.36195,0.59055 0.36195,1.4859 0,1.46685 -0.762,2.38125 -0.762,0.89535 -2.03835,1.31445 -1.27635,0.40005 -2.8194,0.40005 z" style="-inkscape-font-specification:'Noto Serif Bold'" font-weight="700" font-family="'Noto Serif'"/><path d="m 268.70479,216.92919 q -1.4097,0 -2.2479,-0.3048 -0.8382,-0.3048 -1.20015,-0.78105 -0.36195,-0.4953 -0.36195,-0.9906 0,-0.32385 0.13335,-0.5334 0.1524,-0.2286 0.3429,-0.3429 0.32385,0.66675 1.1049,1.12395 0.8001,0.43815 2.0955,0.43815 0.9906,0 1.524,-0.4953 0.5334,-0.4953 0.5334,-1.2573 0,-0.9144 -0.5334,-1.31445 -0.5334,-0.4191 -1.6764,-0.4191 h -1.27635 v -1.2192 h 1.2954 q 0.7239,0 1.12395,-0.2667 0.40005,-0.28575 0.5715,-0.7239 0.17145,-0.4572 0.17145,-0.93345 0,-0.6858 -0.3429,-1.08585 -0.32385,-0.4191 -0.97155,-0.4191 -0.5715,0 -0.9144,0.32385 -0.3429,0.32385 -0.4953,0.8382 -0.13335,0.51435 -0.13335,1.08585 -1.16205,0 -1.6002,-0.36195 -0.4191,-0.381 -0.4191,-1.00965 0,-0.4572 0.32385,-0.89535 0.3429,-0.4572 1.143,-0.762 0.8001,-0.3048 2.19075,-0.3048 1.9812,0 3.048,0.6477 1.0668,0.6477 1.0668,1.8669 0,1.04775 -0.6477,1.69545 -0.6477,0.6477 -1.6002,0.8001 v 0.0953 q 1.2573,0.2286 1.92405,0.81915 0.6858,0.5715 0.6858,1.6002 0,1.4097 -1.2192,2.2479 -1.20015,0.8382 -3.63855,0.8382 z" fill="#4d4d4d"/></g><g transform="translate(-6.56269)"><path d="m 248.98798,242.23526 v -1.00965 h 0.8001 q 0.40005,0 0.6858,-0.1905 0.28575,-0.1905 0.28575,-0.9525 v -9.27735 q 0,-0.762 -0.28575,-0.9525 -0.28575,-0.20955 -0.6858,-0.20955 h -0.8001 v -1.00965 h 5.4864 l 3.1623,9.20115 3.02895,-9.20115 h 5.39115 v 1.00965 h -0.8001 q -0.4191,0 -0.70485,0.20955 -0.2667,0.20955 -0.2667,1.0287 v 9.1059 q 0,0.81915 0.2667,1.0287 0.28575,0.20955 0.70485,0.20955 h 0.8001 v 1.00965 h -6.096 v -1.00965 h 0.1905 q 0.6096,0 0.89535,-0.17145 0.3048,-0.1905 0.3048,-0.89535 v -9.6393 l -3.8481,11.71575 h -1.2954 l -4.01955,-11.71575 v 9.46785 q 0,0.81915 0.36195,1.0287 0.381,0.20955 1.04775,0.20955 h 0.1143 v 1.00965 z" style="-inkscape-font-specification:'Noto Serif Bold'" font-weight="700" font-family="'Noto Serif'"/><path d="m 271.86703,242.23526 v -1.00965 h 0.2286 q 0.28575,0 0.59055,-0.0762 0.32385,-0.0952 0.5334,-0.36195 0.2286,-0.2667 0.2286,-0.8001 v -5.715 q 0,-0.55245 -0.2286,-0.8001 -0.20955,-0.2667 -0.5334,-0.3429 -0.3048,-0.0952 -0.59055,-0.0952 h -0.2286 v -1.00965 h 4.9911 l 2.8194,6.38175 2.87655,-6.38175 h 5.1054 v 1.00965 h -0.24765 q -0.62865,0 -1.1049,0.2286 -0.4572,0.20955 -0.4572,1.04775 v 5.6388 q 0,0.8382 0.4572,1.0668 0.47625,0.20955 1.1049,0.20955 h 0.24765 v 1.00965 h -6.1722 v -1.00965 h 0.0571 q 0.62865,0 1.08585,-0.20955 0.47625,-0.2286 0.47625,-1.0668 v -5.8674 h -0.13335 l -3.6957,8.1534 h -0.8763 l -3.60045,-8.1534 h -0.13335 v 5.8674 q 0,0.8382 0.4572,1.0668 0.47625,0.20955 1.1049,0.20955 h 0.0571 v 1.00965 z" fill="#4d4d4d"/></g><g transform="translate(8.2677)"><path d="m 247.10207,267.90328 q -2.2098,0 -3.67665,-0.8763 -1.46685,-0.8763 -2.19075,-2.4384 -0.7239,-1.58115 -0.7239,-3.6957 0,-2.0574 0.74295,-3.6195 0.74295,-1.58115 2.2098,-2.45745 1.46685,-0.89535 3.6195,-0.89535 2.19075,0 3.25755,0.6477 1.08585,0.62865 1.08585,1.5621 0,0.70485 -0.6096,1.1811 -0.6096,0.47625 -1.77165,0.47625 0,-0.62865 -0.1905,-1.23825 -0.1905,-0.6096 -0.6477,-1.00965 -0.4572,-0.40005 -1.2573,-0.40005 -1.80975,0 -2.53365,1.50495 -0.70485,1.4859 -0.70485,4.24815 0,2.76225 0.85725,4.13385 0.8763,1.35255 2.99085,1.35255 0.93345,0 1.6002,-0.2667 0.66675,-0.28575 1.12395,-0.70485 0.47625,-0.4191 0.8001,-0.8382 0.32385,0.2667 0.32385,0.81915 0,0.5334 -0.40005,1.12395 -0.40005,0.5715 -1.3335,0.9906 -0.93345,0.40005 -2.57175,0.40005 z" style="-inkscape-font-specification:'Noto Serif Bold'" font-weight="700" font-family="'Noto Serif'"/><path d="m 262.76116,267.90328 q -1.39065,0 -2.45745,-0.4953 -1.0668,-0.51435 -1.6764,-1.65735 -0.59055,-1.16205 -0.59055,-3.10515 0,-2.0574 0.6096,-3.21945 0.62865,-1.1811 1.6764,-1.6764 1.0668,-0.4953 2.38125,-0.4953 1.84785,0 2.80035,0.59055 0.97155,0.5715 0.97155,1.4097 0,0.40005 -0.20955,0.78105 -0.1905,0.36195 -0.7239,0.6096 -0.5334,0.2286 -1.524,0.2286 0,-0.66675 -0.1143,-1.2192 -0.1143,-0.55245 -0.381,-0.89535 -0.2667,-0.3429 -0.74295,-0.3429 -0.55245,0 -0.97155,0.381 -0.40005,0.36195 -0.62865,1.27635 -0.20955,0.9144 -0.20955,2.5527 0,1.92405 0.5334,2.8956 0.5334,0.9525 1.73355,0.9525 0.9906,0 1.7145,-0.43815 0.7239,-0.4572 1.04775,-1.1049 0.2286,0.13335 0.3429,0.381 0.1143,0.2286 0.1143,0.4953 0,0.47625 -0.40005,0.97155 -0.381,0.47625 -1.20015,0.8001 -0.8001,0.32385 -2.0955,0.32385 z" fill="#4d4d4d"/></g><path d="m 258.58921,297.1908 q 0,-2.11455 -0.5715,-3.06705 -0.55245,-0.93345 -1.8669,-0.93345 h -10.7061 v -1.00965 h 0.8001 q 0.381,0 0.66675,-0.1905 0.3048,-0.20955 0.3048,-0.97155 v -9.1821 q 0,-0.81915 -0.28575,-1.0287 -0.28575,-0.20955 -0.6858,-0.20955 h -0.8001 v -1.00965 h 6.57225 v 1.00965 h -0.81915 q -0.40005,0 -0.6858,0.20955 -0.28575,0.20955 -0.28575,1.0287 v 10.19175 h 4.78155 V 281.8365 q 0,-0.81915 -0.28575,-1.0287 -0.28575,-0.20955 -0.6858,-0.20955 h -0.81915 v -1.00965 h 6.57225 v 1.00965 h -0.8001 q -0.381,0 -0.6858,0.1905 -0.28575,0.1905 -0.28575,0.9525 v 9.42975 q 0,0.43815 0.32385,0.6477 0.32385,0.20955 0.5334,0.20955 h 0.97155 v 5.16255 z" style="-inkscape-font-specification:'Noto Serif Bold'" font-weight="700" font-family="'Noto Serif'"/><path d="m 276.66767,295.80015 q -0.0952,-1.42875 -0.6477,-2.0193 -0.5334,-0.59055 -1.143,-0.59055 h -9.16305 v -1.00965 h 0.2286 q 0.2667,0 0.5715,-0.0762 0.32385,-0.0762 0.55245,-0.32385 0.2286,-0.2667 0.2286,-0.762 v -5.7912 q 0,-0.55245 -0.2286,-0.8001 -0.20955,-0.2667 -0.5334,-0.3429 -0.3048,-0.0953 -0.59055,-0.0953 h -0.2286 v -1.00965 h 5.6769 v 1.00965 h -0.0381 q -0.24765,0 -0.55245,0.0953 -0.28575,0.0762 -0.4953,0.3429 -0.20955,0.24765 -0.20955,0.8001 v 6.87705 h 3.37185 v -6.95325 q 0,-0.51435 -0.20955,-0.762 -0.20955,-0.24765 -0.51435,-0.32385 -0.28575,-0.0762 -0.5334,-0.0762 h -0.0381 v -1.00965 h 5.6769 v 1.00965 h -0.2286 q -0.2667,0 -0.59055,0.0953 -0.32385,0.0762 -0.55245,0.3429 -0.20955,0.24765 -0.20955,0.8001 v 5.8674 q 0,0.66675 0.4191,0.8763 0.4191,0.1905 0.9525,0.20955 h 0.43815 v 5.01015 h -1.31445 z" fill="#4d4d4d"/></g><g transform="translate(-34.711094)"><path d="m 287.69903,191.28021 v -1.00965 h 0.8001 q 0.4191,0 0.6858,-0.20955 0.28575,-0.20955 0.28575,-1.0287 v -9.1059 q 0,-0.81915 -0.28575,-1.0287 -0.2667,-0.20955 -0.6858,-0.20955 h -0.8001 v -1.00965 h 10.4013 l 0.13335,3.7338 h -1.0668 l -0.2286,-0.9144 q -0.20955,-0.8382 -0.62865,-1.23825 -0.4191,-0.4191 -1.20015,-0.4191 h -2.60985 v 10.26795 q 0,0.762 0.28575,0.97155 0.28575,0.1905 0.6858,0.1905 h 1.1811 v 1.00965 z" style="-inkscape-font-specification:'Noto Serif Bold'" font-weight="700" font-family="'Noto Serif'"/><path d="m 303.70103,191.28021 v -1.00965 h 0.2286 q 0.28575,0 0.59055,-0.0762 0.32385,-0.0952 0.5334,-0.36195 0.2286,-0.2667 0.2286,-0.8001 v -5.715 q 0,-0.55245 -0.2286,-0.8001 -0.20955,-0.2667 -0.5334,-0.3429 -0.3048,-0.0952 -0.59055,-0.0952 h -0.2286 v -1.00965 h 8.97255 v 3.2385 h -1.31445 l -0.0953,-0.81915 q -0.0952,-0.89535 -0.381,-1.1049 -0.28575,-0.2286 -0.9525,-0.2286 h -1.7526 v 6.87705 q 0,0.5334 0.20955,0.8001 0.20955,0.2667 0.4953,0.36195 0.3048,0.0762 0.55245,0.0762 h 0.4191 v 1.00965 z" fill="#4d4d4d"/><g transform="translate(-0.323805)"><path d="m 284.07948,216.75774 v -1.00965 h 0.8001 q 0.40005,0 0.6858,-0.20955 0.28575,-0.20955 0.28575,-1.0287 v -9.1821 q 0,-0.762 -0.3048,-0.9525 -0.28575,-0.20955 -0.66675,-0.20955 h -0.8001 v -1.00965 h 6.57225 v 1.00965 h -0.81915 q -0.40005,0 -0.6858,0.20955 -0.28575,0.20955 -0.28575,1.0287 v 6.7056 l 4.97205,-6.38175 v -0.32385 q 0,-0.81915 -0.28575,-1.0287 -0.28575,-0.20955 -0.6858,-0.20955 h -0.81915 v -1.00965 h 6.57225 v 1.00965 h -0.8001 q -0.40005,0 -0.6858,0.20955 -0.28575,0.20955 -0.28575,1.0287 v 9.20115 q 0,0.762 0.28575,0.9525 0.3048,0.1905 0.6858,0.1905 h 0.8001 v 1.00965 h -6.57225 v -1.00965 h 0.81915 q 0.40005,0 0.6858,-0.20955 0.28575,-0.20955 0.28575,-1.0287 v -7.14375 l -4.97205,6.38175 v 0.762 q 0,0.81915 0.28575,1.0287 0.28575,0.20955 0.6858,0.20955 h 0.81915 v 1.00965 z" style="-inkscape-font-specification:'Noto Serif Bold'" font-weight="700" font-family="'Noto Serif'"/><path d="m 304.42489,216.75774 v -1.00965 h 0.2286 q 0.28575,0 0.59055,-0.0762 0.32385,-0.0952 0.5334,-0.36195 0.2286,-0.2667 0.2286,-0.8001 v -5.715 q 0,-0.55245 -0.2286,-0.8001 -0.20955,-0.2667 -0.5334,-0.3429 -0.3048,-0.0952 -0.59055,-0.0952 h -0.2286 v -1.00965 h 5.77215 v 1.00965 h -0.0381 q -0.24765,0 -0.55245,0.0952 -0.28575,0.0762 -0.4953,0.3429 -0.20955,0.24765 -0.20955,0.8001 v 4.05765 l 3.56235,-3.90525 v -0.1524 q 0,-0.55245 -0.20955,-0.8001 -0.20955,-0.2667 -0.4953,-0.3429 -0.28575,-0.0952 -0.55245,-0.0952 h -0.0381 v -1.00965 h 5.77215 v 1.00965 h -0.2286 q -0.2667,0 -0.59055,0.0952 -0.32385,0.0762 -0.55245,0.3429 -0.20955,0.24765 -0.20955,0.8001 v 5.715 q 0,0.5334 0.20955,0.8001 0.2286,0.2667 0.55245,0.36195 0.32385,0.0762 0.59055,0.0762 h 0.2286 v 1.00965 h -5.77215 v -1.00965 h 0.0381 q 0.2667,0 0.55245,-0.0762 0.28575,-0.0952 0.4953,-0.36195 0.20955,-0.2667 0.20955,-0.8001 v -4.09575 l -3.56235,3.90525 v 0.1905 q 0,0.5334 0.20955,0.8001 0.20955,0.2667 0.4953,0.36195 0.3048,0.0762 0.55245,0.0762 h 0.0381 v 1.00965 z" fill="#4d4d4d"/></g><g transform="translate(-14.001675)"><path d="m 297.75735,242.23526 v -1.00965 h 0.8001 q 0.40005,0 0.6858,-0.20955 0.28575,-0.20955 0.28575,-1.0287 v -9.1821 q 0,-0.762 -0.3048,-0.9525 -0.28575,-0.20955 -0.66675,-0.20955 h -0.8001 v -1.00965 h 6.57225 v 1.00965 h -0.81915 q -0.40005,0 -0.6858,0.20955 -0.28575,0.20955 -0.28575,1.0287 v 3.67665 h 4.97205 v -3.67665 q 0,-0.81915 -0.28575,-1.0287 -0.28575,-0.20955 -0.6858,-0.20955 h -0.81915 v -1.00965 h 6.57225 v 1.00965 h -0.8001 q -0.40005,0 -0.6858,0.20955 -0.28575,0.20955 -0.28575,1.0287 v 9.20115 q 0,0.762 0.28575,0.9525 0.3048,0.1905 0.6858,0.1905 h 0.8001 v 1.00965 h -6.57225 v -1.00965 h 0.81915 q 0.40005,0 0.6858,-0.20955 0.28575,-0.20955 0.28575,-1.0287 v -4.2672 h -4.97205 v 4.2672 q 0,0.81915 0.28575,1.0287 0.28575,0.20955 0.6858,0.20955 h 0.81915 v 1.00965 z" style="-inkscape-font-specification:'Noto Serif Bold'" font-weight="700" font-family="'Noto Serif'"/><path d="m 318.10277,242.23526 v -1.00965 h 0.2286 q 0.28575,0 0.59055,-0.0762 0.32385,-0.0952 0.5334,-0.36195 0.2286,-0.2667 0.2286,-0.8001 v -5.715 q 0,-0.55245 -0.2286,-0.8001 -0.20955,-0.2667 -0.5334,-0.3429 -0.3048,-0.0952 -0.59055,-0.0952 h -0.2286 v -1.00965 h 5.77215 v 1.00965 h -0.0381 q -0.24765,0 -0.55245,0.0952 -0.28575,0.0762 -0.4953,0.3429 -0.20955,0.24765 -0.20955,0.8001 v 2.1717 h 3.56235 v -2.1717 q 0,-0.55245 -0.20955,-0.8001 -0.20955,-0.2667 -0.4953,-0.3429 -0.28575,-0.0952 -0.55245,-0.0952 h -0.0381 v -1.00965 h 5.77214 v 1.00965 h -0.2286 q -0.2667,0 -0.59055,0.0952 -0.32385,0.0762 -0.55245,0.3429 -0.20955,0.24765 -0.20955,0.8001 v 5.715 q 0,0.5334 0.20955,0.8001 0.2286,0.2667 0.55245,0.36195 0.32385,0.0762 0.59055,0.0762 h 0.2286 v 1.00965 h -5.77214 v -1.00965 h 0.0381 q 0.2667,0 0.55245,-0.0762 0.28575,-0.0952 0.4953,-0.36195 0.20955,-0.2667 0.20955,-0.8001 v -2.45745 h -3.56235 v 2.45745 q 0,0.5334 0.20955,0.8001 0.20955,0.2667 0.4953,0.36195 0.3048,0.0762 0.55245,0.0762 h 0.0381 v 1.00965 z" fill="#4d4d4d"/></g><g transform="translate(9.76318)"><path d="m 279.35507,267.71278 v -1.00965 h 0.8001 q 0.4191,0 0.6858,-0.20955 0.28575,-0.20955 0.28575,-1.0287 v -10.19175 h -1.524 q -0.85725,0 -1.1811,0.36195 -0.32385,0.36195 -0.40005,0.9906 l -0.13335,1.1811 h -1.27635 l 0.0952,-3.6957 h 11.86815 l 0.0953,3.6957 h -1.27635 l -0.13335,-1.1811 q -0.0762,-0.62865 -0.40005,-0.9906 -0.32385,-0.36195 -1.1811,-0.36195 h -1.524 v 10.19175 q 0,0.81915 0.2667,1.0287 0.28575,0.20955 0.70485,0.20955 h 0.8001 v 1.00965 z" style="-inkscape-font-specification:'Noto Serif Bold'" font-weight="700" font-family="'Noto Serif'"/><path d="m 296.19528,267.71278 v -1.00965 h 0.20955 q 0.55245,0 0.9525,-0.24765 0.4191,-0.2667 0.4191,-1.0287 v -6.83895 h -1.1049 q -0.5334,0 -0.762,0.32385 -0.20955,0.32385 -0.32385,1.2192 l -0.0762,0.62865 h -1.31445 l 0.1143,-3.25755 h 9.81075 l 0.1143,3.25755 h -1.31445 l -0.0762,-0.62865 q -0.1143,-0.89535 -0.3429,-1.2192 -0.20955,-0.32385 -0.74295,-0.32385 h -1.08585 v 6.83895 q 0,0.762 0.381,1.0287 0.381,0.24765 0.89535,0.24765 h 0.20955 v 1.00965 z" fill="#4d4d4d"/></g><g transform="translate(-3.92429)"><path d="m 295.45234,293.1903 v -1.00965 h 0.8001 q 0.4191,0 0.6858,-0.20955 0.28575,-0.20955 0.28575,-1.0287 v -3.2766 q -0.47625,0.1905 -1.31445,0.43815 -0.8382,0.2286 -2.07645,0.2286 -1.27635,0 -2.22885,-0.36195 -0.93345,-0.381 -1.4478,-1.27635 -0.51435,-0.89535 -0.51435,-2.4765 v -2.38125 q 0,-0.81915 -0.28575,-1.0287 -0.2667,-0.20955 -0.6858,-0.20955 h -0.6096 v -1.00965 h 6.38175 v 1.00965 h -0.8001 q -0.4191,0 -0.70485,0.20955 -0.2667,0.20955 -0.2667,1.0287 v 2.3241 q 0,1.50495 0.5334,2.07645 0.5334,0.5715 1.7145,0.5715 0.7239,0 1.35255,-0.1524 0.62865,-0.17145 0.9525,-0.3048 v -4.51485 q 0,-0.81915 -0.28575,-1.0287 -0.2667,-0.20955 -0.6858,-0.20955 h -0.8001 v -1.00965 h 6.57225 v 1.00965 h -0.8001 q -0.4191,0 -0.70485,0.20955 -0.2667,0.20955 -0.2667,1.0287 v 9.1059 q 0,0.81915 0.2667,1.0287 0.28575,0.20955 0.70485,0.20955 h 0.8001 v 1.00965 z" style="-inkscape-font-specification:'Noto Serif Bold'" font-weight="700" font-family="'Noto Serif'"/><path d="m 313.8737,293.1903 v -1.00965 h 0.32385 q 0.62865,0 1.04775,-0.20955 0.43815,-0.2286 0.43815,-1.0668 v -2.41935 q -0.93345,0.5715 -1.77165,0.93345 -0.81915,0.3429 -1.9431,0.3429 -1.31445,0 -2.03835,-0.70485 -0.70485,-0.70485 -0.70485,-1.80975 v -1.96215 q 0,-0.70485 -0.381,-0.9906 -0.36195,-0.3048 -0.97155,-0.3048 h -0.0571 v -1.00965 h 5.6007 v 1.00965 h -0.0381 q -0.28575,0 -0.5715,0.0953 -0.28575,0.0952 -0.4953,0.381 -0.1905,0.2667 -0.1905,0.8001 v 1.69545 q 0,1.2573 1.2192,1.2573 0.59055,0 1.08585,-0.1905 0.51435,-0.1905 1.2573,-0.6096 v -2.1336 q 0,-0.78105 -0.381,-1.0287 -0.36195,-0.2667 -0.8763,-0.2667 h -0.0381 v -1.00965 h 5.77215 v 1.00965 h -0.20955 q -0.55245,0 -0.97155,0.24765 -0.40005,0.24765 -0.40005,1.0287 v 5.6388 q 0,0.762 0.40005,1.0287 0.4191,0.24765 0.97155,0.24765 h 0.20955 v 1.00965 z" fill="#4d4d4d"/></g></g><g transform="translate(-7.7791062)"><g transform="translate(-2.286035)"><path d="m 322.44757,195.28071 v -5.16255 h 1.16205 q 0.93345,-1.8288 1.73355,-3.71475 0.81915,-1.905 1.31445,-3.67665 0.51435,-1.7907 0.51435,-3.25755 0,-0.5334 -0.51435,-0.6477 -0.51435,-0.13335 -1.143,-0.13335 h -0.0571 v -1.00965 h 9.4869 v 1.00965 h -0.24765 q -0.5334,0 -0.93345,0.2286 -0.40005,0.20955 -0.40005,1.04775 v 8.78205 q 0,0.89535 0.4572,1.143 0.4572,0.2286 1.1049,0.2286 h 0.381 v 5.16255 h -1.2573 q 0,-2.11455 -0.5715,-3.06705 -0.55245,-0.93345 -1.8669,-0.93345 h -5.46735 q -1.31445,0 -1.88595,0.93345 -0.55245,0.9525 -0.55245,3.06705 z m 2.64795,-5.16255 h 5.2578 v -11.2776 h -1.80975 q 0,1.4097 -0.32385,2.91465 -0.32385,1.50495 -0.85725,2.99085 -0.51435,1.4859 -1.12395,2.8575 -0.59055,1.3716 -1.143,2.5146 z" style="-inkscape-font-specification:'Noto Serif Bold'" font-weight="700" font-family="'Noto Serif'"/><path d="m 340.98323,195.28071 v -5.08635 h 1.31445 q 0.2667,-0.43815 0.5715,-1.143 0.3048,-0.7239 0.59055,-1.7145 0.20955,-0.70485 0.381,-1.46685 0.17145,-0.762 0.2667,-1.46685 0.1143,-0.70485 0.1143,-1.2192 0,-0.70485 -0.47625,-0.89535 -0.4572,-0.20955 -1.08585,-0.20955 h -0.0762 v -1.00965 h 9.35355 v 1.00965 h -0.2286 q -0.2667,0 -0.59055,0.0952 -0.32385,0.0762 -0.55245,0.3429 -0.20955,0.24765 -0.20955,0.8001 v 5.8674 q 0,0.66675 0.4191,0.8763 0.4191,0.1905 0.9525,0.20955 h 0.43815 v 5.01015 h -1.31445 l -0.0953,-1.39065 q -0.0952,-1.42875 -0.6477,-2.0193 -0.5334,-0.59055 -1.143,-0.59055 h -4.7244 q -0.89535,0 -1.3335,0.59055 -0.4191,0.59055 -0.51435,2.0193 l -0.0952,1.39065 z m 2.64795,-5.08635 h 3.9243 v -8.0391 h -2.03835 q -0.0572,1.46685 -0.32385,2.99085 -0.2667,1.50495 -0.66675,2.8194 -0.40005,1.31445 -0.89535,2.22885 z" fill="#4d4d4d"/></g><path d="m 326.10514,221.32974 v -1.1049 h 0.3429 q 0.6096,0 1.16205,-0.32385 0.55245,-0.32385 0.89535,-1.0668 0.3429,-0.74295 0.3429,-2.0193 v -11.48715 q 0,-0.762 -0.28575,-0.9525 -0.28575,-0.20955 -0.6858,-0.20955 h -0.8001 v -1.00965 h 6.57225 v 1.00965 h -0.8001 q -0.4191,0 -0.70485,0.20955 -0.28575,0.20955 -0.28575,1.0287 v 11.3919 q 0,1.2954 -0.4191,2.1717 -0.4191,0.8763 -1.143,1.39065 -0.70485,0.51435 -1.61925,0.74295 -0.9144,0.2286 -1.88595,0.2286 z" style="-inkscape-font-specification:'Noto Serif Bold'" font-weight="700" font-family="'Noto Serif'"/><path d="m 342.29764,204.83244 q -0.6858,0 -1.16205,-0.32385 -0.4572,-0.3429 -0.4572,-1.04775 0,-0.7239 0.4572,-1.04775 0.47625,-0.32385 1.16205,-0.32385 0.66675,0 1.143,0.32385 0.4953,0.32385 0.4953,1.04775 0,0.70485 -0.4953,1.04775 -0.47625,0.32385 -1.143,0.32385 z m -3.6576,16.4973 v -1.1811 h 0.13335 q 1.04775,0 1.6002,-0.7239 0.55245,-0.7239 0.55245,-2.667 v -7.94385 q 0,-0.81915 -0.4572,-1.0287 -0.4572,-0.2286 -1.0668,-0.2286 h -0.0571 v -1.00965 h 4.47675 v 10.3632 q 0,1.69545 -0.62865,2.667 -0.6096,0.97155 -1.69545,1.35255 -1.0668,0.40005 -2.4765,0.40005 z" fill="#4d4d4d"/><g transform="translate(-26.12709)"><path d="m 340.71647,242.23526 v -1.00965 h 0.8001 q 0.40005,0 0.6858,-0.20955 0.28575,-0.20955 0.28575,-1.0287 v -9.1821 q 0,-0.762 -0.3048,-0.9525 -0.28575,-0.20955 -0.66675,-0.20955 h -0.8001 v -1.00965 h 6.38175 v 1.00965 h -0.62865 q -0.40005,0 -0.6858,0.20955 -0.28575,0.20955 -0.28575,1.0287 v 3.67665 h 4.3815 v -3.67665 q 0,-0.78105 -0.2667,-1.00965 -0.2667,-0.2286 -0.70485,-0.2286 h -0.6096 v -1.00965 h 6.38175 v 1.00965 h -0.78105 q -0.51435,0 -0.762,0.2667 -0.24765,0.24765 -0.24765,0.8763 v 3.79095 h 1.00965 q 1.8288,0 2.9337,0.4953 1.12395,0.47625 1.61925,1.3335 0.51435,0.85725 0.51435,1.9812 0,1.7145 -1.2573,2.7813 -1.2573,1.0668 -3.90525,1.0668 h -5.50545 v -1.00965 h 0.6096 q 0.5715,0 0.762,-0.28575 0.20955,-0.3048 0.20955,-0.97155 v -4.24815 h -4.3815 v 4.2672 q 0,0.81915 0.28575,1.0287 0.28575,0.20955 0.6858,0.20955 h 0.62865 v 1.00965 z m 12.9159,-1.12395 q 1.16205,0 1.6383,-0.6477 0.47625,-0.6477 0.47625,-1.9812 0,-1.524 -0.55245,-2.15265 -0.5334,-0.6477 -1.77165,-0.6477 h -0.5334 v 5.42925 z" style="-inkscape-font-specification:'Noto Serif Bold'" font-weight="700" font-family="'Noto Serif'"/><path d="m 364.81474,242.23526 v -1.00965 h 0.2286 q 0.28575,0 0.59055,-0.0762 0.32385,-0.0952 0.5334,-0.36195 0.2286,-0.2667 0.2286,-0.8001 v -5.715 q 0,-0.55245 -0.2286,-0.8001 -0.20955,-0.2667 -0.5334,-0.3429 -0.3048,-0.0952 -0.59055,-0.0952 h -0.2286 v -1.00965 h 5.6769 v 1.00965 h -0.0381 q -0.24765,0 -0.55245,0.0952 -0.28575,0.0762 -0.4953,0.3429 -0.20955,0.24765 -0.20955,0.8001 v 2.1717 h 3.75285 v -2.2479 q 0,-0.6096 -0.36195,-0.8763 -0.36195,-0.28575 -1.00965,-0.28575 h -0.019 v -1.00965 h 6.00075 v 1.08585 h -0.24765 q -0.62865,0 -1.1049,0.24765 -0.4572,0.24765 -0.4572,0.9144 v 2.15265 h 1.4478 q 1.1811,0 2.1717,0.20955 0.9906,0.20955 1.6002,0.81915 0.6096,0.59055 0.6096,1.7907 0,1.27635 -1.0668,2.1336 -1.04775,0.85725 -3.21945,0.85725 h -5.73405 v -1.00965 h 0.0381 q 1.35255,0 1.35255,-1.16205 v -2.53365 h -3.75285 v 2.45745 q 0,0.5334 0.20955,0.8001 0.20955,0.2667 0.4953,0.36195 0.3048,0.0762 0.55245,0.0762 h 0.0381 v 1.00965 z m 11.98245,-1.1049 q 0.9525,0 1.35255,-0.43815 0.40005,-0.4572 0.40005,-1.50495 0,-0.89535 -0.47625,-1.27635 -0.47625,-0.381 -1.35255,-0.381 h -0.97155 v 3.60045 z" fill="#4d4d4d"/></g><g transform="translate(4.05769)"><path d="m 316.40867,267.71278 v -1.00965 h 0.8001 q 0.4191,0 0.6858,-0.20955 0.28575,-0.20955 0.28575,-1.0287 v -10.19175 h -1.143 q -0.85725,0 -1.1811,0.36195 -0.32385,0.36195 -0.40005,0.9906 l -0.13335,1.1811 h -1.27635 l 0.0953,-3.6957 h 11.10615 l 0.0953,3.6957 h -1.27635 l -0.13335,-1.1811 q -0.0762,-0.62865 -0.40005,-0.9906 -0.32385,-0.36195 -1.1811,-0.36195 h -1.143 v 4.6863 q 0.47625,-0.17145 1.35255,-0.381 0.8763,-0.20955 2.00025,-0.20955 1.31445,0 2.2479,0.381 0.9525,0.36195 1.46685,1.2573 0.51435,0.89535 0.51435,2.4765 v 1.9812 q 0,0.81915 0.2667,1.0287 0.28575,0.20955 0.70485,0.20955 h 0.6096 v 1.00965 h -6.38175 v -1.00965 h 0.8001 q 0.4191,0 0.6858,-0.20955 0.28575,-0.20955 0.28575,-1.0287 v -1.84785 q 0,-1.46685 -0.51435,-2.0955 -0.51435,-0.62865 -1.73355,-0.62865 -0.70485,0 -1.35255,0.1524 -0.62865,0.1524 -0.9525,0.3048 v 4.1148 q 0,0.81915 0.2667,1.0287 0.28575,0.20955 0.70485,0.20955 h 0.8001 v 1.00965 z" style="-inkscape-font-specification:'Noto Serif Bold'" font-weight="700" font-family="'Noto Serif'"/><path d="m 336.04923,267.71278 v -1.00965 h 0.0381 q 0.6477,0 1.0668,-0.2286 0.4191,-0.2286 0.4191,-1.08585 v -8.6868 h -1.65735 v -1.00965 h 1.65735 v -0.28575 q 0,-0.51435 -0.2286,-0.762 -0.2286,-0.24765 -0.55245,-0.32385 -0.3048,-0.0762 -0.5715,-0.0762 h -0.2286 v -1.00965 h 4.47675 v 2.45745 h 2.95275 v 1.00965 h -2.95275 v 0.24765 q 0,0.4953 -0.0381,1.0668 -0.0381,0.55245 -0.0762,0.9525 -0.0381,0.40005 -0.0381,0.40005 h 0.17145 q 0.381,-0.7239 0.81915,-1.04775 0.4572,-0.32385 0.97155,-0.40005 0.5334,-0.0953 1.12395,-0.0953 1.46685,0 2.30505,0.8763 0.8382,0.8763 0.8382,2.80035 v 3.8481 q 0,0.8763 0.3048,1.12395 0.32385,0.2286 0.97155,0.2286 h 0.0571 v 1.00965 h -4.2291 v -5.69595 q 0,-1.23825 -0.3429,-1.905 -0.3429,-0.66675 -1.1811,-0.66675 -0.62865,0 -0.9906,0.4191 -0.36195,0.40005 -0.51435,1.08585 -0.1524,0.66675 -0.1524,1.4478 v 3.06705 q 0,0.8001 0.36195,1.0287 0.381,0.20955 1.00965,0.20955 h 0.0571 v 1.00965 z" fill="#4d4d4d"/></g><g transform="translate(-11.382395)"><path d="m 336.81125,297.1908 q 0,-2.07645 -0.5715,-3.048 -0.5715,-0.9525 -1.5621,-0.9525 h -4.41959 v -1.00965 h 0.8001 q 0.381,0 0.66675,-0.1905 0.3048,-0.20955 0.3048,-0.97155 v -9.1821 q 0,-0.81915 -0.28575,-1.0287 -0.28575,-0.20955 -0.6858,-0.20955 h -0.8001 v -1.00965 h 6.57224 v 1.00965 h -0.81915 q -0.40005,0 -0.6858,0.20955 -0.28575,0.20955 -0.28575,1.0287 v 10.19175 h 4.78155 V 281.8365 q 0,-0.81915 -0.28575,-1.0287 -0.28575,-0.20955 -0.6858,-0.20955 h -0.81915 v -1.00965 h 6.57225 v 1.00965 h -0.8001 q -0.381,0 -0.6858,0.1905 -0.28575,0.1905 -0.28575,0.9525 v 9.20115 q 0,0.81915 0.28575,1.0287 0.28575,0.20955 0.6858,0.20955 h 0.8001 v 1.00965 h -4.4958 q -1.0287,0 -1.54305,0.93345 -0.4953,0.9525 -0.4953,3.06705 z" style="-inkscape-font-specification:'Noto Serif Bold'" font-weight="700" font-family="'Noto Serif'"/><path d="m 355.86126,297.1908 q 0,-2.11455 -0.6477,-3.06705 -0.6477,-0.93345 -1.6764,-0.93345 h -3.1242 v -1.00965 h 0.2286 q 0.2667,0 0.5715,-0.0762 0.32385,-0.0762 0.55245,-0.32385 0.2286,-0.2667 0.2286,-0.762 v -5.7912 q 0,-0.55245 -0.2286,-0.8001 -0.20955,-0.2667 -0.5334,-0.3429 -0.3048,-0.0953 -0.59055,-0.0953 h -0.2286 v -1.00965 h 5.77215 v 1.00965 h -0.0381 q -0.24765,0 -0.55245,0.0953 -0.28575,0.0762 -0.4953,0.3429 -0.20955,0.24765 -0.20955,0.8001 v 6.87705 h 3.18135 v -6.87705 q 0,-0.55245 -0.20955,-0.8001 -0.20955,-0.2667 -0.4953,-0.3429 -0.28575,-0.0953 -0.55245,-0.0953 h -0.0381 v -1.00965 h 5.77215 v 1.00965 h -0.2286 q -0.2667,0 -0.59055,0.0953 -0.32385,0.0762 -0.55245,0.3429 -0.20955,0.24765 -0.20955,0.8001 v 5.7912 q 0,0.4953 0.2286,0.762 0.2286,0.24765 0.5334,0.32385 0.32385,0.0762 0.59055,0.0762 h 0.2286 v 1.00965 h -3.40995 q -0.9525,0 -1.4859,0.9525 -0.5334,0.97155 -0.5334,3.048 z" fill="#4d4d4d"/></g></g><g transform="translate(17.200158)"><path d="m 364.43513,191.28021 v -1.00965 h 0.8001 q 0.4191,0 0.6858,-0.20955 0.28575,-0.20955 0.28575,-1.0287 v -10.19175 h -1.143 q -0.85725,0 -1.1811,0.36195 -0.32385,0.36195 -0.40005,0.9906 l -0.13335,1.1811 h -1.27635 l 0.0953,-3.6957 h 11.10615 l 0.0952,3.6957 h -1.27635 l -0.13335,-1.1811 q -0.0762,-0.62865 -0.40005,-0.9906 -0.32385,-0.36195 -1.1811,-0.36195 h -1.143 v 4.6482 q 0.47625,-0.17145 1.27635,-0.36195 0.8001,-0.1905 1.7526,-0.1905 1.46685,0 2.4765,0.381 1.0287,0.36195 1.54305,1.2573 0.5334,0.89535 0.5334,2.4765 0,1.6383 -0.4953,2.57175 -0.4953,0.9144 -1.4478,1.2954 -0.93345,0.36195 -2.26695,0.36195 h -0.51435 v -1.1049 h 0.20955 q 0.47625,0 0.8001,-0.1905 0.3429,-0.1905 0.51435,-0.8001 0.17145,-0.6096 0.17145,-1.8669 0,-1.2573 -0.28575,-1.8669 -0.28575,-0.6096 -0.8001,-0.8001 -0.4953,-0.1905 -1.16205,-0.1905 -0.70485,0 -1.35255,0.1524 -0.62865,0.1524 -0.9525,0.3048 v 4.1148 q 0,0.81915 0.2667,1.0287 0.28575,0.20955 0.70485,0.20955 h 0.8001 v 1.00965 z" style="-inkscape-font-specification:'Noto Serif Bold'" font-weight="700" font-family="'Noto Serif'"/><path d="m 388.53337,195.85221 v -1.1811 h 0.1143 q 0.89535,0 1.3716,-0.7239 0.4953,-0.7239 0.4953,-2.667 v -5.69595 q 0,-1.23825 -0.3429,-1.905 -0.3429,-0.66675 -1.1811,-0.66675 -0.62865,0 -0.9906,0.4191 -0.36195,0.40005 -0.51435,1.08585 -0.1524,0.66675 -0.1524,1.4478 v 3.06705 q 0,0.8001 0.36195,1.0287 0.381,0.20955 1.00965,0.20955 h 0.0572 v 1.00965 h -5.84835 v -1.00965 h 0.0381 q 0.6477,0 1.0668,-0.2286 0.4191,-0.2286 0.4191,-1.08585 v -8.6868 h -1.65735 v -1.00965 h 1.65735 v -0.28575 q 0,-0.51435 -0.2286,-0.762 -0.2286,-0.24765 -0.55245,-0.32385 -0.3048,-0.0762 -0.5715,-0.0762 h -0.2286 v -1.00965 h 4.47675 v 2.45745 h 2.95275 v 1.00965 h -2.95275 v 0.24765 q 0,0.4953 -0.0381,1.0668 -0.0381,0.55245 -0.0762,0.9525 -0.0381,0.40005 -0.0381,0.40005 h 0.17145 q 0.381,-0.7239 0.81915,-1.04775 0.4572,-0.32385 0.97155,-0.40005 0.5334,-0.0952 1.12395,-0.0952 1.46685,0 2.30505,0.8763 0.8382,0.8763 0.8382,2.80035 v 6.3627 q 0,1.69545 -0.59055,2.667 -0.5715,0.97155 -1.6002,1.35255 -1.00965,0.40005 -2.3241,0.40005 z" fill="#4d4d4d"/><g transform="translate(7.191425)"><path d="m 355.36728,216.75774 v -1.00965 h 0.8001 q 0.40005,0 0.6858,-0.1905 0.28575,-0.1905 0.28575,-0.9525 v -9.27735 q 0,-0.762 -0.28575,-0.9525 -0.28575,-0.20955 -0.6858,-0.20955 h -0.8001 v -1.00965 h 6.38175 v 1.00965 h -0.8001 q -0.4191,0 -0.70485,0.20955 -0.28575,0.20955 -0.28575,1.0287 v 3.98145 q 0.62865,0 0.9525,-0.1143 0.32385,-0.13335 0.62865,-0.43815 0.2667,-0.2667 0.6858,-0.9525 0.4191,-0.6858 0.93345,-1.73355 0.55245,-1.12395 1.0287,-1.80975 0.4953,-0.6858 1.0668,-0.9906 0.5715,-0.3048 1.3335,-0.3048 0.8001,0 1.143,0.3429 0.36195,0.32385 0.36195,0.85725 0,0.59055 -0.24765,0.9525 -0.24765,0.36195 -0.6858,0.4572 -0.0762,-0.381 -0.32385,-0.6858 -0.24765,-0.3048 -0.74295,-0.3048 -0.59055,0 -0.9906,0.4953 -0.381,0.47625 -0.9906,1.61925 -0.62865,1.20015 -1.0287,1.7907 -0.381,0.5715 -0.8382,0.9144 0.8382,0 1.50495,0.4953 0.6858,0.4953 1.12395,1.2954 l 1.54305,2.76225 q 0.51435,0.9144 0.97155,1.31445 0.4572,0.40005 1.04775,0.40005 h 0.1143 v 1.00965 h -1.35255 q -1.46685,0 -2.22885,-0.4572 -0.74295,-0.47625 -1.23825,-1.35255 l -1.80975,-3.29565 q -0.3048,-0.55245 -0.5715,-0.8001 -0.24765,-0.24765 -0.5715,-0.3048 -0.32385,-0.0762 -0.81915,-0.0762 v 4.0386 q 0,0.81915 0.28575,1.0287 0.28575,0.20955 0.70485,0.20955 h 0.8001 v 1.00965 z" style="-inkscape-font-specification:'Noto Serif Bold'" font-weight="700" font-family="'Noto Serif'"/><path d="m 373.82672,216.75774 v -1.00965 h 0.2286 q 0.28575,0 0.59055,-0.0762 0.32385,-0.0952 0.5334,-0.36195 0.2286,-0.2667 0.2286,-0.8001 v -5.715 q 0,-0.55245 -0.2286,-0.8001 -0.20955,-0.2667 -0.5334,-0.3429 -0.3048,-0.0952 -0.59055,-0.0952 h -0.2286 v -1.00965 h 5.77215 v 1.00965 h -0.0381 q -0.24765,0 -0.55245,0.0952 -0.28575,0.0762 -0.4953,0.3429 -0.20955,0.24765 -0.20955,0.8001 v 2.0955 q 0.4572,0 0.74295,-0.0953 0.3048,-0.1143 0.51435,-0.32385 0.2286,-0.2286 0.51435,-0.6858 0.3048,-0.4572 0.78105,-1.1811 0.4191,-0.66675 0.8001,-1.143 0.40005,-0.4953 0.89535,-0.762 0.4953,-0.2667 1.2573,-0.2667 0.9525,0 1.2954,0.36195 0.3429,0.36195 0.3429,0.8001 0,0.5334 -0.3429,0.85725 -0.32385,0.3048 -0.78105,0.3429 -0.0762,-0.43815 -0.3048,-0.70485 -0.2286,-0.2667 -0.6477,-0.2667 -0.3429,0 -0.6858,0.3429 -0.3429,0.32385 -0.85725,1.1049 -0.47625,0.7239 -0.8001,1.1049 -0.3048,0.381 -0.62865,0.6477 0.6096,0.0762 1.2192,0.43815 0.62865,0.36195 1.12395,1.2192 l 1.04775,1.7907 q 0.4572,0.78105 0.8382,1.0287 0.40005,0.24765 1.04775,0.24765 h 0.0572 v 1.00965 h -0.8001 q -1.04775,0 -1.8288,-0.1143 -0.762,-0.13335 -1.3335,-0.51435 -0.55245,-0.381 -0.9906,-1.1811 l -0.97155,-1.80975 q -0.4191,-0.78105 -0.70485,-0.9906 -0.28575,-0.20955 -0.8001,-0.20955 v 2.57175 q 0,0.5334 0.20955,0.8001 0.20955,0.2667 0.4953,0.36195 0.3048,0.0762 0.55245,0.0762 h 0.0381 v 1.00965 z" fill="#4d4d4d"/></g><g transform="translate(-29.44174)"><path d="m 398.80131,242.42576 q -2.1717,0 -3.60045,-0.8763 -1.42875,-0.8763 -2.15265,-2.45745 -0.70485,-1.58115 -0.70485,-3.6957 0,-2.11455 0.70485,-3.67665 0.7239,-1.5621 2.15265,-2.41935 1.4478,-0.8763 3.6195,-0.8763 2.0574,0 3.48615,0.8763 1.4478,0.85725 2.19075,2.4384 0.74295,1.5621 0.74295,3.67665 0,2.11455 -0.762,3.6957 -0.74295,1.5621 -2.1717,2.4384 -1.42875,0.8763 -3.5052,0.8763 z m 0,-1.23825 q 1.7907,0 2.5146,-1.524 0.7239,-1.524 0.7239,-4.24815 0,-2.72415 -0.7239,-4.2291 -0.7239,-1.524 -2.49555,-1.524 -1.7907,0 -2.53365,1.524 -0.74295,1.50495 -0.74295,4.2291 0,2.72415 0.74295,4.24815 0.74295,1.524 2.5146,1.524 z" style="-inkscape-font-specification:'Noto Serif Bold'" font-weight="700" font-family="'Noto Serif'"/><path d="m 417.05122,242.42576 q -2.286,0 -3.60045,-1.31445 -1.31445,-1.3335 -1.31445,-4.01955 0,-2.68605 1.2573,-4.0005 1.2573,-1.31445 3.71475,-1.31445 2.286,0 3.60045,1.31445 1.31445,1.31445 1.31445,4.0005 0,2.68605 -1.27635,4.01955 -1.2573,1.31445 -3.6957,1.31445 z m 0.0381,-1.20015 q 1.1049,0 1.54305,-1.04775 0.43815,-1.0668 0.43815,-3.0861 0,-2.03835 -0.4572,-3.06705 -0.43815,-1.0287 -1.54305,-1.0287 -1.1049,0 -1.54305,1.0287 -0.43815,1.0287 -0.43815,3.06705 0,2.0193 0.43815,3.0861 0.4572,1.04775 1.5621,1.04775 z" fill="#4d4d4d"/></g><g transform="translate(5.5246)"><path d="m 359.74877,267.71278 v -1.1049 h 0.8382 q 0.6477,0 1.27635,-0.1524 0.6477,-0.17145 1.143,-0.47625 0.4953,-0.32385 0.70485,-0.78105 l -4.4958,-9.0678 q -0.2667,-0.55245 -0.5334,-0.78105 -0.2667,-0.2286 -0.81915,-0.2286 h -0.24765 v -1.00965 h 6.53415 v 1.00965 h -0.6858 q -0.47625,0 -0.762,0.17145 -0.2667,0.17145 -0.2667,0.6096 0,0.2667 0.0953,0.5334 0.0952,0.24765 0.2286,0.55245 l 1.4478,3.06705 q 0.32385,0.66675 0.6477,1.46685 0.3429,0.78105 0.47625,1.4097 0.1143,-0.381 0.2667,-0.8001 0.1524,-0.4191 0.3429,-0.9525 l 1.39065,-3.81 q 0.36195,-0.97155 0.36195,-1.31445 0,-0.93345 -1.2573,-0.93345 h -0.40005 v -1.00965 h 4.8006 v 1.00965 h -0.36195 q -0.55245,0 -0.81915,0.3048 -0.2667,0.28575 -0.62865,1.1811 l -2.7813,7.1628 q -0.47625,1.2192 -0.9144,2.00025 -0.4191,0.762 -0.97155,1.20015 -0.55245,0.4191 -1.3716,0.59055 -0.81915,0.1524 -2.0574,0.1524 z" style="-inkscape-font-specification:'Noto Serif Bold'" font-weight="700" font-family="'Noto Serif'"/><path d="m 376.30323,271.17988 q 1.3335,0 2.1336,-0.4191 0.81915,-0.4191 1.2954,-1.1811 0.47625,-0.762 0.78105,-1.77165 l -3.429,-8.382 q -0.20955,-0.4953 -0.51435,-0.62865 -0.3048,-0.1524 -0.70485,-0.17145 h -0.0762 v -1.12395 h 5.42925 v 1.00965 h -0.0571 q -0.5334,0 -0.8382,0.1524 -0.3048,0.1524 -0.3048,0.55245 0,0.1524 0.0571,0.381 0.0762,0.20955 0.13335,0.36195 l 1.31445,3.48615 q 0.2667,0.7239 0.381,1.1811 0.1143,0.4572 0.1524,0.8382 0.0381,-0.40005 0.1905,-0.89535 0.17145,-0.4953 0.2286,-0.62865 l 1.2573,-3.7338 q 0.0762,-0.1905 0.13335,-0.47625 0.0571,-0.28575 0.0571,-0.4572 0,-0.4191 -0.3429,-0.5715 -0.3429,-0.17145 -0.97155,-0.1905 h -0.0762 v -1.00965 h 4.28625 v 1.00965 h -0.0762 q -0.5334,0.019 -0.85725,0.32385 -0.3048,0.28575 -0.59055,1.0668 l -2.87655,7.8105 q -0.4953,1.39065 -0.9525,2.26695 -0.43815,0.89535 -1.0287,1.39065 -0.59055,0.51435 -1.50495,0.70485 -0.89535,0.20955 -2.30505,0.20955 h -0.32385 z" fill="#4d4d4d"/></g><g transform="translate(-17.26879)"><path d="m 372.64566,293.1903 v -1.00965 h 0.8001 q 0.381,0 0.66675,-0.1905 0.3048,-0.20955 0.3048,-0.97155 v -9.1821 q 0,-0.81915 -0.28575,-1.0287 -0.28575,-0.20955 -0.6858,-0.20955 h -0.8001 v -1.00965 h 6.26745 v 1.00965 h -0.62865 q -0.40005,0 -0.6858,0.20955 -0.28575,0.20955 -0.28575,1.0287 v 10.19175 h 4.191 V 281.8365 q 0,-0.81915 -0.28575,-1.0287 -0.28575,-0.20955 -0.6858,-0.20955 h -0.62865 v -1.00965 h 6.07695 v 1.00965 h -0.6096 q -0.381,0 -0.6858,0.1905 -0.28575,0.1905 -0.28575,0.9525 v 10.287 h 4.191 V 281.8365 q 0,-0.81915 -0.28575,-1.0287 -0.28575,-0.20955 -0.6858,-0.20955 h -0.62865 v -1.00965 h 6.26745 v 1.00965 h -0.8001 q -0.40005,0 -0.6858,0.20955 -0.28575,0.20955 -0.28575,1.0287 v 9.1821 q 0,0.762 0.28575,0.97155 0.3048,0.1905 0.6858,0.1905 h 0.8001 v 1.00965 z" style="-inkscape-font-specification:'Noto Serif Bold'" font-weight="700" font-family="'Noto Serif'"/><path d="m 399.06802,293.1903 v -1.00965 h 0.2286 q 0.2667,0 0.5715,-0.0762 0.32385,-0.0762 0.55245,-0.32385 0.2286,-0.2667 0.2286,-0.762 v -5.7912 q 0,-0.55245 -0.2286,-0.8001 -0.20955,-0.2667 -0.5334,-0.3429 -0.3048,-0.0953 -0.59055,-0.0953 h -0.2286 v -1.00965 h 5.6769 v 1.00965 h -0.0381 q -0.24765,0 -0.55245,0.0953 -0.28575,0.0762 -0.4953,0.3429 -0.20955,0.24765 -0.20955,0.8001 v 6.87705 h 3.37185 v -6.95325 q 0,-0.51435 -0.20955,-0.762 -0.20955,-0.24765 -0.51435,-0.32385 -0.28575,-0.0762 -0.5334,-0.0762 h -0.0381 v -1.00965 h 5.39115 v 1.00965 h -0.0381 q -0.24765,0 -0.55245,0.0953 -0.28575,0.0762 -0.4953,0.3429 -0.20955,0.24765 -0.20955,0.8001 v 6.87705 h 3.37185 v -6.87705 q 0,-0.55245 -0.20955,-0.8001 -0.20955,-0.2667 -0.4953,-0.3429 -0.28575,-0.0953 -0.55245,-0.0953 h -0.0381 v -1.00965 h 5.6769 v 1.00965 h -0.2286 q -0.2667,0 -0.59055,0.0953 -0.32385,0.0762 -0.55245,0.3429 -0.20955,0.24765 -0.20955,0.8001 v 5.7912 q 0,0.4953 0.2286,0.762 0.2286,0.24765 0.5334,0.32385 0.32385,0.0762 0.59055,0.0762 h 0.2286 v 1.00965 z" fill="#4d4d4d"/></g></g></g></g></svg>