<?xml version="1.0" encoding="utf-8"?>
<!-- Svg Vector Icons : http://www.onlinewebfonts.com/icon -->
<!DOCTYPE svg PUBLIC "-//W3C//DTD SVG 1.1//EN" "http://www.w3.org/Graphics/SVG/1.1/DTD/svg11.dtd">
<svg version="1.1" xmlns="http://www.w3.org/2000/svg" xmlns:xlink="http://www.w3.org/1999/xlink" x="0px" y="0px" viewBox="0 0 256 256" enable-background="new 0 0 256 256" xml:space="preserve">
<metadata> Svg Vector Icons : http://www.onlinewebfonts.com/icon </metadata>
<g><g><g><path fill="#000000" d="M108.2,51.4c-0.2,0.1-0.3,0.9-0.3,1.7c0,0.9-0.3,1.5-0.9,1.7c-1.1,0.3-3.5-0.5-3.5-1.2c0-0.2-0.3-0.5-0.7-0.5s-0.7-0.2-0.7-0.5c0-0.3-0.3-0.5-0.7-0.5c-0.5,0-0.7,0.7-0.6,3c0.1,3,0,3.1-1.3,3.2c-0.7,0.1-1.7-0.2-2.1-0.6c-1-1-1.7-1-1.7,0.1c0,0.4-0.4,1.1-0.9,1.4c-0.5,0.3-1,1.1-1.1,1.7c-0.1,0.8-0.5,1.1-1.4,1.1c-0.7,0-1.2,0.3-1.3,0.7c-0.1,1.7-0.2,2-0.9,2c-0.4,0-0.7,0.2-0.7,0.5c0,0.2-0.2,0.5-0.5,0.5c-0.6,0-1.9,1.2-1.9,1.9c0,0.3,0.3,0.6,0.6,0.7c0.4,0.2,0.4,0.3,0,0.8c-0.5,0.5-1.1,0.5-3,0.1c-2-0.4-2.4-0.4-2.8,0.1c-0.2,0.4-0.6,0.6-0.9,0.4c-0.6-0.4-2.1,1.1-1.6,1.8c0.2,0.4,0.1,0.4-0.5,0.2c-0.5-0.2-1.1-0.3-1.3-0.3c-0.2,0-0.4-0.4-0.4-0.9c0-1.6-1.1-1.8-2.2-0.4c-0.8,1-1.3,1.2-2.5,1c-0.8-0.2-2-0.8-2.5-1.5c-1.1-1.2-1.1-1.2-1.6-0.2c-0.3,0.5-0.5,1.6-0.5,2.4v1.4l-0.9-1.1c-0.7-1-1.1-1.1-2.2-0.6c-0.7,0.3-1.3,0.7-1.3,1c0,0.9-2.2,0.3-2.7-0.7c-0.2-0.5-1.1-1.4-1.9-2c-0.8-0.5-1.7-1.5-1.8-2.2c-0.2-0.9-0.6-1.3-1.8-1.4c-1.1-0.1-1.6-0.5-2-1.6c-0.6-1.7-2-2.5-2.6-1.5c-0.3,0.5-0.6,0.4-1.5-0.2c-0.6-0.4-1.5-0.8-2-0.8s-0.9-0.3-0.9-0.7c0-0.4-0.4-0.7-1.1-0.7c-0.8,0-1.4-0.4-1.7-1.2c-0.3-0.7-0.9-1.2-1.3-1.2c-0.4,0-0.7-0.2-0.7-0.4c0-0.2-0.6-0.5-1.5-0.7c-1.3-0.2-1.5-0.5-1.5-2c0-2.4-1.1-2.7-3-0.8c-1.4,1.4-1.5,1.6-1,3.2c0.5,1.5,0.4,1.8-0.2,2.2c-1.6,0.8-4.8,0.9-5.8,0.2c-0.5-0.4-1.4-0.7-2-0.7c-0.6,0-1.2-0.4-1.3-1c-0.1-0.7-0.7-1-1.5-1c-0.7,0-1.3-0.2-1.3-0.5c0-0.3-0.4-0.5-1-0.5c-0.5,0-1,0.2-1,0.5s-0.4,0.4-0.9,0.2c-1.4-0.4-2.5,0.2-2.5,1.4c0,1.1-1.1,2.3-2.6,2.9c-0.5,0.2-0.8,0.8-0.8,1.7c0,0.9-0.4,1.8-1.2,2.4c-1,0.8-1.2,1.2-0.9,2.5c0.2,1,0.1,1.6-0.2,1.6c-0.7,0-0.7,1.5,0.1,1.8c0.3,0.1,0.6,1,0.6,2.1c0,1.1,0.4,2.3,0.9,2.9c0.4,0.5,0.8,1.3,0.8,1.8c0,0.4,0.3,0.8,0.7,0.8c0.9,0,0.9,0.4-0.1,1.6c-0.6,0.7-0.7,1.1-0.2,2.2c0.3,0.6,0.6,1.7,0.6,2.2c0,1.3,0.9,1.2,2.3,0c1.1-1,1.2-1,2.4-0.3c2.1,1.4,4.7,4.4,5,5.7c0.7,3.8,1.9,6.3,3.8,8.6c2.7,3.1,6.9,11,7.9,14.6c0.4,1.5,1,4.1,1.3,5.9c0.3,1.8,0.7,3.4,0.9,3.7c0.8,1.2,1.6,6.4,1.9,12.3c0.3,6.1,0.3,6.5-0.9,8.9c-0.7,1.4-1.4,3.5-1.6,4.9c-0.1,1.3-0.7,3.2-1.2,4.2c-0.5,1-1.2,2.7-1.5,3.7c-0.8,2.5-1.8,3.5-3.9,3.9c-3,0.5-3.3,1-2.1,3.2l1,2h-1.7c-1.9,0-4.1,0.9-5.1,2.2c-0.4,0.4-1.4,0.8-2.3,0.8c-0.9,0-1.7,0.1-1.7,0.4c0,0.8,1.6,2.6,2.4,2.6c0.5,0,1.4,0.6,2.1,1.4c1.4,1.6,3.9,2.6,4.3,1.6c0.3-1,1.1-0.6,1.6,0.9c0.3,0.8,0.7,1.5,1,1.5c0.7,0,2.9,1.8,2.6,2.1c-0.1,0.1,0.7,0.4,1.9,0.6c1.2,0.2,2.4,0.6,2.8,0.9c0.3,0.3,0.9,0.6,1.2,0.6c0.3,0,0.9,0.2,1.4,0.4c0.4,0.2,0.8,0.1,0.8-0.1c0-0.5,1.8-1.2,3-1.1c0.4,0.1,1.8-0.8,3.1-1.9c2.6-2.1,3.9-2.5,4.6-1.2c0.4,0.7,0.6,0.7,2,0.1c1-0.4,1.5-1,1.5-1.8c0-1.5,0.5-1.7,2.2-0.8c2.1,1,2.3,0.9,2.3-1.5c0-2,0.8-3.4,1.8-3.2c1,0.1,1.1-0.1,0.6-1.6c-0.7-2.5,0.7-2.9,6.7-1.8c3,0.6,3.1,0.7,3.3,2.1c0.1,1.2,0.4,1.5,1.7,1.9c1.1,0.3,1.7,0.9,2.3,2.2c1.4,3.1,1.3,3.7-0.7,4.7c-1.9,0.9-2.3,1.5-1.4,2.1c0.3,0.1,0.5,1.1,0.5,2s0.3,2.1,0.6,2.7c0.5,0.9,0.4,1.1-0.7,2.2c-0.8,0.6-1.4,1.3-1.4,1.4c0,0.6,3,1.8,3.6,1.4c0.3-0.2,1.3-0.4,2.3-0.4c1.4,0,1.8-0.3,2.8-2c0.6-1.1,1.4-2,1.7-1.9c0.3,0,1,0.1,1.5,0.1c1.2,0.1,2.6,1.5,2.4,2.3c-0.2,0.7,1.1,1.7,2.5,1.8c0.6,0,1.1,0.3,1.1,0.7c0,0.4-0.4,0.7-1,0.7c-0.5,0-1,0.1-1,0.3c0,1.2,2.4,2.6,4.8,2.7c1.6,0.1,1.7,0,2.9-2.8c0.7-1.6,1.4-3.4,1.7-3.9c0.2-0.5,0.4-2.5,0.3-4.4c-0.2-3.3-0.2-3.4-2-4.4c-1-0.6-1.8-1.3-1.8-1.6c0-0.3-0.3-0.8-0.7-1.1c-0.5-0.4-0.5-0.9,0-3c0.3-1.4,0.8-2.7,0.9-3c0.2-0.3-0.1-0.6-0.7-0.8c-1.2-0.3-1.3-0.6-0.2-2.8c0.7-1.6,0.7-1.8,0-2.7c-1.2-1.3-1-1.6,0.4-1.3c1.5,0.4,1.6-0.4,0.2-1.4c-1-0.6-1-0.7-0.3-2.4c0.4-1,1.4-2.4,2.2-3.2c4.1-4.1,8-5.6,15.7-6c7.2-0.3,12.2,0.6,18.1,3.5c4.8,2.3,10.8,7.2,12.1,9.9c0.8,1.5,0.7,1.7-0.4,4.1c-1.5,3.2-2,6-1.2,7.3c0.4,0.8,0.8,0.9,2.6,0.7l2.1-0.3l-0.3,2.1c-0.2,1.2-0.1,2.5,0.2,3.1c0.4,0.7,0.4,1.1,0,1.4c-0.3,0.2-0.4,0.6-0.2,1c0.3,0.5,0.1,0.5-0.9,0.3c-1.1-0.3-1.3-0.2-1.3,1c0,3,3.4,7.6,5.7,7.6c3.6,0,5.2-2.5,5.3-8.4c0-1.9,0.3-3.2,0.7-3.7c0.8-0.8,3.6-0.9,3.6-0.2c0,0.8,1.3,0.6,1.7-0.2c0.8-2,8.7,2,8.7,4.4c0,0.3,0.3,0.9,0.7,1.1c1,0.6,4.7,5.6,4.7,6.4c0,0.4,0.5,1.5,1.2,2.4c0.7,0.9,1.2,1.8,1.2,2.1c0,0.2,0.9,1.1,2,2.1c2.1,1.7,3.9,2,7.9,1.2c1.5-0.3,1.9-0.6,2.1-1.7c0.1-0.8,0.6-1.5,1.1-1.6c0.5-0.1,0.9-0.6,0.9-1.1c0-0.8,0.4-1,2.9-1.1c1.8-0.1,3.1,0.1,3.6,0.4c0.6,0.5,0.8,0.4,1-0.4c0.1-0.6,1.3-1.5,2.8-2.2c3.4-1.6,6.4-1.5,10.3,0.4c1.7,0.8,3.9,1.8,4.9,2.1c1,0.3,2.4,1.1,3,1.7c0.6,0.6,1.6,1.2,2.2,1.4c0.5,0.2,1.4,0.7,1.9,1.3c1.2,1.3,1.7,1.2,1.7-0.2c0-0.9,0.7-1.7,2.5-3c2.7-2,2.6-1.5,1.4-6.3c-0.2-1.1-0.8-3.5-1.2-5.4c-0.4-1.9-1-4.6-1.5-5.9c-1.2-3.7-1.5-13.4-0.6-18.4c1.2-6.7,3.4-10.8,6.9-12.6c2.3-1.1,4.2-1.2,4.2-0.1c0,0.8,1.3,0.5,2.2-0.5c0.4-0.5,0.7-1.4,0.6-1.9c-0.1-0.5-0.1-1.3,0.2-1.8c0.7-1.2-1.4-4.1-3-4.3c-1.3-0.1-2-1.9-1.1-3c0.2-0.3,0.6-1.3,0.8-2.2c0.3-1.3,0.2-1.6-0.6-1.6c-2.3,0-4.2-3-2.4-3.7c0.4-0.2,0.7-0.6,0.7-1c0-0.5-0.3-0.6-1.2-0.4c-1,0.2-1.3,0.1-1.7-0.8c-0.2-0.6-1-1.9-1.7-2.8c-0.8-1-1.3-2.4-1.3-3.3c0-1.4,0.3-1.8,1.7-2.7c1.3-0.8,1.7-1.4,1.7-2.4c0-1.5,2.4-4,3.7-4c0.5,0,1.3-0.4,1.8-0.8c0.9-0.8,1.1-0.7,4.8,1.1c3,1.5,4.1,1.8,4.5,1.3c0.3-0.3,0.5-0.6,0.3-0.7c-0.1-0.1-2.3-1.1-4.9-2.4c-7-3.3-7.7-3.8-8.4-6.3c-0.6-2.3-0.8-4.7-0.4-6c0.2-0.5-0.2-0.8-1.7-0.9c-1.1-0.1-2.1,0.1-2.3,0.4c-0.2,0.3-0.8,0.4-1.4,0.2c-1.3-0.4-3.5-2.4-3.5-3c0-0.7-2.1-1.2-2.7-0.6c-0.2,0.2-1,0.1-2-0.3c-0.8-0.4-2.6-0.9-3.9-1.1c-1.3-0.1-2.5-0.6-2.7-0.9c-0.1-0.3,0.1-0.6,0.5-0.6c0.5,0,0.7-0.5,0.7-1.6c0-0.8,0.1-1.9,0.2-2.3c0.3-1-1.8-1.3-3.2-0.4c-1.6,0.8-2.7-0.2-3.6-3.2c-0.7-2.4-1.9-3-2.4-1.3c-0.1,0.5-0.7,1-1.2,1c-0.5,0-0.9,0.3-0.9,0.7s-0.3,0.7-0.7,0.7s-0.9,0.4-1.2,1c-0.3,0.5-0.8,1-1.2,1s-0.7,0.4-0.7,1c0,0.8-0.1,0.9-1.3,0.5c-1.8-0.7-3.5-0.6-3.8,0.2c-0.1,0.4-0.5,0.7-0.9,0.7c-1.3-0.1-1.8,0.1-2.1,1.1c-0.2,0.6-0.6,0.9-1,0.7c-0.3-0.1-0.9,0.1-1.1,0.5c-0.3,0.6-0.9,0.7-2.1,0.4c-2.2-0.4-5.4-1.9-5.4-2.4c0-0.2-0.5-0.3-1.1-0.2c-1.6,0.4-2.3-0.2-2.2-2.1c0-0.9-0.4-2.7-1-3.8c-0.6-1.1-1.1-2.5-1.1-3c0-0.5-0.3-1.3-0.8-1.6c-0.5-0.4-0.7-1.1-0.5-2.3c0.2-1.6,0.2-1.6-1.2-1.3c-1.2,0.3-1.5,0.1-1.7-0.6c-0.1-0.5-0.7-1.1-1.3-1.4c-0.8-0.3-1.2-1.1-1.5-3c-0.5-3.2-1.8-4.4-4.3-4c-1.6,0.2-2.1,0-2.6-0.7c-0.6-0.9-1-0.9-3-0.7c-1.9,0.3-2.3,0.5-2.6,1.7c-1,5-1.3,5.5-3.2,5.8c-2.1,0.4-2.9,0-2.9-1.1c0-0.4-0.6-1.1-1.3-1.4c-1.1-0.5-1.3-0.4-1.7,0.6c-0.5,1.5-2.5,2-4.9,1.4c-1.7-0.4-1.8-0.5-2-2.9c-0.2-2.3-0.3-2.5-1.7-2.6c-0.8-0.1-1.9,0.1-2.4,0.5c-0.7,0.5-1.3,0.6-2.6,0.2c-0.9-0.3-1.6-0.7-1.6-0.9c0-0.2-0.3-0.4-0.7-0.4s-0.7,0.3-0.7,0.7c0,0.9-2,1-3.5,0.2c-0.7-0.4-1-0.3-1.2,0.2c-0.5,1.2-2.7,0.4-4.5-1.7c-1.3-1.5-1.8-1.8-3-1.6c-1.3,0.2-1.5,0-2.9-2.9c-1.2-2.6-1.7-3.1-2.9-3.2c-1-0.1-1.7-0.7-2.4-1.9C108.6,50.9,108.6,50.9,108.2,51.4z M148.2,172c0,0.2-0.3,0.7-0.7,1c-0.9,0.7-1,4.7-0.1,5.1c0.3,0.1,0.2,0.3-0.2,0.3c-0.7,0.1-0.9-0.3-0.9-2.2c0-2.2,0.8-4.7,1.6-4.7C148,171.5,148.2,171.7,148.2,172z M149.1,175c0,0.2-0.2,0.5-0.5,0.5c-0.2,0-0.3-0.2-0.2-0.5c0.1-0.3,0.4-0.5,0.5-0.5C149,174.5,149.1,174.7,149.1,175z"/><path fill="#000000" d="M12.6,169.3c-0.4,1.1,0,1.4,1.3,1.2l1.1-0.1l-1-0.9C13,168.5,12.9,168.5,12.6,169.3z"/><path fill="#000000" d="M102.9,171.2c-1.3,1.1-2.2,3.2-1.6,3.9c0.3,0.3,0.6,0.9,0.6,1.2c0,0.3,0.5,1.4,1,2.4c0.7,1.2,1.2,1.6,1.6,1.3c0.3-0.3,0.3-0.7-0.1-1.2c-0.7-0.9-0.9-3.8-0.3-6.3C104.5,170.5,104.2,170.1,102.9,171.2z"/><path fill="#000000" d="M107.3,171.4c0,0.2,0.2,0.7,0.5,1.1c0.5,0.9,1.2,0.3,0.8-0.7C108.4,171,107.3,170.7,107.3,171.4z"/><path fill="#000000" d="M56,175.9c-0.2,0.3-0.2,0.7-0.1,0.9c0.4,0.4,0.9-0.2,0.7-0.9C56.4,175.4,56.3,175.4,56,175.9z"/><path fill="#000000" d="M108.8,178.2c0,1.2,2,4.1,3.1,4.4c2,0.6,4.6-1.7,3.3-2.9c-0.4-0.4-0.5-0.4-0.5,0c0,1-2,0.7-2.3-0.3c-0.1-0.5-0.6-1-1-1.2c-0.5-0.1-1.2-0.4-1.7-0.6C109.1,177.4,108.8,177.6,108.8,178.2z"/><path fill="#000000" d="M64.6,180.6c0,0.4,0.2,0.7,0.5,0.6c0.3-0.1,0.5-0.4,0.5-0.6c0-0.2-0.2-0.5-0.5-0.6C64.8,179.9,64.6,180.2,64.6,180.6z"/><path fill="#000000" d="M136.1,190.5c0.1,0.4,0.3,0.9,0.3,1s0.3,0.2,0.8,0.2c1.1,0,0.6-1.7-0.5-1.9C136,189.7,135.8,189.8,136.1,190.5z"/><path fill="#000000" d="M156.1,204.1c0.3,1,2.4,1.1,2.4,0.2c0-0.5-0.4-0.8-1.3-0.8C156.4,203.5,156,203.7,156.1,204.1z"/></g></g></g>
</svg>