<?xml version="1.0" encoding="UTF-8" standalone="no"?>
<svg
   xmlns:dc="http://purl.org/dc/elements/1.1/"
   xmlns:cc="http://creativecommons.org/ns#"
   xmlns:rdf="http://www.w3.org/1999/02/22-rdf-syntax-ns#"
   xmlns:svg="http://www.w3.org/2000/svg"
   xmlns="http://www.w3.org/2000/svg"
   xmlns:sodipodi="http://sodipodi.sourceforge.net/DTD/sodipodi-0.dtd"
   xmlns:inkscape="http://www.inkscape.org/namespaces/inkscape"
   version="1.1"
   id="Anguilla"
   x="0px"
   y="0px"
   width="1693.5355"
   height="851.48871"
   viewBox="0 0 1693.5356 851.48872"
   enable-background="new 0 0 1776.815 1604.402"
   xml:space="preserve"
   inkscape:version="0.48.2 r9819"
   sodipodi:docname="Anguilla.svg"><metadata
   id="metadata3185"><rdf:RDF><cc:Work
       rdf:about=""><dc:format>image/svg+xml</dc:format><dc:type
         rdf:resource="http://purl.org/dc/dcmitype/StillImage" /><dc:title></dc:title></cc:Work></rdf:RDF></metadata><defs
   id="defs3183"><inkscape:path-effect
     effect="spiro"
     id="path-effect4087"
     is_visible="true" /><inkscape:path-effect
     effect="spiro"
     id="path-effect4079"
     is_visible="true" /><inkscape:path-effect
     effect="spiro"
     id="path-effect4071"
     is_visible="true" /><inkscape:path-effect
     effect="spiro"
     id="path-effect4067"
     is_visible="true" /><inkscape:path-effect
     effect="spiro"
     id="path-effect4059"
     is_visible="true" /><inkscape:path-effect
     effect="spiro"
     id="path-effect4055"
     is_visible="true" /><inkscape:path-effect
     effect="spiro"
     id="path-effect4043"
     is_visible="true" /><inkscape:path-effect
     effect="spiro"
     id="path-effect4035"
     is_visible="true" /><inkscape:path-effect
     effect="spiro"
     id="path-effect4031"
     is_visible="true" /><inkscape:path-effect
     effect="spiro"
     id="path-effect4023"
     is_visible="true" /><inkscape:path-effect
     effect="spiro"
     id="path-effect4019"
     is_visible="true" /><inkscape:path-effect
     effect="spiro"
     id="path-effect4011"
     is_visible="true" /><inkscape:path-effect
     effect="spiro"
     id="path-effect4001"
     is_visible="true" /><inkscape:path-effect
     effect="spiro"
     id="path-effect3993"
     is_visible="true" /><inkscape:path-effect
     effect="spiro"
     id="path-effect3989"
     is_visible="true" /><inkscape:path-effect
     effect="spiro"
     id="path-effect3197"
     is_visible="true" /></defs><sodipodi:namedview
   pagecolor="#ffffff"
   bordercolor="#666666"
   borderopacity="1"
   objecttolerance="10"
   gridtolerance="10"
   guidetolerance="10"
   inkscape:pageopacity="0"
   inkscape:pageshadow="2"
   inkscape:window-width="1366"
   inkscape:window-height="706"
   id="namedview3181"
   showgrid="false"
   fit-margin-top="0"
   fit-margin-left="0"
   fit-margin-right="0"
   fit-margin-bottom="0"
   inkscape:zoom="0.29419061"
   inkscape:cx="637.82281"
   inkscape:cy="225.71956"
   inkscape:window-x="-8"
   inkscape:window-y="-8"
   inkscape:window-maximized="1"
   inkscape:current-layer="Anguilla" />
<g
   id="g3087"
   transform="matrix(0.95312999,0,0,0.53072032,0,1.6995631)">
	<rect
   width="1776.8149"
   height="1604.402"
   id="rect3089"
   x="0"
   y="0"
   style="fill:#c6ecff" />
	<path
   d="M 888.408,802.201"
   id="path3091"
   inkscape:connector-curvature="0"
   style="fill:#c6ecff" />
</g>
<path
   stroke-miterlimit="3.8637"
   d="m 1375.6797,581.36974 -1.39,1.221 -1.534,-0.734 c -1.296,0.208 -2.728,0.229 -3.748,1.172 -0.188,-0.096 -1.979,-0.99 -2.039,-1.042 -1.237,-1.066 -2.273,-3.415 -3.598,-4.483 -0.685,-0.553 -2.693,-0.986 -3.573,-0.705 l -1.128,-1.072 c -0.03,-1.08 -0.91,-2.783 -1.884,-3.317 -0.481,-0.124 -2.302,-0.479 -2.6,-0.836 -0.487,-0.056 -2.111,0.168 -2.47,0.399 -1.388,0.896 -3.352,3.303 -3.511,5.076 -0.017,0.191 0.253,1.38 0.306,1.582 0.197,0.756 0.432,1.521 1.041,2.072 l -0.804,0.53 -0.043,1.341 c -1.65,1.894 -2.062,4.503 -4.072,6.217 -2.049,-0.214 -3.792,0.626 -5.088,2.181 -0.231,0.277 -0.204,0.812 -1.067,1.479 l -0.779,0.168 -0.043,0.574 0.243,0.431 -0.867,1.172 c -0.728,-0.482 -1.962,-0.064 -3.037,-0.667 -0.277,0.526 -1.033,1.143 -1.604,1.31 l -0.586,1.434 0.611,1.472 1.166,0.842 -0.542,0.817 -0.842,-0.094 c -0.632,0.171 -1.54,1.709 -1.796,2.237 0.195,0.964 0.884,2.142 1.428,2.938 l 0.43,-0.767 c 1.463,0.488 3.491,0.64 5.008,0.349 l -1.191,1.071 1.21,1.504 -0.193,0.35 -0.954,0.336 0.368,0.786 -0.755,0.724 v 0.742 c -0.539,0.164 -1.065,0.381 -1.584,0.599 l -0.305,0.442 c 0.232,0.879 0.729,0.809 1.042,1.204 0.337,0.426 0.628,1.049 0.91,1.521 l 1.042,0.549 -0.542,1.104 -2.164,0.319 v 0.385 l -2.014,0.413 0.562,0.66 2.033,-0.162 0.131,0.343 -1.621,0.062 -0.805,0.636 -0.586,-0.062 -1.578,-2.083 c -1.103,0.174 -2.618,1.007 -3.38,1.815 -0.862,-0.198 -2.676,0.358 -3.448,0.673 l -0.499,0.729 c -1.622,0.135 -6.239,0.67 -7.452,1.721 l -0.798,-0.848 -0.736,0.125 -0.393,0.536 -0.412,-0.243 c -0.825,0.689 -3.021,2.786 -3.23,3.922 l -16.201,6.623 c -2.218,0.907 -4.619,2.506 -6.461,4.028 -1.063,-0.149 -2.894,0.372 -3.617,1.21 l -0.106,-0.898 c -0.71,-0.045 -1.769,0.382 -2.363,0.724 l 0.262,1.016 -0.193,0.505 -1.154,-0.137 -0.474,0.917 c -0.269,-0.414 -1.178,-0.672 -1.628,-0.698 l -1.035,0.923 -1.391,0.137 -0.019,-0.767 c -0.399,-0.311 -1.72,-0.717 -2.17,-0.717 -0.157,0 -0.913,0.328 -1.06,0.325 -0.607,-0.014 -1.296,-0.386 -1.902,-0.393 -0.741,-0.01 -1.454,0.509 -2.538,0.349 l -1.453,1.191 -0.998,-0.318 c -0.378,0.225 -1.245,0.884 -1.384,1.341 l 0.087,0.499 0.805,0.649 -0.979,0.137 -0.412,0.723 -1.234,0.318 -0.674,0.848 c 0.018,0.519 0.179,1.792 0.543,2.214 l 2.731,1.06 c 0.438,0.526 0.708,1.592 0.717,2.258 -0.41,0.074 -1.27,0.426 -1.453,0.854 l 0.062,0.811 -0.779,-0.131 -0.562,0.393 c -0.036,0.741 0.132,1.751 0.499,2.407 l -0.586,-0.144 0.175,0.455 0.736,-0.062 -0.499,0.237 0.281,0.437 c -0.423,-0.302 -1.343,-0.429 -1.84,-0.418 l 0.412,0.879 0.673,0.343 0.299,0.543 -0.91,1.054 -1.946,-1.247 -0.761,0.193 -0.798,-0.593 -0.349,0.574 0.306,0.686 -1.023,0.162 -0.255,1.347 c -0.31,0.086 -3.904,1.068 -3.966,1.104 -0.077,0.044 -3.071,2.812 -3.336,3.056 l -0.325,-0.673 c 0.363,-0.312 0.786,-1.104 0.692,-1.603 -0.879,0.23 -4.368,0.933 -5.138,0.274 -1.032,0.246 -1.586,1.004 -2.251,1.241 -0.89,0.317 -2.054,0.455 -2.987,0.661 -0.949,-0.531 -2.101,-1.349 -3.1,-1.734 -0.251,-0.097 -1.765,-0.188 -2.145,-0.287 -1.147,-0.297 -2.404,-1.005 -3.555,-1.191 l -1.214,0.216 c -3.204,0.571 -4.502,4.015 -5.434,6.754 0.326,0.775 0.382,2.158 0.062,2.945 l -4.789,-0.01 c -2.076,3.078 -1.431,7.506 -3.679,10.901 -0.823,0.144 -5.552,0.996 -6.217,1.378 -0.457,0.262 -0.833,0.896 -1.278,1.197 -1.638,1.111 -3.424,2.101 -5.114,3.137 -1.916,-0.982 -4.282,0.613 -6.304,-0.499 l -3.212,0.998 -0.299,-0.729 -1.085,-0.674 c -1.283,-0.157 -2.777,0.25 -3.966,0.724 l -0.256,1.235 c -0.597,0.725 -1.618,1.362 -2.45,1.765 l -0.973,2.825 0.929,1.235 -0.779,-0.089 -0.542,-0.441 c -0.402,-0.105 -3.194,1.886 -3.679,2.201 l 0.062,-0.873 1.06,-0.537 -0.499,-1.072 c -0.486,-0.273 -1.448,-0.253 -1.927,0.025 -0.593,-0.399 -1.763,-0.772 -2.488,-0.63 l -1.453,-1.952 -0.848,0.23 0.112,-1.042 -0.499,-0.829 -1.129,0.917 -0.867,-0.162 -1.471,1.16 c 0.083,0.67 -0.053,1.899 -0.456,2.476 l 0.456,0.349 -0.543,0.998 c -1.834,1.377 -3.679,2.936 -5.587,4.197 -0.385,0.254 -3.517,1.774 -3.617,1.883 -0.355,0.387 -3.784,5.93 -4.291,6.723 -0.248,0.387 -2.298,1.308 -2.819,1.428 0.934,-1.365 2.201,-1.714 2.775,-2.37 0.36,-0.412 1.308,-2.339 1.297,-3 l 1.06,-0.443 0.823,-2.008 c -0.213,-0.704 -0.201,-1.646 -0.087,-2.363 l 0.63,-0.455 -0.131,-3.929 0.742,-1.116 -0.131,-1.116 -1.453,-0.256 0.043,-1.235 c -0.415,-0.439 -2.521,-0.526 -3.012,-0.443 -0.086,0.015 -1.9,0.762 -2.101,0.842 -1.363,1.461 -1.389,4.214 -0.262,5.787 l -0.343,0.593 0.087,2.05 c -0.758,0.733 -1.649,1.568 -2.213,2.471 l 0.281,0.443 c -0.258,0.653 -0.283,1.66 -0.237,2.345 -0.605,0.266 -1.289,1.102 -1.559,1.684 l -0.648,0.075 -0.804,1.678 -0.648,-0.181 -1.085,0.618 -0.255,0.829 -0.63,0.062 -0.087,0.312 c -0.516,0.108 -1.103,0.229 -1.584,0.455 l -0.343,0.561 -0.412,-0.437 c -0.213,0.121 -1.587,0.958 -1.715,1.147 -0.236,0.351 -0.809,1.644 -0.586,2.095 l -0.43,0.424 -0.499,0.106 -0.131,0.225 0.368,0.287 -0.299,0.106 -0.243,0.405 0.112,0.468 c -0.537,0.877 -1.359,1.746 -2.145,2.401 -0.173,1.099 0.017,3.612 -0.112,4.166 -0.448,1.912 -2.994,4.243 -3.661,6.992 -1.001,0.643 -2.133,1.302 -3.012,2.112 l -0.256,-0.48 -0.499,0.025 v 0.561 l -0.412,0.692 -1.303,-0.1 -0.193,0.375 0.605,0.436 -0.062,0.53 0.499,-0.062 0.798,0.667 -0.755,1.434 -0.935,-0.23 -0.193,-0.936 -0.605,1.123 -0.954,-0.05 -0.062,0.361 -0.954,0.493 -0.156,0.461 c -0.516,-0.016 -2.316,0.044 -2.707,0.456 l -1.278,-0.175 -0.324,0.387 -0.562,0.069 c -0.105,0.185 -0.345,0.415 -0.542,0.499 l -0.499,-0.437 -4.247,-0.05 -0.393,0.399 0.043,0.873 1.154,0.755 c -0.302,0.171 -0.859,0.251 -1.197,0.168 l -0.212,0.212 c -0.898,-0.122 -2.533,-0.309 -3.143,0.586 -0.101,0.813 -0.653,2.077 -1.303,2.611 -1.092,-0.176 -2.818,0.195 -3.748,0.788 l -0.062,0.567 -2.338,1.26 -2.688,-0.936 -1.796,0.474 -0.611,-0.412 -0.441,0.306 c -1.532,1.062 -0.821,1.154 -1.704,2.332 -0.43,0.573 -1.211,1.181 -1.734,1.69 l 0.698,1.572 -0.393,0.087 -0.499,0.792 -0.867,0.399 -0.15,0.73 -0.561,-0.031 -0.306,-0.412 c -0.558,0.404 -1.745,0.59 -2.407,0.561 -1.794,-0.875 -2.69,-2.842 -4.546,-3.592 -3.233,-1.308 -4.437,-0.857 -7.714,0.255 -1.219,0.414 -2.756,0.933 -3.897,1.51 -0.063,0.031 -0.709,0.77 -0.823,0.873 -1.811,1.629 -2.328,1.972 -3.299,4.515 -0.745,-0.285 -1.523,-0.717 -2.164,-1.191 -1.701,0.294 -2.864,-0.1 -4.159,0 -0.961,0.074 -1.944,0.463 -2.906,0.561 -0.956,0.097 -2.324,-0.267 -3.636,0.225 -0.271,0.101 -1.915,1.406 -2.426,1.708 l -1.147,-0.125 c -0.882,0.965 -2.638,1.274 -3.143,2.395 l -0.412,-0.586 c -1.09,0.952 -2.555,1.763 -3.879,2.326 l -0.692,-0.437 -0.586,0.162 -0.649,-0.281 -0.436,0.056 -0.456,-0.86 0.025,-0.574 -0.412,-0.374 c 0.099,-0.585 0.156,-1.181 0.212,-1.771 l 0.349,-0.181 0.262,-1.64 0.648,-0.374 0.219,-0.717 0.779,-0.237 1.821,-4.502 c -0.023,-0.133 -0.268,-1.576 -0.287,-1.609 -0.771,-1.376 -1.979,-2.787 -2.9,-4.084 l 0.193,-0.767 c -0.513,-0.476 -1.387,-1.634 -1.428,-2.382 0.978,-1.141 0.675,-2.273 0.237,-3.611 -1.716,-2.345 -10.698,-5.476 -13.403,-6.502 -1.118,-0.424 -1.722,-0.743 -2.867,-1.087 -0.088,-0.026 -4.805,-0.785 -4.876,-0.786 -1.78,-0.021 -4.663,0.439 -6.498,0.648 -1.229,0.14 -2.73,0.25 -3.922,0.542 -3.178,0.779 -8.637,2.923 -10.938,5.419 -0.787,0.854 -1.461,1.977 -2.30104,2.763 -1.572,1.471 -4.824,3.377 -6.673,4.708 -1.593,1.147 -2.963,2.432 -4.958,2.868 -0.192,0.661 -1.579,1.922 -2.083,2.339 l -0.174,0.867 c -2.133,-0.301 -4.191,1.952 -5.089,3.648 -0.544,-0.283 -1.394,-0.392 -1.996,-0.312 l -2.75,1.821 -1.104,2.507 0.349,0.923 c -0.953,1.419 -2.207,2.192 -3.922,2.189 l -0.936,-0.542 -1.97,0.779 -0.256,-2.382 -1.278,-0.468 0.929,-0.212 -0.043,-1.147 c -1.428,-2.095 -3.964,-2.722 -6.219,-3.455 -0.651,-0.211 -1.003,-0.383 -1.669,-0.542 -1.643,-0.394 -4.887,0 -6.489,0.357 -4.413,0.974 -5.627,1.231 -8.849,4.361 l -2.166,2.104 c -0.738,0.87 -1.258,2.045 -1.946,2.968 -0.686,0.92 -1.568,1.986 -2.363,2.812 -2.733,2.84 -6.127,5.406 -8.319,8.718 0.248,1.417 -1.088,4.544 -1.671,5.781 0.439,0.943 0.017,2.825 -0.886,3.399 l -1.584,-0.861 c 0.209,-1.077 -0.309,-1.574 -0.562,-2.482 -0.214,-0.77 -0.324,-1.632 -0.48,-2.419 0.135,-0.678 1.032,-1.587 1.584,-1.933 v -1.16 l 0.499,-0.474 c -0.399,-1.073 -1.845,-1.529 -2.754,-1.936 -1.373,-0.613 -0.598,-0.349 -2.353,-0.698 l -2.844,-0.565 c -2.252,-0.191 -6.125,1.299 -8.038,2.463 -1.404,0.854 -2.543,2.018 -3.625,3.228 -0.592,0.662 -2.154,2.417 -2.093,3.382 l 1.104,0.212 0.387,0.511 c -0.989,1.206 -3.853,4.103 -5.519,4.384 -1.136,0.08 -2.863,-0.588 -3.317,-1.715 l -0.106,-1.26 c -1.835,0.353 -4.073,0.419 -5.918,0.087 -0.747,-1.197 -1.518,-2.769 -2.401,-3.848 -0.078,-0.095 -3.571,-3.456 -3.58,-3.461 -0.642,-0.396 -1.101,-0.423 -1.804,-0.694 l -3.608,-1.389 -1.763,-0.249 c -3.366,-0.477 -7.094,0 -9.786,2.226 -0.65,0.538 -0.526,1.074 -0.91,1.659 -0.61,0.93 -2.052,1.669 -1.996,2.981 l 1.259,0.01 -2.538,2.719 -0.411,-0.399 c -0.224,-0.423 -0.314,-1.275 -0.081,-1.715 l 0.368,-0.162 -0.175,-0.736 -1.303,-0.336 -0.562,0.393 -0.218,-0.605 c -0.504,-0.346 -1.289,-0.463 -1.842,-0.563 l -1.95,-0.354 c -0.618,-0.045 -3.283,0.749 -3.723,1.01 -0.737,0.438 -1.589,1.348 -2.257,1.915 l -0.387,1.135 0.343,0.511 -1.272,0.044 -0.243,0.306 0.025,1.478 c -0.208,0.271 -2.427,0.989 -2.862,1.147 l 0.324,0.231 -0.131,0.287 c -2.615,-1.014 -7.616,0.233 -8.73,3.075 -1.856,0.251 -3.427,-0.587 -5.195,-0.705 -1.792,-0.119 -3.788,0.081 -5.593,0.119 l -0.673,-0.817 -0.038,-0.617 0.929,-0.287 -0.542,-0.293 1.777,-0.493 0.175,-0.817 0.973,-0.892 -0.387,-0.331 0.125,-0.592 c 0.939,-10e-4 2.277,-0.933 2.8,-1.659 l -0.611,-0.948 0.586,-0.212 0.911,-1.522 c 0.505,-0.112 0.988,-0.329 1.407,-0.623 l 0.195,-0.137 5.55,-0.512 c 0.792,-1.856 3.398,-3.657 3.592,-5.294 0.388,-0.223 1.496,-0.727 1.971,-0.586 l 0.586,-0.742 v -0.917 l 0.48,-0.019 -0.156,-0.667 0.568,-0.511 0.387,0.243 0.368,-0.431 0.412,0.05 0.412,-0.692 -1.06,-0.998 1.927,-1.977 1.303,0.313 c 0.361,-0.426 0.625,-0.905 0.499,-1.479 l 1.167,0.486 c 0.351,-0.492 0.413,-1.687 0.368,-2.251 l 3.336,-0.151 0.368,-1.932 0.455,-0.1 -0.106,-0.487 -0.562,-0.276 1.622,-0.391 -0.193,-0.748 h -0.542 l -0.324,-0.53 0.106,-0.542 1.715,-0.094 -0.043,-1.06 -0.349,-0.013 -0.15,-0.28 0.343,-0.293 -0.692,-0.118 -0.106,-0.287 0.673,-0.118 0.237,-0.368 -1.191,0.075 -0.567,-0.343 0.611,-0.923 1.166,0.168 -0.236,-0.68 0.393,-0.168 -0.068,-0.405 0.954,-0.755 1.41,0.437 0.149,-0.225 -0.368,-0.274 c 0.302,-1.007 1.496,-1.331 2.382,-1.627 v -0.331 c 0.62,0.128 1.464,0.047 2.058,-0.162 l 0.262,0.443 1.235,0.081 0.131,-0.692 c 0.707,-0.838 2.484,-0.295 3.467,-0.817 l 0.755,0.256 0.043,0.542 -0.536,0.605 0.798,1.222 c 0.719,0.135 4.48,1.092 4.982,1.085 0.049,0 1.757,-0.406 1.839,-0.437 0.335,-0.123 0.645,-0.467 0.979,-0.599 0.606,-0.238 1.34,-0.381 1.971,-0.561 l 0.175,-0.38 c 0.897,-0.369 1.867,-1.246 2.444,-2.008 -0.185,-0.326 -0.003,-1.306 0.087,-1.634 0.466,-0.265 2.596,-1.303 2.707,-1.79 l -0.518,-1.035 1.365,-0.692 1.061,0.062 -0.062,-0.256 0.586,-0.287 0.125,0.48 0.673,-0.312 -0.281,-0.605 0.412,-0.742 0.218,0.542 0.586,-0.193 0.281,-0.617 0.368,0.393 0.474,-0.487 1.017,0.156 0.349,-0.604 1.042,0.056 c 0.066,-0.077 0.465,-0.57 0.518,-0.605 2.607,-1.741 8.177,-5.039 10.246,-7.302 l 2.831,-3.621 1.416,-1.811 v -1.167 l -1.104,-0.823 0.542,-0.156 -0.368,-1.029 1.908,-1.085 0.499,0.418 0.256,0.879 1.11,-0.393 0.212,-0.574 3.536,-1.266 3.074,1.883 c 1.69,-0.504 3.794,-0.912 5.394,-1.609 2.049,-0.893 5.39,-3.377 7.09,-4.688 l 5.126,-3.949 c 1.076,-0.991 5.266,-5.656 6.18,-6.841 1.29,-1.672 4.115,-6.63 4.827,-8.824 l -0.281,-0.892 -0.711,0.293 -0.804,-0.586 c 0.581,-0.617 1.254,-2.063 1.06,-2.943 l -1.234,-0.649 c 1.735,0.027 2.446,-0.655 2.669,-2.351 1.099,-1.183 3.268,-3.083 4.546,-3.865 0.149,-0.091 1.437,-0.265 1.646,-0.37 1.305,-0.655 2.477,-1.674 3.773,-2.351 1.227,-0.641 2.662,-1.133 3.941,-1.678 0.987,0.466 2.807,-0.526 3.835,-0.542 1.406,-0.022 4.295,0.695 5.7,1.235 0.125,0.048 0.706,0.434 0.779,0.443 0.934,0.119 1.957,-0.06 2.899,0.025 0.857,0.077 1.747,0.422 2.601,0.468 1.533,0.081 3.683,0.102 4.964,-0.886 0.685,-0.527 0.539,-1.049 0.798,-1.634 0.216,-0.487 0.593,-1.008 0.867,-1.472 0.418,-0.372 2.014,-0.176 2.495,-0.075 l 0.779,-0.55 c 1.67,-0.145 2.993,0.841 4.633,0.956 0.464,0.033 1.023,-0.185 1.497,-0.187 1.032,-0.01 2.15,0.398 3.118,-0.193 l 1.69004,0.393 1.304,-0.418 c 0.762,0.167 3.7,0.956 4.072,1.715 2.724,0.23 3.742,0.182 6.242,-0.979 l 3.075,0.842 c 0.942,-0.498 1.812,-0.412 2.75,-0.705 1.119,-0.349 2.446,-0.99 3.442,-1.634 l 0.306,-0.562 1.671,-0.705 0.281,-0.605 0.455,0.38 c 0.697,-0.163 0.913,-0.746 1.534,-1.01 l 0.306,0.174 1.016,-1.11 0.823,-0.112 0.349,-0.299 c 1.579,-0.249 7.452,-0.833 8.537,-1.84 l 2.033,0.343 c 1.91,-0.949 3.946,-2.026 5.937,-2.744 0.517,-0.187 1.237,-0.107 1.777,-0.255 1.443,-0.396 2.596,-1.169 4.184,-0.911 l 0.412,-0.349 c 1.279,0.105 2.741,-0.071 3.985,-0.355 1.206,0.856 2.636,0.059 4.396,0.798 l 0.611,0.692 c 0.654,0.286 1.566,0.377 2.27,0.349 l 0.219,-0.711 c 0.739,0.311 2.037,0.748 2.862,0.692 l 0.779,0.798 0.929,0.062 0.542,0.654 1.708,-0.05 0.437,0.393 c 0.848,-0.326 2.253,-0.344 3.118,-0.087 l 1.515,-0.661 0.044,0.48 c 1.841,0.065 3.951,-1.627 5.203,-2.717 2.574,-2.24 4.665,-4.147 6.372,-7.117 2.298,-4.001 3.121,-8.676 2.762,-13.254 l -0.187,-2.386 c -0.104,-0.385 -0.287,-0.554 -0.47,-0.908 l -0.939,-1.817 c -0.779,-0.973 -3.207,-2.124 -4.421,-2.339 l -2.594,1.541 c -0.69,-0.102 -1.752,-0.163 -2.432,0.062 l -1.578,-0.643 -0.761,0.68 c -0.405,-0.377 -1.354,-0.619 -1.883,-0.636 l -0.175,-0.749 0.649,-0.711 1.153,-0.324 c 0.035,-0.063 0.345,-0.656 0.368,-0.673 0.817,-0.618 1.81,-1.242 2.557,-1.934 1.204,-1.114 2.327,-2.444 3.461,-3.635 0.018,-0.019 0.28,-0.914 0.306,-0.998 2.361,-2.431 5.046,-4.194 7.813,-6.107 l 4.104,-2.835 3.268,-0.948 c 2.583,-0.595 3.707,-0.065 6.093,-0.119 0.107,0 0.709,-0.33 0.867,-0.361 1.679,-0.339 3.515,-0.58 5.157,-1.042 1.329,-0.374 3.23,-1.837 4.677,-1.229 l 2.319,-1.147 0.998,0.112 1.191,-0.848 1.646,0.162 c 1.989,-0.708 3.621,-2.218 5.438,-3.243 1.972,-1.112 2.528,-0.443 3.723,-0.68 0.965,-0.191 2.122,-0.527 3.056,-0.842 1.711,-0.578 3.371,-1.326 4.721,-2.551 0.182,-0.165 0.806,-1.064 0.936,-1.153 0.865,-0.598 3.478,-1.41 3.723,-2.52 l 3.056,-1.37 0.542,-1.112 c 0.944,-0.456 2.117,-0.891 2.993,-1.447 1.595,-1.012 5.793,-4.188 7.19,-5.5 1.275,-1.198 2.809,-2.812 3.898,-4.178 1.903,-2.389 3.089,-5.192 4.292,-7.961 0.347,-0.798 0.683,-1.202 0.89,-2.047 0.014,-0.059 -0.185,-3.64 -0.2,-3.941 l -3.336,-1.721 0.131,-0.904 -1.646,-0.692 -0.542,-1.503 2.388,-1.852 0.193,-1.989 -0.605,-0.518 0.449,-0.848 -2.102,-0.661 -0.299,-0.424 0.798,-0.337 -0.062,-0.524 -0.823,-0.149 c -0.201,-0.921 0.542,-2.679 0.998,-3.424 l -0.35,-0.455 -0.673,-0.137 0.112,-3.125 1.278,-0.137 0.387,-1.615 -5.893,-4.359 0.112,-0.954 c -2.212,-0.595 -2.32,-2.455 -4.814,-3.187 l -0.648,-1.403 -3.056,-1.135 c -0.386,-0.858 -2.129,-1.784 -2.943,-2.07 l 0.281,-0.68 2.232,-0.112 0.673,-0.805 -0.655,-0.973 0.524,-1.054 1.752,0.156 -0.106,-0.823 c 1.283,0.267 2.942,-0.128 4.028,0.368 l 0.237,-0.461 3.23,-1.035 0.087,-0.936 0.929,-0.336 c 0.175,-0.346 0.66,-0.883 1.061,-0.973 l 0.437,-0.923 -0.262,-0.351 c 0.251,-0.709 0.635,-1.476 1.085,-2.082 l -0.193,-1.378 c 1.022,-1.021 0.991,-1.771 1.578,-2.619 0.433,-0.625 1.176,-1.017 1.603,-1.74 l 1.085,0.935 0.63,0.087 1.167,1.073 0.892,-0.181 0.867,0.437 c 0.473,-0.17 1.034,-0.804 1.191,-1.272 -0.648,-0.794 -0.973,-2.459 -0.892,-3.448 0.221,-0.543 1.468,-2.692 1.733,-2.95 0.182,-0.176 0.349,-0.187 0.572,-0.306 1.37,-0.732 2.059,-0.933 3.631,-0.767 l 0.543,-0.711 0.368,0.618 1.066,0.293 0.455,-0.456 0.624,-0.043 0.736,-1.072 0.542,0.106 0.281,-0.218 c 0.22,0.39 0.676,0.926 1.085,1.135 0.448,-0.343 0.881,-1.188 0.892,-1.752 l 0.561,-0.218 0.043,-0.761 1.017,-0.349 c 0.173,-0.349 -0.345,-1.578 -0.499,-1.896 1.561,-0.927 3.307,-1.809 4.79,-2.843 0.868,-0.605 1.557,-1.586 2.426,-2.189 1.647,-1.142 4.598,-2.837 6.629,-3.218 l 0.736,-1.222 0.736,1.147 0.786,0.062 0.78,-0.873 -0.325,-1.571 c 0.131,-0.639 0.609,-1.4 1.061,-1.858 l 0.455,-0.137 c 0.082,-0.089 0.635,-0.717 0.692,-0.754 1.219,-0.806 2.599,-1.584 3.748,-2.476 1.027,-0.797 1.889,-1.974 2.943,-2.719 1.158,-0.817 2.709,-0.69 3.991,-0.998 0.871,-0.209 1.96,-0.741 2.75,-1.191 l 0.842,0.35 2.844,-1.759 1.622,0.337 0.586,-0.374 c 2.337,0.99 5.571,-2.838 6.912,-4.072 l 4.157,-3.829 c 0.128,-0.118 1.798,-0.525 2.819,-1.621 l 0.019,-0.567 2.756,-0.805 0.736,0.648 c 1.724,-0.4 3.469,-1.1 5.089,-1.796 l 1.646,0.624 0.649,-0.243 1.022,0.437 c 1.412,-0.558 2.834,-1.184 4.266,-1.684 1.308,-0.457 2.804,-0.694 4.072,-1.229 1.484,-0.625 3.009,-1.598 4.44,-2.357 0.074,-0.04 0.695,-0.01 0.823,-0.043 0.545,-0.155 1.064,-0.49 1.609,-0.648 1.482,-0.432 3.104,-0.857 4.615,-1.167 0.376,-0.077 2.193,-0.194 2.401,-0.268 0.824,-0.293 1.763,-1.079 2.557,-1.497 2.339,-1.231 6.549,-2.972 8.6,-4.434 0.958,-0.683 1.724,-1.75 2.669,-2.457 0.554,-0.415 1.373,-0.6 1.946,-0.998 1.426,-0.99 2.645,-2.847 3.361,-4.39 l 0.461,-0.151 c 1.004,-0.33 1.595,-0.905 2.507,-1.327 0.583,-0.27 1.199,-0.13 1.821,-0.592 0.486,0.195 1.105,0.262 1.621,0.293 1.008,2.297 2.904,4.401 4.79,6.037 0.176,0.153 1.483,1.106 1.541,1.185 0.676,0.935 1.234,2.366 1.777,3.405 0.433,0.452 2.2,0.824 2.725,0.773 0.063,-0.01 1.616,-0.589 1.777,-0.648 0.696,0.196 1.394,0.392 2.083,0.611 1.681,-0.647 2.082,-1.804 3.292,-2.656 1.099,-0.774 3.246,-1.36 4.59,-1.235 0.612,-0.578 1.414,-1.535 2.102,-1.983 0.139,-0.091 1.356,-0.307 1.584,-0.417 2.191,-1.064 3.919,-2.891 5.955,-4.153 0.635,-0.394 2.709,-0.878 3.492,-0.954 l 1.167,-1.179 0.199,-0.779 0.518,-0.306 0.062,-0.511 0.349,0.629 0.281,-0.355 0.605,0.237 c 1.009,-0.827 5.231,-1.447 6.504,-1.597 l 0.324,-0.624 c 1.218,-0.559 2.452,-1.098 3.66,-1.677 0.315,-0.151 0.674,-0.448 0.998,-0.555 0.325,-0.107 0.765,-0.054 1.104,-0.137 1.085,-0.266 2.142,-1.005 2.925,-1.784 l 1.147,0.244 c 0.371,-0.274 0.715,-0.976 0.717,-1.435 0.883,0.094 2.366,-0.111 3.118,-0.636 0.354,0.282 1.186,0.603 1.646,0.436 l 0.586,-0.736 1.628,-0.442 0.692,0.592 c 0.642,0 1.349,-0.195 1.971,-0.337 l 0.387,0.468 c 1.399,0.176 2.329,-1.2 4.184,-0.754 l 0.63,-0.904 1.278,-0.031 0.387,0.562 c 0,0.695 -0.457,1.909 -1.085,2.295 0.224,0.775 -2.436,3.843 -2.338,4.889 0.086,0.919 0.693,1.547 1.147,2.282 0.098,0.16 0.561,1.114 0.629,1.185 0.338,0.351 0.988,0.559 1.366,0.885 0.527,0.456 0.933,1.13 1.472,1.565 0.932,0.753 2.415,1.879 3.467,2.426 0.056,0.029 2,0.467 2.189,0.511 0.43,0.101 6.55,-3.175 7.346,-3.58 0.092,-0.047 0.654,-0.876 0.798,-0.998 0.394,-0.331 1.073,-0.433 1.479,-0.754 0.841,-0.669 1.719,-1.313 2.513,-2.039 l 0.193,-0.661 c 0.273,-0.229 1.042,-0.763 1.428,-0.755 l 0.324,0.393 0.21,-0.037 c 1.055,-0.188 0.981,-0.887 1.611,-1.235 1.005,-0.556 2.291,-1.066 3.361,-1.497 1.276,-0.514 2.634,-0.665 3.873,-1.372 0.449,-0.069 1.189,0.181 1.497,0.518 2.491,-0.964 5.08,-2.583 7.215,-4.16 0.485,-0.358 0.84,-0.993 1.322,-1.359 0.34,-0.259 0.893,-0.37 1.26,-0.605 1.475,-0.943 2.908,-1.996 4.353,-2.987 l 0.324,-0.898 c 1.132,-0.218 2.229,-0.564 3.299,-0.981 0.217,-0.084 0.323,-0.21 0.555,-0.216 1.238,-0.03 2.705,0.603 3.922,0.511 1.321,-0.1 2.776,-1.014 4.097,-1.116 1.083,-0.084 4.275,0.567 5.825,0.648 0.081,0.51 0.273,1.052 0.48,1.521 0.55,0.206 1.718,0.361 2.276,0.075 l 0.386,-0.449 0.63,-0.193 0.15,-0.312 1.584,0.081 c 0.225,0.364 0.834,0.736 1.253,0.798 0.901,-0.011 2.986,-0.804 3.511,-1.54 l 0.149,-0.648 c 0.525,-0.221 1.183,-0.968 1.278,-1.541 -0.112,-1.508 -1.726,-2.404 -1.602,-3.997 0.055,-0.713 1.062,-1.846 1.565,-2.27 0.493,-0.415 1.316,-0.646 1.771,-1.085 0.051,-0.05 0.821,-1.357 0.91,-1.503 l 0.48,-0.237 c 0.201,-0.822 4.598,-2.941 5.675,-4.534 0.607,0.055 1.913,-1.075 2.295,-1.447 l 0.586,0.225 0.561,-0.692 1.154,-0.349 0.518,0.499 0.542,0.093 0.736,-0.455 c -0.281,0.178 -0.651,0.671 -0.648,1.022 0.702,-0.461 1.43,-0.889 2.164,-1.297 l 0.306,0.081 0.518,-0.168 0.437,0.243 0.536,-0.212 0.069,-0.25 0.43,-0.212 c -0.083,-0.145 -0.106,-0.416 -0.062,-0.574 l 0.175,-0.193 -0.087,-0.218 0.218,-0.137 c 0.054,-0.383 0.351,-0.673 0.667,-0.867 0.046,-0.213 0.131,-0.425 0.218,-0.624 0.225,-0.167 1.659,-0.752 1.84,-0.736 l 0.131,-0.249 0.193,0.031 0.131,-0.274 c 0.229,-0.149 1.666,-0.477 2.015,-0.461 0.167,-0.211 0.527,-0.415 0.779,-0.493 0.211,-0.689 0.893,-0.563 1.066,-1.833 l -0.281,-0.461 0.193,-0.081 c -1.303,-1.55 -0.521,-2.915 0.218,-4.465 0.104,-0.217 0.039,-0.39 0.299,-0.574 -0.048,-0.211 0.167,-0.384 0.262,-0.542 0.11,-0.184 0.188,-0.689 0.218,-0.898 0.321,-0.455 0.801,-0.727 1.209,-1.091 l 0.044,-0.193 c 0.284,-0.079 0.629,-0.712 0.736,-0.973 l 0.193,-0.112 0.35,0.081 c 0.073,-0.025 0.418,-0.161 0.474,-0.162 0.988,-0.026 1.437,0.594 2.17,-0.611 0.249,-0.409 0.287,-0.679 0.175,-1.16 l -0.324,-0.081 -0.199,-0.299 0.024,-0.25 h -0.648 c 0.131,-0.254 0.186,-0.766 0.044,-1.029 0.108,-0.405 0.593,-0.851 0.842,-1.197 l 0.306,-0.112 0.087,-0.274 0.194,-0.075 c 0.288,-0.555 0.432,-1.046 0.867,-1.528 l 0.455,-0.162 0.106,-0.244 0.236,-0.062 c 0.115,-0.193 0.206,-0.426 0.243,-0.648 0.269,-0.216 1.793,-0.196 2.121,-0.106 l 0.193,0.187 h 0.436 c -0.01,0.288 0.03,0.595 0.106,0.873 0.207,0.093 0.488,0.333 0.586,0.542 h 0.281 v 0.193 l 0.306,0.137 0.43,-0.274 c 0.19,0.01 0.399,0.013 0.586,-0.031 l 0.062,0.218 0.243,0.056 c 0.388,-0.127 0.926,-0.271 1.235,-0.542 h 0.212 l 0.412,-0.437 c 0.287,0 1.617,-0.34 1.821,-0.543 0.206,0.051 0.607,-0.1 0.78,-0.193 l -0.237,0.38 c 0.203,0.094 0.414,0.187 0.629,0.249 0.237,0.335 0.211,1.087 0.175,1.497 l 0.237,-0.025 c -0.138,0.16 -0.233,0.475 -0.281,0.673 l 0.281,-0.056 -0.306,0.306 -0.043,0.293 0.243,-0.05 v 0.274 l -0.243,0.081 -0.062,0.349 c -1.491,1.167 -3.014,3.915 -3.442,5.725 l 0.387,0.605 c -0.051,0.759 -0.393,1.967 -0.91,2.557 -1.188,0.458 -2.539,1.576 -3.442,2.438 -0.61,2.278 -1.019,4.923 -0.349,7.24 l 2.126,0.686 c -1.013,0.73 -1.918,1.747 -1.453,3.062 l 0.711,0.83 -0.081,1.029 c 0.394,0.149 0.873,0.688 0.973,1.098 0.704,0.583 1.821,1.021 2.707,1.197 l 0.997,1.253 c -0.956,1.358 -2.938,1.866 -4.028,3.311 -1.339,-0.204 -6.8,-1.247 -7.863,-0.954 -0.33,0.585 -2.243,0.391 -3.467,1.977 0.275,1.461 -0.284,2.47 0.237,4.134 -0.35,1.478 -3.317,2.208 -2.731,4.16 -1.405,0.386 -3.061,1.838 -4.003,2.881 -0.572,0.632 -1.007,1.669 -1.627,2.382 l -0.087,0.879 0.218,0.361 c -0.244,2.038 -1.359,3.286 -3.081,4.315 -0.461,1.273 -0.743,2.872 -0.711,4.228 l -1.428,1.814 c -1.704,0.291 -3.388,0.962 -4.097,2.632 l -4.553,0.237 c -0.081,0 -0.666,0.311 -0.798,0.349 -1.356,0.394 -2.621,0.6 -3.904,1.266 l -0.798,1.434 c -0.699,-0.16 -1.583,0.041 -2.224,0.26 l -1.592,0.544 c -1.107,0.652 -3.14,4.246 -3.679,5.338 l -0.867,0.405 c -1.035,1.535 -1.737,5.114 -2.189,6.91 l -0.542,0.405 -0.281,0.657 -0.63,0.167 -0.561,0.667 -0.63,-0.567 c -0.544,0.243 -1.779,0.155 -2.339,0.068 -2.639,0.987 -5.725,3.629 -6.891,6.247 -0.401,0.901 -0.421,2.226 -0.497,3.185 -0.061,0.772 -0.048,1.746 0.172,2.504 0.141,0.484 0.496,0.968 0.674,1.447 0.282,0.76 0.426,1.606 0.736,2.351 0.585,1.411 1.677,2.862 2.714,3.968 0.494,0.526 1.133,1.43 1.9,1.613 l 0.736,-0.057 0.692,-0.84 -0.15,1.394 c 1.432,1.75 2.865,3.276 5.089,3.955 l 3.405,-3.398 1.814,-0.362 c 0.979,0.258 2.304,1.447 2.906,2.208 -0.055,0.788 -0.063,1.581 -0.062,2.37 l 0.58,0.22 0.043,1.276 -1.079,1.678 c 0.11,0.53 0.708,2.707 0.455,3.137 -0.434,-0.042 -0.909,0.344 -1.189,0.576 -1.282,1.065 -1.419,1.578 -1.91,3.153 l 0.842,1.029 c -0.109,0.957 -0.388,2.447 -0.886,3.299 l -0.306,-1.048 -0.754,-0.692 -1.54,0.187 -0.193,-0.374 c -1.789,-0.251 -4.673,2.379 -4.446,4.172 -1.223,-0.085 -3.749,-0.068 -4.765,0.904 -0.057,0.054 -0.638,0.981 -0.717,1.104 -0.308,0.48 -0.495,0.933 -0.474,1.528 l 0.349,0.604 0.324,0.181 -0.673,0.723 c -0.168,1.611 1.252,2.663 1.216,4.272 -0.562,0.928 -1.533,3.442 -0.954,4.546 l -0.674,0.63 -0.411,3.218 c 0.346,0.515 1.723,1.034 2.276,1.185 l 0.542,1.915 c -0.617,0.835 -1.646,0.939 -2.232,1.883 -0.258,1.536 1.279,2.807 0.673,4.291 l 0.948,1.677 -0.019,1.073 c -0.772,0.666 -2.002,1.865 -1.971,2.987 l 0.649,0.836 c -0.501,0.292 -1.911,0.225 -2.451,0.162 l -1.147,-1.073 -0.062,-0.742 -0.499,-0.68 -2.469,0.512 c -1.088,0.225 -2.307,-0.555 -3.38,-0.555 -0.313,0 -1.753,0.56 -1.891,0.613 l -1.837,0.715 c -0.601,0.402 -2.127,2.933 -2.445,3.654 0.194,0.202 2.091,2.147 2.145,2.232 0.598,0.951 0.508,2.776 1.622,3.405 h 0.437 l 0.823,1.877 -0.648,1.758 -1.434,0.343 -1.147,1.459 c -1.297,-0.277 -4.863,2.173 -5.824,2.912 l -1.715,-0.156 -0.455,-0.854 -2.338,0.604 -1.366,-1.777 -2.208,1.116 -1.191,-0.867 c -0.514,0.179 -2.789,0.778 -2.925,1.341 l -0.393,-0.455 -0.586,0.349 -0.867,-0.237 -0.175,0.524 1.042,0.574 c -0.528,0.2 -1.772,2.31 -1.927,2.75 -0.023,0.065 -0.096,1.689 -0.106,1.864 l -2.906,3.118 c -2.592,0.367 -5.035,0.589 -7.629,0.773 z"
   id="path3093"
   inkscape:connector-curvature="0"
   style="fill:#fefee9;stroke:#0978ab;stroke-width:1.55910003;stroke-linejoin:round;stroke-miterlimit:3.86369991" />
<path
   stroke-miterlimit="3.8637"
   d="m 630.22166,373.90374 c -1.616,0.171 -3.614,0.182 -5.178,0.549 -1.179,0.277 -5.333,2.252 -6.802,2.856 -1.974,-0.619 -5.795,-0.465 -7.627,0.542 l -2.32,4.496 -1.753,-2.313 -2.451,3.398 -2.188,0.592 -1.21,-0.455 c -3.127,0.957 -3.852,0.925 -6.585,-1.224 -1.987,-1.563 -1.481,-0.805 -2.406,-2.854 l -0.175,-0.368 c 0.551,-1.468 1.616,-2.987 2.881,-3.917 l -0.238,-0.274 -0.253,0.017 c -1.166,0.076 -2.065,-0.737 -3.169,-0.909 -1.677,-0.26 -3.496,-0.026 -5.176,-0.274 -1.029,-0.151 -2.089,-0.809 -3.117,-0.948 -1.588,-0.215 -3.311,0.062 -4.903,-0.137 -1.594,-0.199 -3.335,-0.741 -4.913,-1.091 l 0.28,-0.68 -7.216,-2.17 -8.45,3.124 c -0.22,1.16 -0.528,2.374 -0.672,3.542 -0.26,2.114 0.007,4.411 -0.955,6.392 l -2.444,1.229 -1.779,-0.137 -0.954,0.68 -1.908,1.359 c -1.748,0.839 -3.779,0.847 -5.437,2.045 l 0.412,1.497 1.776,1.085 c 0.088,1.016 0.329,2.706 0.85,3.617 0.617,-0.298 1.79,-0.182 2.356,0.187 l 0.218,0.954 -0.411,1.035 0.824,0.468 -0.131,0.948 c 0.727,0.352 1.545,1.283 1.951,1.958 l -0.456,1.254 -3.854,-0.886 c 2.199,1.308 6.813,3.318 9.274,3.816 1.872,0.379 3.99,0.13 5.85,0.542 l 1.804,0.902 0.902,0.451 0.693,-0.687 c 0.14,0.014 1.445,0.124 1.496,0.144 2.327,0.926 5.728,2.044 7.883,3.137 0.023,0.012 2.284,1.993 2.32,2.04 0.515,0.665 0.976,1.944 1.365,2.719 l -2.731,0.817 0.692,0.954 c 2.564,-0.551 5.287,-1.538 7.627,-2.719 l 1.347,-2.588 -2.993,-0.137 0.288,-3.13 c 1.617,-1.277 3.222,-2.865 4.483,-4.497 l 10.071,-2.307 -1.366,-0.274 -0.131,-1.229 c 2.089,-0.695 4.148,-1.647 6.137,-2.582 l 0.387,-1.777 1.515,0.137 1.909,1.366 3.816,-1.229 c 1.46,-1.718 2.95,-3.611 4.073,-5.575 h 1.903 l -1.36,-2.725 3.68,-0.954 1.214,0.412 0.542,-1.091 2.313,-0.542 1.111,1.085 1.621,-0.405 1.235,-1.497 0.936,1.222 0.691,-1.497 c 1.338,-0.457 3.019,-2.368 3.68,-3.542 l -0.694,-3.947 z"
   id="path3095"
   inkscape:connector-curvature="0"
   style="fill:#fefee9;stroke:#0978ab;stroke-width:1.55910003;stroke-linejoin:round;stroke-miterlimit:3.86369991" />
<path
   stroke-miterlimit="3.8637"
   d="m 803.93066,427.26574 c -0.737,0.578 -2.629,1.139 -3.549,0.954 -2.248,-0.451 -5.381,-1.705 -7.214,-3.131 v -0.954 l -2.171,-0.68 -1.646,1.633 -0.954,-0.268 -1.491,-1.915 h -2.731 c -0.25,-0.755 -0.335,-2.105 0,-2.856 l -3.118,-0.131 c -0.459,1.071 -3.101,2.167 -4.098,2.45 l -2.451,-0.816 -0.798,-1.366 -5.594,1.641 2.19,1.353 -1.367,1.64 2.32,-0.274 1.347,1.902 1.365,-0.405 c 0.81,0.787 1.604,1.754 2.184,2.725 l 3.125,-1.366 2.058,0.549 -1.517,1.771 c 0.181,0.271 1.81,2.764 1.902,2.856 0.048,0.047 2.125,1.245 2.32,1.359 1.935,-0.631 6.5,-1.735 8.581,-1.222 l 0.412,1.627 c 2.512,-0.4 5.102,-0.951 7.626,-1.216 1.917,-0.201 2.905,0.421 5.307,-0.412 l 3.661,-3.536 -4.202,0.673 -1.104,-0.811 -0.393,-1.774 z"
   id="path3097"
   inkscape:connector-curvature="0"
   style="fill:#fefee9;stroke:#0978ab;stroke-width:1.55910003;stroke-linejoin:round;stroke-miterlimit:3.86369991" />
<path
   stroke-miterlimit="3.8637"
   d="m 833.63366,431.32474 c -1.489,0.958 -3.016,3.023 -4.116,4.384 -0.211,-0.035 -2.376,-0.41 -2.444,-0.405 -0.824,0.061 -3.109,0.991 -4.228,1.223 l -0.954,-1.497 -1.36,0.274 c -0.516,-0.865 -0.972,-1.799 -1.365,-2.725 -0.868,0.109 -2.481,0.041 -3.274,-0.412 l -1.085,-2.045 c -1.292,0.858 -2.74,2.397 -3.398,3.816 l 1.497,1.497 c 1.394,0.195 2.815,0.347 4.222,0.412 l 2.731,2.177 2.295,-0.137 1.104,1.359 -0.15,1.497 -1.34,1.229 -0.069,1.004 c 0.831,0.91 2.138,1.652 3.187,2.264 l -0.237,0.68 0.756,0.227 1.513,0.453 c 0.409,0.022 2.461,-0.45 2.731,-0.405 0.12,0.02 3.481,1.365 3.816,1.497 2.798,-0.826 5.593,-1.752 8.425,-2.451 l 1.366,-2.313 c -2.427,-1.242 -2.863,-1.962 -2.863,-4.536 v -1.451 c -0.151,-0.695 -0.706,-1.494 -0.948,-2.183 -0.296,-0.845 -0.499,-1.773 -0.742,-2.638 -0.284,-0.571 -4.335,-0.724 -5.07,-0.795 z"
   id="path3099"
   inkscape:connector-curvature="0"
   style="fill:#fefee9;stroke:#0978ab;stroke-width:1.55910003;stroke-linejoin:round;stroke-miterlimit:3.86369991" />
<path
   stroke-miterlimit="3.8637"
   d="m 918.21866,422.82574 -2.32,-0.954 c -1.32,1.151 -2.917,1.409 -4.552,0.817 l -0.299,-0.736 c -1.228,-0.693 -2.789,0.467 -4.116,0.461 l -1.191,-0.842 c -0.154,0.01 -1.804,0.066 -1.846,0.081 -1.23,0.45 -2.616,1.368 -3.792,1.983 1.6,0.274 4.572,0.133 6.024,-0.736 l 1.927,0.574 0.761,-0.542 0.174,0.655 0.63,-0.137 0.193,-0.412 0.431,0.599 c 1.313,0 3.105,-0.203 4.377,0 0.042,0.01 1.796,0.93 1.952,1.01 0.561,-0.452 1.314,-1.166 1.647,-1.821 z"
   id="path3101"
   inkscape:connector-curvature="0"
   style="fill:#fefee9;stroke:#0978ab;stroke-width:1.55910003;stroke-linejoin:round;stroke-miterlimit:3.86369991" />
<path
   stroke-miterlimit="3.8637"
   d="m 818.25566,796.50574 c -0.142,-1.247 0.24,-3.257 0.973,-4.303 -0.223,0.134 -0.688,0.279 -0.954,0.218 l -0.193,-0.25 h 0.542 l 0.499,-0.437 h 0.412 l 0.087,-0.299 -0.2,-0.293 -0.255,0.187 -0.393,-0.05 -0.106,-0.193 -0.175,0.349 -0.717,0.062 -0.324,0.268 c -0.207,-0.072 -0.553,-0.056 -0.755,0.025 0.22,0 0.537,0.153 0.711,0.274 -0.402,-0.083 -0.616,0.023 -0.973,0.187 l -0.306,-0.132 -0.648,0.107 c -0.019,0.23 -0.108,0.468 -0.193,0.68 0.257,-0.01 0.921,0.015 1.147,0.168 -0.497,0.033 -0.837,0.381 -1.366,0.274 l 0.025,0.324 0.43,0.349 c -0.35,0.136 -1.222,0.069 -1.584,0.031 l -0.212,0.218 0.823,0.324 0.149,0.293 -0.149,0.418 h -0.412 v 0.237 h 0.281 l 0.174,0.387 -0.043,0.412 h 0.237 l 0.193,-0.168 0.237,0.031 0.087,0.299 0.218,0.025 c 0.04,0.287 0.17,0.556 0.131,0.848 h 0.218 c 0.269,-0.322 1.772,-0.496 2.384,-0.87 z"
   id="path3103"
   inkscape:connector-curvature="0"
   style="fill:#fefee9;stroke:#0978ab;stroke-width:1.55910003;stroke-linejoin:round;stroke-miterlimit:3.86369991" />
<path
   stroke-miterlimit="3.8637"
   d="m 552.09566,360.83874 -2.058,-1.091 c -0.968,0.549 -3.574,-0.167 -4.484,-0.543 l -0.673,0.954 1.085,1.902 c 1.13,0.829 3.411,1.225 4.765,0.954 l 1.365,-2.176 z"
   id="path3105"
   inkscape:connector-curvature="0"
   style="fill:#fefee9;stroke:#0978ab;stroke-width:1.55910003;stroke-linejoin:round;stroke-miterlimit:3.86369991" />
<path
   stroke-miterlimit="3.8637"
   d="m 819.92066,801.78874 c 0.442,-0.098 2.441,-0.668 2.775,-0.431 v -0.331 l -0.393,-0.187 c -0.201,-0.732 -0.561,-1.145 -0.562,-1.964 -0.344,-0.049 -0.817,-0.339 -1.042,-0.599 l -0.019,-0.243 -1.172,-0.842 c -1.323,0.227 -2.646,0.461 -3.96,0.736 l 0.081,0.243 0.368,-0.087 c 0.154,0.089 0.33,0.338 0.349,0.518 l -0.324,0.168 0.043,0.274 0.306,-0.031 0.019,0.274 0.455,-0.193 0.175,-0.355 c 0.218,-0.198 0.769,-0.106 0.998,0.031 l 0.125,0.355 -0.412,0.486 0.611,-0.137 -0.281,0.387 c -0.224,-0.01 -0.45,0.01 -0.673,0.025 l -0.193,0.168 0.125,0.212 c 0.157,0.087 0.486,0.143 0.655,0.056 0.105,-0.258 0.572,-0.605 0.798,-0.736 l 0.15,-0.355 0.499,0.056 v 0.493 l 0.306,-0.031 0.062,0.218 -0.343,0.087 -0.112,0.237 -0.255,0.031 c -0.185,0.213 -0.391,0.415 -0.605,0.599 0.034,0.355 0.143,0.764 0.299,1.085 0.353,0.01 0.708,-0.01 1.06,-0.025 l 0.087,-0.192 z"
   id="path3107"
   inkscape:connector-curvature="0"
   style="fill:#fefee9;stroke:#0978ab;stroke-width:1.55910003;stroke-linejoin:round;stroke-miterlimit:3.86369991" />
<path
   stroke-miterlimit="3.8637"
   d="m 628.44366,365.46674 -1.21,1.222 -0.541,-0.954 -3.275,1.366 -0.667,0.954 c 0.18,0.068 2.108,0.812 2.163,0.817 1.693,0.153 3.723,-0.089 5.439,-0.131 -0.934,-0.568 -1.854,-2.191 -1.909,-3.274 z"
   id="path3109"
   inkscape:connector-curvature="0"
   style="fill:#fefee9;stroke:#0978ab;stroke-width:1.55910003;stroke-linejoin:round;stroke-miterlimit:3.86369991" />
<path
   stroke-miterlimit="3.8637"
   d="m 864.16466,818.58774 c 0.264,-0.294 0.662,-0.9 0.711,-1.31 -0.17,-0.337 -0.319,-0.717 -0.387,-1.091 -0.757,-0.211 -1.786,0.571 -2.513,0.823 v 0.431 c 0.465,0.576 1.375,1.325 2.189,1.147 z"
   id="path3111"
   inkscape:connector-curvature="0"
   style="fill:#fefee9;stroke:#0978ab;stroke-width:1.55910003;stroke-linejoin:round;stroke-miterlimit:3.86369991" />
<path
   stroke-miterlimit="3.8637"
   d="m 1371.5207,451.06774 0.387,-0.729 c -0.065,-0.221 -0.242,-0.617 -0.43,-0.767 -0.729,0.25 -1.002,-0.722 -2.837,0.387 v 0.38 c 0.244,0.361 0.645,0.542 0.929,0.867 0.287,-0.065 1.016,-0.103 1.253,0.137 0.215,0.016 0.542,-0.137 0.698,-0.275 z"
   id="path3113"
   inkscape:connector-curvature="0"
   style="fill:#fefee9;stroke:#0978ab;stroke-width:1.55910003;stroke-linejoin:round;stroke-miterlimit:3.86369991" />
<path
   stroke-miterlimit="3.8637"
   d="m 888.56066,421.16674 c -0.608,0.053 -1.546,-0.391 -1.934,-0.848 -0.796,0.114 -2.709,0.094 -3.38,-0.486 l -0.991,0.599 1.689,0.075 -0.174,0.493 0.929,0.574 0.455,-0.68 0.437,0.025 -0.2,0.599 0.892,-0.38 1.06,0.461 1.217,-0.432 z"
   id="path3115"
   inkscape:connector-curvature="0"
   style="fill:#fefee9;stroke:#0978ab;stroke-width:1.55910003;stroke-linejoin:round;stroke-miterlimit:3.86369991" />
<polygon
   stroke-miterlimit="3.8637"
   points="905.002,1174.155 905.414,1173.145 904.416,1173.531 904.304,1173.88 "
   id="polygon3117"
   style="fill:#fefee9;stroke:#0978ab;stroke-width:1.55910003;stroke-linejoin:round;stroke-miterlimit:3.86369991"
   transform="translate(-83.279343,-752.91326)" />
<path
   stroke-miterlimit="3.8637"
   d="m 117.88397,121.54956 -0.699,-0.354 -0.062,-1.104 c 1.833,-0.786 3.958,-3.63 4.442,-5.525 0.227,-0.891 0.196,-2.19 0.279,-3.124 1.198,-0.876 2.62,-3.669 3.144,-5.068 l 2.189,-0.967 c -0.718,-1.116 -1.265,-2.561 -1.584,-3.841 l 2.101,-3.492995 -0.605,-1.49 1.671,-2.27 -1.066,-0.879 c -0.842,0.892 -2.153,1.77 -3.311,2.182 v 1.311 l -1.234,1.053 1.146,1.397 -0.884,1.220995 c -2.862,0.176 -5.006,3.045 -6.978,4.721 -1.615,1.372 -3.386,2.308 -4.721,4.029 l -0.087,0.873 -0.175,1.746 c 0.148,1.176 0.901,2.405 1.041,3.581 0.197,1.657 -0.767,5.279 -1.302,6.99 l 0.779,1.839 1.927,0.436 c -0.939,0.8 -1.855,1.74 -2.619,2.708 h -1.06 l -0.955,1.228 0.693,3.579 -1.839,-0.085 -0.955,0.697 0.693,2.276 -0.605,1.397 0.91,1.047 h 1.366 c 0.565,-0.834 1.486,-1.752 1.883,-2.625 0.119,-0.261 0.096,-0.439 0.158,-0.719 0.438,-1.994 0.18,-1.26 1.472,-2.961 l 0.578,-0.761 -0.667,-1.875 1.534,-1.535 0.436,-2.208 c 0.705,-0.449 2.799,-1.699 3.66,-1.714 l -0.694,-1.713 z"
   id="path3119"
   inkscape:connector-curvature="0"
   style="fill:#fefee9;stroke:#0978ab;stroke-width:1.55910003;stroke-linejoin:round;stroke-miterlimit:3.86369991" />
<polygon
   stroke-miterlimit="3.8637"
   points="1455.087,1203.439 1455.087,1203.009 1455.187,1203.252 "
   id="polygon3121"
   style="fill:#fefee9;stroke:#0978ab;stroke-width:1.55910003;stroke-linejoin:round;stroke-miterlimit:3.86369991"
   transform="translate(-83.279343,-752.91326)" />
<path
   stroke-miterlimit="3.8637"
   d="m 1611.7197,348.15474 -0.648,0.106 -0.237,-0.437 -0.524,0.355 c -0.894,-0.229 -2.487,0.241 -3.249,0.68 -1.011,-0.424 -2.948,-0.477 -3.922,0.106 l -1.191,-0.761 v -1.36 c -1.369,-0.105 -3.716,1.011 -4.808,1.715 -0.167,-0.179 -1.748,-1.853 -1.796,-1.933 -0.444,-0.729 -1.91,-4.002 -1.846,-4.958 0.913,-0.273 1.992,-1.496 2.258,-2.388 l 0.973,-0.387 -0.28,-0.655 h -1.69 c -0.335,0.245 -3.566,2.514 -3.879,2.588 -0.86,0.203 -2.112,0.149 -3.012,0.212 l -0.262,1.285 c -0.376,0.593 -1.338,1.212 -2.014,1.366 -1.491,-1.104 -2.54,-4.343 -2.488,-6.136 l 2.47,-0.667 2.576,0.948 1.365,-1.497 -2.188,-0.655 -1.752,-2.208 0.798,-1.901 -6.517,1.627 -1.11,1.091 c -1.341,0.216 -2.862,0.647 -4.072,1.278 l -0.281,1.197 -0.63,-0.754 -0.58,0.536 -0.088,1.091 -0.542,0.218 -0.692,-0.461 0.149,-0.599 -0.929,-0.599 -1.478,0.081 -1.148,0.923 2.276,1.303 0.175,0.686 -1.129,0.68 c -2.855,-0.138 -6.043,-0.904 -8.711,-1.902 l -0.281,-0.954 1.777,-2.451 -2.856,-1.497 -6.005,0.811 -1.902,-2.987 0.537,-0.548 -3.661,-1.628 c -2.951,1.18 -5.001,3.555 -7.758,5.026 v 1.777 l -2.058,1.365 1.777,0.948 c -0.153,0.995 0.01,2.65 0.542,3.536 l -5.98,5.444 -0.823,-0.68 c -2.147,0.049 -4.47,0.393 -6.542,0.954 l -2.451,-0.817 -2.164,1.229 -2.987,-0.274 -7.783,4.627 -0.255,1.497 -3.817,5.169 2.04,3.954 2.731,0.948 0.823,5.045 0.929,0.948 c 0.523,5.24 0.904,10.527 1.104,15.79 -1.094,0.618 -3.257,2.079 -4.353,2.457 -1.046,0.361 -5.372,0.452 -6.672,0.268 l -1.497,3.542 0.954,1.765 -3.966,1.091 c 0.953,0.805 2.223,2.312 2.601,3.536 2.292,0.186 4.29,1.221 6.261,2.268 0.532,0.283 0.788,0.55 1.365,0.725 1.089,0.33 3.669,0.412 4.896,0.549 l 2.731,-2.313 h 0.954 l 1.902,-2.183 v -1.627 c 0.943,-0.04 2.359,0.068 3.255,-0.137 0.038,-0.01 1.391,-0.876 1.515,-0.954 l 0.387,-1.503 c 1.689,-0.648 5.66,-1.948 7.084,-2.719 0.126,-0.068 2.146,-2.182 2.451,-2.444 0.433,-0.372 1.059,-0.587 1.497,-0.954 1.92,-1.609 4.405,-3.637 5.849,-5.718 0,-0.202 0.017,-2.256 0,-2.32 -0.269,-1.004 -1.054,-2.296 -1.497,-3.262 0.057,-0.268 0.66,-3.2 0.692,-3.268 0.032,-0.069 1.747,-2.118 1.908,-2.313 l 1.313,0.043 2.627,0.087 c 1.158,0.273 2.382,1.403 3.536,1.634 0.038,0.01 4.543,0.014 4.634,0 0.04,-0.01 1.756,-0.878 1.908,-0.954 0.022,-0.193 0.231,-2.106 0.255,-2.17 0.27,-0.713 1.78,-2.444 2.601,-2.594 1.475,-0.269 3.136,-0.01 4.615,-0.268 1.64,-0.289 3.937,-2.149 4.92,-3.405 4.214,1.619 9.175,1.724 13.607,1.359 l 1.622,0.954 c 0.179,-1.642 2.685,-3.328 4.228,-3.399 l -0.262,-0.817 c 0.639,-0.389 1.876,-0.497 2.582,-0.274 l 0.823,-0.542 -0.412,-1.64 0.823,-0.269 1.209,-2.725 2.32,-1.004 c 1.021,0.243 2.048,0.466 3.075,0.686 l 0.174,0.274 c 0.467,-0.012 1.062,-0.15 1.472,-0.38 l 0.131,-0.306 0.455,-0.274 h 0.954 l 0.692,-0.486 c 0.136,-0.179 0.096,-0.6 0.024,-0.792 l 0.343,0.225 c 0.844,-0.341 1.725,-0.234 2.556,-0.655 l 0.281,-0.387 -0.212,-0.324 v -0.331 l 0.368,-0.1 0.281,0.188 c 0.288,0.01 0.826,-0.11 1.042,-0.324 h 0.412 l 0.019,-0.574 0.324,-0.024 0.262,0.187 1.21,-0.324 c 0.03,-0.325 0.136,-0.729 0.305,-1.01 0.322,-0.046 0.644,-0.125 0.955,-0.219 v -0.218 c 0.401,0.017 0.81,-0.021 1.209,-0.049 l 0.287,-0.219 0.237,0.324 0.281,-0.162 -0.062,-0.361 -0.218,-0.212 0.044,-0.324 c 0.466,0.066 0.998,-0.166 1.341,-0.468 0.115,-0.285 0.179,-0.616 0.193,-0.923 l -0.281,-0.187 c -0.662,-0.108 -1.354,0.623 -2.076,0.68 l -0.306,0.412 -0.648,0.1 -0.262,0.305 h -0.194 l -0.218,0.704 z"
   id="path3123"
   inkscape:connector-curvature="0"
   style="fill:#fefee9;stroke:#0978ab;stroke-width:1.55910003;stroke-linejoin:round;stroke-miterlimit:3.86369991" />
<path
   stroke-miterlimit="3.8637"
   d="m 1522.1587,323.96574 c 0,-0.387 -0.539,-0.624 -0.848,-0.673 -0.062,0.457 -0.83,0.814 -1.191,1.029 l -0.062,0.243 c -0.269,0.025 -0.54,0.058 -0.804,0.112 l -0.412,0.381 c -0.666,0.022 -1.615,-0.29 -2.189,0.031 l -0.255,0.293 -0.412,-0.025 -1.777,1.821 -0.237,-0.188 c -0.353,0.397 -0.985,0.763 -1.497,0.898 l -0.087,0.324 c 0.075,0.145 0.232,0.343 0.387,0.412 -0.207,0.105 -0.416,0.349 -0.536,0.542 l 0.019,0.193 c -0.149,0.362 -0.511,0.42 -0.798,0.624 h -0.218 l -0.043,0.386 c 0.542,-10e-4 2.057,-0.031 2.444,0.1 -0.379,0.245 -0.819,0.454 -1.278,0.468 0.096,0.285 0.246,0.583 0.437,0.817 1.092,0.295 1.646,-0.561 2.663,-0.761 l 0.131,-0.274 c 0.479,-0.104 0.965,-0.277 1.322,-0.624 v -0.243 l 0.218,-0.249 c 0.259,0.052 1.262,-0.71 1.366,-0.954 l 0.324,-0.056 0.692,-0.599 c -0.01,-0.184 -0.105,-0.423 -0.218,-0.567 l 0.044,-0.325 c 0.235,-0.036 0.658,0.149 0.848,0.269 0.083,-0.16 0.305,-0.346 0.474,-0.405 l -0.368,-0.25 0.025,-0.299 c 1.376,0.18 1.327,-2.041 1.836,-2.451 z"
   id="path3125"
   inkscape:connector-curvature="0"
   style="fill:#fefee9;stroke:#0978ab;stroke-width:1.55910003;stroke-linejoin:round;stroke-miterlimit:3.86369991" />
<path
   stroke-miterlimit="3.8637"
   d="m 1601.6047,335.98274 -0.043,-0.705 0.711,-0.574 -0.948,0.131 -0.025,-0.218 -0.412,0.193 -0.455,-0.355 -1.166,0.087 0.648,-0.542 -1.172,0.075 -0.15,0.331 -0.998,0.187 -0.605,-0.243 -0.024,0.437 -0.325,-0.218 c -0.202,0.377 0.013,1.18 0.193,1.521 l 4.16,0.25 0.611,-0.357 z"
   id="path3127"
   inkscape:connector-curvature="0"
   style="fill:#fefee9;stroke:#0978ab;stroke-width:1.55910003;stroke-linejoin:round;stroke-miterlimit:3.86369991" />
<polygon
   stroke-miterlimit="3.8637"
   points="1703.062,1097.096 1703.755,1096.628 1704.035,1096.822 1704.098,1096.36 1704.466,1096.005 1702.863,1095.73 1702.127,1096.547 "
   id="polygon3129"
   style="fill:#fefee9;stroke:#0978ab;stroke-width:1.55910003;stroke-linejoin:round;stroke-miterlimit:3.86369991"
   transform="translate(-83.279343,-752.91326)" />
<polygon
   stroke-miterlimit="3.8637"
   points="1680.27,1097.252 1680.893,1096.41 1680.856,1095.949 1679.378,1096.741 1679.035,1097.309 "
   id="polygon3131"
   style="fill:#fefee9;stroke:#0978ab;stroke-width:1.55910003;stroke-linejoin:round;stroke-miterlimit:3.86369991"
   transform="translate(-83.279343,-752.91326)" />
<path
   stroke-miterlimit="3.8637"
   d="m 1090.2327,639.81974 c 0.082,-1.297 0.53,-2.9 1.185,-4.028 l 2.731,0.23 0.237,0.698 0.449,-0.555 c 2.843,0.457 5.791,0.605 8.662,0.817 0.529,0.039 1.155,-0.045 1.671,0.043 1.24,0.214 2.751,0.998 3.86,1.559 0.579,0.742 2.336,3.141 2.444,4.097 l -0.935,0.555 -0.337,1.871 -0.38,-0.144 c 0.258,1.349 0.125,2.944 0.013,4.297 -0.055,0.663 -0.266,1.205 -0.206,1.914 l -0.281,0.2 -0.162,1.11 -5.394,2.906 c -0.173,0.093 -1.199,1.568 -1.384,1.696 -0.281,0.195 -0.486,0.223 -0.796,0.366 l -1.592,0.732 c -0.514,0.195 -1.236,0.22 -1.715,0.461 -0.844,0.425 -1.209,1.211 -2.32,1.472 -0.197,-0.539 -1.127,-0.521 -1.465,-0.817 -1.298,-1.136 -2.254,-3.405 -2.264,-5.132 0,-0.135 0.217,-0.573 0.225,-0.724 0.13,-2.694 0.435,-7.002 -0.53,-9.579 l 0.206,-0.474 c -0.203,-0.107 -0.409,-0.831 -0.456,-1.035 -0.485,-0.063 -1.263,-2.102 -1.466,-2.536 z"
   id="path3133"
   inkscape:connector-curvature="0"
   style="fill:#c6ecff;stroke:#0978ab;stroke-width:1.55910003;stroke-linejoin:round;stroke-miterlimit:3.86369991" />
<path
   stroke-miterlimit="3.8637"
   d="m 1289.3427,572.55174 c 0.328,0.131 0.717,0.291 0.998,0.511 0.606,-0.113 1.515,0.443 1.902,0.2 l 0.118,-0.243 c 0.201,-0.036 0.576,-0.182 0.705,-0.355 l 0.075,-0.28 c -0.05,-0.113 -0.224,-0.421 -0.355,-0.462 v -0.312 c -0.299,0.019 -0.783,-0.019 -1.054,-0.168 l -0.486,0.156 -0.188,0.262 c -0.246,0.015 -0.499,0.057 -0.736,0.125 l -0.542,-0.218 c -0.213,0.147 -0.413,0.53 -0.437,0.784 z m -7.414,9.036 0.942,-0.524 c 0.248,-2.317 1.359,-3.808 2.7,-5.575 0.087,-0.115 0.149,-0.272 0.218,-0.399 l 1.042,-0.437 0.411,-0.555 -0.25,-0.661 c -0.825,0.272 -1.583,-0.402 -2.495,-0.218 l -0.673,-0.817 0.143,-0.792 1.147,-0.418 0.043,-0.349 0.923,-0.206 -0.274,-0.43 c 0.728,-0.549 2.162,-0.3 3.018,-0.399 0.193,-0.022 0.469,-0.228 0.661,-0.25 0.391,-0.044 1.679,-0.056 2.052,0.156 l 0.661,-0.28 0.118,-0.63 c 0.366,-0.258 0.808,-0.523 1.234,-0.667 l 0.262,0.281 0.281,-0.617 h 0.53 l 0.087,-0.25 0.393,0.262 0.605,-1.172 c 0.212,-0.103 0.437,-0.196 0.642,-0.312 1.491,-0.839 3.125,-1.963 4.683,-2.638 0.396,-0.171 1.742,-10e-4 2.993,-0.617 0.729,-0.359 0.949,-1.066 1.609,-1.391 l 0.093,-0.28 c 0.35,-0.013 0.794,-0.127 1.098,-0.306 l 0.53,0.168 0.966,-0.312 0.175,-0.523 0.717,-0.418 0.736,0.229 c 0.354,0.326 0.666,0.816 0.879,1.243 0.767,0.549 2.175,1.147 3.143,1.123 l 0.131,0.28 -0.717,0.188 c -0.214,0.351 -0.496,0.676 -0.779,0.973 l 0.056,0.399 -0.337,0.742 c 0.203,0.328 0.234,1.057 0.206,1.422 l 0.499,0.156 c 0.216,0.286 0.337,0.764 0.381,1.11 -0.251,0.722 -0.985,1.794 -0.836,2.52 -0.404,0.231 -0.746,0.124 -1.098,0.243 -0.689,0.235 -1.229,0.683 -1.995,0.73 l -0.368,-0.125 -0.031,-0.387 -0.499,0.031 -0.23,-0.218 -1.179,0.405 -0.043,0.493 0.854,0.325 c -0.286,0.335 -0.913,1.292 -0.835,1.777 l -0.518,0.48 c -0.204,-0.173 -0.647,-0.265 -0.904,-0.206 -0.214,0.163 -0.5,0.57 -0.499,0.854 -0.152,-0.031 -0.358,-0.188 -0.431,-0.324 l -0.293,0.135 -0.043,0.326 0.355,0.062 0.218,-0.082 0.35,0.125 c -0.233,0.558 -0.325,1.166 -0.542,1.733 l -0.761,0.181 -0.206,-0.474 0.119,-0.68 -0.499,-0.835 h -0.293 l -0.163,-0.449 -1.128,0.062 -0.38,0.336 -0.779,-0.149 -0.162,-0.354 c 0.166,-0.193 0.414,-0.523 0.486,-0.775 l -0.312,-0.019 v -0.243 l -0.773,0.231 -0.431,0.48 c 0.093,0.114 0.208,0.383 0.162,0.536 l 0.337,0.206 c -0.82,0.411 -1.128,1.188 -1.478,1.979 -0.344,-0.125 -1.054,-0.109 -1.353,0.135 l -0.437,-0.168 -0.499,0.923 0.274,0.112 -0.068,0.586 -0.381,0.125 c 0.142,0.374 0.223,0.789 0.262,1.185 l -0.574,0.53 0.218,0.244 -0.349,0.586 -0.293,0.062 0.162,0.262 -0.618,0.125 -0.174,0.23 -0.193,-0.168 -0.437,0.168 -0.343,0.761 -0.512,0.262 -0.692,-0.218 -0.361,0.418 0.218,0.417 -0.897,0.262 -0.274,-0.406 -0.954,0.05 0.393,-0.91 0.648,-0.281 -0.954,-0.355 c -0.647,0.19 -1.355,0.316 -2.027,0.374 -0.537,-0.299 -1.144,-0.521 -1.715,-0.742 l 0.131,-0.879 -0.867,0.418 0.162,0.536 -0.424,0.636 0.574,0.555 -1.147,0.431 c -0.068,0.393 -0.465,0.914 -0.773,1.147 l -0.867,0.056 -0.38,-1.141 -0.648,-0.336 -0.056,-0.823 -0.43,-0.388 z"
   id="path3135"
   inkscape:connector-curvature="0"
   style="fill:#c6ecff;stroke:#0978ab;stroke-width:1.55910003;stroke-linejoin:round;stroke-miterlimit:3.86369991" />
<path
   stroke-miterlimit="3.8637"
   d="m 929.19466,753.56574 c 0.549,-0.264 2.829,-3.066 3.199,-3.68 0.321,-0.534 0.564,-1.258 0.823,-1.833 l -0.162,-0.28 c 0.192,-0.798 0.884,-1.278 1.378,-1.871 0.551,-0.661 0.768,-1.67 1.721,-1.927 l 0.206,-0.524 c 0.441,-0.132 0.884,-1.291 0.979,-1.671 0.23,-0.287 0.701,-0.411 1.025,-0.468 2.008,-0.352 1.562,0.374 2.523,0.424 l 0.299,-0.343 c 0.971,-0.084 2.11,-0.789 3.006,-0.692 l 0.336,0.231 c 1.313,-0.748 2.111,-0.44 3.037,-0.786 l 0.661,0.295 c 0.759,-0.294 5.445,-1.659 5.793,-1.423 l 0.337,0.493 c -0.195,0.326 -0.796,0.812 -0.773,1.16 -0.441,0.107 -1.013,0.725 -1.222,1.098 0.424,0.04 0.872,0 1.291,-0.062 l 0.412,0.218 0.118,0.461 0.381,0.125 c -0.242,0.6 -0.195,1.049 -0.63,1.603 0.391,0.395 0.22,1.091 0.542,1.484 l 0.605,-0.2 0.305,0.599 c 0.223,0.121 0.615,0.201 0.867,0.156 l 0.162,0.368 0.468,0.156 0.293,-0.075 0.424,0.418 0.368,-0.112 0.368,0.112 v 0.493 l -0.38,0.262 c -0.625,-0.199 -1.921,-0.196 -2.426,0.262 l -0.043,-0.586 -0.318,-0.281 c -0.455,-0.01 -1.19,0.671 -1.44,0.992 v 0.23 c -1.458,0.332 -2.912,0.404 -4.371,0.649 -1.995,0.333 -4.831,1.741 -6.367,3.072 -0.345,0.299 -1.398,1.363 -1.571,1.823 -0.075,0.199 -0.129,0.772 -0.206,0.929 -0.136,0.276 -0.481,0.567 -0.661,0.83 -0.935,1.365 -1.93,3.163 -3.873,3.136 -0.476,-0.216 -1.072,-0.533 -1.596,-0.604 -0.768,-1.358 -3.126,-1.239 -4.459,-1.11 -0.883,-0.501 -1.234,-2.633 -1.429,-3.551 z"
   id="path3137"
   inkscape:connector-curvature="0"
   style="fill:#c6ecff;stroke:#0978ab;stroke-width:1.55910003;stroke-linejoin:round;stroke-miterlimit:3.86369991" />
<path
   stroke-miterlimit="3.8637"
   d="m 1024.6487,720.60774 c 0.281,-1.225 0.432,-2.473 0.605,-3.715 0.083,-0.596 0.03,-1.217 0.156,-1.841 l 0.898,0.274 0.393,0.543 c 0.638,0.1 1.345,0.488 1.603,1.11 l 0.78,0.062 0.336,0.406 c 1.189,-0.257 2.322,0.296 3.062,1.204 l -0.274,0.973 0.187,0.493 0.368,0.25 -0.206,0.567 c 0.131,0.296 0.758,0.509 1.042,0.542 l 0.237,0.48 c 0.237,-0.013 0.663,0.1 0.823,0.293 l 0.38,-0.05 0.468,0.374 0.854,0.075 0.586,-0.399 1.89,0.336 0.518,-0.692 c 0.315,0.107 0.984,0.146 1.272,-0.075 l 0.262,0.168 -0.437,0.505 0.673,0.031 0.53,-0.355 0.779,0.206 0.48,-0.218 0.312,-1.191 c -0.258,-0.188 -0.349,-1.151 -0.355,-1.435 l -0.262,-0.156 c -0.012,-0.766 0.89,-1.958 1.541,-2.333 l 0.38,-1.54 0.262,-0.2 0.075,-0.417 0.467,-0.25 0.312,-1.622 0.293,-0.262 c 0.636,0.271 1.749,0.243 2.389,0.012 l 0.237,0.206 c 0.421,0.085 0.981,0.057 1.347,0.293 l 0.093,0.337 -0.343,0.511 -0.468,0.186 -0.087,0.463 c 0.269,-0.134 0.598,-0.305 0.898,-0.356 l 0.406,0.711 -0.144,0.537 -0.53,0.237 -0.174,0.68 -0.499,0.43 0.193,0.773 0.293,0.293 c -0.213,0.684 -0.959,1.167 -1.541,1.528 l -0.542,0.013 -0.237,0.53 -0.262,0.087 -0.225,0.312 -0.424,0.106 c -0.078,0.35 -0.274,0.748 -0.486,1.035 l 0.53,0.249 c -0.102,0.3 -0.266,1.083 -0.1,1.391 0.346,0.138 0.715,0.656 0.805,1.004 h 0.499 l 0.262,0.418 -0.013,0.586 -0.336,0.293 c 0.343,0.404 0.421,0.968 0.336,1.478 l -0.368,0.218 c -0.101,0.316 -0.324,0.706 -0.574,0.929 0.162,0.423 0.238,0.996 0.193,1.447 -0.357,0.509 -0.85,0.878 -1.235,1.359 -0.122,0.477 -0.223,1.032 -0.206,1.528 l 0.162,0.187 -0.1,0.262 -0.312,0.019 -0.156,0.555 -0.355,0.044 c -0.164,-0.419 -0.671,-1.333 -1.098,-1.559 -0.556,-0.294 -1.205,-0.474 -1.777,-0.742 -1.168,-0.547 -2.207,-1.496 -3.274,-2.176 -0.094,-0.06 -0.435,-0.099 -0.555,-0.156 -1.205,-0.571 -2.386,-1.135 -3.623,-1.677 l -0.218,-0.636 c -0.519,0.477 -2.242,-0.064 -2.775,-0.25 -0.363,-0.126 -0.668,-0.498 -0.985,-0.617 -0.175,-0.066 -0.709,-0.102 -0.848,-0.168 -0.601,-0.289 -0.967,-0.897 -1.69,-1.066 -1.012,0.536 -2.639,0.2 -2.818,0.312 -0.347,-0.244 -0.452,-1.126 -0.424,-1.497 l 0.162,-0.187 -0.162,-0.231 0.062,-2.319 -0.193,-0.063 z"
   id="path3139"
   inkscape:connector-curvature="0"
   style="fill:#c6ecff;stroke:#0978ab;stroke-width:1.55910003;stroke-linejoin:round;stroke-miterlimit:3.86369991" />
<path
   stroke-miterlimit="3.8637"
   d="m 932.91066,722.04174 0.012,-0.443 c 1.287,-0.771 2.901,-1.451 3.511,-2.937 0.213,-0.118 0.424,-0.249 0.642,-0.355 1.106,-0.539 2.241,-1.051 3.331,-1.621 0.506,-0.265 0.947,-0.658 1.472,-0.898 0.381,0.402 0.823,0.759 1.259,1.097 l 0.193,-0.262 -0.118,-0.306 0.336,-0.437 c 0.044,-0.537 -0.065,-1.217 -0.268,-1.715 0.67,-1.008 3.788,-5.833 3.467,-6.573 l 0.337,-0.206 1.378,-2.825 c 1.568,-0.783 2.683,0.199 3.667,-0.075 l 0.736,0.418 c 1.279,-0.177 2.541,0.149 3.798,0.199 0.705,0.028 1.429,-0.115 2.145,-0.062 0.961,0.07 1.913,0.259 2.887,0.305 l 0.499,0.499 c 0.275,-0.01 0.961,-0.129 1.147,-0.374 0.977,0.123 1.87,-0.322 2.812,-0.43 0.388,-0.045 0.84,0.084 1.234,0.062 0.645,-0.037 1.448,-0.375 2.083,-0.125 0.046,0.542 -0.1,1.283 -0.368,1.758 -1.214,-0.229 -5.469,1.269 -6.03,2.476 -0.217,0.02 -0.618,-0.064 -0.773,-0.237 -1.026,0.218 -1.885,0.713 -2.85,0.992 -0.828,0.239 -1.746,0.245 -2.582,0.493 -0.341,0.101 -0.775,0.397 -1.141,0.387 -0.962,-0.029 -1.771,-0.306 -2.688,0.28 -0.134,0.876 -2.002,1.601 -2.688,1.871 -1.835,0.724 -2.321,1.042 -2.283,3.162 -0.451,0.566 -0.891,1.146 -1.297,1.746 -1.413,0.205 -4.922,0.034 -5.531,1.758 -0.187,0.074 -1.582,0.645 -1.684,0.724 -0.227,0.175 -0.378,0.526 -0.605,0.698 -0.458,0.348 -1.054,0.561 -1.509,0.911 -0.917,0.705 -1.791,1.544 -2.669,2.301 -0.42,-0.879 -1.436,-1.307 -1.862,-2.256 z"
   id="path3141"
   inkscape:connector-curvature="0"
   style="fill:#c6ecff;stroke:#0978ab;stroke-width:1.55910003;stroke-linejoin:round;stroke-miterlimit:3.86369991" />
<path
   stroke-miterlimit="3.8637"
   d="m 875.07166,756.30874 c -0.086,-0.296 -0.011,-0.783 0.106,-1.06 0.895,-1.072 2.698,-1.55 3.61,-0.237 l 0.156,0.605 c 0.656,0.543 3.172,-0.28 4.022,-0.293 0.562,-0.01 2.185,0.739 2.775,0.973 0.093,0.554 0.244,2.457 -0.225,2.901 l -1.085,0.741 c 0.278,0.854 0.063,1.67 0.281,2.52 l 0.411,0.324 c 0.232,0.654 0.362,2.208 -0.031,2.793 0.898,0.279 2.789,0.259 3.361,0.96 l -0.193,0.786 c -0.335,0.293 -0.691,0.577 -1.066,0.817 l -0.087,0.724 -0.593,0.449 c -0.263,-0.023 -0.688,0.089 -0.892,0.264 -0.31,-0.027 -0.773,-0.189 -1.01,-0.399 0.135,-0.361 -0.019,-1.327 -0.093,-1.686 -0.35,0.214 -0.737,0.555 -0.967,0.898 -0.209,0.08 -0.776,-0.244 -0.936,-0.355 -0.476,0.417 -2.546,-0.739 -3.349,-0.524 -0.198,-0.346 -1.759,-0.445 -2.139,-0.499 l -0.15,-0.599 -1.185,-0.156 -0.224,0.262 -0.468,0.05 c -0.51,-0.484 -1.142,-0.987 -1.597,-1.516 -0.736,-0.855 -0.707,-5.972 -0.181,-6.778 0.479,-0.73 1.379,-1.16 1.749,-1.965 z"
   id="path3143"
   inkscape:connector-curvature="0"
   style="fill:#c6ecff;stroke:#0978ab;stroke-width:1.55910003;stroke-linejoin:round;stroke-miterlimit:3.86369991" />
<path
   stroke-miterlimit="3.8637"
   d="m 1411.8497,506.09474 0.792,-0.081 0.187,-0.218 c -0.173,-0.91 0.593,-3.06 1.428,-3.499 0.577,10e-4 2.206,-0.043 2.725,-0.326 0.294,-0.397 1.18,-1.259 1.69,-1.221 l 0.325,0.262 0.012,0.43 c -0.12,0.207 -0.481,0.653 -0.742,0.699 0.332,0.435 1.446,0.549 1.983,0.592 0.404,0.46 1.018,0.66 1.441,1.11 l -0.156,0.362 -0.973,0.306 0.012,0.624 -0.387,0.355 c 0.46,0.083 1.2,-0.142 1.565,-0.418 1.036,0.083 3.089,2.817 2.975,3.642 l 0.499,0.417 0.306,-0.031 c 0.387,0.149 0.837,0.659 1.01,1.023 l -0.019,0.973 c -0.429,1.224 -3.162,1.921 -4.303,1.784 -0.717,-0.086 -1.399,-0.493 -2.158,-0.418 -0.822,0.082 -1.374,0.765 -2.17,0.805 l -0.274,0.604 c -0.916,0.478 -3.173,0.842 -4.247,0.911 l -0.387,0.592 c -0.591,-0.01 -1.461,0.508 -1.783,0.992 l -0.431,0.031 c -0.616,-1.061 0.012,-1.58 0.062,-2.588 0.025,-0.499 -0.173,-1.274 -0.262,-1.756 -0.554,-2.998 -0.507,-3.451 1.28,-5.958 z"
   id="path3145"
   inkscape:connector-curvature="0"
   style="fill:#c6ecff;stroke:#0978ab;stroke-width:1.55910003;stroke-linejoin:round;stroke-miterlimit:3.86369991" />
<path
   stroke-miterlimit="3.8637"
   d="m 901.21966,769.23574 c 0.689,-0.895 1.885,-1.89 2.844,-2.488 0.039,-0.522 0.336,-2.174 0.867,-2.469 0.403,-0.102 0.84,-0.331 1.235,-0.399 0.971,-0.168 2.159,-0.082 3.093,-0.386 0.266,-0.087 0.526,-0.402 0.792,-0.493 0.91,-0.309 1.96,0.08 2.818,-0.112 0.697,-0.156 2.68,-1.043 3.343,-1.528 l 0.149,0.387 c 1.15,0.016 2.425,0.072 3.536,-0.293 0.143,-0.446 0.274,-0.908 0.35,-1.372 0.377,-0.309 1.761,-0.425 2.22,-0.437 l 0.144,-0.43 c 0.247,-0.233 0.786,-0.386 1.116,-0.374 l 0.749,0.357 c 0.905,-0.381 1.888,-0.083 2.818,-0.37 0.079,-0.22 0.372,-0.985 0.555,-1.128 l 0.012,-0.337 0.356,0.2 c 0.23,0.267 0.335,0.855 0.262,1.191 -0.194,0.135 -0.525,0.477 -0.574,0.724 l -0.555,0.093 -0.511,0.661 c 0.527,0.573 0.992,0.782 1.746,0.53 l 0.012,0.723 -0.412,0.355 -0.043,0.892 0.736,1.023 c 0.379,0.001 0.945,0.299 1.172,0.599 l 0.237,0.648 -0.181,0.698 c -0.652,0.629 -1.384,1.296 -2.158,1.777 -0.716,-0.571 -1.67,-0.544 -2.463,-1.066 -1.37,-0.901 -2.83,-1.766 -4.153,-2.731 -0.597,-0.436 -0.883,-1.09 -1.627,-1.41 l -0.618,0.019 c -0.23,0.227 -0.941,0.672 -1.259,0.71 -0.981,0.118 -2.03,-0.036 -3.006,0.137 -0.668,0.119 -1.29,0.415 -1.921,0.647 -1.164,0.428 -2.421,0.785 -3.555,1.28 -2.071,0.904 -5.458,3.275 -6.398,5.5 l -1.627,-0.742 -0.101,-0.586 z"
   id="path3147"
   inkscape:connector-curvature="0"
   style="fill:#c6ecff;stroke:#0978ab;stroke-width:1.55910003;stroke-linejoin:round;stroke-miterlimit:3.86369991" />
<path
   stroke-miterlimit="3.8637"
   d="m 1581.9677,349.75774 0.486,-0.654 1.035,0.437 1.31,-0.324 0.105,-0.437 -1.44,-0.493 c -0.071,-0.659 0.095,-2.957 0.816,-3.318 l 3.243,-0.655 c 0.461,1.113 2.601,1.539 3.617,1.684 l -0.137,0.63 1.091,-0.193 1.035,0.767 0.243,1.578 1.391,1.035 -0.599,0.979 -0.599,-0.112 c -0.388,0.25 -1.22,0.53 -1.69,0.387 l -1.141,0.648 c 0.054,0.524 -0.204,1.373 -0.38,1.852 l -1.553,-0.486 -0.573,0.324 -0.761,-0.68 c -1.016,0.351 -3.401,1.122 -4.496,1.06 -0.43,-0.721 -0.858,-3.182 -1.003,-4.029 z"
   id="path3149"
   inkscape:connector-curvature="0"
   style="fill:#c6ecff;stroke:#0978ab;stroke-width:1.55910003;stroke-linejoin:round;stroke-miterlimit:3.86369991" />
<path
   stroke-miterlimit="3.8637"
   d="m 890.68666,772.63474 c 0.615,-0.037 1.238,-0.084 1.846,-0.187 l 0.031,0.555 c 0.545,0.274 1.609,0.09 2.158,-0.062 l 0.112,-0.293 c 0.417,-0.461 2.916,-1.667 3.58,-2.021 l 0.973,0.125 1.141,-0.773 1.983,0.973 c 0.022,0.072 0.164,0.473 0.162,0.524 -0.009,0.338 -0.159,0.737 -0.206,1.079 -0.157,1.151 -0.163,2.396 -0.087,3.555 l -0.474,0.493 c -1.254,0.034 -2.125,1.071 -3.243,1.191 -0.393,-0.203 -1.082,-0.337 -1.521,-0.249 l -0.474,-0.836 c -0.405,-0.284 -1.667,-0.175 -2.108,-0.093 l -0.442,0.729 -1.952,0.243 -0.779,-0.985 0.062,-0.355 -0.499,-0.493 c -0.161,-0.836 -1.041,-2.428 -0.263,-3.12 z"
   id="path3151"
   inkscape:connector-curvature="0"
   style="fill:#c6ecff;stroke:#0978ab;stroke-width:1.55910003;stroke-linejoin:round;stroke-miterlimit:3.86369991" />
<path
   stroke-miterlimit="3.8637"
   d="m 1285.2827,521.58574 c 0.907,-1.467 0.626,-2.583 2.276,-3.499 0.411,-0.112 1.158,0.098 1.516,0.287 0.46,0.476 0.371,2.15 0.362,2.75 0.707,0.833 1.295,1.949 2.107,2.663 0.233,0.205 1.291,0.451 1.553,0.642 0.374,0.272 0.822,1.01 1.204,1.385 l 1.59,-0.269 c 0.765,0.525 1.586,1.913 1.759,2.825 l -0.237,0.848 c -0.35,0.343 -0.783,0.643 -1.191,0.911 -0.459,-0.062 -1.134,-0.075 -1.565,-0.212 -1.14,-0.363 -2.203,-0.989 -3.367,-1.359 -0.207,-0.065 -0.346,-0.054 -0.53,-0.168 -0.638,-0.398 -1.164,-1.154 -1.784,-1.597 -0.875,-0.625 -1.467,-0.518 -2.232,-1.578 -0.722,-0.998 -1.105,-2.456 -1.461,-3.629 z"
   id="path3153"
   inkscape:connector-curvature="0"
   style="fill:#c6ecff;stroke:#0978ab;stroke-width:1.55910003;stroke-linejoin:round;stroke-miterlimit:3.86369991" />
<path
   stroke-miterlimit="3.8637"
   d="m 1516.4087,363.83274 0.817,-0.954 2.725,0.137 1.765,1.771 -1.634,1.359 0.137,1.771 c 1.248,0.59 2.916,2.298 3.268,3.673 -1.082,1.05 -2.983,2.488 -4.49,2.862 -0.952,-0.877 -2.251,-3.728 -2.451,-4.901 -0.028,-0.163 0.274,-1.983 0.274,-2.313 10e-4,-1.064 -0.282,-2.338 -0.411,-3.405 z"
   id="path3155"
   inkscape:connector-curvature="0"
   style="fill:#c6ecff;stroke:#0978ab;stroke-width:1.55910003;stroke-linejoin:round;stroke-miterlimit:3.86369991" />
<path
   stroke-miterlimit="3.8637"
   d="m 1376.4847,529.69774 0.193,-0.174 c 0.633,-0.101 1.373,0.542 1.759,0.979 l 0.224,-0.711 c 0.452,-0.128 1.1,-0.055 1.541,0.075 0.311,-0.404 1.147,-1.634 1.154,-2.176 l -0.281,-0.904 0.106,-0.43 c 0.445,0.188 1.117,0.215 1.584,0.119 l 0.574,-0.667 0.786,0.486 0.58,-0.1 0.131,-0.773 c 0.972,-0.239 2.116,0.207 2.975,-0.143 0.558,0.229 0.986,0.968 1.054,1.553 -1.603,2.363 -2.874,1.377 -3.953,3.478 -1.44,0.768 -2.531,-0.058 -3.967,0.37 -0.096,0.446 -0.61,1.019 -1.01,1.216 l -0.15,1.391 -1.372,0.486 -0.773,-0.486 c -0.125,-0.201 -1.084,-3.232 -1.155,-3.589 z"
   id="path3157"
   inkscape:connector-curvature="0"
   style="fill:#c6ecff;stroke:#0978ab;stroke-width:1.55910003;stroke-linejoin:round;stroke-miterlimit:3.86369991" />
<path
   stroke-miterlimit="3.8637"
   d="m 960.75466,747.55374 0.131,-0.2 1.016,-0.075 0.013,-0.817 -0.174,-0.156 c 0.095,-0.449 -0.352,-2.512 -0.605,-2.95 0.146,-0.659 0.192,-1.38 0.206,-2.052 l 0.293,-0.156 0.237,0.093 0.368,0.985 0.412,0.25 c 0.243,0.015 0.706,-0.055 0.904,-0.218 l 0.28,0.075 0.162,0.343 -0.074,0.168 c -0.129,-0.145 -0.5,-0.181 -0.674,-0.156 l -0.144,0.206 -0.723,0.087 c -0.175,0.128 -0.343,0.565 -0.393,0.761 0.359,1.144 0.036,2.277 0.468,3.579 l 0.349,-0.137 c 0.374,0.234 1.287,0.274 1.703,0.249 0.449,0.557 2.636,1.28 3.38,1.235 0.636,-0.039 1.244,-0.306 1.902,-0.206 0.812,0.123 1.711,0.464 2.495,0.711 0.341,-0.098 0.807,-0.403 1.017,-0.692 l 0.143,-0.605 c 0.296,-0.128 0.833,-0.133 1.129,0 l 0.193,0.667 -0.499,0.276 -1.147,2.15 -0.686,-0.25 -0.25,0.523 0.511,0.343 -0.467,0.63 -0.63,-0.399 -0.355,0.523 0.281,0.848 -0.218,0.281 -0.605,-0.05 -0.218,0.23 -0.355,-0.056 c -0.176,-0.738 -4.167,-3.667 -4.253,-4.914 -1.016,-0.074 -1.711,-0.558 -2.625,-0.773 -0.789,-0.181 -1.695,-0.237 -2.498,-0.351 z"
   id="path3159"
   inkscape:connector-curvature="0"
   style="fill:#c6ecff;stroke:#0978ab;stroke-width:1.55910003;stroke-linejoin:round;stroke-miterlimit:3.86369991" />
<path
   stroke-miterlimit="3.8637"
   d="m 1086.3977,743.75574 0.056,-0.499 0.455,-0.043 c 0.365,-0.222 1.362,-1.202 1.653,-1.253 l -0.032,-0.736 0.163,-0.306 -0.163,-0.343 c 0.081,-0.378 0.141,-0.764 0.188,-1.147 0.623,-0.11 1.511,-0.095 2.107,0.149 0.402,0.187 0.665,1.507 1.335,2.07 l 0.056,2.126 c -0.354,0.202 -1.142,0.777 -1.291,1.191 l -0.73,0.318 -0.087,0.349 -0.375,0.256 -0.742,-0.648 c -0.67,0.142 -2.414,-0.811 -2.593,-1.484 z"
   id="path3161"
   inkscape:connector-curvature="0"
   style="fill:#c6ecff;stroke:#0978ab;stroke-width:1.55910003;stroke-linejoin:round;stroke-miterlimit:3.86369991" />
<path
   stroke-miterlimit="3.8637"
   d="m 857.82266,770.36474 0.449,-0.574 c 2.355,-1.183 5.013,1.871 7.82,0.462 0.497,-0.25 0.999,-0.823 1.472,-1.142 0.814,-0.548 1.66,-0.92 2.432,-1.571 l -0.043,-0.355 0.324,-0.208 0.393,0.126 c 0.074,-0.425 0.432,-0.979 0.705,-1.297 l -0.144,-0.355 0.262,-0.387 -0.306,-0.567 c 0.129,-0.508 0.541,-1.216 0.954,-1.547 l 0.424,0.431 0.162,0.68 c -0.241,0.278 -0.29,1.252 -0.281,1.59 l 0.293,-0.15 c 0.019,0.214 0.232,0.509 0.412,0.617 l 0.044,0.711 -0.293,0.412 c -1.912,-0.236 -7.778,3.646 -8.057,5.375 -0.17,0.22 -0.643,0.353 -0.904,0.343 l -0.062,0.262 h -1.022 l -0.431,-0.312 -0.143,-0.817 c -0.375,-0.385 -0.897,-0.803 -1.397,-1.016 l -0.206,-0.468 c -0.863,-0.101 -1.889,-0.122 -2.744,0.062 l -0.113,-0.305 z"
   id="path3163"
   inkscape:connector-curvature="0"
   style="fill:#c6ecff;stroke:#0978ab;stroke-width:1.55910003;stroke-linejoin:round;stroke-miterlimit:3.86369991" />
<path
   stroke-miterlimit="3.8637"
   d="m 576.13666,403.24474 c 1.029,-0.492 2.165,-0.251 3.073,-0.761 l 0.955,0.274 c 0.547,0.598 1.228,2.007 1.035,2.856 l -0.486,0.624 -0.817,-0.43 c -0.308,0.797 -0.937,1.815 -1.633,2.338 -1.752,-0.905 -2.421,-3.055 -2.127,-4.901 z"
   id="path3165"
   inkscape:connector-curvature="0"
   style="fill:#c6ecff;stroke:#0978ab;stroke-width:1.55910003;stroke-linejoin:round;stroke-miterlimit:3.86369991" />
<path
   stroke-miterlimit="3.8637"
   d="m 929.10666,760.51174 0.324,-0.355 0.486,0.168 c 0.13,-0.288 0.54,-0.691 0.867,-0.742 l -0.368,-0.861 c 0.048,-0.254 0.32,-0.619 0.567,-0.711 h 0.53 l 0.193,0.325 0.412,-0.112 c 0.08,-0.176 0.233,-0.616 0.187,-0.817 0.577,-0.129 1.125,0.27 1.659,0.437 l 0.411,0.505 0.543,0.156 c 0.14,0.378 0.126,1.017 -0.013,1.391 -0.326,-0.225 -0.686,-0.413 -1.042,-0.586 l -0.605,0.786 0.044,0.755 -0.262,0.28 -0.355,-0.043 -0.424,0.661 -0.705,-0.219 -0.187,-0.523 0.25,-0.568 -0.343,-0.511 -0.306,0.106 -0.237,0.836 -0.449,0.156 -0.312,0.555 -0.393,0.031 -0.43,-0.387 -0.042,-0.713 z"
   id="path3167"
   inkscape:connector-curvature="0"
   style="fill:#c6ecff;stroke:#0978ab;stroke-width:1.55910003;stroke-linejoin:round;stroke-miterlimit:3.86369991" />
<path
   stroke-miterlimit="3.8637"
   d="m 931.57566,721.99874 0.867,-0.031 c 0.526,0.942 1.409,1.681 2.114,2.488 -0.771,0.948 -1.639,1.543 -2.881,1.34 -0.532,-0.786 -0.953,-3.09 -0.1,-3.797 z"
   id="path3169"
   inkscape:connector-curvature="0"
   style="fill:#c6ecff;stroke:#0978ab;stroke-width:1.55910003;stroke-linejoin:round;stroke-miterlimit:3.86369991" />
<path
   stroke-miterlimit="3.8637"
   d="m 832.23666,435.70874 0.244,-0.38 0.405,-0.106 c 0.416,0.255 0.995,0.386 1.366,0.655 0.686,0.498 1.435,1.699 1.303,2.582 l -0.187,0.331 -1.253,0.187 -0.518,-0.355 c -0.232,-0.354 -0.226,-1.188 -0.162,-1.578 l -1.116,-0.624 -0.082,-0.712 z"
   id="path3171"
   inkscape:connector-curvature="0"
   style="fill:#c6ecff;stroke:#0978ab;stroke-width:1.55910003;stroke-linejoin:round;stroke-miterlimit:3.86369991" />
<path
   stroke-miterlimit="3.8637"
   d="m 1092.2847,659.37674 0.399,-0.374 0.499,-0.013 1.042,1.079 -0.25,0.375 -0.954,0.031 c -0.177,-0.387 -0.456,-0.782 -0.736,-1.098 z"
   id="path3173"
   inkscape:connector-curvature="0"
   style="fill:#c6ecff;stroke:#0978ab;stroke-width:1.55910003;stroke-linejoin:round;stroke-miterlimit:3.86369991" />
<path
   stroke-miterlimit="3.8637"
   d="m 1011.4717,725.04174 0.456,-0.075 -0.131,-0.25 c 0.259,-0.128 0.772,-0.11 1.042,-0.045 l 0.312,0.308 0.998,-0.104 -0.312,0.335 c -0.849,0.187 -1.393,0.487 -2.289,0.231 l -0.076,-0.4 z"
   id="path3175"
   inkscape:connector-curvature="0"
   style="fill:#c6ecff;stroke:#0978ab;stroke-width:1.55910003;stroke-linejoin:round;stroke-miterlimit:3.86369991" />
<path
   stroke-miterlimit="3.8637"
   d="m 965.28766,741.92174 0.162,-0.112 0.499,0.019 0.1,0.106 v 0.187 c -0.161,0.085 -0.493,0.114 -0.655,0.013 l -0.106,-0.213 z"
   id="path3177"
   inkscape:connector-curvature="0"
   style="fill:#c6ecff;stroke:#0978ab;stroke-width:1.55910003;stroke-linejoin:round;stroke-miterlimit:3.86369991" />
<path
   stroke-miterlimit="3.8637"
   d="m 964.57166,742.21574 0.1,-0.188 c 0.149,-0.034 0.431,0.01 0.542,0.125 v 0.168 l -0.131,0.125 -0.187,-0.081 -0.25,0.031 -0.074,-0.18 z"
   id="path3179"
   inkscape:connector-curvature="0"
   style="fill:#c6ecff;stroke:#0978ab;stroke-width:1.55910003;stroke-linejoin:round;stroke-miterlimit:3.86369991" />
<text
   xml:space="preserve"
   style="font-size:60px;font-style:normal;font-variant:normal;font-weight:normal;font-stretch:normal;line-height:125%;letter-spacing:0px;word-spacing:0px;fill:#000000;fill-opacity:1;stroke:none;font-family:Arial;-inkscape-font-specification:Arial"
   x="1135.3291"
   y="762.55676"
   id="text3187"
   sodipodi:linespacing="125%"><tspan
     sodipodi:role="line"
     id="tspan3189"
     x="1135.3291"
     y="762.55676"
     style="fill:#000080">Anguilla</tspan></text>
<text
   xml:space="preserve"
   style="font-size:60px;font-style:normal;font-variant:normal;font-weight:normal;font-stretch:normal;line-height:125%;letter-spacing:0px;word-spacing:0px;fill:#000080;fill-opacity:1;stroke:none;font-family:Arial;-inkscape-font-specification:Arial"
   x="483.96246"
   y="716.88885"
   id="text3191"
   sodipodi:linespacing="125%"><tspan
     sodipodi:role="line"
     id="tspan3193"
     x="483.96246"
     y="716.88885"
     style="font-size:50px">Anguillita</tspan></text>
<path
   style="fill:#000080;stroke:#000080;stroke-width:2;stroke-linecap:butt;stroke-linejoin:miter;stroke-miterlimit:4;stroke-opacity:1;stroke-dasharray:none"
   d="m 697.87986,704.87113 108.16051,81.7213"
   id="path3195"
   inkscape:path-effect="#path-effect3197"
   inkscape:original-d="m 697.87986,704.87113 108.16051,81.7213"
   inkscape:connector-curvature="0" /><text
   xml:space="preserve"
   style="font-size:60px;font-style:normal;font-variant:normal;font-weight:normal;font-stretch:normal;line-height:125%;letter-spacing:0px;word-spacing:0px;fill:#000080;fill-opacity:1;stroke:none;font-family:Arial;-inkscape-font-specification:Arial"
   x="314.44321"
   y="476.58237"
   id="text3967"
   sodipodi:linespacing="125%"><tspan
     sodipodi:role="line"
     id="tspan3969"
     x="314.44321"
     y="476.58237"
     style="font-size:50px">Dog Island</tspan></text>
<text
   xml:space="preserve"
   style="font-size:60px;font-style:normal;font-variant:normal;font-weight:normal;font-stretch:normal;line-height:125%;letter-spacing:0px;word-spacing:0px;fill:#000080;fill-opacity:1;stroke:none;font-family:Arial;-inkscape-font-specification:Arial"
   x="799.4306"
   y="304.07635"
   id="text3971"
   sodipodi:linespacing="125%"><tspan
     sodipodi:role="line"
     id="tspan3973"
     x="799.4306"
     y="304.07635"
     style="font-size:50px">Prickly Pear East</tspan></text>
<text
   xml:space="preserve"
   style="font-size:50px;font-style:normal;font-variant:normal;font-weight:normal;font-stretch:normal;line-height:125%;letter-spacing:0px;word-spacing:0px;fill:#000080;fill-opacity:1;stroke:none;font-family:Arial;-inkscape-font-specification:Arial"
   x="277.12881"
   y="557.84125"
   id="text3979"
   sodipodi:linespacing="125%"><tspan
     sodipodi:role="line"
     id="tspan3981"
     x="277.12881"
     y="557.84125">Prickly Pear West</tspan></text>
<path
   style="fill:#000080;stroke:#000080;stroke-width:2;stroke-linecap:butt;stroke-linejoin:miter;stroke-miterlimit:4;stroke-opacity:1;stroke-dasharray:none"
   d="m 679.85311,534.21793 92.53732,-102.1516"
   id="path3987"
   inkscape:path-effect="#path-effect3989"
   inkscape:original-d="m 679.85311,534.21793 92.53732,-102.1516"
   inkscape:connector-curvature="0" /><path
   style="fill:none;stroke:#000080;stroke-width:2;stroke-linecap:butt;stroke-linejoin:miter;stroke-miterlimit:4;stroke-opacity:1;stroke-dasharray:none"
   d="m 839.99075,429.06183 36.95484,-119.5774"
   id="path3991"
   inkscape:path-effect="#path-effect3993"
   inkscape:original-d="m 839.99075,429.06183 36.95484,-119.5774"
   inkscape:connector-curvature="0"
   sodipodi:nodetypes="cc" /><text
   xml:space="preserve"
   style="font-size:50px;font-style:normal;font-variant:normal;font-weight:normal;font-stretch:normal;line-height:125%;letter-spacing:0px;word-spacing:0px;fill:#000080;fill-opacity:1;stroke:none;font-family:Arial;-inkscape-font-specification:Arial"
   x="799.9375"
   y="541.04254"
   id="text3995"
   sodipodi:linespacing="125%"><tspan
     sodipodi:role="line"
     id="tspan3997"
     x="799.9375"
     y="541.04254">Seal Island</tspan></text>
<path
   style="fill:none;stroke:#000080;stroke-width:2;stroke-linecap:butt;stroke-linejoin:miter;stroke-miterlimit:4;stroke-opacity:1;stroke-dasharray:none"
   d="M 910.86208,426.59785 859.8174,507.99866"
   id="path3999"
   inkscape:path-effect="#path-effect4001"
   inkscape:original-d="M 910.86208,426.59785 859.8174,507.99866"
   inkscape:connector-curvature="0"
   sodipodi:nodetypes="cc" /><rect
   style="fill:none;stroke:#666666;stroke-width:3.00000014;stroke-linecap:round;stroke-linejoin:round;stroke-miterlimit:4;stroke-opacity:1;stroke-dasharray:none;stroke-dashoffset:0"
   id="rect4003"
   width="316.62537"
   height="199.09229"
   x="17.13324"
   y="16.133192" /><text
   xml:space="preserve"
   style="font-size:50px;font-style:normal;font-variant:normal;font-weight:normal;font-stretch:normal;line-height:125%;letter-spacing:0px;word-spacing:0px;fill:#000080;fill-opacity:1;stroke:none;font-family:Arial;-inkscape-font-specification:Arial"
   x="691.62634"
   y="227.76312"
   id="text4005"
   sodipodi:linespacing="125%"><tspan
     sodipodi:role="line"
     id="tspan4007"
     x="691.62634"
     y="227.76312">East Cay</tspan></text>
<path
   style="fill:none;stroke:#000080;stroke-width:2.00000009;stroke-linecap:butt;stroke-linejoin:miter;stroke-opacity:1;stroke-miterlimit:4;stroke-dasharray:none"
   d="M 632.13806,361.16109 741.50035,231.36848"
   id="path4009"
   inkscape:path-effect="#path-effect4011"
   inkscape:original-d="M 632.13806,361.16109 741.50035,231.36848"
   inkscape:connector-curvature="0"
   transform="translate(0,-1.3740888e-5)" /><text
   xml:space="preserve"
   style="font-size:50px;font-style:normal;font-variant:normal;font-weight:normal;font-stretch:normal;line-height:125%;letter-spacing:0px;word-spacing:0px;fill:#000080;fill-opacity:1;stroke:none;font-family:Arial;-inkscape-font-specification:Arial"
   x="352.00778"
   y="283.14523"
   id="text4013"
   sodipodi:linespacing="125%"><tspan
     sodipodi:role="line"
     id="tspan4015"
     x="352.00778"
     y="283.14523">Mid Cay</tspan></text>
<path
   style="fill:none;stroke:#000080;stroke-width:2;stroke-linecap:butt;stroke-linejoin:miter;stroke-miterlimit:4;stroke-opacity:1;stroke-dasharray:none"
   d="m 480.98068,293.17721 61.60971,63.52174"
   id="path4017"
   inkscape:path-effect="#path-effect4019"
   inkscape:original-d="m 480.98068,293.17721 61.60971,63.52174"
   inkscape:connector-curvature="0"
   transform="translate(0,-1.3740888e-5)"
   sodipodi:nodetypes="cc" /><path
   style="fill:#fefee9;stroke:#0978ab;stroke-width:1.55900007000000000;stroke-linecap:butt;stroke-linejoin:round;stroke-opacity:1;fill-opacity:1;stroke-miterlimit:4;stroke-dasharray:none"
   d="m 511.57309,390.47808 -2.12447,0 0.42489,2.97426 2.97426,0 0.84979,-1.69958 -2.12447,-1.27468"
   id="path4021"
   inkscape:path-effect="#path-effect4023"
   inkscape:original-d="m 511.57309,390.47808 -2.12447,0 0.42489,2.97426 2.97426,0 0.84979,-1.69958 z"
   inkscape:connector-curvature="0"
   transform="translate(0,-1.3740888e-5)" /><text
   xml:space="preserve"
   style="font-size:50px;font-style:normal;font-variant:normal;font-weight:normal;font-stretch:normal;line-height:125%;letter-spacing:0px;word-spacing:0px;fill:#000080;fill-opacity:1;stroke:none;font-family:Arial;-inkscape-font-specification:Arial"
   x="213.2971"
   y="391.75275"
   id="text4025"
   sodipodi:linespacing="125%"><tspan
     sodipodi:role="line"
     id="tspan4027"
     x="213.2971"
     y="391.75275">West Cay</tspan></text>
<path
   style="fill:none;stroke:#000080;stroke-width:2.00000009;stroke-linecap:butt;stroke-linejoin:miter;stroke-opacity:1;stroke-miterlimit:4;stroke-dasharray:none"
   d="m 435.09206,382.40508 69.68272,9.34768"
   id="path4029"
   inkscape:path-effect="#path-effect4031"
   inkscape:original-d="m 435.09206,382.40508 69.68272,9.34768"
   inkscape:connector-curvature="0"
   transform="translate(0,-1.3740888e-5)" /><path
   style="fill:none;stroke:#000080;stroke-width:2;stroke-linecap:butt;stroke-linejoin:miter;stroke-miterlimit:4;stroke-opacity:1;stroke-dasharray:none"
   d="m 478.4313,443.5899 71.3823,-39.09031"
   id="path4033"
   inkscape:path-effect="#path-effect4035"
   inkscape:original-d="m 478.4313,443.5899 71.3823,-39.09031"
   inkscape:connector-curvature="0"
   transform="translate(0,-1.3740888e-5)"
   sodipodi:nodetypes="cc" /><text
   xml:space="preserve"
   style="font-size:50px;font-style:normal;font-variant:normal;font-weight:normal;font-stretch:normal;line-height:125%;letter-spacing:0px;word-spacing:0px;fill:#000080;fill-opacity:1;stroke:none;font-family:Arial;-inkscape-font-specification:Arial"
   x="1413.9015"
   y="157.53003"
   id="text4037"
   sodipodi:linespacing="125%"><tspan
     sodipodi:role="line"
     id="tspan4039"
     x="1413.9015"
     y="157.53003">Scrub Island</tspan></text>
<path
   style="fill:none;stroke:#000080;stroke-width:2;stroke-linecap:butt;stroke-linejoin:miter;stroke-miterlimit:4;stroke-opacity:1;stroke-dasharray:none"
   d="m 1556.9104,329.31383 19.2285,-164.04344"
   id="path4041"
   inkscape:path-effect="#path-effect4043"
   inkscape:original-d="m 1556.9104,329.31383 19.2285,-164.04344"
   inkscape:connector-curvature="0"
   transform="translate(0,-1.3740888e-5)"
   sodipodi:nodetypes="cc" /><text
   xml:space="preserve"
   style="font-size:50px;font-style:normal;font-variant:normal;font-weight:normal;font-stretch:normal;line-height:125%;letter-spacing:0px;word-spacing:0px;fill:#000080;fill-opacity:1;stroke:none;font-family:Arial;-inkscape-font-specification:Arial"
   x="74.510559"
   y="181.49446"
   id="text4045"
   sodipodi:linespacing="125%"><tspan
     sodipodi:role="line"
     id="tspan4047"
     x="74.510559"
     y="181.49446">Sombrero</tspan></text>
<text
   xml:space="preserve"
   style="font-size:50px;font-style:normal;font-variant:normal;font-weight:normal;font-stretch:normal;line-height:125%;letter-spacing:0px;word-spacing:0px;fill:#000080;fill-opacity:1;stroke:none;font-family:Arial;-inkscape-font-specification:Arial"
   x="1171.8594"
   y="380.70551"
   id="text4049"
   sodipodi:linespacing="125%"><tspan
     sodipodi:role="line"
     id="tspan4051"
     x="1171.8594"
     y="380.70551">Scilly Cay</tspan></text>
<path
   style="fill:none;stroke:#000080;stroke-width:2.00000009;stroke-linecap:butt;stroke-linejoin:miter;stroke-opacity:1;stroke-miterlimit:4;stroke-dasharray:none"
   d="m 1337.9931,387.07892 31.8671,59.06035"
   id="path4053"
   inkscape:path-effect="#path-effect4055"
   inkscape:original-d="m 1337.9931,387.07892 31.8671,59.06035"
   inkscape:connector-curvature="0"
   transform="translate(0,-1.3740888e-5)" /><path
   style="fill:#fefee9;fill-opacity:1;stroke:#0978ab;stroke-width:1.55900002;stroke-linecap:butt;stroke-linejoin:round;stroke-miterlimit:4;stroke-opacity:1;stroke-dasharray:none"
   d="m 994.0409,601.86313 4.46139,10.19747 -2.33692,-0.4249 -2.12447,-3.39916 -2.54937,-2.33692 -2.97426,-1.48713 0,-2.12447 3.39916,0 2.12447,-0.42489"
   id="path4057"
   inkscape:path-effect="#path-effect4059"
   inkscape:original-d="m 994.0409,601.86313 4.46139,10.19747 -2.33692,-0.4249 -2.12447,-3.39916 -2.54937,-2.33692 -2.97426,-1.48713 0,-2.12447 3.39916,0 z"
   inkscape:connector-curvature="0" /><text
   xml:space="preserve"
   style="font-size:50px;font-style:normal;font-variant:normal;font-weight:normal;font-stretch:normal;line-height:125%;letter-spacing:0px;word-spacing:0px;fill:#000080;fill-opacity:1;stroke:none;font-family:Arial;-inkscape-font-specification:Arial"
   x="596.55194"
   y="636.492"
   id="text4061"
   sodipodi:linespacing="125%"><tspan
     sodipodi:role="line"
     id="tspan4063"
     x="596.55194"
     y="636.492">Sandy Island</tspan></text>
<path
   style="fill:none;stroke:#000080;stroke-width:2.00000009;stroke-linecap:butt;stroke-linejoin:miter;stroke-opacity:1;stroke-miterlimit:4;stroke-dasharray:none"
   d="m 887.17991,624.595 101.9747,-15.29621"
   id="path4065"
   inkscape:path-effect="#path-effect4067"
   inkscape:original-d="m 887.17991,624.595 101.9747,-15.29621"
   inkscape:connector-curvature="0"
   transform="translate(0,-1.3740888e-5)" /><path
   style="fill:none;stroke:#0978ab;stroke-width:1.55900007000000000;stroke-linecap:butt;stroke-linejoin:round;stroke-opacity:1;stroke-miterlimit:4;stroke-dasharray:none"
   d="m 1482.0323,539.61608 0.4426,-0.2155 -0.4506,-0.22533 0.01,0.44083"
   id="path4069"
   inkscape:path-effect="#path-effect4071"
   inkscape:original-d="m 1482.0323,539.61608 0.4426,-0.2155 -0.4506,-0.22533 z"
   inkscape:connector-curvature="0"
   transform="translate(0,-1.3740888e-5)" /><text
   xml:space="preserve"
   style="font-size:50px;font-style:normal;font-variant:normal;font-weight:normal;font-stretch:normal;line-height:125%;letter-spacing:0px;word-spacing:0px;fill:#000080;fill-opacity:1;stroke:none;font-family:Arial;-inkscape-font-specification:Arial"
   x="1439.7365"
   y="651.99261"
   id="text4073"
   sodipodi:linespacing="125%"><tspan
     sodipodi:role="line"
     id="tspan4075"
     x="1439.7365"
     y="651.99261">Little Island</tspan></text>
<path
   style="fill:none;stroke:#000080;stroke-width:2;stroke-linecap:butt;stroke-linejoin:miter;stroke-miterlimit:4;stroke-opacity:1;stroke-dasharray:none"
   d="m 1484.6532,541.87926 47.0197,77.06436"
   id="path4077"
   inkscape:path-effect="#path-effect4079"
   inkscape:original-d="m 1484.6532,541.87926 47.0197,77.06436"
   inkscape:connector-curvature="0"
   transform="translate(0,-1.3740888e-5)"
   sodipodi:nodetypes="cc" /><text
   xml:space="preserve"
   style="font-size:50px;font-style:normal;font-variant:normal;font-weight:normal;font-stretch:normal;line-height:125%;letter-spacing:0px;word-spacing:0px;fill:#000080;fill-opacity:1;stroke:none;font-family:Arial;-inkscape-font-specification:Arial"
   x="1098.4301"
   y="226.56133"
   id="text4081"
   sodipodi:linespacing="125%"><tspan
     sodipodi:role="line"
     id="tspan4083"
     x="1098.4301"
     y="226.56133">Little Scrub Island</tspan></text>
<path
   style="fill:none;stroke:#000080;stroke-width:2.00000009;stroke-linecap:butt;stroke-linejoin:miter;stroke-opacity:1;stroke-miterlimit:4;stroke-dasharray:none"
   d="m 1510.0408,325.10758 -129.7926,-93.7391"
   id="path4085"
   inkscape:path-effect="#path-effect4087"
   inkscape:original-d="m 1510.0408,325.10758 -129.7926,-93.7391"
   inkscape:connector-curvature="0"
   transform="translate(0,-1.3740888e-5)" /></svg>