<?xml version="1.0" encoding="utf-8"?>
<!-- Generator: Adobe Illustrator 15.0.0, SVG Export Plug-In . SVG Version: 6.00 Build 0)  -->
<!DOCTYPE svg PUBLIC "-//W3C//DTD SVG 1.1//EN" "http://www.w3.org/Graphics/SVG/1.1/DTD/svg11.dtd">
<svg version="1.1" xmlns="http://www.w3.org/2000/svg" x="0px" y="0px" width="300px" height="300px" viewBox="0 0 300 300">
<path fill="#202125" d="M233.745,230.46v21.212h17.894v-3.03h-14.864v-6.494h7.215v-3.031h-7.215v-5.627h14.287v-3.03H233.745z
	 M143.553,230.46v21.212h3.031V230.46H143.553L143.553,230.46z M154.954,251.673h3.03v-9.524h12.411v9.524h3.03V230.46h-3.03v8.514
	h-12.411v-8.514h-3.03V251.673L154.954,251.673z M200.843,230.46h-3.031v13.276c0,3.03-1.443,5.339-6.349,5.339
	c-4.907,0-6.35-2.309-6.35-5.339V230.46h-2.886v13.276c0,4.041,1.443,8.514,9.236,8.514c7.792,0,9.38-4.473,9.38-8.514V230.46
	L200.843,230.46z M187.711,228.584h2.597v-2.742h-2.597V228.584L187.711,228.584z M192.762,228.584h2.742v-2.742h-2.742V228.584z
	 M46.435,230.46v3.03h7.504v18.182h3.175v-18.182h7.36v-3.03H46.435L46.435,230.46z M70.39,230.46v21.212h3.03V230.46H70.39
	L70.39,230.46z M81.501,230.46v21.212h3.031V230.46H81.501L81.501,230.46z M102.426,243.159h6.638v2.453
	c0,1.732-2.598,3.464-6.35,3.464c-5.484,0-8.658-3.752-8.658-7.793c0-4.617,3.174-8.225,8.947-8.225c3.896,0,5.484,1.876,6.638,3.03
	l2.021-2.309c-1.155-1.154-3.896-3.752-8.947-3.752c-6.783,0-11.689,4.907-11.689,10.967c0,7.359,5.917,11.255,11.544,11.255
	c5.34,0,9.524-2.598,9.524-6.494v-5.627h-9.668V243.159z M127.812,230.46h3.03c3.319,0,6.638,1.587,6.638,5.917
	c0,4.762-3.03,6.205-4.906,6.349l4.474,8.947h-3.463l-4.329-8.803h-1.287h-6.493v8.803h-3.031V230.46H127.812z M127.812,239.84h3.03
	c2.309,0,3.607-1.298,3.607-3.463c0-2.309-1.876-2.886-3.607-2.886h-2.875h-6.493v6.349H127.812z M218.574,230.46h3.03
	c3.319,0,6.35,1.876,6.35,5.772c0,4.618-2.886,6.349-6.35,6.349h-2.868h-6.061v9.091h-3.175V230.46H218.574z M218.574,239.552h3.03
	c2.886,0,3.175-1.876,3.175-3.175c0-1.732-1.01-2.886-3.175-2.886h-2.868h-6.061v6.061H218.574z"/>
<g>
	<path fill="#202125" d="M194.039,180.943c-0.047-0.354,0.071-0.605-0.31-0.758c-0.037-0.018-0.072-0.037-0.114-0.046l-55.41-13.996
		l-0.278,0.002l-45.582,12.146l-0.319,0.115c-0.357,0.111-0.53,0.493-0.546,0.806l-0.285,30.752
		c-0.002,0.236,0.232,0.514,0.465,0.551l57.058,9.077c0.027,0.007,0.054,0.01,0.082,0.013l0.005,0.001
		c0.027,0.004,0.049-0.004,0.075-0.003c0.046-0.001,0.089,0.007,0.139-0.004l0.01-0.002c0.013-0.002,0.025-0.005,0.037-0.009
		l44.833-10.523c0.204-0.048,0.428-0.333,0.426-0.543L194.039,180.943z"/>
	<polygon fill="#FBC481" points="149.949,188.485 149.452,218.362 193.215,208.09 192.938,181.327"/>
	<polygon fill="#FFFFFF" points="148.639,188.553 92.582,179.448 92.304,209.499 148.352,218.415"/>
	<polygon fill="#202125" points="121.907,191.643 143.697,194.529 143.553,198.425 121.763,195.539"/>
	<polygon fill="#CF7500" points="149.179,187.476 190.785,180.565 138.073,167.25 94.694,178.808"/>
</g>
<path fill="#202125" d="M188.332,48.522L141,44.771l-0.132,0.005l-41.271,6.638c-0.029,0.005-0.049,0.018-0.076,0.025
	c-0.01,0.003-0.02,0.005-0.029,0.009c-0.382,0.118-0.506,0.47-0.376,0.74l-7.486,115.321c-0.017,0.256,0.21,0.541,0.464,0.581
	l57.146,9.091c0.364,0.059,0.647-0.189,0.639-0.558l-2.731-121.869l41.209-5.133C189.108,49.528,189.087,48.583,188.332,48.522z"/>
<path fill="#FFFFFF" d="M146.042,54.794L100.2,52.538l-7.436,114.541l55.994,8.908L146.042,54.794z M138.936,161.051l-34.489-2.164
	l2.164-99.569l33.191,2.742L138.936,161.051z"/>
<g>
	<path fill="#F28700" d="M169.095,155.279c-25.253-0.577-48.342-2.742-73.308-2.886c-5.483-0.144-19.193-0.577-21.357-6.349
		c-5.195-14.575,20.347-11.688,27.996-11.833l-2.886-21.357c-18.039,0.433-43.292,5.628-52.672,3.607
		c-3.175-0.721-5.483-3.174-5.483-4.906c0-2.453,2.02-5.483,6.061-6.494c7.504-1.875,27.851-4.762,51.085-5.772l1.443-16.45
		c-6.494-0.433-21.213,1.876-26.12-3.031c-3.896-3.896-2.165-12.987,2.598-14.574c40.55-11.399,68.69,3.03,105.921,1.876
		c9.235-0.289,49.353-14.719,65.948-9.091c4.762,1.588,5.484,9.091,1.587,13.132c-4.762,5.051-14.431,4.185-21.068,4.473
		l-0.145,6.061c2.165,0,4.185,0.144,6.205,0.144c0-0.144,0-0.289,0-0.577c0-1.876,1.732-3.607,3.752-3.607s3.752,1.731,3.752,3.607
		c0,0.289,0,0.721-0.145,0.866c1.155,0.145,2.454,0.289,3.608,0.289c0-0.144,0-0.289,0-0.433c0-2.02,1.731-3.607,3.752-3.607
		s3.752,1.587,3.752,3.607c0,0.578-0.144,1.011-0.289,1.443c1.01,0.144,2.165,0.433,3.03,0.577
		c6.638,3.174,7.071,8.514,5.339,13.276c-1.876,5.05-7.215,6.493-12.41,5.195c-2.165-0.577-2.598-1.443-3.752-3.319
		c-0.145,1.732-0.289,3.175-2.021,4.185c-5.917,3.607-33.046-3.463-37.808-7.503c2.742,14.43,5.051,30.736,39.829,32.612
		c0.433,4.474-2.742,6.638-3.752,7.937c-4.04,4.473-11.544,2.597-17.461,3.896l0.866,4.04c7.648,0.145,26.552-2.741,21.213,11.833
		c-2.02,5.772-15.729,6.205-21.213,6.349C220.613,162.494,173.136,155.423,169.095,155.279z"/>
	<path fill="#FFFFFF" d="M106.755,152.538l0.577-14.863l4.474,14.863H106.755L106.755,152.538z M166.065,155.279
		c1.01,0,2.021,0.144,3.03,0.144c0.289,0,1.01,0,1.876,0.145l-4.618-14.574L166.065,155.279L166.065,155.279z M157.551,154.991
		c1.732,0.145,3.464,0.145,4.907,0.289l-4.474-14.863L157.551,154.991L157.551,154.991z M149.325,154.702
		c1.732,0,3.464,0.144,5.051,0.289l-4.618-14.719L149.325,154.702L149.325,154.702z M133.163,153.836
		c1.731,0.144,3.319,0.144,5.051,0.288l-4.618-14.718L133.163,153.836L133.163,153.836z M124.505,153.403
		c0.288,0,0.721,0,1.154,0.145h3.896l-4.618-14.863L124.505,153.403L124.505,153.403z M115.414,152.971
		c1.731,0.144,3.319,0.144,4.906,0.288h0.289l-4.618-14.863L115.414,152.971L115.414,152.971z M97.952,152.538
		c1.01,0,1.876,0,2.742,0l-2.454-7.504L97.952,152.538L97.952,152.538z M208.347,160.619c1.731,0.288,3.463,0.433,5.05,0.721
		l-4.618-14.574L208.347,160.619L208.347,160.619z M200.122,159.464c1.731,0.289,3.463,0.577,5.051,0.722l-4.474-14.575
		L200.122,159.464L200.122,159.464z M192.329,158.454c1.587,0.145,3.319,0.434,5.05,0.578l-4.762-14.575L192.329,158.454
		L192.329,158.454z M183.238,157.155c1.587,0.145,3.319,0.433,4.906,0.722l-4.473-14.43L183.238,157.155L183.238,157.155z
		 M174.146,155.856c1.443,0.289,3.03,0.433,4.906,0.722l-4.618-14.431L174.146,155.856L174.146,155.856z M141.1,154.269
		l0.433-14.863l4.618,14.863H141.1z"/>
	<path fill="#202125" d="M247.924,87.441c0-0.711,0.534-1.245,1.245-1.245c0.711,0,1.422,0.533,1.422,1.245
		c0,0.711-0.711,1.422-1.422,1.422C248.458,88.863,247.924,88.152,247.924,87.441z M236.919,88.719c0.711,0,1.245-0.534,1.245-1.245
		s-0.534-1.422-1.245-1.422c-0.711,0-1.244,0.711-1.244,1.422S236.208,88.719,236.919,88.719z M240.363,104.732
		c1.331-0.159,2.421-0.459,3.189-0.927c1.386-0.809,1.88-1.885,2.102-3.042c0.859,1.262,1.724,1.831,3.25,2.237
		c0.592,0.148,1.188,0.262,1.784,0.34l1.193,8.981c0.066,0.466,0.529,0.564,0.662,0.051l2.729-9.192
		c2.974-0.658,5.497-2.479,6.7-5.719c1.798-4.944,1.347-10.633-5.622-13.966c-0.806-0.376-1.595-0.479-2.459-0.578
		c0.029-0.29,0.033-0.556,0.033-0.943c0-2.353-2.007-4.16-4.304-4.16c-2.255,0-4.231,1.741-4.302,4.031
		c-0.793-0.028-1.542-0.119-2.336-0.22c-0.013-0.126-0.024-0.255-0.024-0.373c0-2.195-1.993-4.16-4.305-4.16
		c-2.311,0-4.305,1.992-4.305,4.188c-1.646,0.014-3.501,0.207-5.134-0.084c-0.035-0.984,0.03-4.012,0.103-5.037
		c6.445-0.229,16.133,0.527,20.992-4.626l0.287-0.312l2.903-0.078l-1.564-1.955c0.389-0.799,0.669-1.65,0.838-2.516l2.427-1.428
		l-2.24-0.996c-0.043-1.057-0.253-2.084-0.63-3.015l1.836-2.119l-3.12,0.044c-0.672-0.741-1.522-1.319-2.55-1.662
		c-12.899-4.374-40.104,3.239-54.389,6.745c-5.344,1.312-9.516,2.248-11.753,2.318c-18.586,0.576-34.901-2.741-51.632-4.776
		c-16.792-2.042-34.059-2.804-54.435,2.924c-1.187,0.396-2.193,1.199-2.993,2.252L70.472,67.1l1.617,1.99
		c-0.384,0.924-0.654,1.927-0.8,2.952l-2.297,1.216l2.187,1.157c0.046,0.937,0.203,1.855,0.477,2.712l-1.64,2.187h2.706
		c0.222,0.316,0.469,0.613,0.742,0.885c4.988,4.988,19.245,2.886,25.91,3.161L98.021,98.76c-23.05,1.03-43.208,3.891-50.71,5.767
		c-4.249,1.062-6.479,4.286-6.479,7.029c0,2.11,2.63,4.699,5.917,5.446c4.8,1.034,13.57,0.222,23.271-0.875
		c9.547-1.079,20.136-2.453,29.04-2.707l2.736,20.244c-5.365,0.001-19.01-1.176-25.325,2.944l-2.806-0.995l0.866,2.742
		c-0.569,0.725-0.979,1.549-1.191,2.5l-2.282,0.721l2.149,1.612c0.082,0.926,0.31,1.938,0.705,3.046l-1.881,1.887l3.741,0.6
		c4.643,3.822,15.438,4.105,20.008,4.225c24.962,0.145,48.05,2.309,73.3,2.886c2.017,0.072,14.866,1.875,27.756,3.657
		c12.877,1.781,25.9,3.559,28.115,3.559c4.856-0.128,17.136-0.434,20.896-5.219l3.151-0.174l-2.048-2.115
		c0.308-0.955,0.512-1.833,0.622-2.642l2.407-1.8l-2.387-0.753c-0.164-1.14-0.575-2.089-1.18-2.879l0.777-2.459l-2.615,0.826
		c-4.82-3.003-14.09-2.04-19.182-2.064l-0.656-3.062c5.491-1.015,13.125,0.57,17.227-3.972c0.371-0.376,1.051-1.133,1.051-1.133
		c1.956-2.058,3.12-4.197,2.828-7.212c-0.023-0.234-0.285-0.486-0.52-0.499c-1.735-0.093-3.387-0.223-4.961-0.386l-0.369-0.136
		l0.011-5.239c-0.013-0.375-0.391-0.484-0.634-0.165l-2.324,4.176c-1.201-0.559-2.327-1.157-3.377-1.789l-0.889-3.745
		c-0.139-0.451-0.553-0.451-0.659,0.004l-0.696,2.123c-6.671-4.76-9.506-10.697-9.22-15.938l8.492-2.516
		c1.73,0.252,3.395,0.434,4.936,0.525l2.556,8.009c0.129,0.376,0.555,0.433,0.656-0.041L240.363,104.732z M243.846,90.211
		c-1.307,0-2.296,0.989-2.296,2.296c0,1.169,0.804,2.237,1.956,2.415c0.66,3.221,0.852,3.042,1.201,4.552
		c0.089,0.592-0.365,2.591-1.72,3.382c-5.614,3.422-32.345-3.212-37.034-7.19c-0.497-0.421-1.183-0.043-1.062,0.597
		c1.45,7.634,2.784,14.822,8.052,20.938c5.354,6.216,14.675,10.762,31.829,11.762c0.095,2.474-0.958,4.187-2.561,5.873
		c0,0-0.606,0.717-1.109,1.201c-3.771,4.129-11.968,2.56-17.144,3.696c-1.078,0.236,0.127,3.313,0.428,4.626l0.267,9.478
		l2.863-8.999c1.289-0.034,2.719-0.086,4.202-0.107l-0.138,9.106l3.17-9.097c1.143,0.028,2.314,0.093,3.455,0.229l-0.275,7.712
		l3.41-7.094c4.004,1.19,6.641,3.968,4.295,10.371c-1.921,5.488-15.985,5.859-20.7,5.983c-2.114,0-14.995-1.757-27.949-3.548
		c-12.941-1.79-25.85-3.594-27.875-3.667c-25.257-0.577-48.347-2.742-73.315-2.886c-4.799-0.126-18.793-0.509-20.847-5.987
		c-1.44-4.041-0.302-6.658,2.208-8.34c0,0,1.158-0.669,1.407-0.786l3.225,6.718l-0.272-7.746c1.182-0.303,2.453-0.528,3.768-0.692
		l2.998,8.583l-0.272-8.841c1.431-0.097,2.877-0.141,4.285-0.152l2.769,9.138l0.276-9.121c1.076,0.019,2.101,0.048,3.046,0.076
		l2.739,8.901l0.272-8.826l1.037-0.001c0.342-0.006,0.583-0.288,0.537-0.626l-2.886-21.356c-0.034-0.249-0.31-0.485-0.561-0.479
		c-9.034,0.217-19.875,1.625-29.632,2.727c-9.781,1.104-18.328,1.88-22.907,0.894c-3.063-0.696-5.051-3.014-5.051-4.367
		c0-1.858,1.336-4.215,4.145-5.449l3.239,6.748l-0.271-7.601c0.708-0.156,1.494-0.317,2.351-0.483l3.404,7.218l-0.137-7.808
		l2.514-0.409l3.54,7.351l-0.275-7.84l2.514-0.348l3.39,7.322l-0.271-7.725l2.517-0.304l3.526,7.595l-0.274-7.961l2.793-0.292
		l3.687,7.1l-0.275-7.43l2.92-0.261l3.561,7.258l-0.273-7.526l2.827-0.211l3.652,7.304l-0.274-7.531l2.765-0.165l3.57,7.551
		l-0.136-7.731l1.892-0.086c0.242-0.011,0.505-0.262,0.526-0.504l1.443-16.451c0.026-0.301-0.212-0.579-0.514-0.599
		c-6.336-0.422-21.077,1.819-25.766-2.87c-3.657-3.657-1.924-12.225,2.381-13.66l1.591-0.436l3.43,7.271l-0.274-8.066
		c1.421-0.337,2.827-0.644,4.219-0.92l3.126,8.698l-0.276-9.228c1.646-0.284,3.271-0.528,4.88-0.736l2.755,8.954l0.273-9.303
		c1.664-0.169,3.309-0.301,4.939-0.398l0.416,13.165l4.173-13.352c1.665-0.037,3.315-0.041,4.954-0.016l-3.499,15.532l-1.298,23.954
		l4.041-23.81l5.483-13.709l0.668-1.783c1.405,0.073,2.804,0.165,4.195,0.272l-4.575,12.477l-0.289,6.35l-0.866,19.336l0.866-4.618
		l4.185-21.356l5.195-10.102l0.911-1.593c1.585,0.165,3.165,0.345,4.741,0.537l0.198,0.024l-5.417,10.557l-0.433,6.782l-1.01,19.481
		l1.01-5.483l3.896-19.048l6.35-9.957l1.082-1.622l3.479,0.479l-4.561,10.089l-0.289,0.722l-1.01,24.531l1.299-6.927l3.175-15.873
		l6.205-10.534l0.718-1.231l4.353,0.599l-5.071,9.867l-0.288,0.577l-0.722,23.81l1.01-5.339l3.175-16.739l6.206-9.236l1.467-2.201
		c1.537,0.185,3.081,0.359,4.635,0.519L154.521,77.5l-0.577,5.917l-1.876,16.595l1.876-6.349l4.041-14.575l5.917-10.246l1.001-1.668
		c1.094,0.088,2.193,0.167,3.298,0.236L163.9,78.366l-0.289,0.722l-1.01,19.192l1.299-5.051l3.175-12.554l6.061-11.4l0.802-1.604
		c1.576,0.043,3.166,0.063,4.772,0.056l-4.275,10.206l-1.298,8.514l-1.155,6.926l1.155-2.597l4.618-11.256l6.353-12.014
		c1.457-0.196,3.287-0.561,5.396-1.037l-3.782,9.645l-2.454,15.441l5.917-13.854l6.935-12.821l3.944-0.989l-3.577,9.354
		l-1.876,11.111v2.741l5.195-12.121l6.564-12.64c1.676-0.403,3.403-0.809,5.163-1.205l-3.445,8.957l-1.732,10.967v2.886
		l5.195-12.122l5.751-11.923c1.176-0.237,2.356-0.465,3.535-0.681l-2.101,15.687l-0.433,3.174l0.433-1.154l7.02-18.531
		c1.467-0.221,2.919-0.416,4.348-0.578l-0.689,11.028l5.235-11.433c1.163-0.072,2.298-0.115,3.4-0.126l-0.554,9.972l4.844-9.827
		c1.102,0.093,2.152,0.232,3.141,0.423l-2.501,10.557l6.361-9.263c3.151,2.202,3.523,8.143,0.167,11.624
		c-4.63,4.91-14.557,4.036-20.693,4.302c-0.146,0.007-0.438,0.216-0.491,0.353c-0.202,0.522-0.282,5.772-0.169,6.293
		c0.009,0.041,0.167,0.292,0.2,0.318c0.787,0.615,5.68,0.346,6.475,0.346c0.294,0,0.553-0.258,0.553-0.552
		c0-0.144,0.07-0.289,0.07-0.577c0-1.557,1.47-3.055,3.199-3.055s3.199,1.498,3.199,3.055c0,0.289,0.067,0.647,0.067,0.866
		c0,0.246,0.241,0.518,0.484,0.548c1.178,0.147,2.23,0.292,3.409,0.292c0.294,0,0.552-0.258,0.552-0.552
		c0-0.143,0.057-0.284,0.057-0.433c0-1.687,1.456-3.055,3.2-3.055c1.744,0,3.2,1.368,3.2,3.055c0,0.501-0.39,1.86,0.362,1.968
		c0.919,0.131,1.838,0.152,2.696,0.552c6.307,3.016,6.722,8.005,5.057,12.586c-1.738,4.677-6.702,6.113-11.754,4.851
		c-2.038-0.543-2.424-1.456-3.42-3.074c-0.584-1.404-0.903-2.573-1.152-4.038c0.957-0.334,1.679-1.267,1.679-2.311
		C246.287,91.177,245.128,90.211,243.846,90.211z M212.388,134.789l-4.33-3.752l-0.433,0.866l-4.618,8.658l4.618-2.886
		L212.388,134.789z M198.713,119.671l-2.021,19.336l5.484-12.698L198.713,119.671z M180.929,114.153l0.722,24.531l4.329-23.954
		l-5.051-17.894V114.153z M190.794,111.429l-0.722,27.562l5.772-27.129l-5.051-17.749V111.429z M176.744,117.04l-3.607-12.699
		l-1.443-5.051v17.316l1.01,21.213l0.433-2.021L176.744,117.04z M165.055,137.53l3.175-18.326l-4.329-15.44l-0.721-2.309v17.316
		l0.721,6.494L165.055,137.53z M155.675,137.819l3.03-16.739l-4.762-16.739l-0.289-1.01v17.172l0.289,2.598L155.675,137.819z
		 M147.738,136.664l1.587-15.007l-4.762-16.739l-0.288-1.01v17.172l0.288,1.299L147.738,136.664z M139.657,137.242v-15.873
		l-4.474-15.585l-0.578-2.309v17.316l0.578,2.165L139.657,137.242z M130.277,137.963l-0.722-18.038l-4.618-16.018l-0.433-1.731
		v17.172l0.433,1.587L130.277,137.963z M106.178,121.513l5.917,18.615l-0.866-18.038l-5.051-17.749V121.513z M121.041,139.839
		l-0.721-18.038l-4.762-16.739l-0.289-1.01v17.316l0.289,0.866L121.041,139.839z"/>
	<path fill="#FFFFFF" d="M236.361,104.865c1.277,0.022,2.364-0.003,3.261-0.075l-1.203,6.508L236.361,104.865z M252.343,110.609
		l2.146-7.281c-1.048,0.174-2.07,0.199-3.066,0.075L252.343,110.609z M239.323,123.433l-1.95,3.602l1.987,0.412L239.323,123.433z
		 M232.456,122.172l-1.11,3.663l2.062,0.45L232.456,122.172z"/>
</g>
<polygon fill="#FFFFFF" points="146.563,53.714 182.838,49.195 140.978,45.877 104.98,51.667 "/>
<path fill="#202125" d="M146.515,53.72l41.561-5.195c0.323-0.041,0.605,0.197,0.62,0.523l5.484,120.492
	c0.011,0.249-0.218,0.531-0.465,0.571l-44.302,7.07c-0.345,0.055-0.631-0.183-0.639-0.533l-2.742-122.368
	C146.026,54.026,146.263,53.751,146.515,53.72z"/>
<polygon fill="#FBC481" points="147.147,54.754 149.864,175.991 193.053,169.097 187.619,49.696 "/>
<g>
	<polygon fill="#FFFFFF" points="146.114,54.841 146.037,54.802 139.801,62.061 138.936,161.051 148.759,175.993 148.806,175.941"/>
	<line stroke="#202125" stroke-linecap="round" stroke-linejoin="round" stroke-miterlimit="3.8637" x1="139.801" y1="62.267" x2="138.926" y2="160.851"/>
</g>
</svg>
